G04 #@! TF.GenerationSoftware,KiCad,Pcbnew,9.0.3-9.0.3-0~ubuntu24.04.1*
G04 #@! TF.CreationDate,2025-08-16T13:45:43-05:00*
G04 #@! TF.ProjectId,motor_control,6d6f746f-725f-4636-9f6e-74726f6c2e6b,rev?*
G04 #@! TF.SameCoordinates,Original*
G04 #@! TF.FileFunction,Legend,Top*
G04 #@! TF.FilePolarity,Positive*
%FSLAX46Y46*%
G04 Gerber Fmt 4.6, Leading zero omitted, Abs format (unit mm)*
G04 Created by KiCad (PCBNEW 9.0.3-9.0.3-0~ubuntu24.04.1) date 2025-08-16 13:45:43*
%MOMM*%
%LPD*%
G01*
G04 APERTURE LIST*
G04 Aperture macros list*
%AMRoundRect*
0 Rectangle with rounded corners*
0 $1 Rounding radius*
0 $2 $3 $4 $5 $6 $7 $8 $9 X,Y pos of 4 corners*
0 Add a 4 corners polygon primitive as box body*
4,1,4,$2,$3,$4,$5,$6,$7,$8,$9,$2,$3,0*
0 Add four circle primitives for the rounded corners*
1,1,$1+$1,$2,$3*
1,1,$1+$1,$4,$5*
1,1,$1+$1,$6,$7*
1,1,$1+$1,$8,$9*
0 Add four rect primitives between the rounded corners*
20,1,$1+$1,$2,$3,$4,$5,0*
20,1,$1+$1,$4,$5,$6,$7,0*
20,1,$1+$1,$6,$7,$8,$9,0*
20,1,$1+$1,$8,$9,$2,$3,0*%
%AMFreePoly0*
4,1,37,0.800000,0.796148,0.878414,0.796148,1.032228,0.765552,1.177117,0.705537,1.307515,0.618408,1.418408,0.507515,1.505537,0.377117,1.565552,0.232228,1.596148,0.078414,1.596148,-0.078414,1.565552,-0.232228,1.505537,-0.377117,1.418408,-0.507515,1.307515,-0.618408,1.177117,-0.705537,1.032228,-0.765552,0.878414,-0.796148,0.800000,-0.796148,0.800000,-0.800000,-1.400000,-0.800000,
-1.403843,-0.796157,-1.439018,-0.796157,-1.511114,-0.766294,-1.566294,-0.711114,-1.596157,-0.639018,-1.596157,-0.603843,-1.600000,-0.600000,-1.600000,0.600000,-1.596157,0.603843,-1.596157,0.639018,-1.566294,0.711114,-1.511114,0.766294,-1.439018,0.796157,-1.403843,0.796157,-1.400000,0.800000,0.800000,0.800000,0.800000,0.796148,0.800000,0.796148,$1*%
%AMFreePoly1*
4,1,37,1.403843,0.796157,1.439018,0.796157,1.511114,0.766294,1.566294,0.711114,1.596157,0.639018,1.596157,0.603843,1.600000,0.600000,1.600000,-0.600000,1.596157,-0.603843,1.596157,-0.639018,1.566294,-0.711114,1.511114,-0.766294,1.439018,-0.796157,1.403843,-0.796157,1.400000,-0.800000,-0.800000,-0.800000,-0.800000,-0.796148,-0.878414,-0.796148,-1.032228,-0.765552,-1.177117,-0.705537,
-1.307515,-0.618408,-1.418408,-0.507515,-1.505537,-0.377117,-1.565552,-0.232228,-1.596148,-0.078414,-1.596148,0.078414,-1.565552,0.232228,-1.505537,0.377117,-1.418408,0.507515,-1.307515,0.618408,-1.177117,0.705537,-1.032228,0.765552,-0.878414,0.796148,-0.800000,0.796148,-0.800000,0.800000,1.400000,0.800000,1.403843,0.796157,1.403843,0.796157,$1*%
%AMFreePoly2*
4,1,37,0.603843,0.796157,0.639018,0.796157,0.711114,0.766294,0.766294,0.711114,0.796157,0.639018,0.796157,0.603843,0.800000,0.600000,0.800000,-0.600000,0.796157,-0.603843,0.796157,-0.639018,0.766294,-0.711114,0.711114,-0.766294,0.639018,-0.796157,0.603843,-0.796157,0.600000,-0.800000,0.000000,-0.800000,0.000000,-0.796148,-0.078414,-0.796148,-0.232228,-0.765552,-0.377117,-0.705537,
-0.507515,-0.618408,-0.618408,-0.507515,-0.705537,-0.377117,-0.765552,-0.232228,-0.796148,-0.078414,-0.796148,0.078414,-0.765552,0.232228,-0.705537,0.377117,-0.618408,0.507515,-0.507515,0.618408,-0.377117,0.705537,-0.232228,0.765552,-0.078414,0.796148,0.000000,0.796148,0.000000,0.800000,0.600000,0.800000,0.603843,0.796157,0.603843,0.796157,$1*%
%AMFreePoly3*
4,1,37,0.000000,0.796148,0.078414,0.796148,0.232228,0.765552,0.377117,0.705537,0.507515,0.618408,0.618408,0.507515,0.705537,0.377117,0.765552,0.232228,0.796148,0.078414,0.796148,-0.078414,0.765552,-0.232228,0.705537,-0.377117,0.618408,-0.507515,0.507515,-0.618408,0.377117,-0.705537,0.232228,-0.765552,0.078414,-0.796148,0.000000,-0.796148,0.000000,-0.800000,-0.600000,-0.800000,
-0.603843,-0.796157,-0.639018,-0.796157,-0.711114,-0.766294,-0.766294,-0.711114,-0.796157,-0.639018,-0.796157,-0.603843,-0.800000,-0.600000,-0.800000,0.600000,-0.796157,0.603843,-0.796157,0.639018,-0.766294,0.711114,-0.711114,0.766294,-0.639018,0.796157,-0.603843,0.796157,-0.600000,0.800000,0.000000,0.800000,0.000000,0.796148,0.000000,0.796148,$1*%
G04 Aperture macros list end*
%ADD10C,0.100000*%
%ADD11C,0.150000*%
%ADD12C,0.200000*%
%ADD13C,0.120000*%
%ADD14C,0.127000*%
%ADD15C,0.300000*%
%ADD16C,0.000000*%
%ADD17R,1.700000X1.700000*%
%ADD18C,1.700000*%
%ADD19C,1.600000*%
%ADD20C,2.700000*%
%ADD21C,1.734000*%
%ADD22RoundRect,0.102000X-0.780000X-0.780000X0.780000X-0.780000X0.780000X0.780000X-0.780000X0.780000X0*%
%ADD23C,1.764000*%
%ADD24C,2.000000*%
%ADD25C,2.200000*%
%ADD26C,1.850000*%
%ADD27FreePoly0,270.000000*%
%ADD28RoundRect,0.200000X-0.600000X0.600000X-0.600000X-0.600000X0.600000X-0.600000X0.600000X0.600000X0*%
%ADD29RoundRect,0.800000X-0.000010X0.800000X-0.000010X-0.800000X0.000010X-0.800000X0.000010X0.800000X0*%
%ADD30FreePoly1,270.000000*%
%ADD31FreePoly2,270.000000*%
%ADD32FreePoly3,270.000000*%
%ADD33R,1.800000X1.800000*%
%ADD34C,1.800000*%
%ADD35O,1.700000X1.700000*%
G04 APERTURE END LIST*
D10*
X109218169Y-58168323D02*
X109599122Y-58168323D01*
X109141979Y-58396895D02*
X109408646Y-57596895D01*
X109408646Y-57596895D02*
X109675312Y-58396895D01*
X110094360Y-57596895D02*
X110246741Y-57596895D01*
X110246741Y-57596895D02*
X110322931Y-57634990D01*
X110322931Y-57634990D02*
X110399122Y-57711180D01*
X110399122Y-57711180D02*
X110437217Y-57863561D01*
X110437217Y-57863561D02*
X110437217Y-58130228D01*
X110437217Y-58130228D02*
X110399122Y-58282609D01*
X110399122Y-58282609D02*
X110322931Y-58358800D01*
X110322931Y-58358800D02*
X110246741Y-58396895D01*
X110246741Y-58396895D02*
X110094360Y-58396895D01*
X110094360Y-58396895D02*
X110018169Y-58358800D01*
X110018169Y-58358800D02*
X109941979Y-58282609D01*
X109941979Y-58282609D02*
X109903883Y-58130228D01*
X109903883Y-58130228D02*
X109903883Y-57863561D01*
X109903883Y-57863561D02*
X109941979Y-57711180D01*
X109941979Y-57711180D02*
X110018169Y-57634990D01*
X110018169Y-57634990D02*
X110094360Y-57596895D01*
X110741978Y-57673085D02*
X110780074Y-57634990D01*
X110780074Y-57634990D02*
X110856264Y-57596895D01*
X110856264Y-57596895D02*
X111046740Y-57596895D01*
X111046740Y-57596895D02*
X111122931Y-57634990D01*
X111122931Y-57634990D02*
X111161026Y-57673085D01*
X111161026Y-57673085D02*
X111199121Y-57749276D01*
X111199121Y-57749276D02*
X111199121Y-57825466D01*
X111199121Y-57825466D02*
X111161026Y-57939752D01*
X111161026Y-57939752D02*
X110703883Y-58396895D01*
X110703883Y-58396895D02*
X111199121Y-58396895D01*
X98361027Y-75396895D02*
X98627694Y-76196895D01*
X98627694Y-76196895D02*
X98894360Y-75396895D01*
X99161027Y-76196895D02*
X99161027Y-75396895D01*
X99161027Y-75396895D02*
X99427693Y-75968323D01*
X99427693Y-75968323D02*
X99694360Y-75396895D01*
X99694360Y-75396895D02*
X99694360Y-76196895D01*
X100227694Y-75396895D02*
X100380075Y-75396895D01*
X100380075Y-75396895D02*
X100456265Y-75434990D01*
X100456265Y-75434990D02*
X100532456Y-75511180D01*
X100532456Y-75511180D02*
X100570551Y-75663561D01*
X100570551Y-75663561D02*
X100570551Y-75930228D01*
X100570551Y-75930228D02*
X100532456Y-76082609D01*
X100532456Y-76082609D02*
X100456265Y-76158800D01*
X100456265Y-76158800D02*
X100380075Y-76196895D01*
X100380075Y-76196895D02*
X100227694Y-76196895D01*
X100227694Y-76196895D02*
X100151503Y-76158800D01*
X100151503Y-76158800D02*
X100075313Y-76082609D01*
X100075313Y-76082609D02*
X100037217Y-75930228D01*
X100037217Y-75930228D02*
X100037217Y-75663561D01*
X100037217Y-75663561D02*
X100075313Y-75511180D01*
X100075313Y-75511180D02*
X100151503Y-75434990D01*
X100151503Y-75434990D02*
X100227694Y-75396895D01*
X100799122Y-75396895D02*
X101256265Y-75396895D01*
X101027693Y-76196895D02*
X101027693Y-75396895D01*
X96418169Y-58168323D02*
X96799122Y-58168323D01*
X96341979Y-58396895D02*
X96608646Y-57596895D01*
X96608646Y-57596895D02*
X96875312Y-58396895D01*
X97294360Y-57596895D02*
X97446741Y-57596895D01*
X97446741Y-57596895D02*
X97522931Y-57634990D01*
X97522931Y-57634990D02*
X97599122Y-57711180D01*
X97599122Y-57711180D02*
X97637217Y-57863561D01*
X97637217Y-57863561D02*
X97637217Y-58130228D01*
X97637217Y-58130228D02*
X97599122Y-58282609D01*
X97599122Y-58282609D02*
X97522931Y-58358800D01*
X97522931Y-58358800D02*
X97446741Y-58396895D01*
X97446741Y-58396895D02*
X97294360Y-58396895D01*
X97294360Y-58396895D02*
X97218169Y-58358800D01*
X97218169Y-58358800D02*
X97141979Y-58282609D01*
X97141979Y-58282609D02*
X97103883Y-58130228D01*
X97103883Y-58130228D02*
X97103883Y-57863561D01*
X97103883Y-57863561D02*
X97141979Y-57711180D01*
X97141979Y-57711180D02*
X97218169Y-57634990D01*
X97218169Y-57634990D02*
X97294360Y-57596895D01*
X98399121Y-58396895D02*
X97941978Y-58396895D01*
X98170550Y-58396895D02*
X98170550Y-57596895D01*
X98170550Y-57596895D02*
X98094359Y-57711180D01*
X98094359Y-57711180D02*
X98018169Y-57787371D01*
X98018169Y-57787371D02*
X97941978Y-57825466D01*
X106900877Y-65669823D02*
X107281830Y-65669823D01*
X106824687Y-65898395D02*
X107091354Y-65098395D01*
X107091354Y-65098395D02*
X107358020Y-65898395D01*
X107777068Y-65098395D02*
X107929449Y-65098395D01*
X107929449Y-65098395D02*
X108005639Y-65136490D01*
X108005639Y-65136490D02*
X108081830Y-65212680D01*
X108081830Y-65212680D02*
X108119925Y-65365061D01*
X108119925Y-65365061D02*
X108119925Y-65631728D01*
X108119925Y-65631728D02*
X108081830Y-65784109D01*
X108081830Y-65784109D02*
X108005639Y-65860300D01*
X108005639Y-65860300D02*
X107929449Y-65898395D01*
X107929449Y-65898395D02*
X107777068Y-65898395D01*
X107777068Y-65898395D02*
X107700877Y-65860300D01*
X107700877Y-65860300D02*
X107624687Y-65784109D01*
X107624687Y-65784109D02*
X107586591Y-65631728D01*
X107586591Y-65631728D02*
X107586591Y-65365061D01*
X107586591Y-65365061D02*
X107624687Y-65212680D01*
X107624687Y-65212680D02*
X107700877Y-65136490D01*
X107700877Y-65136490D02*
X107777068Y-65098395D01*
X108881829Y-65898395D02*
X108424686Y-65898395D01*
X108653258Y-65898395D02*
X108653258Y-65098395D01*
X108653258Y-65098395D02*
X108577067Y-65212680D01*
X108577067Y-65212680D02*
X108500877Y-65288871D01*
X108500877Y-65288871D02*
X108424686Y-65326966D01*
X106900877Y-68168323D02*
X107281830Y-68168323D01*
X106824687Y-68396895D02*
X107091354Y-67596895D01*
X107091354Y-67596895D02*
X107358020Y-68396895D01*
X107777068Y-67596895D02*
X107929449Y-67596895D01*
X107929449Y-67596895D02*
X108005639Y-67634990D01*
X108005639Y-67634990D02*
X108081830Y-67711180D01*
X108081830Y-67711180D02*
X108119925Y-67863561D01*
X108119925Y-67863561D02*
X108119925Y-68130228D01*
X108119925Y-68130228D02*
X108081830Y-68282609D01*
X108081830Y-68282609D02*
X108005639Y-68358800D01*
X108005639Y-68358800D02*
X107929449Y-68396895D01*
X107929449Y-68396895D02*
X107777068Y-68396895D01*
X107777068Y-68396895D02*
X107700877Y-68358800D01*
X107700877Y-68358800D02*
X107624687Y-68282609D01*
X107624687Y-68282609D02*
X107586591Y-68130228D01*
X107586591Y-68130228D02*
X107586591Y-67863561D01*
X107586591Y-67863561D02*
X107624687Y-67711180D01*
X107624687Y-67711180D02*
X107700877Y-67634990D01*
X107700877Y-67634990D02*
X107777068Y-67596895D01*
X108424686Y-67673085D02*
X108462782Y-67634990D01*
X108462782Y-67634990D02*
X108538972Y-67596895D01*
X108538972Y-67596895D02*
X108729448Y-67596895D01*
X108729448Y-67596895D02*
X108805639Y-67634990D01*
X108805639Y-67634990D02*
X108843734Y-67673085D01*
X108843734Y-67673085D02*
X108881829Y-67749276D01*
X108881829Y-67749276D02*
X108881829Y-67825466D01*
X108881829Y-67825466D02*
X108843734Y-67939752D01*
X108843734Y-67939752D02*
X108386591Y-68396895D01*
X108386591Y-68396895D02*
X108881829Y-68396895D01*
X106840074Y-85334990D02*
X106763884Y-85296895D01*
X106763884Y-85296895D02*
X106649598Y-85296895D01*
X106649598Y-85296895D02*
X106535312Y-85334990D01*
X106535312Y-85334990D02*
X106459122Y-85411180D01*
X106459122Y-85411180D02*
X106421027Y-85487371D01*
X106421027Y-85487371D02*
X106382931Y-85639752D01*
X106382931Y-85639752D02*
X106382931Y-85754038D01*
X106382931Y-85754038D02*
X106421027Y-85906419D01*
X106421027Y-85906419D02*
X106459122Y-85982609D01*
X106459122Y-85982609D02*
X106535312Y-86058800D01*
X106535312Y-86058800D02*
X106649598Y-86096895D01*
X106649598Y-86096895D02*
X106725789Y-86096895D01*
X106725789Y-86096895D02*
X106840074Y-86058800D01*
X106840074Y-86058800D02*
X106878170Y-86020704D01*
X106878170Y-86020704D02*
X106878170Y-85754038D01*
X106878170Y-85754038D02*
X106725789Y-85754038D01*
X107221027Y-86096895D02*
X107221027Y-85296895D01*
X107221027Y-85296895D02*
X107678170Y-86096895D01*
X107678170Y-86096895D02*
X107678170Y-85296895D01*
X108059122Y-86096895D02*
X108059122Y-85296895D01*
X108059122Y-85296895D02*
X108249598Y-85296895D01*
X108249598Y-85296895D02*
X108363884Y-85334990D01*
X108363884Y-85334990D02*
X108440074Y-85411180D01*
X108440074Y-85411180D02*
X108478169Y-85487371D01*
X108478169Y-85487371D02*
X108516265Y-85639752D01*
X108516265Y-85639752D02*
X108516265Y-85754038D01*
X108516265Y-85754038D02*
X108478169Y-85906419D01*
X108478169Y-85906419D02*
X108440074Y-85982609D01*
X108440074Y-85982609D02*
X108363884Y-86058800D01*
X108363884Y-86058800D02*
X108249598Y-86096895D01*
X108249598Y-86096895D02*
X108059122Y-86096895D01*
X98818169Y-65669823D02*
X99199122Y-65669823D01*
X98741979Y-65898395D02*
X99008646Y-65098395D01*
X99008646Y-65098395D02*
X99275312Y-65898395D01*
X99694360Y-65098395D02*
X99846741Y-65098395D01*
X99846741Y-65098395D02*
X99922931Y-65136490D01*
X99922931Y-65136490D02*
X99999122Y-65212680D01*
X99999122Y-65212680D02*
X100037217Y-65365061D01*
X100037217Y-65365061D02*
X100037217Y-65631728D01*
X100037217Y-65631728D02*
X99999122Y-65784109D01*
X99999122Y-65784109D02*
X99922931Y-65860300D01*
X99922931Y-65860300D02*
X99846741Y-65898395D01*
X99846741Y-65898395D02*
X99694360Y-65898395D01*
X99694360Y-65898395D02*
X99618169Y-65860300D01*
X99618169Y-65860300D02*
X99541979Y-65784109D01*
X99541979Y-65784109D02*
X99503883Y-65631728D01*
X99503883Y-65631728D02*
X99503883Y-65365061D01*
X99503883Y-65365061D02*
X99541979Y-65212680D01*
X99541979Y-65212680D02*
X99618169Y-65136490D01*
X99618169Y-65136490D02*
X99694360Y-65098395D01*
X100799121Y-65898395D02*
X100341978Y-65898395D01*
X100570550Y-65898395D02*
X100570550Y-65098395D01*
X100570550Y-65098395D02*
X100494359Y-65212680D01*
X100494359Y-65212680D02*
X100418169Y-65288871D01*
X100418169Y-65288871D02*
X100341978Y-65326966D01*
D11*
X163299609Y-62928571D02*
X163337704Y-62852381D01*
X163337704Y-62852381D02*
X163337704Y-62738095D01*
X163337704Y-62738095D02*
X163299609Y-62623809D01*
X163299609Y-62623809D02*
X163223419Y-62547619D01*
X163223419Y-62547619D02*
X163147228Y-62509524D01*
X163147228Y-62509524D02*
X162994847Y-62471428D01*
X162994847Y-62471428D02*
X162880561Y-62471428D01*
X162880561Y-62471428D02*
X162728180Y-62509524D01*
X162728180Y-62509524D02*
X162651990Y-62547619D01*
X162651990Y-62547619D02*
X162575800Y-62623809D01*
X162575800Y-62623809D02*
X162537704Y-62738095D01*
X162537704Y-62738095D02*
X162537704Y-62814286D01*
X162537704Y-62814286D02*
X162575800Y-62928571D01*
X162575800Y-62928571D02*
X162613895Y-62966667D01*
X162613895Y-62966667D02*
X162880561Y-62966667D01*
X162880561Y-62966667D02*
X162880561Y-62814286D01*
X162537704Y-63309524D02*
X163337704Y-63309524D01*
X163337704Y-63309524D02*
X163337704Y-63614286D01*
X163337704Y-63614286D02*
X163299609Y-63690476D01*
X163299609Y-63690476D02*
X163261514Y-63728571D01*
X163261514Y-63728571D02*
X163185323Y-63766667D01*
X163185323Y-63766667D02*
X163071038Y-63766667D01*
X163071038Y-63766667D02*
X162994847Y-63728571D01*
X162994847Y-63728571D02*
X162956752Y-63690476D01*
X162956752Y-63690476D02*
X162918657Y-63614286D01*
X162918657Y-63614286D02*
X162918657Y-63309524D01*
X163337704Y-64261905D02*
X163337704Y-64338095D01*
X163337704Y-64338095D02*
X163299609Y-64414286D01*
X163299609Y-64414286D02*
X163261514Y-64452381D01*
X163261514Y-64452381D02*
X163185323Y-64490476D01*
X163185323Y-64490476D02*
X163032942Y-64528571D01*
X163032942Y-64528571D02*
X162842466Y-64528571D01*
X162842466Y-64528571D02*
X162690085Y-64490476D01*
X162690085Y-64490476D02*
X162613895Y-64452381D01*
X162613895Y-64452381D02*
X162575800Y-64414286D01*
X162575800Y-64414286D02*
X162537704Y-64338095D01*
X162537704Y-64338095D02*
X162537704Y-64261905D01*
X162537704Y-64261905D02*
X162575800Y-64185714D01*
X162575800Y-64185714D02*
X162613895Y-64147619D01*
X162613895Y-64147619D02*
X162690085Y-64109524D01*
X162690085Y-64109524D02*
X162842466Y-64071428D01*
X162842466Y-64071428D02*
X163032942Y-64071428D01*
X163032942Y-64071428D02*
X163185323Y-64109524D01*
X163185323Y-64109524D02*
X163261514Y-64147619D01*
X163261514Y-64147619D02*
X163299609Y-64185714D01*
X163299609Y-64185714D02*
X163337704Y-64261905D01*
D10*
X99677217Y-85296895D02*
X99296265Y-85296895D01*
X99296265Y-85296895D02*
X99258169Y-85677847D01*
X99258169Y-85677847D02*
X99296265Y-85639752D01*
X99296265Y-85639752D02*
X99372455Y-85601657D01*
X99372455Y-85601657D02*
X99562931Y-85601657D01*
X99562931Y-85601657D02*
X99639122Y-85639752D01*
X99639122Y-85639752D02*
X99677217Y-85677847D01*
X99677217Y-85677847D02*
X99715312Y-85754038D01*
X99715312Y-85754038D02*
X99715312Y-85944514D01*
X99715312Y-85944514D02*
X99677217Y-86020704D01*
X99677217Y-86020704D02*
X99639122Y-86058800D01*
X99639122Y-86058800D02*
X99562931Y-86096895D01*
X99562931Y-86096895D02*
X99372455Y-86096895D01*
X99372455Y-86096895D02*
X99296265Y-86058800D01*
X99296265Y-86058800D02*
X99258169Y-86020704D01*
X99943884Y-85296895D02*
X100210551Y-86096895D01*
X100210551Y-86096895D02*
X100477217Y-85296895D01*
D11*
X91719048Y-89573866D02*
X92480953Y-89573866D01*
X92100000Y-89954819D02*
X92100000Y-89192914D01*
D10*
X101893408Y-86020704D02*
X101855312Y-86058800D01*
X101855312Y-86058800D02*
X101741027Y-86096895D01*
X101741027Y-86096895D02*
X101664836Y-86096895D01*
X101664836Y-86096895D02*
X101550550Y-86058800D01*
X101550550Y-86058800D02*
X101474360Y-85982609D01*
X101474360Y-85982609D02*
X101436265Y-85906419D01*
X101436265Y-85906419D02*
X101398169Y-85754038D01*
X101398169Y-85754038D02*
X101398169Y-85639752D01*
X101398169Y-85639752D02*
X101436265Y-85487371D01*
X101436265Y-85487371D02*
X101474360Y-85411180D01*
X101474360Y-85411180D02*
X101550550Y-85334990D01*
X101550550Y-85334990D02*
X101664836Y-85296895D01*
X101664836Y-85296895D02*
X101741027Y-85296895D01*
X101741027Y-85296895D02*
X101855312Y-85334990D01*
X101855312Y-85334990D02*
X101893408Y-85373085D01*
X102198169Y-85373085D02*
X102236265Y-85334990D01*
X102236265Y-85334990D02*
X102312455Y-85296895D01*
X102312455Y-85296895D02*
X102502931Y-85296895D01*
X102502931Y-85296895D02*
X102579122Y-85334990D01*
X102579122Y-85334990D02*
X102617217Y-85373085D01*
X102617217Y-85373085D02*
X102655312Y-85449276D01*
X102655312Y-85449276D02*
X102655312Y-85525466D01*
X102655312Y-85525466D02*
X102617217Y-85639752D01*
X102617217Y-85639752D02*
X102160074Y-86096895D01*
X102160074Y-86096895D02*
X102655312Y-86096895D01*
X103264836Y-85677847D02*
X103379122Y-85715942D01*
X103379122Y-85715942D02*
X103417217Y-85754038D01*
X103417217Y-85754038D02*
X103455313Y-85830228D01*
X103455313Y-85830228D02*
X103455313Y-85944514D01*
X103455313Y-85944514D02*
X103417217Y-86020704D01*
X103417217Y-86020704D02*
X103379122Y-86058800D01*
X103379122Y-86058800D02*
X103302932Y-86096895D01*
X103302932Y-86096895D02*
X102998170Y-86096895D01*
X102998170Y-86096895D02*
X102998170Y-85296895D01*
X102998170Y-85296895D02*
X103264836Y-85296895D01*
X103264836Y-85296895D02*
X103341027Y-85334990D01*
X103341027Y-85334990D02*
X103379122Y-85373085D01*
X103379122Y-85373085D02*
X103417217Y-85449276D01*
X103417217Y-85449276D02*
X103417217Y-85525466D01*
X103417217Y-85525466D02*
X103379122Y-85601657D01*
X103379122Y-85601657D02*
X103341027Y-85639752D01*
X103341027Y-85639752D02*
X103264836Y-85677847D01*
X103264836Y-85677847D02*
X102998170Y-85677847D01*
X98437217Y-63053633D02*
X99046741Y-63053633D01*
X98741979Y-63358395D02*
X98741979Y-62748871D01*
X99351502Y-62558395D02*
X99846740Y-62558395D01*
X99846740Y-62558395D02*
X99580074Y-62863157D01*
X99580074Y-62863157D02*
X99694359Y-62863157D01*
X99694359Y-62863157D02*
X99770550Y-62901252D01*
X99770550Y-62901252D02*
X99808645Y-62939347D01*
X99808645Y-62939347D02*
X99846740Y-63015538D01*
X99846740Y-63015538D02*
X99846740Y-63206014D01*
X99846740Y-63206014D02*
X99808645Y-63282204D01*
X99808645Y-63282204D02*
X99770550Y-63320300D01*
X99770550Y-63320300D02*
X99694359Y-63358395D01*
X99694359Y-63358395D02*
X99465788Y-63358395D01*
X99465788Y-63358395D02*
X99389597Y-63320300D01*
X99389597Y-63320300D02*
X99351502Y-63282204D01*
X100113407Y-62825061D02*
X100303883Y-63358395D01*
X100303883Y-63358395D02*
X100494360Y-62825061D01*
X100722931Y-62558395D02*
X101218169Y-62558395D01*
X101218169Y-62558395D02*
X100951503Y-62863157D01*
X100951503Y-62863157D02*
X101065788Y-62863157D01*
X101065788Y-62863157D02*
X101141979Y-62901252D01*
X101141979Y-62901252D02*
X101180074Y-62939347D01*
X101180074Y-62939347D02*
X101218169Y-63015538D01*
X101218169Y-63015538D02*
X101218169Y-63206014D01*
X101218169Y-63206014D02*
X101180074Y-63282204D01*
X101180074Y-63282204D02*
X101141979Y-63320300D01*
X101141979Y-63320300D02*
X101065788Y-63358395D01*
X101065788Y-63358395D02*
X100837217Y-63358395D01*
X100837217Y-63358395D02*
X100761026Y-63320300D01*
X100761026Y-63320300D02*
X100722931Y-63282204D01*
X148020704Y-53265788D02*
X148058800Y-53303884D01*
X148058800Y-53303884D02*
X148096895Y-53418169D01*
X148096895Y-53418169D02*
X148096895Y-53494360D01*
X148096895Y-53494360D02*
X148058800Y-53608646D01*
X148058800Y-53608646D02*
X147982609Y-53684836D01*
X147982609Y-53684836D02*
X147906419Y-53722931D01*
X147906419Y-53722931D02*
X147754038Y-53761027D01*
X147754038Y-53761027D02*
X147639752Y-53761027D01*
X147639752Y-53761027D02*
X147487371Y-53722931D01*
X147487371Y-53722931D02*
X147411180Y-53684836D01*
X147411180Y-53684836D02*
X147334990Y-53608646D01*
X147334990Y-53608646D02*
X147296895Y-53494360D01*
X147296895Y-53494360D02*
X147296895Y-53418169D01*
X147296895Y-53418169D02*
X147334990Y-53303884D01*
X147334990Y-53303884D02*
X147373085Y-53265788D01*
X148058800Y-52961027D02*
X148096895Y-52884836D01*
X148096895Y-52884836D02*
X148096895Y-52732455D01*
X148096895Y-52732455D02*
X148058800Y-52656265D01*
X148058800Y-52656265D02*
X147982609Y-52618169D01*
X147982609Y-52618169D02*
X147944514Y-52618169D01*
X147944514Y-52618169D02*
X147868323Y-52656265D01*
X147868323Y-52656265D02*
X147830228Y-52732455D01*
X147830228Y-52732455D02*
X147830228Y-52846741D01*
X147830228Y-52846741D02*
X147792133Y-52922931D01*
X147792133Y-52922931D02*
X147715942Y-52961027D01*
X147715942Y-52961027D02*
X147677847Y-52961027D01*
X147677847Y-52961027D02*
X147601657Y-52922931D01*
X147601657Y-52922931D02*
X147563561Y-52846741D01*
X147563561Y-52846741D02*
X147563561Y-52732455D01*
X147563561Y-52732455D02*
X147601657Y-52656265D01*
X147563561Y-52275312D02*
X148096895Y-52275312D01*
X147639752Y-52275312D02*
X147601657Y-52237217D01*
X147601657Y-52237217D02*
X147563561Y-52161027D01*
X147563561Y-52161027D02*
X147563561Y-52046741D01*
X147563561Y-52046741D02*
X147601657Y-51970550D01*
X147601657Y-51970550D02*
X147677847Y-51932455D01*
X147677847Y-51932455D02*
X148096895Y-51932455D01*
X147296895Y-51399121D02*
X147296895Y-51322931D01*
X147296895Y-51322931D02*
X147334990Y-51246740D01*
X147334990Y-51246740D02*
X147373085Y-51208645D01*
X147373085Y-51208645D02*
X147449276Y-51170550D01*
X147449276Y-51170550D02*
X147601657Y-51132455D01*
X147601657Y-51132455D02*
X147792133Y-51132455D01*
X147792133Y-51132455D02*
X147944514Y-51170550D01*
X147944514Y-51170550D02*
X148020704Y-51208645D01*
X148020704Y-51208645D02*
X148058800Y-51246740D01*
X148058800Y-51246740D02*
X148096895Y-51322931D01*
X148096895Y-51322931D02*
X148096895Y-51399121D01*
X148096895Y-51399121D02*
X148058800Y-51475312D01*
X148058800Y-51475312D02*
X148020704Y-51513407D01*
X148020704Y-51513407D02*
X147944514Y-51551502D01*
X147944514Y-51551502D02*
X147792133Y-51589598D01*
X147792133Y-51589598D02*
X147601657Y-51589598D01*
X147601657Y-51589598D02*
X147449276Y-51551502D01*
X147449276Y-51551502D02*
X147373085Y-51513407D01*
X147373085Y-51513407D02*
X147334990Y-51475312D01*
X147334990Y-51475312D02*
X147296895Y-51399121D01*
X107034210Y-73077847D02*
X107148496Y-73115942D01*
X107148496Y-73115942D02*
X107186591Y-73154038D01*
X107186591Y-73154038D02*
X107224687Y-73230228D01*
X107224687Y-73230228D02*
X107224687Y-73344514D01*
X107224687Y-73344514D02*
X107186591Y-73420704D01*
X107186591Y-73420704D02*
X107148496Y-73458800D01*
X107148496Y-73458800D02*
X107072306Y-73496895D01*
X107072306Y-73496895D02*
X106767544Y-73496895D01*
X106767544Y-73496895D02*
X106767544Y-72696895D01*
X106767544Y-72696895D02*
X107034210Y-72696895D01*
X107034210Y-72696895D02*
X107110401Y-72734990D01*
X107110401Y-72734990D02*
X107148496Y-72773085D01*
X107148496Y-72773085D02*
X107186591Y-72849276D01*
X107186591Y-72849276D02*
X107186591Y-72925466D01*
X107186591Y-72925466D02*
X107148496Y-73001657D01*
X107148496Y-73001657D02*
X107110401Y-73039752D01*
X107110401Y-73039752D02*
X107034210Y-73077847D01*
X107034210Y-73077847D02*
X106767544Y-73077847D01*
X107719925Y-72696895D02*
X107872306Y-72696895D01*
X107872306Y-72696895D02*
X107948496Y-72734990D01*
X107948496Y-72734990D02*
X108024687Y-72811180D01*
X108024687Y-72811180D02*
X108062782Y-72963561D01*
X108062782Y-72963561D02*
X108062782Y-73230228D01*
X108062782Y-73230228D02*
X108024687Y-73382609D01*
X108024687Y-73382609D02*
X107948496Y-73458800D01*
X107948496Y-73458800D02*
X107872306Y-73496895D01*
X107872306Y-73496895D02*
X107719925Y-73496895D01*
X107719925Y-73496895D02*
X107643734Y-73458800D01*
X107643734Y-73458800D02*
X107567544Y-73382609D01*
X107567544Y-73382609D02*
X107529448Y-73230228D01*
X107529448Y-73230228D02*
X107529448Y-72963561D01*
X107529448Y-72963561D02*
X107567544Y-72811180D01*
X107567544Y-72811180D02*
X107643734Y-72734990D01*
X107643734Y-72734990D02*
X107719925Y-72696895D01*
X108824686Y-73496895D02*
X108367543Y-73496895D01*
X108596115Y-73496895D02*
X108596115Y-72696895D01*
X108596115Y-72696895D02*
X108519924Y-72811180D01*
X108519924Y-72811180D02*
X108443734Y-72887371D01*
X108443734Y-72887371D02*
X108367543Y-72925466D01*
X99065788Y-70577847D02*
X99180074Y-70615942D01*
X99180074Y-70615942D02*
X99218169Y-70654038D01*
X99218169Y-70654038D02*
X99256265Y-70730228D01*
X99256265Y-70730228D02*
X99256265Y-70844514D01*
X99256265Y-70844514D02*
X99218169Y-70920704D01*
X99218169Y-70920704D02*
X99180074Y-70958800D01*
X99180074Y-70958800D02*
X99103884Y-70996895D01*
X99103884Y-70996895D02*
X98799122Y-70996895D01*
X98799122Y-70996895D02*
X98799122Y-70196895D01*
X98799122Y-70196895D02*
X99065788Y-70196895D01*
X99065788Y-70196895D02*
X99141979Y-70234990D01*
X99141979Y-70234990D02*
X99180074Y-70273085D01*
X99180074Y-70273085D02*
X99218169Y-70349276D01*
X99218169Y-70349276D02*
X99218169Y-70425466D01*
X99218169Y-70425466D02*
X99180074Y-70501657D01*
X99180074Y-70501657D02*
X99141979Y-70539752D01*
X99141979Y-70539752D02*
X99065788Y-70577847D01*
X99065788Y-70577847D02*
X98799122Y-70577847D01*
X99751503Y-70196895D02*
X99903884Y-70196895D01*
X99903884Y-70196895D02*
X99980074Y-70234990D01*
X99980074Y-70234990D02*
X100056265Y-70311180D01*
X100056265Y-70311180D02*
X100094360Y-70463561D01*
X100094360Y-70463561D02*
X100094360Y-70730228D01*
X100094360Y-70730228D02*
X100056265Y-70882609D01*
X100056265Y-70882609D02*
X99980074Y-70958800D01*
X99980074Y-70958800D02*
X99903884Y-70996895D01*
X99903884Y-70996895D02*
X99751503Y-70996895D01*
X99751503Y-70996895D02*
X99675312Y-70958800D01*
X99675312Y-70958800D02*
X99599122Y-70882609D01*
X99599122Y-70882609D02*
X99561026Y-70730228D01*
X99561026Y-70730228D02*
X99561026Y-70463561D01*
X99561026Y-70463561D02*
X99599122Y-70311180D01*
X99599122Y-70311180D02*
X99675312Y-70234990D01*
X99675312Y-70234990D02*
X99751503Y-70196895D01*
X100399121Y-70273085D02*
X100437217Y-70234990D01*
X100437217Y-70234990D02*
X100513407Y-70196895D01*
X100513407Y-70196895D02*
X100703883Y-70196895D01*
X100703883Y-70196895D02*
X100780074Y-70234990D01*
X100780074Y-70234990D02*
X100818169Y-70273085D01*
X100818169Y-70273085D02*
X100856264Y-70349276D01*
X100856264Y-70349276D02*
X100856264Y-70425466D01*
X100856264Y-70425466D02*
X100818169Y-70539752D01*
X100818169Y-70539752D02*
X100361026Y-70996895D01*
X100361026Y-70996895D02*
X100856264Y-70996895D01*
D11*
X99619048Y-89473866D02*
X100380953Y-89473866D01*
D10*
X143058800Y-53761027D02*
X143096895Y-53646741D01*
X143096895Y-53646741D02*
X143096895Y-53456265D01*
X143096895Y-53456265D02*
X143058800Y-53380074D01*
X143058800Y-53380074D02*
X143020704Y-53341979D01*
X143020704Y-53341979D02*
X142944514Y-53303884D01*
X142944514Y-53303884D02*
X142868323Y-53303884D01*
X142868323Y-53303884D02*
X142792133Y-53341979D01*
X142792133Y-53341979D02*
X142754038Y-53380074D01*
X142754038Y-53380074D02*
X142715942Y-53456265D01*
X142715942Y-53456265D02*
X142677847Y-53608646D01*
X142677847Y-53608646D02*
X142639752Y-53684836D01*
X142639752Y-53684836D02*
X142601657Y-53722931D01*
X142601657Y-53722931D02*
X142525466Y-53761027D01*
X142525466Y-53761027D02*
X142449276Y-53761027D01*
X142449276Y-53761027D02*
X142373085Y-53722931D01*
X142373085Y-53722931D02*
X142334990Y-53684836D01*
X142334990Y-53684836D02*
X142296895Y-53608646D01*
X142296895Y-53608646D02*
X142296895Y-53418169D01*
X142296895Y-53418169D02*
X142334990Y-53303884D01*
X143096895Y-52961026D02*
X142296895Y-52961026D01*
X142296895Y-52961026D02*
X142296895Y-52770550D01*
X142296895Y-52770550D02*
X142334990Y-52656264D01*
X142334990Y-52656264D02*
X142411180Y-52580074D01*
X142411180Y-52580074D02*
X142487371Y-52541979D01*
X142487371Y-52541979D02*
X142639752Y-52503883D01*
X142639752Y-52503883D02*
X142754038Y-52503883D01*
X142754038Y-52503883D02*
X142906419Y-52541979D01*
X142906419Y-52541979D02*
X142982609Y-52580074D01*
X142982609Y-52580074D02*
X143058800Y-52656264D01*
X143058800Y-52656264D02*
X143096895Y-52770550D01*
X143096895Y-52770550D02*
X143096895Y-52961026D01*
X142868323Y-52199122D02*
X142868323Y-51818169D01*
X143096895Y-52275312D02*
X142296895Y-52008645D01*
X142296895Y-52008645D02*
X143096895Y-51741979D01*
X106800765Y-57634990D02*
X106724575Y-57596895D01*
X106724575Y-57596895D02*
X106610289Y-57596895D01*
X106610289Y-57596895D02*
X106496003Y-57634990D01*
X106496003Y-57634990D02*
X106419813Y-57711180D01*
X106419813Y-57711180D02*
X106381718Y-57787371D01*
X106381718Y-57787371D02*
X106343622Y-57939752D01*
X106343622Y-57939752D02*
X106343622Y-58054038D01*
X106343622Y-58054038D02*
X106381718Y-58206419D01*
X106381718Y-58206419D02*
X106419813Y-58282609D01*
X106419813Y-58282609D02*
X106496003Y-58358800D01*
X106496003Y-58358800D02*
X106610289Y-58396895D01*
X106610289Y-58396895D02*
X106686480Y-58396895D01*
X106686480Y-58396895D02*
X106800765Y-58358800D01*
X106800765Y-58358800D02*
X106838861Y-58320704D01*
X106838861Y-58320704D02*
X106838861Y-58054038D01*
X106838861Y-58054038D02*
X106686480Y-58054038D01*
X107181718Y-58396895D02*
X107181718Y-57596895D01*
X107181718Y-57596895D02*
X107638861Y-58396895D01*
X107638861Y-58396895D02*
X107638861Y-57596895D01*
X108019813Y-58396895D02*
X108019813Y-57596895D01*
X108019813Y-57596895D02*
X108210289Y-57596895D01*
X108210289Y-57596895D02*
X108324575Y-57634990D01*
X108324575Y-57634990D02*
X108400765Y-57711180D01*
X108400765Y-57711180D02*
X108438860Y-57787371D01*
X108438860Y-57787371D02*
X108476956Y-57939752D01*
X108476956Y-57939752D02*
X108476956Y-58054038D01*
X108476956Y-58054038D02*
X108438860Y-58206419D01*
X108438860Y-58206419D02*
X108400765Y-58282609D01*
X108400765Y-58282609D02*
X108324575Y-58358800D01*
X108324575Y-58358800D02*
X108210289Y-58396895D01*
X108210289Y-58396895D02*
X108019813Y-58396895D01*
X101854099Y-58320704D02*
X101816003Y-58358800D01*
X101816003Y-58358800D02*
X101701718Y-58396895D01*
X101701718Y-58396895D02*
X101625527Y-58396895D01*
X101625527Y-58396895D02*
X101511241Y-58358800D01*
X101511241Y-58358800D02*
X101435051Y-58282609D01*
X101435051Y-58282609D02*
X101396956Y-58206419D01*
X101396956Y-58206419D02*
X101358860Y-58054038D01*
X101358860Y-58054038D02*
X101358860Y-57939752D01*
X101358860Y-57939752D02*
X101396956Y-57787371D01*
X101396956Y-57787371D02*
X101435051Y-57711180D01*
X101435051Y-57711180D02*
X101511241Y-57634990D01*
X101511241Y-57634990D02*
X101625527Y-57596895D01*
X101625527Y-57596895D02*
X101701718Y-57596895D01*
X101701718Y-57596895D02*
X101816003Y-57634990D01*
X101816003Y-57634990D02*
X101854099Y-57673085D01*
X102158860Y-57673085D02*
X102196956Y-57634990D01*
X102196956Y-57634990D02*
X102273146Y-57596895D01*
X102273146Y-57596895D02*
X102463622Y-57596895D01*
X102463622Y-57596895D02*
X102539813Y-57634990D01*
X102539813Y-57634990D02*
X102577908Y-57673085D01*
X102577908Y-57673085D02*
X102616003Y-57749276D01*
X102616003Y-57749276D02*
X102616003Y-57825466D01*
X102616003Y-57825466D02*
X102577908Y-57939752D01*
X102577908Y-57939752D02*
X102120765Y-58396895D01*
X102120765Y-58396895D02*
X102616003Y-58396895D01*
X102920765Y-58168323D02*
X103301718Y-58168323D01*
X102844575Y-58396895D02*
X103111242Y-57596895D01*
X103111242Y-57596895D02*
X103377908Y-58396895D01*
D11*
X115199609Y-62547618D02*
X115237704Y-62471428D01*
X115237704Y-62471428D02*
X115237704Y-62357142D01*
X115237704Y-62357142D02*
X115199609Y-62242856D01*
X115199609Y-62242856D02*
X115123419Y-62166666D01*
X115123419Y-62166666D02*
X115047228Y-62128571D01*
X115047228Y-62128571D02*
X114894847Y-62090475D01*
X114894847Y-62090475D02*
X114780561Y-62090475D01*
X114780561Y-62090475D02*
X114628180Y-62128571D01*
X114628180Y-62128571D02*
X114551990Y-62166666D01*
X114551990Y-62166666D02*
X114475800Y-62242856D01*
X114475800Y-62242856D02*
X114437704Y-62357142D01*
X114437704Y-62357142D02*
X114437704Y-62433333D01*
X114437704Y-62433333D02*
X114475800Y-62547618D01*
X114475800Y-62547618D02*
X114513895Y-62585714D01*
X114513895Y-62585714D02*
X114780561Y-62585714D01*
X114780561Y-62585714D02*
X114780561Y-62433333D01*
X114437704Y-62928571D02*
X115237704Y-62928571D01*
X115237704Y-62928571D02*
X115237704Y-63233333D01*
X115237704Y-63233333D02*
X115199609Y-63309523D01*
X115199609Y-63309523D02*
X115161514Y-63347618D01*
X115161514Y-63347618D02*
X115085323Y-63385714D01*
X115085323Y-63385714D02*
X114971038Y-63385714D01*
X114971038Y-63385714D02*
X114894847Y-63347618D01*
X114894847Y-63347618D02*
X114856752Y-63309523D01*
X114856752Y-63309523D02*
X114818657Y-63233333D01*
X114818657Y-63233333D02*
X114818657Y-62928571D01*
X114437704Y-64147618D02*
X114437704Y-63690475D01*
X114437704Y-63919047D02*
X115237704Y-63919047D01*
X115237704Y-63919047D02*
X115123419Y-63842856D01*
X115123419Y-63842856D02*
X115047228Y-63766666D01*
X115047228Y-63766666D02*
X115009133Y-63690475D01*
X115237704Y-64871428D02*
X115237704Y-64490476D01*
X115237704Y-64490476D02*
X114856752Y-64452380D01*
X114856752Y-64452380D02*
X114894847Y-64490476D01*
X114894847Y-64490476D02*
X114932942Y-64566666D01*
X114932942Y-64566666D02*
X114932942Y-64757142D01*
X114932942Y-64757142D02*
X114894847Y-64833333D01*
X114894847Y-64833333D02*
X114856752Y-64871428D01*
X114856752Y-64871428D02*
X114780561Y-64909523D01*
X114780561Y-64909523D02*
X114590085Y-64909523D01*
X114590085Y-64909523D02*
X114513895Y-64871428D01*
X114513895Y-64871428D02*
X114475800Y-64833333D01*
X114475800Y-64833333D02*
X114437704Y-64757142D01*
X114437704Y-64757142D02*
X114437704Y-64566666D01*
X114437704Y-64566666D02*
X114475800Y-64490476D01*
X114475800Y-64490476D02*
X114513895Y-64452380D01*
D10*
X107129449Y-60056490D02*
X107053259Y-60018395D01*
X107053259Y-60018395D02*
X106938973Y-60018395D01*
X106938973Y-60018395D02*
X106824687Y-60056490D01*
X106824687Y-60056490D02*
X106748497Y-60132680D01*
X106748497Y-60132680D02*
X106710402Y-60208871D01*
X106710402Y-60208871D02*
X106672306Y-60361252D01*
X106672306Y-60361252D02*
X106672306Y-60475538D01*
X106672306Y-60475538D02*
X106710402Y-60627919D01*
X106710402Y-60627919D02*
X106748497Y-60704109D01*
X106748497Y-60704109D02*
X106824687Y-60780300D01*
X106824687Y-60780300D02*
X106938973Y-60818395D01*
X106938973Y-60818395D02*
X107015164Y-60818395D01*
X107015164Y-60818395D02*
X107129449Y-60780300D01*
X107129449Y-60780300D02*
X107167545Y-60742204D01*
X107167545Y-60742204D02*
X107167545Y-60475538D01*
X107167545Y-60475538D02*
X107015164Y-60475538D01*
X107510402Y-60818395D02*
X107510402Y-60018395D01*
X107510402Y-60018395D02*
X107967545Y-60818395D01*
X107967545Y-60818395D02*
X107967545Y-60018395D01*
X108348497Y-60818395D02*
X108348497Y-60018395D01*
X108348497Y-60018395D02*
X108538973Y-60018395D01*
X108538973Y-60018395D02*
X108653259Y-60056490D01*
X108653259Y-60056490D02*
X108729449Y-60132680D01*
X108729449Y-60132680D02*
X108767544Y-60208871D01*
X108767544Y-60208871D02*
X108805640Y-60361252D01*
X108805640Y-60361252D02*
X108805640Y-60475538D01*
X108805640Y-60475538D02*
X108767544Y-60627919D01*
X108767544Y-60627919D02*
X108729449Y-60704109D01*
X108729449Y-60704109D02*
X108653259Y-60780300D01*
X108653259Y-60780300D02*
X108538973Y-60818395D01*
X108538973Y-60818395D02*
X108348497Y-60818395D01*
X153258800Y-53741980D02*
X153296895Y-53627694D01*
X153296895Y-53627694D02*
X153296895Y-53437218D01*
X153296895Y-53437218D02*
X153258800Y-53361027D01*
X153258800Y-53361027D02*
X153220704Y-53322932D01*
X153220704Y-53322932D02*
X153144514Y-53284837D01*
X153144514Y-53284837D02*
X153068323Y-53284837D01*
X153068323Y-53284837D02*
X152992133Y-53322932D01*
X152992133Y-53322932D02*
X152954038Y-53361027D01*
X152954038Y-53361027D02*
X152915942Y-53437218D01*
X152915942Y-53437218D02*
X152877847Y-53589599D01*
X152877847Y-53589599D02*
X152839752Y-53665789D01*
X152839752Y-53665789D02*
X152801657Y-53703884D01*
X152801657Y-53703884D02*
X152725466Y-53741980D01*
X152725466Y-53741980D02*
X152649276Y-53741980D01*
X152649276Y-53741980D02*
X152573085Y-53703884D01*
X152573085Y-53703884D02*
X152534990Y-53665789D01*
X152534990Y-53665789D02*
X152496895Y-53589599D01*
X152496895Y-53589599D02*
X152496895Y-53399122D01*
X152496895Y-53399122D02*
X152534990Y-53284837D01*
X152496895Y-53056265D02*
X152496895Y-52599122D01*
X153296895Y-52827694D02*
X152496895Y-52827694D01*
X152496895Y-52408646D02*
X153296895Y-51875312D01*
X152496895Y-51875312D02*
X153296895Y-52408646D01*
X152496895Y-51418169D02*
X152496895Y-51341979D01*
X152496895Y-51341979D02*
X152534990Y-51265788D01*
X152534990Y-51265788D02*
X152573085Y-51227693D01*
X152573085Y-51227693D02*
X152649276Y-51189598D01*
X152649276Y-51189598D02*
X152801657Y-51151503D01*
X152801657Y-51151503D02*
X152992133Y-51151503D01*
X152992133Y-51151503D02*
X153144514Y-51189598D01*
X153144514Y-51189598D02*
X153220704Y-51227693D01*
X153220704Y-51227693D02*
X153258800Y-51265788D01*
X153258800Y-51265788D02*
X153296895Y-51341979D01*
X153296895Y-51341979D02*
X153296895Y-51418169D01*
X153296895Y-51418169D02*
X153258800Y-51494360D01*
X153258800Y-51494360D02*
X153220704Y-51532455D01*
X153220704Y-51532455D02*
X153144514Y-51570550D01*
X153144514Y-51570550D02*
X152992133Y-51608646D01*
X152992133Y-51608646D02*
X152801657Y-51608646D01*
X152801657Y-51608646D02*
X152649276Y-51570550D01*
X152649276Y-51570550D02*
X152573085Y-51532455D01*
X152573085Y-51532455D02*
X152534990Y-51494360D01*
X152534990Y-51494360D02*
X152496895Y-51418169D01*
X105681829Y-63053633D02*
X106291353Y-63053633D01*
X105986591Y-63358395D02*
X105986591Y-62748871D01*
X106596114Y-62558395D02*
X107091352Y-62558395D01*
X107091352Y-62558395D02*
X106824686Y-62863157D01*
X106824686Y-62863157D02*
X106938971Y-62863157D01*
X106938971Y-62863157D02*
X107015162Y-62901252D01*
X107015162Y-62901252D02*
X107053257Y-62939347D01*
X107053257Y-62939347D02*
X107091352Y-63015538D01*
X107091352Y-63015538D02*
X107091352Y-63206014D01*
X107091352Y-63206014D02*
X107053257Y-63282204D01*
X107053257Y-63282204D02*
X107015162Y-63320300D01*
X107015162Y-63320300D02*
X106938971Y-63358395D01*
X106938971Y-63358395D02*
X106710400Y-63358395D01*
X106710400Y-63358395D02*
X106634209Y-63320300D01*
X106634209Y-63320300D02*
X106596114Y-63282204D01*
X107358019Y-62825061D02*
X107548495Y-63358395D01*
X107548495Y-63358395D02*
X107738972Y-62825061D01*
X107967543Y-62558395D02*
X108462781Y-62558395D01*
X108462781Y-62558395D02*
X108196115Y-62863157D01*
X108196115Y-62863157D02*
X108310400Y-62863157D01*
X108310400Y-62863157D02*
X108386591Y-62901252D01*
X108386591Y-62901252D02*
X108424686Y-62939347D01*
X108424686Y-62939347D02*
X108462781Y-63015538D01*
X108462781Y-63015538D02*
X108462781Y-63206014D01*
X108462781Y-63206014D02*
X108424686Y-63282204D01*
X108424686Y-63282204D02*
X108386591Y-63320300D01*
X108386591Y-63320300D02*
X108310400Y-63358395D01*
X108310400Y-63358395D02*
X108081829Y-63358395D01*
X108081829Y-63358395D02*
X108005638Y-63320300D01*
X108005638Y-63320300D02*
X107967543Y-63282204D01*
X104394099Y-58320704D02*
X104356003Y-58358800D01*
X104356003Y-58358800D02*
X104241718Y-58396895D01*
X104241718Y-58396895D02*
X104165527Y-58396895D01*
X104165527Y-58396895D02*
X104051241Y-58358800D01*
X104051241Y-58358800D02*
X103975051Y-58282609D01*
X103975051Y-58282609D02*
X103936956Y-58206419D01*
X103936956Y-58206419D02*
X103898860Y-58054038D01*
X103898860Y-58054038D02*
X103898860Y-57939752D01*
X103898860Y-57939752D02*
X103936956Y-57787371D01*
X103936956Y-57787371D02*
X103975051Y-57711180D01*
X103975051Y-57711180D02*
X104051241Y-57634990D01*
X104051241Y-57634990D02*
X104165527Y-57596895D01*
X104165527Y-57596895D02*
X104241718Y-57596895D01*
X104241718Y-57596895D02*
X104356003Y-57634990D01*
X104356003Y-57634990D02*
X104394099Y-57673085D01*
X105156003Y-58396895D02*
X104698860Y-58396895D01*
X104927432Y-58396895D02*
X104927432Y-57596895D01*
X104927432Y-57596895D02*
X104851241Y-57711180D01*
X104851241Y-57711180D02*
X104775051Y-57787371D01*
X104775051Y-57787371D02*
X104698860Y-57825466D01*
X105460765Y-58168323D02*
X105841718Y-58168323D01*
X105384575Y-58396895D02*
X105651242Y-57596895D01*
X105651242Y-57596895D02*
X105917908Y-58396895D01*
X109422931Y-85677847D02*
X109537217Y-85715942D01*
X109537217Y-85715942D02*
X109575312Y-85754038D01*
X109575312Y-85754038D02*
X109613408Y-85830228D01*
X109613408Y-85830228D02*
X109613408Y-85944514D01*
X109613408Y-85944514D02*
X109575312Y-86020704D01*
X109575312Y-86020704D02*
X109537217Y-86058800D01*
X109537217Y-86058800D02*
X109461027Y-86096895D01*
X109461027Y-86096895D02*
X109156265Y-86096895D01*
X109156265Y-86096895D02*
X109156265Y-85296895D01*
X109156265Y-85296895D02*
X109422931Y-85296895D01*
X109422931Y-85296895D02*
X109499122Y-85334990D01*
X109499122Y-85334990D02*
X109537217Y-85373085D01*
X109537217Y-85373085D02*
X109575312Y-85449276D01*
X109575312Y-85449276D02*
X109575312Y-85525466D01*
X109575312Y-85525466D02*
X109537217Y-85601657D01*
X109537217Y-85601657D02*
X109499122Y-85639752D01*
X109499122Y-85639752D02*
X109422931Y-85677847D01*
X109422931Y-85677847D02*
X109156265Y-85677847D01*
X110108646Y-85296895D02*
X110261027Y-85296895D01*
X110261027Y-85296895D02*
X110337217Y-85334990D01*
X110337217Y-85334990D02*
X110413408Y-85411180D01*
X110413408Y-85411180D02*
X110451503Y-85563561D01*
X110451503Y-85563561D02*
X110451503Y-85830228D01*
X110451503Y-85830228D02*
X110413408Y-85982609D01*
X110413408Y-85982609D02*
X110337217Y-86058800D01*
X110337217Y-86058800D02*
X110261027Y-86096895D01*
X110261027Y-86096895D02*
X110108646Y-86096895D01*
X110108646Y-86096895D02*
X110032455Y-86058800D01*
X110032455Y-86058800D02*
X109956265Y-85982609D01*
X109956265Y-85982609D02*
X109918169Y-85830228D01*
X109918169Y-85830228D02*
X109918169Y-85563561D01*
X109918169Y-85563561D02*
X109956265Y-85411180D01*
X109956265Y-85411180D02*
X110032455Y-85334990D01*
X110032455Y-85334990D02*
X110108646Y-85296895D01*
X110756264Y-85373085D02*
X110794360Y-85334990D01*
X110794360Y-85334990D02*
X110870550Y-85296895D01*
X110870550Y-85296895D02*
X111061026Y-85296895D01*
X111061026Y-85296895D02*
X111137217Y-85334990D01*
X111137217Y-85334990D02*
X111175312Y-85373085D01*
X111175312Y-85373085D02*
X111213407Y-85449276D01*
X111213407Y-85449276D02*
X111213407Y-85525466D01*
X111213407Y-85525466D02*
X111175312Y-85639752D01*
X111175312Y-85639752D02*
X110718169Y-86096895D01*
X110718169Y-86096895D02*
X111213407Y-86096895D01*
X107034210Y-70577847D02*
X107148496Y-70615942D01*
X107148496Y-70615942D02*
X107186591Y-70654038D01*
X107186591Y-70654038D02*
X107224687Y-70730228D01*
X107224687Y-70730228D02*
X107224687Y-70844514D01*
X107224687Y-70844514D02*
X107186591Y-70920704D01*
X107186591Y-70920704D02*
X107148496Y-70958800D01*
X107148496Y-70958800D02*
X107072306Y-70996895D01*
X107072306Y-70996895D02*
X106767544Y-70996895D01*
X106767544Y-70996895D02*
X106767544Y-70196895D01*
X106767544Y-70196895D02*
X107034210Y-70196895D01*
X107034210Y-70196895D02*
X107110401Y-70234990D01*
X107110401Y-70234990D02*
X107148496Y-70273085D01*
X107148496Y-70273085D02*
X107186591Y-70349276D01*
X107186591Y-70349276D02*
X107186591Y-70425466D01*
X107186591Y-70425466D02*
X107148496Y-70501657D01*
X107148496Y-70501657D02*
X107110401Y-70539752D01*
X107110401Y-70539752D02*
X107034210Y-70577847D01*
X107034210Y-70577847D02*
X106767544Y-70577847D01*
X107719925Y-70196895D02*
X107872306Y-70196895D01*
X107872306Y-70196895D02*
X107948496Y-70234990D01*
X107948496Y-70234990D02*
X108024687Y-70311180D01*
X108024687Y-70311180D02*
X108062782Y-70463561D01*
X108062782Y-70463561D02*
X108062782Y-70730228D01*
X108062782Y-70730228D02*
X108024687Y-70882609D01*
X108024687Y-70882609D02*
X107948496Y-70958800D01*
X107948496Y-70958800D02*
X107872306Y-70996895D01*
X107872306Y-70996895D02*
X107719925Y-70996895D01*
X107719925Y-70996895D02*
X107643734Y-70958800D01*
X107643734Y-70958800D02*
X107567544Y-70882609D01*
X107567544Y-70882609D02*
X107529448Y-70730228D01*
X107529448Y-70730228D02*
X107529448Y-70463561D01*
X107529448Y-70463561D02*
X107567544Y-70311180D01*
X107567544Y-70311180D02*
X107643734Y-70234990D01*
X107643734Y-70234990D02*
X107719925Y-70196895D01*
X108367543Y-70273085D02*
X108405639Y-70234990D01*
X108405639Y-70234990D02*
X108481829Y-70196895D01*
X108481829Y-70196895D02*
X108672305Y-70196895D01*
X108672305Y-70196895D02*
X108748496Y-70234990D01*
X108748496Y-70234990D02*
X108786591Y-70273085D01*
X108786591Y-70273085D02*
X108824686Y-70349276D01*
X108824686Y-70349276D02*
X108824686Y-70425466D01*
X108824686Y-70425466D02*
X108786591Y-70539752D01*
X108786591Y-70539752D02*
X108329448Y-70996895D01*
X108329448Y-70996895D02*
X108824686Y-70996895D01*
D11*
X163337704Y-73733333D02*
X162537704Y-74000000D01*
X162537704Y-74000000D02*
X163337704Y-74266666D01*
X162956752Y-74799999D02*
X162918657Y-74914285D01*
X162918657Y-74914285D02*
X162880561Y-74952380D01*
X162880561Y-74952380D02*
X162804371Y-74990476D01*
X162804371Y-74990476D02*
X162690085Y-74990476D01*
X162690085Y-74990476D02*
X162613895Y-74952380D01*
X162613895Y-74952380D02*
X162575800Y-74914285D01*
X162575800Y-74914285D02*
X162537704Y-74838095D01*
X162537704Y-74838095D02*
X162537704Y-74533333D01*
X162537704Y-74533333D02*
X163337704Y-74533333D01*
X163337704Y-74533333D02*
X163337704Y-74799999D01*
X163337704Y-74799999D02*
X163299609Y-74876190D01*
X163299609Y-74876190D02*
X163261514Y-74914285D01*
X163261514Y-74914285D02*
X163185323Y-74952380D01*
X163185323Y-74952380D02*
X163109133Y-74952380D01*
X163109133Y-74952380D02*
X163032942Y-74914285D01*
X163032942Y-74914285D02*
X162994847Y-74876190D01*
X162994847Y-74876190D02*
X162956752Y-74799999D01*
X162956752Y-74799999D02*
X162956752Y-74533333D01*
X163337704Y-75333333D02*
X162690085Y-75333333D01*
X162690085Y-75333333D02*
X162613895Y-75371428D01*
X162613895Y-75371428D02*
X162575800Y-75409523D01*
X162575800Y-75409523D02*
X162537704Y-75485714D01*
X162537704Y-75485714D02*
X162537704Y-75638095D01*
X162537704Y-75638095D02*
X162575800Y-75714285D01*
X162575800Y-75714285D02*
X162613895Y-75752380D01*
X162613895Y-75752380D02*
X162690085Y-75790476D01*
X162690085Y-75790476D02*
X163337704Y-75790476D01*
X162575800Y-76133332D02*
X162537704Y-76247618D01*
X162537704Y-76247618D02*
X162537704Y-76438094D01*
X162537704Y-76438094D02*
X162575800Y-76514285D01*
X162575800Y-76514285D02*
X162613895Y-76552380D01*
X162613895Y-76552380D02*
X162690085Y-76590475D01*
X162690085Y-76590475D02*
X162766276Y-76590475D01*
X162766276Y-76590475D02*
X162842466Y-76552380D01*
X162842466Y-76552380D02*
X162880561Y-76514285D01*
X162880561Y-76514285D02*
X162918657Y-76438094D01*
X162918657Y-76438094D02*
X162956752Y-76285713D01*
X162956752Y-76285713D02*
X162994847Y-76209523D01*
X162994847Y-76209523D02*
X163032942Y-76171428D01*
X163032942Y-76171428D02*
X163109133Y-76133332D01*
X163109133Y-76133332D02*
X163185323Y-76133332D01*
X163185323Y-76133332D02*
X163261514Y-76171428D01*
X163261514Y-76171428D02*
X163299609Y-76209523D01*
X163299609Y-76209523D02*
X163337704Y-76285713D01*
X163337704Y-76285713D02*
X163337704Y-76476190D01*
X163337704Y-76476190D02*
X163299609Y-76590475D01*
D10*
X99637908Y-57596895D02*
X99256956Y-57596895D01*
X99256956Y-57596895D02*
X99218860Y-57977847D01*
X99218860Y-57977847D02*
X99256956Y-57939752D01*
X99256956Y-57939752D02*
X99333146Y-57901657D01*
X99333146Y-57901657D02*
X99523622Y-57901657D01*
X99523622Y-57901657D02*
X99599813Y-57939752D01*
X99599813Y-57939752D02*
X99637908Y-57977847D01*
X99637908Y-57977847D02*
X99676003Y-58054038D01*
X99676003Y-58054038D02*
X99676003Y-58244514D01*
X99676003Y-58244514D02*
X99637908Y-58320704D01*
X99637908Y-58320704D02*
X99599813Y-58358800D01*
X99599813Y-58358800D02*
X99523622Y-58396895D01*
X99523622Y-58396895D02*
X99333146Y-58396895D01*
X99333146Y-58396895D02*
X99256956Y-58358800D01*
X99256956Y-58358800D02*
X99218860Y-58320704D01*
X99904575Y-57596895D02*
X100171242Y-58396895D01*
X100171242Y-58396895D02*
X100437908Y-57596895D01*
D12*
X106971427Y-96157275D02*
X106971427Y-95157275D01*
X106971427Y-95157275D02*
X107304760Y-95871560D01*
X107304760Y-95871560D02*
X107638093Y-95157275D01*
X107638093Y-95157275D02*
X107638093Y-96157275D01*
X108257141Y-96157275D02*
X108161903Y-96109656D01*
X108161903Y-96109656D02*
X108114284Y-96062036D01*
X108114284Y-96062036D02*
X108066665Y-95966798D01*
X108066665Y-95966798D02*
X108066665Y-95681084D01*
X108066665Y-95681084D02*
X108114284Y-95585846D01*
X108114284Y-95585846D02*
X108161903Y-95538227D01*
X108161903Y-95538227D02*
X108257141Y-95490608D01*
X108257141Y-95490608D02*
X108399998Y-95490608D01*
X108399998Y-95490608D02*
X108495236Y-95538227D01*
X108495236Y-95538227D02*
X108542855Y-95585846D01*
X108542855Y-95585846D02*
X108590474Y-95681084D01*
X108590474Y-95681084D02*
X108590474Y-95966798D01*
X108590474Y-95966798D02*
X108542855Y-96062036D01*
X108542855Y-96062036D02*
X108495236Y-96109656D01*
X108495236Y-96109656D02*
X108399998Y-96157275D01*
X108399998Y-96157275D02*
X108257141Y-96157275D01*
X108876189Y-95490608D02*
X109257141Y-95490608D01*
X109019046Y-95157275D02*
X109019046Y-96014417D01*
X109019046Y-96014417D02*
X109066665Y-96109656D01*
X109066665Y-96109656D02*
X109161903Y-96157275D01*
X109161903Y-96157275D02*
X109257141Y-96157275D01*
X109733332Y-96157275D02*
X109638094Y-96109656D01*
X109638094Y-96109656D02*
X109590475Y-96062036D01*
X109590475Y-96062036D02*
X109542856Y-95966798D01*
X109542856Y-95966798D02*
X109542856Y-95681084D01*
X109542856Y-95681084D02*
X109590475Y-95585846D01*
X109590475Y-95585846D02*
X109638094Y-95538227D01*
X109638094Y-95538227D02*
X109733332Y-95490608D01*
X109733332Y-95490608D02*
X109876189Y-95490608D01*
X109876189Y-95490608D02*
X109971427Y-95538227D01*
X109971427Y-95538227D02*
X110019046Y-95585846D01*
X110019046Y-95585846D02*
X110066665Y-95681084D01*
X110066665Y-95681084D02*
X110066665Y-95966798D01*
X110066665Y-95966798D02*
X110019046Y-96062036D01*
X110019046Y-96062036D02*
X109971427Y-96109656D01*
X109971427Y-96109656D02*
X109876189Y-96157275D01*
X109876189Y-96157275D02*
X109733332Y-96157275D01*
X110495237Y-96157275D02*
X110495237Y-95490608D01*
X110495237Y-95681084D02*
X110542856Y-95585846D01*
X110542856Y-95585846D02*
X110590475Y-95538227D01*
X110590475Y-95538227D02*
X110685713Y-95490608D01*
X110685713Y-95490608D02*
X110780951Y-95490608D01*
X112447618Y-96062036D02*
X112399999Y-96109656D01*
X112399999Y-96109656D02*
X112257142Y-96157275D01*
X112257142Y-96157275D02*
X112161904Y-96157275D01*
X112161904Y-96157275D02*
X112019047Y-96109656D01*
X112019047Y-96109656D02*
X111923809Y-96014417D01*
X111923809Y-96014417D02*
X111876190Y-95919179D01*
X111876190Y-95919179D02*
X111828571Y-95728703D01*
X111828571Y-95728703D02*
X111828571Y-95585846D01*
X111828571Y-95585846D02*
X111876190Y-95395370D01*
X111876190Y-95395370D02*
X111923809Y-95300132D01*
X111923809Y-95300132D02*
X112019047Y-95204894D01*
X112019047Y-95204894D02*
X112161904Y-95157275D01*
X112161904Y-95157275D02*
X112257142Y-95157275D01*
X112257142Y-95157275D02*
X112399999Y-95204894D01*
X112399999Y-95204894D02*
X112447618Y-95252513D01*
X113019047Y-96157275D02*
X112923809Y-96109656D01*
X112923809Y-96109656D02*
X112876190Y-96062036D01*
X112876190Y-96062036D02*
X112828571Y-95966798D01*
X112828571Y-95966798D02*
X112828571Y-95681084D01*
X112828571Y-95681084D02*
X112876190Y-95585846D01*
X112876190Y-95585846D02*
X112923809Y-95538227D01*
X112923809Y-95538227D02*
X113019047Y-95490608D01*
X113019047Y-95490608D02*
X113161904Y-95490608D01*
X113161904Y-95490608D02*
X113257142Y-95538227D01*
X113257142Y-95538227D02*
X113304761Y-95585846D01*
X113304761Y-95585846D02*
X113352380Y-95681084D01*
X113352380Y-95681084D02*
X113352380Y-95966798D01*
X113352380Y-95966798D02*
X113304761Y-96062036D01*
X113304761Y-96062036D02*
X113257142Y-96109656D01*
X113257142Y-96109656D02*
X113161904Y-96157275D01*
X113161904Y-96157275D02*
X113019047Y-96157275D01*
X113780952Y-95490608D02*
X113780952Y-96157275D01*
X113780952Y-95585846D02*
X113828571Y-95538227D01*
X113828571Y-95538227D02*
X113923809Y-95490608D01*
X113923809Y-95490608D02*
X114066666Y-95490608D01*
X114066666Y-95490608D02*
X114161904Y-95538227D01*
X114161904Y-95538227D02*
X114209523Y-95633465D01*
X114209523Y-95633465D02*
X114209523Y-96157275D01*
X114542857Y-95490608D02*
X114923809Y-95490608D01*
X114685714Y-95157275D02*
X114685714Y-96014417D01*
X114685714Y-96014417D02*
X114733333Y-96109656D01*
X114733333Y-96109656D02*
X114828571Y-96157275D01*
X114828571Y-96157275D02*
X114923809Y-96157275D01*
X115257143Y-96157275D02*
X115257143Y-95490608D01*
X115257143Y-95681084D02*
X115304762Y-95585846D01*
X115304762Y-95585846D02*
X115352381Y-95538227D01*
X115352381Y-95538227D02*
X115447619Y-95490608D01*
X115447619Y-95490608D02*
X115542857Y-95490608D01*
X116019048Y-96157275D02*
X115923810Y-96109656D01*
X115923810Y-96109656D02*
X115876191Y-96062036D01*
X115876191Y-96062036D02*
X115828572Y-95966798D01*
X115828572Y-95966798D02*
X115828572Y-95681084D01*
X115828572Y-95681084D02*
X115876191Y-95585846D01*
X115876191Y-95585846D02*
X115923810Y-95538227D01*
X115923810Y-95538227D02*
X116019048Y-95490608D01*
X116019048Y-95490608D02*
X116161905Y-95490608D01*
X116161905Y-95490608D02*
X116257143Y-95538227D01*
X116257143Y-95538227D02*
X116304762Y-95585846D01*
X116304762Y-95585846D02*
X116352381Y-95681084D01*
X116352381Y-95681084D02*
X116352381Y-95966798D01*
X116352381Y-95966798D02*
X116304762Y-96062036D01*
X116304762Y-96062036D02*
X116257143Y-96109656D01*
X116257143Y-96109656D02*
X116161905Y-96157275D01*
X116161905Y-96157275D02*
X116019048Y-96157275D01*
X116923810Y-96157275D02*
X116828572Y-96109656D01*
X116828572Y-96109656D02*
X116780953Y-96014417D01*
X116780953Y-96014417D02*
X116780953Y-95157275D01*
X109947619Y-96862457D02*
X109995238Y-96814838D01*
X109995238Y-96814838D02*
X110090476Y-96767219D01*
X110090476Y-96767219D02*
X110328571Y-96767219D01*
X110328571Y-96767219D02*
X110423809Y-96814838D01*
X110423809Y-96814838D02*
X110471428Y-96862457D01*
X110471428Y-96862457D02*
X110519047Y-96957695D01*
X110519047Y-96957695D02*
X110519047Y-97052933D01*
X110519047Y-97052933D02*
X110471428Y-97195790D01*
X110471428Y-97195790D02*
X109900000Y-97767219D01*
X109900000Y-97767219D02*
X110519047Y-97767219D01*
X111423809Y-96767219D02*
X110947619Y-96767219D01*
X110947619Y-96767219D02*
X110900000Y-97243409D01*
X110900000Y-97243409D02*
X110947619Y-97195790D01*
X110947619Y-97195790D02*
X111042857Y-97148171D01*
X111042857Y-97148171D02*
X111280952Y-97148171D01*
X111280952Y-97148171D02*
X111376190Y-97195790D01*
X111376190Y-97195790D02*
X111423809Y-97243409D01*
X111423809Y-97243409D02*
X111471428Y-97338647D01*
X111471428Y-97338647D02*
X111471428Y-97576742D01*
X111471428Y-97576742D02*
X111423809Y-97671980D01*
X111423809Y-97671980D02*
X111376190Y-97719600D01*
X111376190Y-97719600D02*
X111280952Y-97767219D01*
X111280952Y-97767219D02*
X111042857Y-97767219D01*
X111042857Y-97767219D02*
X110947619Y-97719600D01*
X110947619Y-97719600D02*
X110900000Y-97671980D01*
X111900000Y-97671980D02*
X111947619Y-97719600D01*
X111947619Y-97719600D02*
X111900000Y-97767219D01*
X111900000Y-97767219D02*
X111852381Y-97719600D01*
X111852381Y-97719600D02*
X111900000Y-97671980D01*
X111900000Y-97671980D02*
X111900000Y-97767219D01*
X112566666Y-96767219D02*
X112661904Y-96767219D01*
X112661904Y-96767219D02*
X112757142Y-96814838D01*
X112757142Y-96814838D02*
X112804761Y-96862457D01*
X112804761Y-96862457D02*
X112852380Y-96957695D01*
X112852380Y-96957695D02*
X112899999Y-97148171D01*
X112899999Y-97148171D02*
X112899999Y-97386266D01*
X112899999Y-97386266D02*
X112852380Y-97576742D01*
X112852380Y-97576742D02*
X112804761Y-97671980D01*
X112804761Y-97671980D02*
X112757142Y-97719600D01*
X112757142Y-97719600D02*
X112661904Y-97767219D01*
X112661904Y-97767219D02*
X112566666Y-97767219D01*
X112566666Y-97767219D02*
X112471428Y-97719600D01*
X112471428Y-97719600D02*
X112423809Y-97671980D01*
X112423809Y-97671980D02*
X112376190Y-97576742D01*
X112376190Y-97576742D02*
X112328571Y-97386266D01*
X112328571Y-97386266D02*
X112328571Y-97148171D01*
X112328571Y-97148171D02*
X112376190Y-96957695D01*
X112376190Y-96957695D02*
X112423809Y-96862457D01*
X112423809Y-96862457D02*
X112471428Y-96814838D01*
X112471428Y-96814838D02*
X112566666Y-96767219D01*
X113471428Y-97195790D02*
X113376190Y-97148171D01*
X113376190Y-97148171D02*
X113328571Y-97100552D01*
X113328571Y-97100552D02*
X113280952Y-97005314D01*
X113280952Y-97005314D02*
X113280952Y-96957695D01*
X113280952Y-96957695D02*
X113328571Y-96862457D01*
X113328571Y-96862457D02*
X113376190Y-96814838D01*
X113376190Y-96814838D02*
X113471428Y-96767219D01*
X113471428Y-96767219D02*
X113661904Y-96767219D01*
X113661904Y-96767219D02*
X113757142Y-96814838D01*
X113757142Y-96814838D02*
X113804761Y-96862457D01*
X113804761Y-96862457D02*
X113852380Y-96957695D01*
X113852380Y-96957695D02*
X113852380Y-97005314D01*
X113852380Y-97005314D02*
X113804761Y-97100552D01*
X113804761Y-97100552D02*
X113757142Y-97148171D01*
X113757142Y-97148171D02*
X113661904Y-97195790D01*
X113661904Y-97195790D02*
X113471428Y-97195790D01*
X113471428Y-97195790D02*
X113376190Y-97243409D01*
X113376190Y-97243409D02*
X113328571Y-97291028D01*
X113328571Y-97291028D02*
X113280952Y-97386266D01*
X113280952Y-97386266D02*
X113280952Y-97576742D01*
X113280952Y-97576742D02*
X113328571Y-97671980D01*
X113328571Y-97671980D02*
X113376190Y-97719600D01*
X113376190Y-97719600D02*
X113471428Y-97767219D01*
X113471428Y-97767219D02*
X113661904Y-97767219D01*
X113661904Y-97767219D02*
X113757142Y-97719600D01*
X113757142Y-97719600D02*
X113804761Y-97671980D01*
X113804761Y-97671980D02*
X113852380Y-97576742D01*
X113852380Y-97576742D02*
X113852380Y-97386266D01*
X113852380Y-97386266D02*
X113804761Y-97291028D01*
X113804761Y-97291028D02*
X113757142Y-97243409D01*
X113757142Y-97243409D02*
X113661904Y-97195790D01*
D10*
X105681830Y-75396895D02*
X105948497Y-76196895D01*
X105948497Y-76196895D02*
X106215163Y-75396895D01*
X106481830Y-76196895D02*
X106481830Y-75396895D01*
X106481830Y-75396895D02*
X106748496Y-75968323D01*
X106748496Y-75968323D02*
X107015163Y-75396895D01*
X107015163Y-75396895D02*
X107015163Y-76196895D01*
X107548497Y-75396895D02*
X107700878Y-75396895D01*
X107700878Y-75396895D02*
X107777068Y-75434990D01*
X107777068Y-75434990D02*
X107853259Y-75511180D01*
X107853259Y-75511180D02*
X107891354Y-75663561D01*
X107891354Y-75663561D02*
X107891354Y-75930228D01*
X107891354Y-75930228D02*
X107853259Y-76082609D01*
X107853259Y-76082609D02*
X107777068Y-76158800D01*
X107777068Y-76158800D02*
X107700878Y-76196895D01*
X107700878Y-76196895D02*
X107548497Y-76196895D01*
X107548497Y-76196895D02*
X107472306Y-76158800D01*
X107472306Y-76158800D02*
X107396116Y-76082609D01*
X107396116Y-76082609D02*
X107358020Y-75930228D01*
X107358020Y-75930228D02*
X107358020Y-75663561D01*
X107358020Y-75663561D02*
X107396116Y-75511180D01*
X107396116Y-75511180D02*
X107472306Y-75434990D01*
X107472306Y-75434990D02*
X107548497Y-75396895D01*
X108119925Y-75396895D02*
X108577068Y-75396895D01*
X108348496Y-76196895D02*
X108348496Y-75396895D01*
X155958800Y-53856265D02*
X155996895Y-53741979D01*
X155996895Y-53741979D02*
X155996895Y-53551503D01*
X155996895Y-53551503D02*
X155958800Y-53475312D01*
X155958800Y-53475312D02*
X155920704Y-53437217D01*
X155920704Y-53437217D02*
X155844514Y-53399122D01*
X155844514Y-53399122D02*
X155768323Y-53399122D01*
X155768323Y-53399122D02*
X155692133Y-53437217D01*
X155692133Y-53437217D02*
X155654038Y-53475312D01*
X155654038Y-53475312D02*
X155615942Y-53551503D01*
X155615942Y-53551503D02*
X155577847Y-53703884D01*
X155577847Y-53703884D02*
X155539752Y-53780074D01*
X155539752Y-53780074D02*
X155501657Y-53818169D01*
X155501657Y-53818169D02*
X155425466Y-53856265D01*
X155425466Y-53856265D02*
X155349276Y-53856265D01*
X155349276Y-53856265D02*
X155273085Y-53818169D01*
X155273085Y-53818169D02*
X155234990Y-53780074D01*
X155234990Y-53780074D02*
X155196895Y-53703884D01*
X155196895Y-53703884D02*
X155196895Y-53513407D01*
X155196895Y-53513407D02*
X155234990Y-53399122D01*
X155920704Y-52599121D02*
X155958800Y-52637217D01*
X155958800Y-52637217D02*
X155996895Y-52751502D01*
X155996895Y-52751502D02*
X155996895Y-52827693D01*
X155996895Y-52827693D02*
X155958800Y-52941979D01*
X155958800Y-52941979D02*
X155882609Y-53018169D01*
X155882609Y-53018169D02*
X155806419Y-53056264D01*
X155806419Y-53056264D02*
X155654038Y-53094360D01*
X155654038Y-53094360D02*
X155539752Y-53094360D01*
X155539752Y-53094360D02*
X155387371Y-53056264D01*
X155387371Y-53056264D02*
X155311180Y-53018169D01*
X155311180Y-53018169D02*
X155234990Y-52941979D01*
X155234990Y-52941979D02*
X155196895Y-52827693D01*
X155196895Y-52827693D02*
X155196895Y-52751502D01*
X155196895Y-52751502D02*
X155234990Y-52637217D01*
X155234990Y-52637217D02*
X155273085Y-52599121D01*
X155996895Y-52256264D02*
X155196895Y-52256264D01*
X155996895Y-51799121D02*
X155539752Y-52141979D01*
X155196895Y-51799121D02*
X155654038Y-52256264D01*
X155196895Y-51303883D02*
X155196895Y-51227693D01*
X155196895Y-51227693D02*
X155234990Y-51151502D01*
X155234990Y-51151502D02*
X155273085Y-51113407D01*
X155273085Y-51113407D02*
X155349276Y-51075312D01*
X155349276Y-51075312D02*
X155501657Y-51037217D01*
X155501657Y-51037217D02*
X155692133Y-51037217D01*
X155692133Y-51037217D02*
X155844514Y-51075312D01*
X155844514Y-51075312D02*
X155920704Y-51113407D01*
X155920704Y-51113407D02*
X155958800Y-51151502D01*
X155958800Y-51151502D02*
X155996895Y-51227693D01*
X155996895Y-51227693D02*
X155996895Y-51303883D01*
X155996895Y-51303883D02*
X155958800Y-51380074D01*
X155958800Y-51380074D02*
X155920704Y-51418169D01*
X155920704Y-51418169D02*
X155844514Y-51456264D01*
X155844514Y-51456264D02*
X155692133Y-51494360D01*
X155692133Y-51494360D02*
X155501657Y-51494360D01*
X155501657Y-51494360D02*
X155349276Y-51456264D01*
X155349276Y-51456264D02*
X155273085Y-51418169D01*
X155273085Y-51418169D02*
X155234990Y-51380074D01*
X155234990Y-51380074D02*
X155196895Y-51303883D01*
X150658800Y-53837218D02*
X150696895Y-53722932D01*
X150696895Y-53722932D02*
X150696895Y-53532456D01*
X150696895Y-53532456D02*
X150658800Y-53456265D01*
X150658800Y-53456265D02*
X150620704Y-53418170D01*
X150620704Y-53418170D02*
X150544514Y-53380075D01*
X150544514Y-53380075D02*
X150468323Y-53380075D01*
X150468323Y-53380075D02*
X150392133Y-53418170D01*
X150392133Y-53418170D02*
X150354038Y-53456265D01*
X150354038Y-53456265D02*
X150315942Y-53532456D01*
X150315942Y-53532456D02*
X150277847Y-53684837D01*
X150277847Y-53684837D02*
X150239752Y-53761027D01*
X150239752Y-53761027D02*
X150201657Y-53799122D01*
X150201657Y-53799122D02*
X150125466Y-53837218D01*
X150125466Y-53837218D02*
X150049276Y-53837218D01*
X150049276Y-53837218D02*
X149973085Y-53799122D01*
X149973085Y-53799122D02*
X149934990Y-53761027D01*
X149934990Y-53761027D02*
X149896895Y-53684837D01*
X149896895Y-53684837D02*
X149896895Y-53494360D01*
X149896895Y-53494360D02*
X149934990Y-53380075D01*
X150696895Y-52580074D02*
X150315942Y-52846741D01*
X150696895Y-53037217D02*
X149896895Y-53037217D01*
X149896895Y-53037217D02*
X149896895Y-52732455D01*
X149896895Y-52732455D02*
X149934990Y-52656265D01*
X149934990Y-52656265D02*
X149973085Y-52618170D01*
X149973085Y-52618170D02*
X150049276Y-52580074D01*
X150049276Y-52580074D02*
X150163561Y-52580074D01*
X150163561Y-52580074D02*
X150239752Y-52618170D01*
X150239752Y-52618170D02*
X150277847Y-52656265D01*
X150277847Y-52656265D02*
X150315942Y-52732455D01*
X150315942Y-52732455D02*
X150315942Y-53037217D01*
X149896895Y-52313408D02*
X150696895Y-51780074D01*
X149896895Y-51780074D02*
X150696895Y-52313408D01*
X149896895Y-51322931D02*
X149896895Y-51246741D01*
X149896895Y-51246741D02*
X149934990Y-51170550D01*
X149934990Y-51170550D02*
X149973085Y-51132455D01*
X149973085Y-51132455D02*
X150049276Y-51094360D01*
X150049276Y-51094360D02*
X150201657Y-51056265D01*
X150201657Y-51056265D02*
X150392133Y-51056265D01*
X150392133Y-51056265D02*
X150544514Y-51094360D01*
X150544514Y-51094360D02*
X150620704Y-51132455D01*
X150620704Y-51132455D02*
X150658800Y-51170550D01*
X150658800Y-51170550D02*
X150696895Y-51246741D01*
X150696895Y-51246741D02*
X150696895Y-51322931D01*
X150696895Y-51322931D02*
X150658800Y-51399122D01*
X150658800Y-51399122D02*
X150620704Y-51437217D01*
X150620704Y-51437217D02*
X150544514Y-51475312D01*
X150544514Y-51475312D02*
X150392133Y-51513408D01*
X150392133Y-51513408D02*
X150201657Y-51513408D01*
X150201657Y-51513408D02*
X150049276Y-51475312D01*
X150049276Y-51475312D02*
X149973085Y-51437217D01*
X149973085Y-51437217D02*
X149934990Y-51399122D01*
X149934990Y-51399122D02*
X149896895Y-51322931D01*
D11*
X157466667Y-82354819D02*
X157800000Y-83354819D01*
X157800000Y-83354819D02*
X158133333Y-82354819D01*
X158800000Y-82831009D02*
X158942857Y-82878628D01*
X158942857Y-82878628D02*
X158990476Y-82926247D01*
X158990476Y-82926247D02*
X159038095Y-83021485D01*
X159038095Y-83021485D02*
X159038095Y-83164342D01*
X159038095Y-83164342D02*
X158990476Y-83259580D01*
X158990476Y-83259580D02*
X158942857Y-83307200D01*
X158942857Y-83307200D02*
X158847619Y-83354819D01*
X158847619Y-83354819D02*
X158466667Y-83354819D01*
X158466667Y-83354819D02*
X158466667Y-82354819D01*
X158466667Y-82354819D02*
X158800000Y-82354819D01*
X158800000Y-82354819D02*
X158895238Y-82402438D01*
X158895238Y-82402438D02*
X158942857Y-82450057D01*
X158942857Y-82450057D02*
X158990476Y-82545295D01*
X158990476Y-82545295D02*
X158990476Y-82640533D01*
X158990476Y-82640533D02*
X158942857Y-82735771D01*
X158942857Y-82735771D02*
X158895238Y-82783390D01*
X158895238Y-82783390D02*
X158800000Y-82831009D01*
X158800000Y-82831009D02*
X158466667Y-82831009D01*
X159466667Y-82354819D02*
X159466667Y-83164342D01*
X159466667Y-83164342D02*
X159514286Y-83259580D01*
X159514286Y-83259580D02*
X159561905Y-83307200D01*
X159561905Y-83307200D02*
X159657143Y-83354819D01*
X159657143Y-83354819D02*
X159847619Y-83354819D01*
X159847619Y-83354819D02*
X159942857Y-83307200D01*
X159942857Y-83307200D02*
X159990476Y-83259580D01*
X159990476Y-83259580D02*
X160038095Y-83164342D01*
X160038095Y-83164342D02*
X160038095Y-82354819D01*
X160466667Y-83307200D02*
X160609524Y-83354819D01*
X160609524Y-83354819D02*
X160847619Y-83354819D01*
X160847619Y-83354819D02*
X160942857Y-83307200D01*
X160942857Y-83307200D02*
X160990476Y-83259580D01*
X160990476Y-83259580D02*
X161038095Y-83164342D01*
X161038095Y-83164342D02*
X161038095Y-83069104D01*
X161038095Y-83069104D02*
X160990476Y-82973866D01*
X160990476Y-82973866D02*
X160942857Y-82926247D01*
X160942857Y-82926247D02*
X160847619Y-82878628D01*
X160847619Y-82878628D02*
X160657143Y-82831009D01*
X160657143Y-82831009D02*
X160561905Y-82783390D01*
X160561905Y-82783390D02*
X160514286Y-82735771D01*
X160514286Y-82735771D02*
X160466667Y-82640533D01*
X160466667Y-82640533D02*
X160466667Y-82545295D01*
X160466667Y-82545295D02*
X160514286Y-82450057D01*
X160514286Y-82450057D02*
X160561905Y-82402438D01*
X160561905Y-82402438D02*
X160657143Y-82354819D01*
X160657143Y-82354819D02*
X160895238Y-82354819D01*
X160895238Y-82354819D02*
X161038095Y-82402438D01*
X158938095Y-85202438D02*
X158842857Y-85154819D01*
X158842857Y-85154819D02*
X158700000Y-85154819D01*
X158700000Y-85154819D02*
X158557143Y-85202438D01*
X158557143Y-85202438D02*
X158461905Y-85297676D01*
X158461905Y-85297676D02*
X158414286Y-85392914D01*
X158414286Y-85392914D02*
X158366667Y-85583390D01*
X158366667Y-85583390D02*
X158366667Y-85726247D01*
X158366667Y-85726247D02*
X158414286Y-85916723D01*
X158414286Y-85916723D02*
X158461905Y-86011961D01*
X158461905Y-86011961D02*
X158557143Y-86107200D01*
X158557143Y-86107200D02*
X158700000Y-86154819D01*
X158700000Y-86154819D02*
X158795238Y-86154819D01*
X158795238Y-86154819D02*
X158938095Y-86107200D01*
X158938095Y-86107200D02*
X158985714Y-86059580D01*
X158985714Y-86059580D02*
X158985714Y-85726247D01*
X158985714Y-85726247D02*
X158795238Y-85726247D01*
X159414286Y-86154819D02*
X159414286Y-85154819D01*
X159414286Y-85154819D02*
X159985714Y-86154819D01*
X159985714Y-86154819D02*
X159985714Y-85154819D01*
X160461905Y-86154819D02*
X160461905Y-85154819D01*
X160461905Y-85154819D02*
X160700000Y-85154819D01*
X160700000Y-85154819D02*
X160842857Y-85202438D01*
X160842857Y-85202438D02*
X160938095Y-85297676D01*
X160938095Y-85297676D02*
X160985714Y-85392914D01*
X160985714Y-85392914D02*
X161033333Y-85583390D01*
X161033333Y-85583390D02*
X161033333Y-85726247D01*
X161033333Y-85726247D02*
X160985714Y-85916723D01*
X160985714Y-85916723D02*
X160938095Y-86011961D01*
X160938095Y-86011961D02*
X160842857Y-86107200D01*
X160842857Y-86107200D02*
X160700000Y-86154819D01*
X160700000Y-86154819D02*
X160461905Y-86154819D01*
D10*
X99199122Y-77834990D02*
X99122932Y-77796895D01*
X99122932Y-77796895D02*
X99008646Y-77796895D01*
X99008646Y-77796895D02*
X98894360Y-77834990D01*
X98894360Y-77834990D02*
X98818170Y-77911180D01*
X98818170Y-77911180D02*
X98780075Y-77987371D01*
X98780075Y-77987371D02*
X98741979Y-78139752D01*
X98741979Y-78139752D02*
X98741979Y-78254038D01*
X98741979Y-78254038D02*
X98780075Y-78406419D01*
X98780075Y-78406419D02*
X98818170Y-78482609D01*
X98818170Y-78482609D02*
X98894360Y-78558800D01*
X98894360Y-78558800D02*
X99008646Y-78596895D01*
X99008646Y-78596895D02*
X99084837Y-78596895D01*
X99084837Y-78596895D02*
X99199122Y-78558800D01*
X99199122Y-78558800D02*
X99237218Y-78520704D01*
X99237218Y-78520704D02*
X99237218Y-78254038D01*
X99237218Y-78254038D02*
X99084837Y-78254038D01*
X99580075Y-78596895D02*
X99580075Y-77796895D01*
X99580075Y-77796895D02*
X100037218Y-78596895D01*
X100037218Y-78596895D02*
X100037218Y-77796895D01*
X100418170Y-78596895D02*
X100418170Y-77796895D01*
X100418170Y-77796895D02*
X100608646Y-77796895D01*
X100608646Y-77796895D02*
X100722932Y-77834990D01*
X100722932Y-77834990D02*
X100799122Y-77911180D01*
X100799122Y-77911180D02*
X100837217Y-77987371D01*
X100837217Y-77987371D02*
X100875313Y-78139752D01*
X100875313Y-78139752D02*
X100875313Y-78254038D01*
X100875313Y-78254038D02*
X100837217Y-78406419D01*
X100837217Y-78406419D02*
X100799122Y-78482609D01*
X100799122Y-78482609D02*
X100722932Y-78558800D01*
X100722932Y-78558800D02*
X100608646Y-78596895D01*
X100608646Y-78596895D02*
X100418170Y-78596895D01*
X99199122Y-60056490D02*
X99122932Y-60018395D01*
X99122932Y-60018395D02*
X99008646Y-60018395D01*
X99008646Y-60018395D02*
X98894360Y-60056490D01*
X98894360Y-60056490D02*
X98818170Y-60132680D01*
X98818170Y-60132680D02*
X98780075Y-60208871D01*
X98780075Y-60208871D02*
X98741979Y-60361252D01*
X98741979Y-60361252D02*
X98741979Y-60475538D01*
X98741979Y-60475538D02*
X98780075Y-60627919D01*
X98780075Y-60627919D02*
X98818170Y-60704109D01*
X98818170Y-60704109D02*
X98894360Y-60780300D01*
X98894360Y-60780300D02*
X99008646Y-60818395D01*
X99008646Y-60818395D02*
X99084837Y-60818395D01*
X99084837Y-60818395D02*
X99199122Y-60780300D01*
X99199122Y-60780300D02*
X99237218Y-60742204D01*
X99237218Y-60742204D02*
X99237218Y-60475538D01*
X99237218Y-60475538D02*
X99084837Y-60475538D01*
X99580075Y-60818395D02*
X99580075Y-60018395D01*
X99580075Y-60018395D02*
X100037218Y-60818395D01*
X100037218Y-60818395D02*
X100037218Y-60018395D01*
X100418170Y-60818395D02*
X100418170Y-60018395D01*
X100418170Y-60018395D02*
X100608646Y-60018395D01*
X100608646Y-60018395D02*
X100722932Y-60056490D01*
X100722932Y-60056490D02*
X100799122Y-60132680D01*
X100799122Y-60132680D02*
X100837217Y-60208871D01*
X100837217Y-60208871D02*
X100875313Y-60361252D01*
X100875313Y-60361252D02*
X100875313Y-60475538D01*
X100875313Y-60475538D02*
X100837217Y-60627919D01*
X100837217Y-60627919D02*
X100799122Y-60704109D01*
X100799122Y-60704109D02*
X100722932Y-60780300D01*
X100722932Y-60780300D02*
X100608646Y-60818395D01*
X100608646Y-60818395D02*
X100418170Y-60818395D01*
X140558800Y-53741979D02*
X140596895Y-53627693D01*
X140596895Y-53627693D02*
X140596895Y-53437217D01*
X140596895Y-53437217D02*
X140558800Y-53361026D01*
X140558800Y-53361026D02*
X140520704Y-53322931D01*
X140520704Y-53322931D02*
X140444514Y-53284836D01*
X140444514Y-53284836D02*
X140368323Y-53284836D01*
X140368323Y-53284836D02*
X140292133Y-53322931D01*
X140292133Y-53322931D02*
X140254038Y-53361026D01*
X140254038Y-53361026D02*
X140215942Y-53437217D01*
X140215942Y-53437217D02*
X140177847Y-53589598D01*
X140177847Y-53589598D02*
X140139752Y-53665788D01*
X140139752Y-53665788D02*
X140101657Y-53703883D01*
X140101657Y-53703883D02*
X140025466Y-53741979D01*
X140025466Y-53741979D02*
X139949276Y-53741979D01*
X139949276Y-53741979D02*
X139873085Y-53703883D01*
X139873085Y-53703883D02*
X139834990Y-53665788D01*
X139834990Y-53665788D02*
X139796895Y-53589598D01*
X139796895Y-53589598D02*
X139796895Y-53399121D01*
X139796895Y-53399121D02*
X139834990Y-53284836D01*
X140520704Y-52484835D02*
X140558800Y-52522931D01*
X140558800Y-52522931D02*
X140596895Y-52637216D01*
X140596895Y-52637216D02*
X140596895Y-52713407D01*
X140596895Y-52713407D02*
X140558800Y-52827693D01*
X140558800Y-52827693D02*
X140482609Y-52903883D01*
X140482609Y-52903883D02*
X140406419Y-52941978D01*
X140406419Y-52941978D02*
X140254038Y-52980074D01*
X140254038Y-52980074D02*
X140139752Y-52980074D01*
X140139752Y-52980074D02*
X139987371Y-52941978D01*
X139987371Y-52941978D02*
X139911180Y-52903883D01*
X139911180Y-52903883D02*
X139834990Y-52827693D01*
X139834990Y-52827693D02*
X139796895Y-52713407D01*
X139796895Y-52713407D02*
X139796895Y-52637216D01*
X139796895Y-52637216D02*
X139834990Y-52522931D01*
X139834990Y-52522931D02*
X139873085Y-52484835D01*
X140596895Y-51761026D02*
X140596895Y-52141978D01*
X140596895Y-52141978D02*
X139796895Y-52141978D01*
X99065788Y-73077847D02*
X99180074Y-73115942D01*
X99180074Y-73115942D02*
X99218169Y-73154038D01*
X99218169Y-73154038D02*
X99256265Y-73230228D01*
X99256265Y-73230228D02*
X99256265Y-73344514D01*
X99256265Y-73344514D02*
X99218169Y-73420704D01*
X99218169Y-73420704D02*
X99180074Y-73458800D01*
X99180074Y-73458800D02*
X99103884Y-73496895D01*
X99103884Y-73496895D02*
X98799122Y-73496895D01*
X98799122Y-73496895D02*
X98799122Y-72696895D01*
X98799122Y-72696895D02*
X99065788Y-72696895D01*
X99065788Y-72696895D02*
X99141979Y-72734990D01*
X99141979Y-72734990D02*
X99180074Y-72773085D01*
X99180074Y-72773085D02*
X99218169Y-72849276D01*
X99218169Y-72849276D02*
X99218169Y-72925466D01*
X99218169Y-72925466D02*
X99180074Y-73001657D01*
X99180074Y-73001657D02*
X99141979Y-73039752D01*
X99141979Y-73039752D02*
X99065788Y-73077847D01*
X99065788Y-73077847D02*
X98799122Y-73077847D01*
X99751503Y-72696895D02*
X99903884Y-72696895D01*
X99903884Y-72696895D02*
X99980074Y-72734990D01*
X99980074Y-72734990D02*
X100056265Y-72811180D01*
X100056265Y-72811180D02*
X100094360Y-72963561D01*
X100094360Y-72963561D02*
X100094360Y-73230228D01*
X100094360Y-73230228D02*
X100056265Y-73382609D01*
X100056265Y-73382609D02*
X99980074Y-73458800D01*
X99980074Y-73458800D02*
X99903884Y-73496895D01*
X99903884Y-73496895D02*
X99751503Y-73496895D01*
X99751503Y-73496895D02*
X99675312Y-73458800D01*
X99675312Y-73458800D02*
X99599122Y-73382609D01*
X99599122Y-73382609D02*
X99561026Y-73230228D01*
X99561026Y-73230228D02*
X99561026Y-72963561D01*
X99561026Y-72963561D02*
X99599122Y-72811180D01*
X99599122Y-72811180D02*
X99675312Y-72734990D01*
X99675312Y-72734990D02*
X99751503Y-72696895D01*
X100856264Y-73496895D02*
X100399121Y-73496895D01*
X100627693Y-73496895D02*
X100627693Y-72696895D01*
X100627693Y-72696895D02*
X100551502Y-72811180D01*
X100551502Y-72811180D02*
X100475312Y-72887371D01*
X100475312Y-72887371D02*
X100399121Y-72925466D01*
X107129449Y-77834990D02*
X107053259Y-77796895D01*
X107053259Y-77796895D02*
X106938973Y-77796895D01*
X106938973Y-77796895D02*
X106824687Y-77834990D01*
X106824687Y-77834990D02*
X106748497Y-77911180D01*
X106748497Y-77911180D02*
X106710402Y-77987371D01*
X106710402Y-77987371D02*
X106672306Y-78139752D01*
X106672306Y-78139752D02*
X106672306Y-78254038D01*
X106672306Y-78254038D02*
X106710402Y-78406419D01*
X106710402Y-78406419D02*
X106748497Y-78482609D01*
X106748497Y-78482609D02*
X106824687Y-78558800D01*
X106824687Y-78558800D02*
X106938973Y-78596895D01*
X106938973Y-78596895D02*
X107015164Y-78596895D01*
X107015164Y-78596895D02*
X107129449Y-78558800D01*
X107129449Y-78558800D02*
X107167545Y-78520704D01*
X107167545Y-78520704D02*
X107167545Y-78254038D01*
X107167545Y-78254038D02*
X107015164Y-78254038D01*
X107510402Y-78596895D02*
X107510402Y-77796895D01*
X107510402Y-77796895D02*
X107967545Y-78596895D01*
X107967545Y-78596895D02*
X107967545Y-77796895D01*
X108348497Y-78596895D02*
X108348497Y-77796895D01*
X108348497Y-77796895D02*
X108538973Y-77796895D01*
X108538973Y-77796895D02*
X108653259Y-77834990D01*
X108653259Y-77834990D02*
X108729449Y-77911180D01*
X108729449Y-77911180D02*
X108767544Y-77987371D01*
X108767544Y-77987371D02*
X108805640Y-78139752D01*
X108805640Y-78139752D02*
X108805640Y-78254038D01*
X108805640Y-78254038D02*
X108767544Y-78406419D01*
X108767544Y-78406419D02*
X108729449Y-78482609D01*
X108729449Y-78482609D02*
X108653259Y-78558800D01*
X108653259Y-78558800D02*
X108538973Y-78596895D01*
X108538973Y-78596895D02*
X108348497Y-78596895D01*
X162296895Y-53846741D02*
X162944514Y-53846741D01*
X162944514Y-53846741D02*
X163020704Y-53808646D01*
X163020704Y-53808646D02*
X163058800Y-53770551D01*
X163058800Y-53770551D02*
X163096895Y-53694360D01*
X163096895Y-53694360D02*
X163096895Y-53541979D01*
X163096895Y-53541979D02*
X163058800Y-53465789D01*
X163058800Y-53465789D02*
X163020704Y-53427694D01*
X163020704Y-53427694D02*
X162944514Y-53389598D01*
X162944514Y-53389598D02*
X162296895Y-53389598D01*
X162296895Y-53122932D02*
X162296895Y-52665789D01*
X163096895Y-52894361D02*
X162296895Y-52894361D01*
X162296895Y-52475313D02*
X163096895Y-51941979D01*
X162296895Y-51941979D02*
X163096895Y-52475313D01*
X162296895Y-51484836D02*
X162296895Y-51408646D01*
X162296895Y-51408646D02*
X162334990Y-51332455D01*
X162334990Y-51332455D02*
X162373085Y-51294360D01*
X162373085Y-51294360D02*
X162449276Y-51256265D01*
X162449276Y-51256265D02*
X162601657Y-51218170D01*
X162601657Y-51218170D02*
X162792133Y-51218170D01*
X162792133Y-51218170D02*
X162944514Y-51256265D01*
X162944514Y-51256265D02*
X163020704Y-51294360D01*
X163020704Y-51294360D02*
X163058800Y-51332455D01*
X163058800Y-51332455D02*
X163096895Y-51408646D01*
X163096895Y-51408646D02*
X163096895Y-51484836D01*
X163096895Y-51484836D02*
X163058800Y-51561027D01*
X163058800Y-51561027D02*
X163020704Y-51599122D01*
X163020704Y-51599122D02*
X162944514Y-51637217D01*
X162944514Y-51637217D02*
X162792133Y-51675313D01*
X162792133Y-51675313D02*
X162601657Y-51675313D01*
X162601657Y-51675313D02*
X162449276Y-51637217D01*
X162449276Y-51637217D02*
X162373085Y-51599122D01*
X162373085Y-51599122D02*
X162334990Y-51561027D01*
X162334990Y-51561027D02*
X162296895Y-51484836D01*
X104433408Y-86020704D02*
X104395312Y-86058800D01*
X104395312Y-86058800D02*
X104281027Y-86096895D01*
X104281027Y-86096895D02*
X104204836Y-86096895D01*
X104204836Y-86096895D02*
X104090550Y-86058800D01*
X104090550Y-86058800D02*
X104014360Y-85982609D01*
X104014360Y-85982609D02*
X103976265Y-85906419D01*
X103976265Y-85906419D02*
X103938169Y-85754038D01*
X103938169Y-85754038D02*
X103938169Y-85639752D01*
X103938169Y-85639752D02*
X103976265Y-85487371D01*
X103976265Y-85487371D02*
X104014360Y-85411180D01*
X104014360Y-85411180D02*
X104090550Y-85334990D01*
X104090550Y-85334990D02*
X104204836Y-85296895D01*
X104204836Y-85296895D02*
X104281027Y-85296895D01*
X104281027Y-85296895D02*
X104395312Y-85334990D01*
X104395312Y-85334990D02*
X104433408Y-85373085D01*
X105195312Y-86096895D02*
X104738169Y-86096895D01*
X104966741Y-86096895D02*
X104966741Y-85296895D01*
X104966741Y-85296895D02*
X104890550Y-85411180D01*
X104890550Y-85411180D02*
X104814360Y-85487371D01*
X104814360Y-85487371D02*
X104738169Y-85525466D01*
X105804836Y-85677847D02*
X105919122Y-85715942D01*
X105919122Y-85715942D02*
X105957217Y-85754038D01*
X105957217Y-85754038D02*
X105995313Y-85830228D01*
X105995313Y-85830228D02*
X105995313Y-85944514D01*
X105995313Y-85944514D02*
X105957217Y-86020704D01*
X105957217Y-86020704D02*
X105919122Y-86058800D01*
X105919122Y-86058800D02*
X105842932Y-86096895D01*
X105842932Y-86096895D02*
X105538170Y-86096895D01*
X105538170Y-86096895D02*
X105538170Y-85296895D01*
X105538170Y-85296895D02*
X105804836Y-85296895D01*
X105804836Y-85296895D02*
X105881027Y-85334990D01*
X105881027Y-85334990D02*
X105919122Y-85373085D01*
X105919122Y-85373085D02*
X105957217Y-85449276D01*
X105957217Y-85449276D02*
X105957217Y-85525466D01*
X105957217Y-85525466D02*
X105919122Y-85601657D01*
X105919122Y-85601657D02*
X105881027Y-85639752D01*
X105881027Y-85639752D02*
X105804836Y-85677847D01*
X105804836Y-85677847D02*
X105538170Y-85677847D01*
D11*
X115199609Y-74247618D02*
X115237704Y-74171428D01*
X115237704Y-74171428D02*
X115237704Y-74057142D01*
X115237704Y-74057142D02*
X115199609Y-73942856D01*
X115199609Y-73942856D02*
X115123419Y-73866666D01*
X115123419Y-73866666D02*
X115047228Y-73828571D01*
X115047228Y-73828571D02*
X114894847Y-73790475D01*
X114894847Y-73790475D02*
X114780561Y-73790475D01*
X114780561Y-73790475D02*
X114628180Y-73828571D01*
X114628180Y-73828571D02*
X114551990Y-73866666D01*
X114551990Y-73866666D02*
X114475800Y-73942856D01*
X114475800Y-73942856D02*
X114437704Y-74057142D01*
X114437704Y-74057142D02*
X114437704Y-74133333D01*
X114437704Y-74133333D02*
X114475800Y-74247618D01*
X114475800Y-74247618D02*
X114513895Y-74285714D01*
X114513895Y-74285714D02*
X114780561Y-74285714D01*
X114780561Y-74285714D02*
X114780561Y-74133333D01*
X114437704Y-74628571D02*
X115237704Y-74628571D01*
X115237704Y-74628571D02*
X115237704Y-74933333D01*
X115237704Y-74933333D02*
X115199609Y-75009523D01*
X115199609Y-75009523D02*
X115161514Y-75047618D01*
X115161514Y-75047618D02*
X115085323Y-75085714D01*
X115085323Y-75085714D02*
X114971038Y-75085714D01*
X114971038Y-75085714D02*
X114894847Y-75047618D01*
X114894847Y-75047618D02*
X114856752Y-75009523D01*
X114856752Y-75009523D02*
X114818657Y-74933333D01*
X114818657Y-74933333D02*
X114818657Y-74628571D01*
X114437704Y-75847618D02*
X114437704Y-75390475D01*
X114437704Y-75619047D02*
X115237704Y-75619047D01*
X115237704Y-75619047D02*
X115123419Y-75542856D01*
X115123419Y-75542856D02*
X115047228Y-75466666D01*
X115047228Y-75466666D02*
X115009133Y-75390475D01*
X115237704Y-76533333D02*
X115237704Y-76380952D01*
X115237704Y-76380952D02*
X115199609Y-76304761D01*
X115199609Y-76304761D02*
X115161514Y-76266666D01*
X115161514Y-76266666D02*
X115047228Y-76190476D01*
X115047228Y-76190476D02*
X114894847Y-76152380D01*
X114894847Y-76152380D02*
X114590085Y-76152380D01*
X114590085Y-76152380D02*
X114513895Y-76190476D01*
X114513895Y-76190476D02*
X114475800Y-76228571D01*
X114475800Y-76228571D02*
X114437704Y-76304761D01*
X114437704Y-76304761D02*
X114437704Y-76457142D01*
X114437704Y-76457142D02*
X114475800Y-76533333D01*
X114475800Y-76533333D02*
X114513895Y-76571428D01*
X114513895Y-76571428D02*
X114590085Y-76609523D01*
X114590085Y-76609523D02*
X114780561Y-76609523D01*
X114780561Y-76609523D02*
X114856752Y-76571428D01*
X114856752Y-76571428D02*
X114894847Y-76533333D01*
X114894847Y-76533333D02*
X114932942Y-76457142D01*
X114932942Y-76457142D02*
X114932942Y-76304761D01*
X114932942Y-76304761D02*
X114894847Y-76228571D01*
X114894847Y-76228571D02*
X114856752Y-76190476D01*
X114856752Y-76190476D02*
X114780561Y-76152380D01*
D10*
X96622931Y-85677847D02*
X96737217Y-85715942D01*
X96737217Y-85715942D02*
X96775312Y-85754038D01*
X96775312Y-85754038D02*
X96813408Y-85830228D01*
X96813408Y-85830228D02*
X96813408Y-85944514D01*
X96813408Y-85944514D02*
X96775312Y-86020704D01*
X96775312Y-86020704D02*
X96737217Y-86058800D01*
X96737217Y-86058800D02*
X96661027Y-86096895D01*
X96661027Y-86096895D02*
X96356265Y-86096895D01*
X96356265Y-86096895D02*
X96356265Y-85296895D01*
X96356265Y-85296895D02*
X96622931Y-85296895D01*
X96622931Y-85296895D02*
X96699122Y-85334990D01*
X96699122Y-85334990D02*
X96737217Y-85373085D01*
X96737217Y-85373085D02*
X96775312Y-85449276D01*
X96775312Y-85449276D02*
X96775312Y-85525466D01*
X96775312Y-85525466D02*
X96737217Y-85601657D01*
X96737217Y-85601657D02*
X96699122Y-85639752D01*
X96699122Y-85639752D02*
X96622931Y-85677847D01*
X96622931Y-85677847D02*
X96356265Y-85677847D01*
X97308646Y-85296895D02*
X97461027Y-85296895D01*
X97461027Y-85296895D02*
X97537217Y-85334990D01*
X97537217Y-85334990D02*
X97613408Y-85411180D01*
X97613408Y-85411180D02*
X97651503Y-85563561D01*
X97651503Y-85563561D02*
X97651503Y-85830228D01*
X97651503Y-85830228D02*
X97613408Y-85982609D01*
X97613408Y-85982609D02*
X97537217Y-86058800D01*
X97537217Y-86058800D02*
X97461027Y-86096895D01*
X97461027Y-86096895D02*
X97308646Y-86096895D01*
X97308646Y-86096895D02*
X97232455Y-86058800D01*
X97232455Y-86058800D02*
X97156265Y-85982609D01*
X97156265Y-85982609D02*
X97118169Y-85830228D01*
X97118169Y-85830228D02*
X97118169Y-85563561D01*
X97118169Y-85563561D02*
X97156265Y-85411180D01*
X97156265Y-85411180D02*
X97232455Y-85334990D01*
X97232455Y-85334990D02*
X97308646Y-85296895D01*
X98413407Y-86096895D02*
X97956264Y-86096895D01*
X98184836Y-86096895D02*
X98184836Y-85296895D01*
X98184836Y-85296895D02*
X98108645Y-85411180D01*
X98108645Y-85411180D02*
X98032455Y-85487371D01*
X98032455Y-85487371D02*
X97956264Y-85525466D01*
X98818169Y-68168323D02*
X99199122Y-68168323D01*
X98741979Y-68396895D02*
X99008646Y-67596895D01*
X99008646Y-67596895D02*
X99275312Y-68396895D01*
X99694360Y-67596895D02*
X99846741Y-67596895D01*
X99846741Y-67596895D02*
X99922931Y-67634990D01*
X99922931Y-67634990D02*
X99999122Y-67711180D01*
X99999122Y-67711180D02*
X100037217Y-67863561D01*
X100037217Y-67863561D02*
X100037217Y-68130228D01*
X100037217Y-68130228D02*
X99999122Y-68282609D01*
X99999122Y-68282609D02*
X99922931Y-68358800D01*
X99922931Y-68358800D02*
X99846741Y-68396895D01*
X99846741Y-68396895D02*
X99694360Y-68396895D01*
X99694360Y-68396895D02*
X99618169Y-68358800D01*
X99618169Y-68358800D02*
X99541979Y-68282609D01*
X99541979Y-68282609D02*
X99503883Y-68130228D01*
X99503883Y-68130228D02*
X99503883Y-67863561D01*
X99503883Y-67863561D02*
X99541979Y-67711180D01*
X99541979Y-67711180D02*
X99618169Y-67634990D01*
X99618169Y-67634990D02*
X99694360Y-67596895D01*
X100341978Y-67673085D02*
X100380074Y-67634990D01*
X100380074Y-67634990D02*
X100456264Y-67596895D01*
X100456264Y-67596895D02*
X100646740Y-67596895D01*
X100646740Y-67596895D02*
X100722931Y-67634990D01*
X100722931Y-67634990D02*
X100761026Y-67673085D01*
X100761026Y-67673085D02*
X100799121Y-67749276D01*
X100799121Y-67749276D02*
X100799121Y-67825466D01*
X100799121Y-67825466D02*
X100761026Y-67939752D01*
X100761026Y-67939752D02*
X100303883Y-68396895D01*
X100303883Y-68396895D02*
X100799121Y-68396895D01*
X160096895Y-53837217D02*
X160744514Y-53837217D01*
X160744514Y-53837217D02*
X160820704Y-53799122D01*
X160820704Y-53799122D02*
X160858800Y-53761027D01*
X160858800Y-53761027D02*
X160896895Y-53684836D01*
X160896895Y-53684836D02*
X160896895Y-53532455D01*
X160896895Y-53532455D02*
X160858800Y-53456265D01*
X160858800Y-53456265D02*
X160820704Y-53418170D01*
X160820704Y-53418170D02*
X160744514Y-53380074D01*
X160744514Y-53380074D02*
X160096895Y-53380074D01*
X160896895Y-52541979D02*
X160515942Y-52808646D01*
X160896895Y-52999122D02*
X160096895Y-52999122D01*
X160096895Y-52999122D02*
X160096895Y-52694360D01*
X160096895Y-52694360D02*
X160134990Y-52618170D01*
X160134990Y-52618170D02*
X160173085Y-52580075D01*
X160173085Y-52580075D02*
X160249276Y-52541979D01*
X160249276Y-52541979D02*
X160363561Y-52541979D01*
X160363561Y-52541979D02*
X160439752Y-52580075D01*
X160439752Y-52580075D02*
X160477847Y-52618170D01*
X160477847Y-52618170D02*
X160515942Y-52694360D01*
X160515942Y-52694360D02*
X160515942Y-52999122D01*
X160096895Y-52275313D02*
X160896895Y-51741979D01*
X160096895Y-51741979D02*
X160896895Y-52275313D01*
X160096895Y-51284836D02*
X160096895Y-51208646D01*
X160096895Y-51208646D02*
X160134990Y-51132455D01*
X160134990Y-51132455D02*
X160173085Y-51094360D01*
X160173085Y-51094360D02*
X160249276Y-51056265D01*
X160249276Y-51056265D02*
X160401657Y-51018170D01*
X160401657Y-51018170D02*
X160592133Y-51018170D01*
X160592133Y-51018170D02*
X160744514Y-51056265D01*
X160744514Y-51056265D02*
X160820704Y-51094360D01*
X160820704Y-51094360D02*
X160858800Y-51132455D01*
X160858800Y-51132455D02*
X160896895Y-51208646D01*
X160896895Y-51208646D02*
X160896895Y-51284836D01*
X160896895Y-51284836D02*
X160858800Y-51361027D01*
X160858800Y-51361027D02*
X160820704Y-51399122D01*
X160820704Y-51399122D02*
X160744514Y-51437217D01*
X160744514Y-51437217D02*
X160592133Y-51475313D01*
X160592133Y-51475313D02*
X160401657Y-51475313D01*
X160401657Y-51475313D02*
X160249276Y-51437217D01*
X160249276Y-51437217D02*
X160173085Y-51399122D01*
X160173085Y-51399122D02*
X160134990Y-51361027D01*
X160134990Y-51361027D02*
X160096895Y-51284836D01*
D11*
X91566666Y-93154819D02*
X91566666Y-93869104D01*
X91566666Y-93869104D02*
X91519047Y-94011961D01*
X91519047Y-94011961D02*
X91423809Y-94107200D01*
X91423809Y-94107200D02*
X91280952Y-94154819D01*
X91280952Y-94154819D02*
X91185714Y-94154819D01*
X92471428Y-93488152D02*
X92471428Y-94154819D01*
X92233333Y-93107200D02*
X91995238Y-93821485D01*
X91995238Y-93821485D02*
X92614285Y-93821485D01*
X92948014Y-88859819D02*
X92948014Y-87859819D01*
X92948014Y-87859819D02*
X93281347Y-88574104D01*
X93281347Y-88574104D02*
X93614680Y-87859819D01*
X93614680Y-87859819D02*
X93614680Y-88859819D01*
X94281347Y-87859819D02*
X94471823Y-87859819D01*
X94471823Y-87859819D02*
X94567061Y-87907438D01*
X94567061Y-87907438D02*
X94662299Y-88002676D01*
X94662299Y-88002676D02*
X94709918Y-88193152D01*
X94709918Y-88193152D02*
X94709918Y-88526485D01*
X94709918Y-88526485D02*
X94662299Y-88716961D01*
X94662299Y-88716961D02*
X94567061Y-88812200D01*
X94567061Y-88812200D02*
X94471823Y-88859819D01*
X94471823Y-88859819D02*
X94281347Y-88859819D01*
X94281347Y-88859819D02*
X94186109Y-88812200D01*
X94186109Y-88812200D02*
X94090871Y-88716961D01*
X94090871Y-88716961D02*
X94043252Y-88526485D01*
X94043252Y-88526485D02*
X94043252Y-88193152D01*
X94043252Y-88193152D02*
X94090871Y-88002676D01*
X94090871Y-88002676D02*
X94186109Y-87907438D01*
X94186109Y-87907438D02*
X94281347Y-87859819D01*
X94995633Y-87859819D02*
X95567061Y-87859819D01*
X95281347Y-88859819D02*
X95281347Y-87859819D01*
X95662300Y-88955057D02*
X96424204Y-88955057D01*
X96662300Y-88859819D02*
X96662300Y-87859819D01*
X96662300Y-87859819D02*
X97043252Y-87859819D01*
X97043252Y-87859819D02*
X97138490Y-87907438D01*
X97138490Y-87907438D02*
X97186109Y-87955057D01*
X97186109Y-87955057D02*
X97233728Y-88050295D01*
X97233728Y-88050295D02*
X97233728Y-88193152D01*
X97233728Y-88193152D02*
X97186109Y-88288390D01*
X97186109Y-88288390D02*
X97138490Y-88336009D01*
X97138490Y-88336009D02*
X97043252Y-88383628D01*
X97043252Y-88383628D02*
X96662300Y-88383628D01*
X97852776Y-87859819D02*
X98043252Y-87859819D01*
X98043252Y-87859819D02*
X98138490Y-87907438D01*
X98138490Y-87907438D02*
X98233728Y-88002676D01*
X98233728Y-88002676D02*
X98281347Y-88193152D01*
X98281347Y-88193152D02*
X98281347Y-88526485D01*
X98281347Y-88526485D02*
X98233728Y-88716961D01*
X98233728Y-88716961D02*
X98138490Y-88812200D01*
X98138490Y-88812200D02*
X98043252Y-88859819D01*
X98043252Y-88859819D02*
X97852776Y-88859819D01*
X97852776Y-88859819D02*
X97757538Y-88812200D01*
X97757538Y-88812200D02*
X97662300Y-88716961D01*
X97662300Y-88716961D02*
X97614681Y-88526485D01*
X97614681Y-88526485D02*
X97614681Y-88193152D01*
X97614681Y-88193152D02*
X97662300Y-88002676D01*
X97662300Y-88002676D02*
X97757538Y-87907438D01*
X97757538Y-87907438D02*
X97852776Y-87859819D01*
X98614681Y-87859819D02*
X98852776Y-88859819D01*
X98852776Y-88859819D02*
X99043252Y-88145533D01*
X99043252Y-88145533D02*
X99233728Y-88859819D01*
X99233728Y-88859819D02*
X99471824Y-87859819D01*
X127033333Y-52354819D02*
X126700000Y-51878628D01*
X126461905Y-52354819D02*
X126461905Y-51354819D01*
X126461905Y-51354819D02*
X126842857Y-51354819D01*
X126842857Y-51354819D02*
X126938095Y-51402438D01*
X126938095Y-51402438D02*
X126985714Y-51450057D01*
X126985714Y-51450057D02*
X127033333Y-51545295D01*
X127033333Y-51545295D02*
X127033333Y-51688152D01*
X127033333Y-51688152D02*
X126985714Y-51783390D01*
X126985714Y-51783390D02*
X126938095Y-51831009D01*
X126938095Y-51831009D02*
X126842857Y-51878628D01*
X126842857Y-51878628D02*
X126461905Y-51878628D01*
X127890476Y-51354819D02*
X127700000Y-51354819D01*
X127700000Y-51354819D02*
X127604762Y-51402438D01*
X127604762Y-51402438D02*
X127557143Y-51450057D01*
X127557143Y-51450057D02*
X127461905Y-51592914D01*
X127461905Y-51592914D02*
X127414286Y-51783390D01*
X127414286Y-51783390D02*
X127414286Y-52164342D01*
X127414286Y-52164342D02*
X127461905Y-52259580D01*
X127461905Y-52259580D02*
X127509524Y-52307200D01*
X127509524Y-52307200D02*
X127604762Y-52354819D01*
X127604762Y-52354819D02*
X127795238Y-52354819D01*
X127795238Y-52354819D02*
X127890476Y-52307200D01*
X127890476Y-52307200D02*
X127938095Y-52259580D01*
X127938095Y-52259580D02*
X127985714Y-52164342D01*
X127985714Y-52164342D02*
X127985714Y-51926247D01*
X127985714Y-51926247D02*
X127938095Y-51831009D01*
X127938095Y-51831009D02*
X127890476Y-51783390D01*
X127890476Y-51783390D02*
X127795238Y-51735771D01*
X127795238Y-51735771D02*
X127604762Y-51735771D01*
X127604762Y-51735771D02*
X127509524Y-51783390D01*
X127509524Y-51783390D02*
X127461905Y-51831009D01*
X127461905Y-51831009D02*
X127414286Y-51926247D01*
X132091428Y-53254819D02*
X131520000Y-53254819D01*
X131805714Y-53254819D02*
X131805714Y-52254819D01*
X131805714Y-52254819D02*
X131710476Y-52397676D01*
X131710476Y-52397676D02*
X131615238Y-52492914D01*
X131615238Y-52492914D02*
X131520000Y-52540533D01*
X132520000Y-53159580D02*
X132567619Y-53207200D01*
X132567619Y-53207200D02*
X132520000Y-53254819D01*
X132520000Y-53254819D02*
X132472381Y-53207200D01*
X132472381Y-53207200D02*
X132520000Y-53159580D01*
X132520000Y-53159580D02*
X132520000Y-53254819D01*
X132948571Y-52350057D02*
X132996190Y-52302438D01*
X132996190Y-52302438D02*
X133091428Y-52254819D01*
X133091428Y-52254819D02*
X133329523Y-52254819D01*
X133329523Y-52254819D02*
X133424761Y-52302438D01*
X133424761Y-52302438D02*
X133472380Y-52350057D01*
X133472380Y-52350057D02*
X133519999Y-52445295D01*
X133519999Y-52445295D02*
X133519999Y-52540533D01*
X133519999Y-52540533D02*
X133472380Y-52683390D01*
X133472380Y-52683390D02*
X132900952Y-53254819D01*
X132900952Y-53254819D02*
X133519999Y-53254819D01*
X133948571Y-53254819D02*
X133948571Y-52254819D01*
X134519999Y-53254819D02*
X134091428Y-52683390D01*
X134519999Y-52254819D02*
X133948571Y-52826247D01*
X148354819Y-82566666D02*
X147878628Y-82899999D01*
X148354819Y-83138094D02*
X147354819Y-83138094D01*
X147354819Y-83138094D02*
X147354819Y-82757142D01*
X147354819Y-82757142D02*
X147402438Y-82661904D01*
X147402438Y-82661904D02*
X147450057Y-82614285D01*
X147450057Y-82614285D02*
X147545295Y-82566666D01*
X147545295Y-82566666D02*
X147688152Y-82566666D01*
X147688152Y-82566666D02*
X147783390Y-82614285D01*
X147783390Y-82614285D02*
X147831009Y-82661904D01*
X147831009Y-82661904D02*
X147878628Y-82757142D01*
X147878628Y-82757142D02*
X147878628Y-83138094D01*
X147354819Y-82233332D02*
X147354819Y-81614285D01*
X147354819Y-81614285D02*
X147735771Y-81947618D01*
X147735771Y-81947618D02*
X147735771Y-81804761D01*
X147735771Y-81804761D02*
X147783390Y-81709523D01*
X147783390Y-81709523D02*
X147831009Y-81661904D01*
X147831009Y-81661904D02*
X147926247Y-81614285D01*
X147926247Y-81614285D02*
X148164342Y-81614285D01*
X148164342Y-81614285D02*
X148259580Y-81661904D01*
X148259580Y-81661904D02*
X148307200Y-81709523D01*
X148307200Y-81709523D02*
X148354819Y-81804761D01*
X148354819Y-81804761D02*
X148354819Y-82090475D01*
X148354819Y-82090475D02*
X148307200Y-82185713D01*
X148307200Y-82185713D02*
X148259580Y-82233332D01*
X114496666Y-50904819D02*
X114496666Y-51619104D01*
X114496666Y-51619104D02*
X114449047Y-51761961D01*
X114449047Y-51761961D02*
X114353809Y-51857200D01*
X114353809Y-51857200D02*
X114210952Y-51904819D01*
X114210952Y-51904819D02*
X114115714Y-51904819D01*
X114972857Y-51904819D02*
X114972857Y-50904819D01*
X114972857Y-50904819D02*
X115353809Y-50904819D01*
X115353809Y-50904819D02*
X115449047Y-50952438D01*
X115449047Y-50952438D02*
X115496666Y-51000057D01*
X115496666Y-51000057D02*
X115544285Y-51095295D01*
X115544285Y-51095295D02*
X115544285Y-51238152D01*
X115544285Y-51238152D02*
X115496666Y-51333390D01*
X115496666Y-51333390D02*
X115449047Y-51381009D01*
X115449047Y-51381009D02*
X115353809Y-51428628D01*
X115353809Y-51428628D02*
X114972857Y-51428628D01*
X116496666Y-51904819D02*
X115925238Y-51904819D01*
X116210952Y-51904819D02*
X116210952Y-50904819D01*
X116210952Y-50904819D02*
X116115714Y-51047676D01*
X116115714Y-51047676D02*
X116020476Y-51142914D01*
X116020476Y-51142914D02*
X115925238Y-51190533D01*
X90654539Y-66562300D02*
X91464484Y-66562300D01*
X91464484Y-66562300D02*
X91559772Y-66514657D01*
X91559772Y-66514657D02*
X91607416Y-66467013D01*
X91607416Y-66467013D02*
X91655059Y-66371725D01*
X91655059Y-66371725D02*
X91655059Y-66181150D01*
X91655059Y-66181150D02*
X91607416Y-66085862D01*
X91607416Y-66085862D02*
X91559772Y-66038219D01*
X91559772Y-66038219D02*
X91464484Y-65990575D01*
X91464484Y-65990575D02*
X90654539Y-65990575D01*
X91655059Y-64990055D02*
X91655059Y-65561780D01*
X91655059Y-65275917D02*
X90654539Y-65275917D01*
X90654539Y-65275917D02*
X90797471Y-65371205D01*
X90797471Y-65371205D02*
X90892758Y-65466493D01*
X90892758Y-65466493D02*
X90940402Y-65561780D01*
X91954819Y-84033332D02*
X90954819Y-84033332D01*
X91431009Y-84033332D02*
X91431009Y-83461904D01*
X91954819Y-83461904D02*
X90954819Y-83461904D01*
X91859580Y-82414285D02*
X91907200Y-82461904D01*
X91907200Y-82461904D02*
X91954819Y-82604761D01*
X91954819Y-82604761D02*
X91954819Y-82699999D01*
X91954819Y-82699999D02*
X91907200Y-82842856D01*
X91907200Y-82842856D02*
X91811961Y-82938094D01*
X91811961Y-82938094D02*
X91716723Y-82985713D01*
X91716723Y-82985713D02*
X91526247Y-83033332D01*
X91526247Y-83033332D02*
X91383390Y-83033332D01*
X91383390Y-83033332D02*
X91192914Y-82985713D01*
X91192914Y-82985713D02*
X91097676Y-82938094D01*
X91097676Y-82938094D02*
X91002438Y-82842856D01*
X91002438Y-82842856D02*
X90954819Y-82699999D01*
X90954819Y-82699999D02*
X90954819Y-82604761D01*
X90954819Y-82604761D02*
X91002438Y-82461904D01*
X91002438Y-82461904D02*
X91050057Y-82414285D01*
X91573866Y-81985713D02*
X91573866Y-81223809D01*
X91907200Y-80795237D02*
X91954819Y-80652380D01*
X91954819Y-80652380D02*
X91954819Y-80414285D01*
X91954819Y-80414285D02*
X91907200Y-80319047D01*
X91907200Y-80319047D02*
X91859580Y-80271428D01*
X91859580Y-80271428D02*
X91764342Y-80223809D01*
X91764342Y-80223809D02*
X91669104Y-80223809D01*
X91669104Y-80223809D02*
X91573866Y-80271428D01*
X91573866Y-80271428D02*
X91526247Y-80319047D01*
X91526247Y-80319047D02*
X91478628Y-80414285D01*
X91478628Y-80414285D02*
X91431009Y-80604761D01*
X91431009Y-80604761D02*
X91383390Y-80699999D01*
X91383390Y-80699999D02*
X91335771Y-80747618D01*
X91335771Y-80747618D02*
X91240533Y-80795237D01*
X91240533Y-80795237D02*
X91145295Y-80795237D01*
X91145295Y-80795237D02*
X91050057Y-80747618D01*
X91050057Y-80747618D02*
X91002438Y-80699999D01*
X91002438Y-80699999D02*
X90954819Y-80604761D01*
X90954819Y-80604761D02*
X90954819Y-80366666D01*
X90954819Y-80366666D02*
X91002438Y-80223809D01*
X91954819Y-79223809D02*
X91478628Y-79557142D01*
X91954819Y-79795237D02*
X90954819Y-79795237D01*
X90954819Y-79795237D02*
X90954819Y-79414285D01*
X90954819Y-79414285D02*
X91002438Y-79319047D01*
X91002438Y-79319047D02*
X91050057Y-79271428D01*
X91050057Y-79271428D02*
X91145295Y-79223809D01*
X91145295Y-79223809D02*
X91288152Y-79223809D01*
X91288152Y-79223809D02*
X91383390Y-79271428D01*
X91383390Y-79271428D02*
X91431009Y-79319047D01*
X91431009Y-79319047D02*
X91478628Y-79414285D01*
X91478628Y-79414285D02*
X91478628Y-79795237D01*
X90954819Y-78604761D02*
X90954819Y-78509523D01*
X90954819Y-78509523D02*
X91002438Y-78414285D01*
X91002438Y-78414285D02*
X91050057Y-78366666D01*
X91050057Y-78366666D02*
X91145295Y-78319047D01*
X91145295Y-78319047D02*
X91335771Y-78271428D01*
X91335771Y-78271428D02*
X91573866Y-78271428D01*
X91573866Y-78271428D02*
X91764342Y-78319047D01*
X91764342Y-78319047D02*
X91859580Y-78366666D01*
X91859580Y-78366666D02*
X91907200Y-78414285D01*
X91907200Y-78414285D02*
X91954819Y-78509523D01*
X91954819Y-78509523D02*
X91954819Y-78604761D01*
X91954819Y-78604761D02*
X91907200Y-78699999D01*
X91907200Y-78699999D02*
X91859580Y-78747618D01*
X91859580Y-78747618D02*
X91764342Y-78795237D01*
X91764342Y-78795237D02*
X91573866Y-78842856D01*
X91573866Y-78842856D02*
X91335771Y-78842856D01*
X91335771Y-78842856D02*
X91145295Y-78795237D01*
X91145295Y-78795237D02*
X91050057Y-78747618D01*
X91050057Y-78747618D02*
X91002438Y-78699999D01*
X91002438Y-78699999D02*
X90954819Y-78604761D01*
X91288152Y-77414285D02*
X91954819Y-77414285D01*
X90907200Y-77652380D02*
X91621485Y-77890475D01*
X91621485Y-77890475D02*
X91621485Y-77271428D01*
X102890214Y-69524104D02*
X103366404Y-69524104D01*
X102794976Y-69809819D02*
X103128309Y-68809819D01*
X103128309Y-68809819D02*
X103461642Y-69809819D01*
X103747357Y-68905057D02*
X103794976Y-68857438D01*
X103794976Y-68857438D02*
X103890214Y-68809819D01*
X103890214Y-68809819D02*
X104128309Y-68809819D01*
X104128309Y-68809819D02*
X104223547Y-68857438D01*
X104223547Y-68857438D02*
X104271166Y-68905057D01*
X104271166Y-68905057D02*
X104318785Y-69000295D01*
X104318785Y-69000295D02*
X104318785Y-69095533D01*
X104318785Y-69095533D02*
X104271166Y-69238390D01*
X104271166Y-69238390D02*
X103699738Y-69809819D01*
X103699738Y-69809819D02*
X104318785Y-69809819D01*
X100385714Y-71462295D02*
X100842857Y-71462295D01*
X100614285Y-72262295D02*
X100614285Y-71462295D01*
X101376190Y-71843247D02*
X101490476Y-71881342D01*
X101490476Y-71881342D02*
X101528571Y-71919438D01*
X101528571Y-71919438D02*
X101566667Y-71995628D01*
X101566667Y-71995628D02*
X101566667Y-72109914D01*
X101566667Y-72109914D02*
X101528571Y-72186104D01*
X101528571Y-72186104D02*
X101490476Y-72224200D01*
X101490476Y-72224200D02*
X101414286Y-72262295D01*
X101414286Y-72262295D02*
X101109524Y-72262295D01*
X101109524Y-72262295D02*
X101109524Y-71462295D01*
X101109524Y-71462295D02*
X101376190Y-71462295D01*
X101376190Y-71462295D02*
X101452381Y-71500390D01*
X101452381Y-71500390D02*
X101490476Y-71538485D01*
X101490476Y-71538485D02*
X101528571Y-71614676D01*
X101528571Y-71614676D02*
X101528571Y-71690866D01*
X101528571Y-71690866D02*
X101490476Y-71767057D01*
X101490476Y-71767057D02*
X101452381Y-71805152D01*
X101452381Y-71805152D02*
X101376190Y-71843247D01*
X101376190Y-71843247D02*
X101109524Y-71843247D01*
X102252381Y-71462295D02*
X102100000Y-71462295D01*
X102100000Y-71462295D02*
X102023809Y-71500390D01*
X102023809Y-71500390D02*
X101985714Y-71538485D01*
X101985714Y-71538485D02*
X101909524Y-71652771D01*
X101909524Y-71652771D02*
X101871428Y-71805152D01*
X101871428Y-71805152D02*
X101871428Y-72109914D01*
X101871428Y-72109914D02*
X101909524Y-72186104D01*
X101909524Y-72186104D02*
X101947619Y-72224200D01*
X101947619Y-72224200D02*
X102023809Y-72262295D01*
X102023809Y-72262295D02*
X102176190Y-72262295D01*
X102176190Y-72262295D02*
X102252381Y-72224200D01*
X102252381Y-72224200D02*
X102290476Y-72186104D01*
X102290476Y-72186104D02*
X102328571Y-72109914D01*
X102328571Y-72109914D02*
X102328571Y-71919438D01*
X102328571Y-71919438D02*
X102290476Y-71843247D01*
X102290476Y-71843247D02*
X102252381Y-71805152D01*
X102252381Y-71805152D02*
X102176190Y-71767057D01*
X102176190Y-71767057D02*
X102023809Y-71767057D01*
X102023809Y-71767057D02*
X101947619Y-71805152D01*
X101947619Y-71805152D02*
X101909524Y-71843247D01*
X101909524Y-71843247D02*
X101871428Y-71919438D01*
X103014286Y-71462295D02*
X102861905Y-71462295D01*
X102861905Y-71462295D02*
X102785714Y-71500390D01*
X102785714Y-71500390D02*
X102747619Y-71538485D01*
X102747619Y-71538485D02*
X102671429Y-71652771D01*
X102671429Y-71652771D02*
X102633333Y-71805152D01*
X102633333Y-71805152D02*
X102633333Y-72109914D01*
X102633333Y-72109914D02*
X102671429Y-72186104D01*
X102671429Y-72186104D02*
X102709524Y-72224200D01*
X102709524Y-72224200D02*
X102785714Y-72262295D01*
X102785714Y-72262295D02*
X102938095Y-72262295D01*
X102938095Y-72262295D02*
X103014286Y-72224200D01*
X103014286Y-72224200D02*
X103052381Y-72186104D01*
X103052381Y-72186104D02*
X103090476Y-72109914D01*
X103090476Y-72109914D02*
X103090476Y-71919438D01*
X103090476Y-71919438D02*
X103052381Y-71843247D01*
X103052381Y-71843247D02*
X103014286Y-71805152D01*
X103014286Y-71805152D02*
X102938095Y-71767057D01*
X102938095Y-71767057D02*
X102785714Y-71767057D01*
X102785714Y-71767057D02*
X102709524Y-71805152D01*
X102709524Y-71805152D02*
X102671429Y-71843247D01*
X102671429Y-71843247D02*
X102633333Y-71919438D01*
X103852381Y-72262295D02*
X103395238Y-72262295D01*
X103623810Y-72262295D02*
X103623810Y-71462295D01*
X103623810Y-71462295D02*
X103547619Y-71576580D01*
X103547619Y-71576580D02*
X103471429Y-71652771D01*
X103471429Y-71652771D02*
X103395238Y-71690866D01*
X104157143Y-71538485D02*
X104195239Y-71500390D01*
X104195239Y-71500390D02*
X104271429Y-71462295D01*
X104271429Y-71462295D02*
X104461905Y-71462295D01*
X104461905Y-71462295D02*
X104538096Y-71500390D01*
X104538096Y-71500390D02*
X104576191Y-71538485D01*
X104576191Y-71538485D02*
X104614286Y-71614676D01*
X104614286Y-71614676D02*
X104614286Y-71690866D01*
X104614286Y-71690866D02*
X104576191Y-71805152D01*
X104576191Y-71805152D02*
X104119048Y-72262295D01*
X104119048Y-72262295D02*
X104614286Y-72262295D01*
X105223810Y-71843247D02*
X104957144Y-71843247D01*
X104957144Y-72262295D02*
X104957144Y-71462295D01*
X104957144Y-71462295D02*
X105338096Y-71462295D01*
X105642858Y-72262295D02*
X105642858Y-71462295D01*
X105642858Y-71462295D02*
X106100001Y-72262295D01*
X106100001Y-72262295D02*
X106100001Y-71462295D01*
X106900000Y-71500390D02*
X106823810Y-71462295D01*
X106823810Y-71462295D02*
X106709524Y-71462295D01*
X106709524Y-71462295D02*
X106595238Y-71500390D01*
X106595238Y-71500390D02*
X106519048Y-71576580D01*
X106519048Y-71576580D02*
X106480953Y-71652771D01*
X106480953Y-71652771D02*
X106442857Y-71805152D01*
X106442857Y-71805152D02*
X106442857Y-71919438D01*
X106442857Y-71919438D02*
X106480953Y-72071819D01*
X106480953Y-72071819D02*
X106519048Y-72148009D01*
X106519048Y-72148009D02*
X106595238Y-72224200D01*
X106595238Y-72224200D02*
X106709524Y-72262295D01*
X106709524Y-72262295D02*
X106785715Y-72262295D01*
X106785715Y-72262295D02*
X106900000Y-72224200D01*
X106900000Y-72224200D02*
X106938096Y-72186104D01*
X106938096Y-72186104D02*
X106938096Y-71919438D01*
X106938096Y-71919438D02*
X106785715Y-71919438D01*
X133359580Y-84866666D02*
X133407200Y-84914285D01*
X133407200Y-84914285D02*
X133454819Y-85057142D01*
X133454819Y-85057142D02*
X133454819Y-85152380D01*
X133454819Y-85152380D02*
X133407200Y-85295237D01*
X133407200Y-85295237D02*
X133311961Y-85390475D01*
X133311961Y-85390475D02*
X133216723Y-85438094D01*
X133216723Y-85438094D02*
X133026247Y-85485713D01*
X133026247Y-85485713D02*
X132883390Y-85485713D01*
X132883390Y-85485713D02*
X132692914Y-85438094D01*
X132692914Y-85438094D02*
X132597676Y-85390475D01*
X132597676Y-85390475D02*
X132502438Y-85295237D01*
X132502438Y-85295237D02*
X132454819Y-85152380D01*
X132454819Y-85152380D02*
X132454819Y-85057142D01*
X132454819Y-85057142D02*
X132502438Y-84914285D01*
X132502438Y-84914285D02*
X132550057Y-84866666D01*
X132550057Y-84485713D02*
X132502438Y-84438094D01*
X132502438Y-84438094D02*
X132454819Y-84342856D01*
X132454819Y-84342856D02*
X132454819Y-84104761D01*
X132454819Y-84104761D02*
X132502438Y-84009523D01*
X132502438Y-84009523D02*
X132550057Y-83961904D01*
X132550057Y-83961904D02*
X132645295Y-83914285D01*
X132645295Y-83914285D02*
X132740533Y-83914285D01*
X132740533Y-83914285D02*
X132883390Y-83961904D01*
X132883390Y-83961904D02*
X133454819Y-84533332D01*
X133454819Y-84533332D02*
X133454819Y-83914285D01*
D10*
X135449895Y-85528238D02*
X135449895Y-85985381D01*
X135449895Y-85756809D02*
X134649895Y-85756809D01*
X134649895Y-85756809D02*
X134764180Y-85833000D01*
X134764180Y-85833000D02*
X134840371Y-85909190D01*
X134840371Y-85909190D02*
X134878466Y-85985381D01*
X134649895Y-85032999D02*
X134649895Y-84956809D01*
X134649895Y-84956809D02*
X134687990Y-84880618D01*
X134687990Y-84880618D02*
X134726085Y-84842523D01*
X134726085Y-84842523D02*
X134802276Y-84804428D01*
X134802276Y-84804428D02*
X134954657Y-84766333D01*
X134954657Y-84766333D02*
X135145133Y-84766333D01*
X135145133Y-84766333D02*
X135297514Y-84804428D01*
X135297514Y-84804428D02*
X135373704Y-84842523D01*
X135373704Y-84842523D02*
X135411800Y-84880618D01*
X135411800Y-84880618D02*
X135449895Y-84956809D01*
X135449895Y-84956809D02*
X135449895Y-85032999D01*
X135449895Y-85032999D02*
X135411800Y-85109190D01*
X135411800Y-85109190D02*
X135373704Y-85147285D01*
X135373704Y-85147285D02*
X135297514Y-85185380D01*
X135297514Y-85185380D02*
X135145133Y-85223476D01*
X135145133Y-85223476D02*
X134954657Y-85223476D01*
X134954657Y-85223476D02*
X134802276Y-85185380D01*
X134802276Y-85185380D02*
X134726085Y-85147285D01*
X134726085Y-85147285D02*
X134687990Y-85109190D01*
X134687990Y-85109190D02*
X134649895Y-85032999D01*
X134649895Y-84271094D02*
X134649895Y-84194904D01*
X134649895Y-84194904D02*
X134687990Y-84118713D01*
X134687990Y-84118713D02*
X134726085Y-84080618D01*
X134726085Y-84080618D02*
X134802276Y-84042523D01*
X134802276Y-84042523D02*
X134954657Y-84004428D01*
X134954657Y-84004428D02*
X135145133Y-84004428D01*
X135145133Y-84004428D02*
X135297514Y-84042523D01*
X135297514Y-84042523D02*
X135373704Y-84080618D01*
X135373704Y-84080618D02*
X135411800Y-84118713D01*
X135411800Y-84118713D02*
X135449895Y-84194904D01*
X135449895Y-84194904D02*
X135449895Y-84271094D01*
X135449895Y-84271094D02*
X135411800Y-84347285D01*
X135411800Y-84347285D02*
X135373704Y-84385380D01*
X135373704Y-84385380D02*
X135297514Y-84423475D01*
X135297514Y-84423475D02*
X135145133Y-84461571D01*
X135145133Y-84461571D02*
X134954657Y-84461571D01*
X134954657Y-84461571D02*
X134802276Y-84423475D01*
X134802276Y-84423475D02*
X134726085Y-84385380D01*
X134726085Y-84385380D02*
X134687990Y-84347285D01*
X134687990Y-84347285D02*
X134649895Y-84271094D01*
X134916561Y-83661570D02*
X135449895Y-83661570D01*
X134992752Y-83661570D02*
X134954657Y-83623475D01*
X134954657Y-83623475D02*
X134916561Y-83547285D01*
X134916561Y-83547285D02*
X134916561Y-83432999D01*
X134916561Y-83432999D02*
X134954657Y-83356808D01*
X134954657Y-83356808D02*
X135030847Y-83318713D01*
X135030847Y-83318713D02*
X135449895Y-83318713D01*
D11*
X95852066Y-80214419D02*
X95852066Y-80928704D01*
X95852066Y-80928704D02*
X95804447Y-81071561D01*
X95804447Y-81071561D02*
X95709209Y-81166800D01*
X95709209Y-81166800D02*
X95566352Y-81214419D01*
X95566352Y-81214419D02*
X95471114Y-81214419D01*
X96233019Y-80214419D02*
X96852066Y-80214419D01*
X96852066Y-80214419D02*
X96518733Y-80595371D01*
X96518733Y-80595371D02*
X96661590Y-80595371D01*
X96661590Y-80595371D02*
X96756828Y-80642990D01*
X96756828Y-80642990D02*
X96804447Y-80690609D01*
X96804447Y-80690609D02*
X96852066Y-80785847D01*
X96852066Y-80785847D02*
X96852066Y-81023942D01*
X96852066Y-81023942D02*
X96804447Y-81119180D01*
X96804447Y-81119180D02*
X96756828Y-81166800D01*
X96756828Y-81166800D02*
X96661590Y-81214419D01*
X96661590Y-81214419D02*
X96375876Y-81214419D01*
X96375876Y-81214419D02*
X96280638Y-81166800D01*
X96280638Y-81166800D02*
X96233019Y-81119180D01*
X127033333Y-55554819D02*
X126700000Y-55078628D01*
X126461905Y-55554819D02*
X126461905Y-54554819D01*
X126461905Y-54554819D02*
X126842857Y-54554819D01*
X126842857Y-54554819D02*
X126938095Y-54602438D01*
X126938095Y-54602438D02*
X126985714Y-54650057D01*
X126985714Y-54650057D02*
X127033333Y-54745295D01*
X127033333Y-54745295D02*
X127033333Y-54888152D01*
X127033333Y-54888152D02*
X126985714Y-54983390D01*
X126985714Y-54983390D02*
X126938095Y-55031009D01*
X126938095Y-55031009D02*
X126842857Y-55078628D01*
X126842857Y-55078628D02*
X126461905Y-55078628D01*
X127366667Y-54554819D02*
X128033333Y-54554819D01*
X128033333Y-54554819D02*
X127604762Y-55554819D01*
X132234286Y-55550057D02*
X132281905Y-55502438D01*
X132281905Y-55502438D02*
X132377143Y-55454819D01*
X132377143Y-55454819D02*
X132615238Y-55454819D01*
X132615238Y-55454819D02*
X132710476Y-55502438D01*
X132710476Y-55502438D02*
X132758095Y-55550057D01*
X132758095Y-55550057D02*
X132805714Y-55645295D01*
X132805714Y-55645295D02*
X132805714Y-55740533D01*
X132805714Y-55740533D02*
X132758095Y-55883390D01*
X132758095Y-55883390D02*
X132186667Y-56454819D01*
X132186667Y-56454819D02*
X132805714Y-56454819D01*
X133234286Y-56454819D02*
X133234286Y-55454819D01*
X133805714Y-56454819D02*
X133377143Y-55883390D01*
X133805714Y-55454819D02*
X133234286Y-56026247D01*
X157166666Y-52754819D02*
X157166666Y-53469104D01*
X157166666Y-53469104D02*
X157119047Y-53611961D01*
X157119047Y-53611961D02*
X157023809Y-53707200D01*
X157023809Y-53707200D02*
X156880952Y-53754819D01*
X156880952Y-53754819D02*
X156785714Y-53754819D01*
X158071428Y-52754819D02*
X157880952Y-52754819D01*
X157880952Y-52754819D02*
X157785714Y-52802438D01*
X157785714Y-52802438D02*
X157738095Y-52850057D01*
X157738095Y-52850057D02*
X157642857Y-52992914D01*
X157642857Y-52992914D02*
X157595238Y-53183390D01*
X157595238Y-53183390D02*
X157595238Y-53564342D01*
X157595238Y-53564342D02*
X157642857Y-53659580D01*
X157642857Y-53659580D02*
X157690476Y-53707200D01*
X157690476Y-53707200D02*
X157785714Y-53754819D01*
X157785714Y-53754819D02*
X157976190Y-53754819D01*
X157976190Y-53754819D02*
X158071428Y-53707200D01*
X158071428Y-53707200D02*
X158119047Y-53659580D01*
X158119047Y-53659580D02*
X158166666Y-53564342D01*
X158166666Y-53564342D02*
X158166666Y-53326247D01*
X158166666Y-53326247D02*
X158119047Y-53231009D01*
X158119047Y-53231009D02*
X158071428Y-53183390D01*
X158071428Y-53183390D02*
X157976190Y-53135771D01*
X157976190Y-53135771D02*
X157785714Y-53135771D01*
X157785714Y-53135771D02*
X157690476Y-53183390D01*
X157690476Y-53183390D02*
X157642857Y-53231009D01*
X157642857Y-53231009D02*
X157595238Y-53326247D01*
X137754819Y-90566666D02*
X137278628Y-90899999D01*
X137754819Y-91138094D02*
X136754819Y-91138094D01*
X136754819Y-91138094D02*
X136754819Y-90757142D01*
X136754819Y-90757142D02*
X136802438Y-90661904D01*
X136802438Y-90661904D02*
X136850057Y-90614285D01*
X136850057Y-90614285D02*
X136945295Y-90566666D01*
X136945295Y-90566666D02*
X137088152Y-90566666D01*
X137088152Y-90566666D02*
X137183390Y-90614285D01*
X137183390Y-90614285D02*
X137231009Y-90661904D01*
X137231009Y-90661904D02*
X137278628Y-90757142D01*
X137278628Y-90757142D02*
X137278628Y-91138094D01*
X137754819Y-89614285D02*
X137754819Y-90185713D01*
X137754819Y-89899999D02*
X136754819Y-89899999D01*
X136754819Y-89899999D02*
X136897676Y-89995237D01*
X136897676Y-89995237D02*
X136992914Y-90090475D01*
X136992914Y-90090475D02*
X137040533Y-90185713D01*
X95866666Y-52354819D02*
X95866666Y-53069104D01*
X95866666Y-53069104D02*
X95819047Y-53211961D01*
X95819047Y-53211961D02*
X95723809Y-53307200D01*
X95723809Y-53307200D02*
X95580952Y-53354819D01*
X95580952Y-53354819D02*
X95485714Y-53354819D01*
X96295238Y-52450057D02*
X96342857Y-52402438D01*
X96342857Y-52402438D02*
X96438095Y-52354819D01*
X96438095Y-52354819D02*
X96676190Y-52354819D01*
X96676190Y-52354819D02*
X96771428Y-52402438D01*
X96771428Y-52402438D02*
X96819047Y-52450057D01*
X96819047Y-52450057D02*
X96866666Y-52545295D01*
X96866666Y-52545295D02*
X96866666Y-52640533D01*
X96866666Y-52640533D02*
X96819047Y-52783390D01*
X96819047Y-52783390D02*
X96247619Y-53354819D01*
X96247619Y-53354819D02*
X96866666Y-53354819D01*
X142999819Y-86577666D02*
X142523628Y-86910999D01*
X142999819Y-87149094D02*
X141999819Y-87149094D01*
X141999819Y-87149094D02*
X141999819Y-86768142D01*
X141999819Y-86768142D02*
X142047438Y-86672904D01*
X142047438Y-86672904D02*
X142095057Y-86625285D01*
X142095057Y-86625285D02*
X142190295Y-86577666D01*
X142190295Y-86577666D02*
X142333152Y-86577666D01*
X142333152Y-86577666D02*
X142428390Y-86625285D01*
X142428390Y-86625285D02*
X142476009Y-86672904D01*
X142476009Y-86672904D02*
X142523628Y-86768142D01*
X142523628Y-86768142D02*
X142523628Y-87149094D01*
X142095057Y-86196713D02*
X142047438Y-86149094D01*
X142047438Y-86149094D02*
X141999819Y-86053856D01*
X141999819Y-86053856D02*
X141999819Y-85815761D01*
X141999819Y-85815761D02*
X142047438Y-85720523D01*
X142047438Y-85720523D02*
X142095057Y-85672904D01*
X142095057Y-85672904D02*
X142190295Y-85625285D01*
X142190295Y-85625285D02*
X142285533Y-85625285D01*
X142285533Y-85625285D02*
X142428390Y-85672904D01*
X142428390Y-85672904D02*
X142999819Y-86244332D01*
X142999819Y-86244332D02*
X142999819Y-85625285D01*
X114533332Y-99324200D02*
X114647618Y-99362295D01*
X114647618Y-99362295D02*
X114838094Y-99362295D01*
X114838094Y-99362295D02*
X114914285Y-99324200D01*
X114914285Y-99324200D02*
X114952380Y-99286104D01*
X114952380Y-99286104D02*
X114990475Y-99209914D01*
X114990475Y-99209914D02*
X114990475Y-99133723D01*
X114990475Y-99133723D02*
X114952380Y-99057533D01*
X114952380Y-99057533D02*
X114914285Y-99019438D01*
X114914285Y-99019438D02*
X114838094Y-98981342D01*
X114838094Y-98981342D02*
X114685713Y-98943247D01*
X114685713Y-98943247D02*
X114609523Y-98905152D01*
X114609523Y-98905152D02*
X114571428Y-98867057D01*
X114571428Y-98867057D02*
X114533332Y-98790866D01*
X114533332Y-98790866D02*
X114533332Y-98714676D01*
X114533332Y-98714676D02*
X114571428Y-98638485D01*
X114571428Y-98638485D02*
X114609523Y-98600390D01*
X114609523Y-98600390D02*
X114685713Y-98562295D01*
X114685713Y-98562295D02*
X114876190Y-98562295D01*
X114876190Y-98562295D02*
X114990475Y-98600390D01*
X115257142Y-98562295D02*
X115447618Y-99362295D01*
X115447618Y-99362295D02*
X115599999Y-98790866D01*
X115599999Y-98790866D02*
X115752380Y-99362295D01*
X115752380Y-99362295D02*
X115942857Y-98562295D01*
X116666666Y-99362295D02*
X116209523Y-99362295D01*
X116438095Y-99362295D02*
X116438095Y-98562295D01*
X116438095Y-98562295D02*
X116361904Y-98676580D01*
X116361904Y-98676580D02*
X116285714Y-98752771D01*
X116285714Y-98752771D02*
X116209523Y-98790866D01*
D12*
X139217054Y-69521504D02*
X139693244Y-69521504D01*
X139121816Y-69807219D02*
X139455149Y-68807219D01*
X139455149Y-68807219D02*
X139788482Y-69807219D01*
X140026578Y-68807219D02*
X140645625Y-68807219D01*
X140645625Y-68807219D02*
X140312292Y-69188171D01*
X140312292Y-69188171D02*
X140455149Y-69188171D01*
X140455149Y-69188171D02*
X140550387Y-69235790D01*
X140550387Y-69235790D02*
X140598006Y-69283409D01*
X140598006Y-69283409D02*
X140645625Y-69378647D01*
X140645625Y-69378647D02*
X140645625Y-69616742D01*
X140645625Y-69616742D02*
X140598006Y-69711980D01*
X140598006Y-69711980D02*
X140550387Y-69759600D01*
X140550387Y-69759600D02*
X140455149Y-69807219D01*
X140455149Y-69807219D02*
X140169435Y-69807219D01*
X140169435Y-69807219D02*
X140074197Y-69759600D01*
X140074197Y-69759600D02*
X140026578Y-69711980D01*
D11*
X132778999Y-72575819D02*
X132445666Y-72099628D01*
X132207571Y-72575819D02*
X132207571Y-71575819D01*
X132207571Y-71575819D02*
X132588523Y-71575819D01*
X132588523Y-71575819D02*
X132683761Y-71623438D01*
X132683761Y-71623438D02*
X132731380Y-71671057D01*
X132731380Y-71671057D02*
X132778999Y-71766295D01*
X132778999Y-71766295D02*
X132778999Y-71909152D01*
X132778999Y-71909152D02*
X132731380Y-72004390D01*
X132731380Y-72004390D02*
X132683761Y-72052009D01*
X132683761Y-72052009D02*
X132588523Y-72099628D01*
X132588523Y-72099628D02*
X132207571Y-72099628D01*
X133636142Y-72575819D02*
X133636142Y-72052009D01*
X133636142Y-72052009D02*
X133588523Y-71956771D01*
X133588523Y-71956771D02*
X133493285Y-71909152D01*
X133493285Y-71909152D02*
X133302809Y-71909152D01*
X133302809Y-71909152D02*
X133207571Y-71956771D01*
X133636142Y-72528200D02*
X133540904Y-72575819D01*
X133540904Y-72575819D02*
X133302809Y-72575819D01*
X133302809Y-72575819D02*
X133207571Y-72528200D01*
X133207571Y-72528200D02*
X133159952Y-72432961D01*
X133159952Y-72432961D02*
X133159952Y-72337723D01*
X133159952Y-72337723D02*
X133207571Y-72242485D01*
X133207571Y-72242485D02*
X133302809Y-72194866D01*
X133302809Y-72194866D02*
X133540904Y-72194866D01*
X133540904Y-72194866D02*
X133636142Y-72147247D01*
X134064714Y-72528200D02*
X134159952Y-72575819D01*
X134159952Y-72575819D02*
X134350428Y-72575819D01*
X134350428Y-72575819D02*
X134445666Y-72528200D01*
X134445666Y-72528200D02*
X134493285Y-72432961D01*
X134493285Y-72432961D02*
X134493285Y-72385342D01*
X134493285Y-72385342D02*
X134445666Y-72290104D01*
X134445666Y-72290104D02*
X134350428Y-72242485D01*
X134350428Y-72242485D02*
X134207571Y-72242485D01*
X134207571Y-72242485D02*
X134112333Y-72194866D01*
X134112333Y-72194866D02*
X134064714Y-72099628D01*
X134064714Y-72099628D02*
X134064714Y-72052009D01*
X134064714Y-72052009D02*
X134112333Y-71956771D01*
X134112333Y-71956771D02*
X134207571Y-71909152D01*
X134207571Y-71909152D02*
X134350428Y-71909152D01*
X134350428Y-71909152D02*
X134445666Y-71956771D01*
X134921857Y-71909152D02*
X134921857Y-72909152D01*
X134921857Y-71956771D02*
X135017095Y-71909152D01*
X135017095Y-71909152D02*
X135207571Y-71909152D01*
X135207571Y-71909152D02*
X135302809Y-71956771D01*
X135302809Y-71956771D02*
X135350428Y-72004390D01*
X135350428Y-72004390D02*
X135398047Y-72099628D01*
X135398047Y-72099628D02*
X135398047Y-72385342D01*
X135398047Y-72385342D02*
X135350428Y-72480580D01*
X135350428Y-72480580D02*
X135302809Y-72528200D01*
X135302809Y-72528200D02*
X135207571Y-72575819D01*
X135207571Y-72575819D02*
X135017095Y-72575819D01*
X135017095Y-72575819D02*
X134921857Y-72528200D01*
X135826619Y-72575819D02*
X135826619Y-71575819D01*
X135826619Y-71956771D02*
X135921857Y-71909152D01*
X135921857Y-71909152D02*
X136112333Y-71909152D01*
X136112333Y-71909152D02*
X136207571Y-71956771D01*
X136207571Y-71956771D02*
X136255190Y-72004390D01*
X136255190Y-72004390D02*
X136302809Y-72099628D01*
X136302809Y-72099628D02*
X136302809Y-72385342D01*
X136302809Y-72385342D02*
X136255190Y-72480580D01*
X136255190Y-72480580D02*
X136207571Y-72528200D01*
X136207571Y-72528200D02*
X136112333Y-72575819D01*
X136112333Y-72575819D02*
X135921857Y-72575819D01*
X135921857Y-72575819D02*
X135826619Y-72528200D01*
X137112333Y-72528200D02*
X137017095Y-72575819D01*
X137017095Y-72575819D02*
X136826619Y-72575819D01*
X136826619Y-72575819D02*
X136731381Y-72528200D01*
X136731381Y-72528200D02*
X136683762Y-72432961D01*
X136683762Y-72432961D02*
X136683762Y-72052009D01*
X136683762Y-72052009D02*
X136731381Y-71956771D01*
X136731381Y-71956771D02*
X136826619Y-71909152D01*
X136826619Y-71909152D02*
X137017095Y-71909152D01*
X137017095Y-71909152D02*
X137112333Y-71956771D01*
X137112333Y-71956771D02*
X137159952Y-72052009D01*
X137159952Y-72052009D02*
X137159952Y-72147247D01*
X137159952Y-72147247D02*
X136683762Y-72242485D01*
X137588524Y-72575819D02*
X137588524Y-71909152D01*
X137588524Y-72099628D02*
X137636143Y-72004390D01*
X137636143Y-72004390D02*
X137683762Y-71956771D01*
X137683762Y-71956771D02*
X137779000Y-71909152D01*
X137779000Y-71909152D02*
X137874238Y-71909152D01*
X138207572Y-72575819D02*
X138207572Y-71909152D01*
X138207572Y-72099628D02*
X138255191Y-72004390D01*
X138255191Y-72004390D02*
X138302810Y-71956771D01*
X138302810Y-71956771D02*
X138398048Y-71909152D01*
X138398048Y-71909152D02*
X138493286Y-71909152D01*
X138731382Y-71909152D02*
X138969477Y-72575819D01*
X139207572Y-71909152D02*
X138969477Y-72575819D01*
X138969477Y-72575819D02*
X138874239Y-72813914D01*
X138874239Y-72813914D02*
X138826620Y-72861533D01*
X138826620Y-72861533D02*
X138731382Y-72909152D01*
X140350430Y-72575819D02*
X140350430Y-71575819D01*
X140350430Y-71575819D02*
X140731382Y-71575819D01*
X140731382Y-71575819D02*
X140826620Y-71623438D01*
X140826620Y-71623438D02*
X140874239Y-71671057D01*
X140874239Y-71671057D02*
X140921858Y-71766295D01*
X140921858Y-71766295D02*
X140921858Y-71909152D01*
X140921858Y-71909152D02*
X140874239Y-72004390D01*
X140874239Y-72004390D02*
X140826620Y-72052009D01*
X140826620Y-72052009D02*
X140731382Y-72099628D01*
X140731382Y-72099628D02*
X140350430Y-72099628D01*
X141350430Y-72575819D02*
X141350430Y-71909152D01*
X141350430Y-71575819D02*
X141302811Y-71623438D01*
X141302811Y-71623438D02*
X141350430Y-71671057D01*
X141350430Y-71671057D02*
X141398049Y-71623438D01*
X141398049Y-71623438D02*
X141350430Y-71575819D01*
X141350430Y-71575819D02*
X141350430Y-71671057D01*
X142588525Y-72575819D02*
X142588525Y-71575819D01*
X142588525Y-71575819D02*
X142969477Y-71575819D01*
X142969477Y-71575819D02*
X143064715Y-71623438D01*
X143064715Y-71623438D02*
X143112334Y-71671057D01*
X143112334Y-71671057D02*
X143159953Y-71766295D01*
X143159953Y-71766295D02*
X143159953Y-71909152D01*
X143159953Y-71909152D02*
X143112334Y-72004390D01*
X143112334Y-72004390D02*
X143064715Y-72052009D01*
X143064715Y-72052009D02*
X142969477Y-72099628D01*
X142969477Y-72099628D02*
X142588525Y-72099628D01*
X143588525Y-72575819D02*
X143588525Y-71909152D01*
X143588525Y-71575819D02*
X143540906Y-71623438D01*
X143540906Y-71623438D02*
X143588525Y-71671057D01*
X143588525Y-71671057D02*
X143636144Y-71623438D01*
X143636144Y-71623438D02*
X143588525Y-71575819D01*
X143588525Y-71575819D02*
X143588525Y-71671057D01*
X144493286Y-72528200D02*
X144398048Y-72575819D01*
X144398048Y-72575819D02*
X144207572Y-72575819D01*
X144207572Y-72575819D02*
X144112334Y-72528200D01*
X144112334Y-72528200D02*
X144064715Y-72480580D01*
X144064715Y-72480580D02*
X144017096Y-72385342D01*
X144017096Y-72385342D02*
X144017096Y-72099628D01*
X144017096Y-72099628D02*
X144064715Y-72004390D01*
X144064715Y-72004390D02*
X144112334Y-71956771D01*
X144112334Y-71956771D02*
X144207572Y-71909152D01*
X144207572Y-71909152D02*
X144398048Y-71909152D01*
X144398048Y-71909152D02*
X144493286Y-71956771D01*
X145064715Y-72575819D02*
X144969477Y-72528200D01*
X144969477Y-72528200D02*
X144921858Y-72480580D01*
X144921858Y-72480580D02*
X144874239Y-72385342D01*
X144874239Y-72385342D02*
X144874239Y-72099628D01*
X144874239Y-72099628D02*
X144921858Y-72004390D01*
X144921858Y-72004390D02*
X144969477Y-71956771D01*
X144969477Y-71956771D02*
X145064715Y-71909152D01*
X145064715Y-71909152D02*
X145207572Y-71909152D01*
X145207572Y-71909152D02*
X145302810Y-71956771D01*
X145302810Y-71956771D02*
X145350429Y-72004390D01*
X145350429Y-72004390D02*
X145398048Y-72099628D01*
X145398048Y-72099628D02*
X145398048Y-72385342D01*
X145398048Y-72385342D02*
X145350429Y-72480580D01*
X145350429Y-72480580D02*
X145302810Y-72528200D01*
X145302810Y-72528200D02*
X145207572Y-72575819D01*
X145207572Y-72575819D02*
X145064715Y-72575819D01*
X137033332Y-99424200D02*
X137147618Y-99462295D01*
X137147618Y-99462295D02*
X137338094Y-99462295D01*
X137338094Y-99462295D02*
X137414285Y-99424200D01*
X137414285Y-99424200D02*
X137452380Y-99386104D01*
X137452380Y-99386104D02*
X137490475Y-99309914D01*
X137490475Y-99309914D02*
X137490475Y-99233723D01*
X137490475Y-99233723D02*
X137452380Y-99157533D01*
X137452380Y-99157533D02*
X137414285Y-99119438D01*
X137414285Y-99119438D02*
X137338094Y-99081342D01*
X137338094Y-99081342D02*
X137185713Y-99043247D01*
X137185713Y-99043247D02*
X137109523Y-99005152D01*
X137109523Y-99005152D02*
X137071428Y-98967057D01*
X137071428Y-98967057D02*
X137033332Y-98890866D01*
X137033332Y-98890866D02*
X137033332Y-98814676D01*
X137033332Y-98814676D02*
X137071428Y-98738485D01*
X137071428Y-98738485D02*
X137109523Y-98700390D01*
X137109523Y-98700390D02*
X137185713Y-98662295D01*
X137185713Y-98662295D02*
X137376190Y-98662295D01*
X137376190Y-98662295D02*
X137490475Y-98700390D01*
X137757142Y-98662295D02*
X137947618Y-99462295D01*
X137947618Y-99462295D02*
X138099999Y-98890866D01*
X138099999Y-98890866D02*
X138252380Y-99462295D01*
X138252380Y-99462295D02*
X138442857Y-98662295D01*
X138709523Y-98738485D02*
X138747619Y-98700390D01*
X138747619Y-98700390D02*
X138823809Y-98662295D01*
X138823809Y-98662295D02*
X139014285Y-98662295D01*
X139014285Y-98662295D02*
X139090476Y-98700390D01*
X139090476Y-98700390D02*
X139128571Y-98738485D01*
X139128571Y-98738485D02*
X139166666Y-98814676D01*
X139166666Y-98814676D02*
X139166666Y-98890866D01*
X139166666Y-98890866D02*
X139128571Y-99005152D01*
X139128571Y-99005152D02*
X138671428Y-99462295D01*
X138671428Y-99462295D02*
X139166666Y-99462295D01*
X163750466Y-52608019D02*
X163750466Y-53322304D01*
X163750466Y-53322304D02*
X163702847Y-53465161D01*
X163702847Y-53465161D02*
X163607609Y-53560400D01*
X163607609Y-53560400D02*
X163464752Y-53608019D01*
X163464752Y-53608019D02*
X163369514Y-53608019D01*
X164702847Y-52608019D02*
X164226657Y-52608019D01*
X164226657Y-52608019D02*
X164179038Y-53084209D01*
X164179038Y-53084209D02*
X164226657Y-53036590D01*
X164226657Y-53036590D02*
X164321895Y-52988971D01*
X164321895Y-52988971D02*
X164559990Y-52988971D01*
X164559990Y-52988971D02*
X164655228Y-53036590D01*
X164655228Y-53036590D02*
X164702847Y-53084209D01*
X164702847Y-53084209D02*
X164750466Y-53179447D01*
X164750466Y-53179447D02*
X164750466Y-53417542D01*
X164750466Y-53417542D02*
X164702847Y-53512780D01*
X164702847Y-53512780D02*
X164655228Y-53560400D01*
X164655228Y-53560400D02*
X164559990Y-53608019D01*
X164559990Y-53608019D02*
X164321895Y-53608019D01*
X164321895Y-53608019D02*
X164226657Y-53560400D01*
X164226657Y-53560400D02*
X164179038Y-53512780D01*
X142571428Y-98831009D02*
X142714285Y-98878628D01*
X142714285Y-98878628D02*
X142761904Y-98926247D01*
X142761904Y-98926247D02*
X142809523Y-99021485D01*
X142809523Y-99021485D02*
X142809523Y-99164342D01*
X142809523Y-99164342D02*
X142761904Y-99259580D01*
X142761904Y-99259580D02*
X142714285Y-99307200D01*
X142714285Y-99307200D02*
X142619047Y-99354819D01*
X142619047Y-99354819D02*
X142238095Y-99354819D01*
X142238095Y-99354819D02*
X142238095Y-98354819D01*
X142238095Y-98354819D02*
X142571428Y-98354819D01*
X142571428Y-98354819D02*
X142666666Y-98402438D01*
X142666666Y-98402438D02*
X142714285Y-98450057D01*
X142714285Y-98450057D02*
X142761904Y-98545295D01*
X142761904Y-98545295D02*
X142761904Y-98640533D01*
X142761904Y-98640533D02*
X142714285Y-98735771D01*
X142714285Y-98735771D02*
X142666666Y-98783390D01*
X142666666Y-98783390D02*
X142571428Y-98831009D01*
X142571428Y-98831009D02*
X142238095Y-98831009D01*
X143761904Y-98402438D02*
X143666666Y-98354819D01*
X143666666Y-98354819D02*
X143523809Y-98354819D01*
X143523809Y-98354819D02*
X143380952Y-98402438D01*
X143380952Y-98402438D02*
X143285714Y-98497676D01*
X143285714Y-98497676D02*
X143238095Y-98592914D01*
X143238095Y-98592914D02*
X143190476Y-98783390D01*
X143190476Y-98783390D02*
X143190476Y-98926247D01*
X143190476Y-98926247D02*
X143238095Y-99116723D01*
X143238095Y-99116723D02*
X143285714Y-99211961D01*
X143285714Y-99211961D02*
X143380952Y-99307200D01*
X143380952Y-99307200D02*
X143523809Y-99354819D01*
X143523809Y-99354819D02*
X143619047Y-99354819D01*
X143619047Y-99354819D02*
X143761904Y-99307200D01*
X143761904Y-99307200D02*
X143809523Y-99259580D01*
X143809523Y-99259580D02*
X143809523Y-98926247D01*
X143809523Y-98926247D02*
X143619047Y-98926247D01*
X144238095Y-99354819D02*
X144238095Y-98354819D01*
X144809523Y-99354819D02*
X144380952Y-98783390D01*
X144809523Y-98354819D02*
X144238095Y-98926247D01*
X145809523Y-99354819D02*
X145476190Y-98878628D01*
X145238095Y-99354819D02*
X145238095Y-98354819D01*
X145238095Y-98354819D02*
X145619047Y-98354819D01*
X145619047Y-98354819D02*
X145714285Y-98402438D01*
X145714285Y-98402438D02*
X145761904Y-98450057D01*
X145761904Y-98450057D02*
X145809523Y-98545295D01*
X145809523Y-98545295D02*
X145809523Y-98688152D01*
X145809523Y-98688152D02*
X145761904Y-98783390D01*
X145761904Y-98783390D02*
X145714285Y-98831009D01*
X145714285Y-98831009D02*
X145619047Y-98878628D01*
X145619047Y-98878628D02*
X145238095Y-98878628D01*
X121133333Y-88754819D02*
X120800000Y-88278628D01*
X120561905Y-88754819D02*
X120561905Y-87754819D01*
X120561905Y-87754819D02*
X120942857Y-87754819D01*
X120942857Y-87754819D02*
X121038095Y-87802438D01*
X121038095Y-87802438D02*
X121085714Y-87850057D01*
X121085714Y-87850057D02*
X121133333Y-87945295D01*
X121133333Y-87945295D02*
X121133333Y-88088152D01*
X121133333Y-88088152D02*
X121085714Y-88183390D01*
X121085714Y-88183390D02*
X121038095Y-88231009D01*
X121038095Y-88231009D02*
X120942857Y-88278628D01*
X120942857Y-88278628D02*
X120561905Y-88278628D01*
X121990476Y-88088152D02*
X121990476Y-88754819D01*
X121752381Y-87707200D02*
X121514286Y-88421485D01*
X121514286Y-88421485D02*
X122133333Y-88421485D01*
X121121714Y-90802819D02*
X120550286Y-90802819D01*
X120836000Y-90802819D02*
X120836000Y-89802819D01*
X120836000Y-89802819D02*
X120740762Y-89945676D01*
X120740762Y-89945676D02*
X120645524Y-90040914D01*
X120645524Y-90040914D02*
X120550286Y-90088533D01*
X121550286Y-90802819D02*
X121550286Y-89802819D01*
X122121714Y-90802819D02*
X121693143Y-90231390D01*
X122121714Y-89802819D02*
X121550286Y-90374247D01*
X128259580Y-84766666D02*
X128307200Y-84814285D01*
X128307200Y-84814285D02*
X128354819Y-84957142D01*
X128354819Y-84957142D02*
X128354819Y-85052380D01*
X128354819Y-85052380D02*
X128307200Y-85195237D01*
X128307200Y-85195237D02*
X128211961Y-85290475D01*
X128211961Y-85290475D02*
X128116723Y-85338094D01*
X128116723Y-85338094D02*
X127926247Y-85385713D01*
X127926247Y-85385713D02*
X127783390Y-85385713D01*
X127783390Y-85385713D02*
X127592914Y-85338094D01*
X127592914Y-85338094D02*
X127497676Y-85290475D01*
X127497676Y-85290475D02*
X127402438Y-85195237D01*
X127402438Y-85195237D02*
X127354819Y-85052380D01*
X127354819Y-85052380D02*
X127354819Y-84957142D01*
X127354819Y-84957142D02*
X127402438Y-84814285D01*
X127402438Y-84814285D02*
X127450057Y-84766666D01*
X128354819Y-83814285D02*
X128354819Y-84385713D01*
X128354819Y-84099999D02*
X127354819Y-84099999D01*
X127354819Y-84099999D02*
X127497676Y-84195237D01*
X127497676Y-84195237D02*
X127592914Y-84290475D01*
X127592914Y-84290475D02*
X127640533Y-84385713D01*
D10*
X130369895Y-85528238D02*
X130369895Y-85985381D01*
X130369895Y-85756809D02*
X129569895Y-85756809D01*
X129569895Y-85756809D02*
X129684180Y-85833000D01*
X129684180Y-85833000D02*
X129760371Y-85909190D01*
X129760371Y-85909190D02*
X129798466Y-85985381D01*
X129569895Y-85032999D02*
X129569895Y-84956809D01*
X129569895Y-84956809D02*
X129607990Y-84880618D01*
X129607990Y-84880618D02*
X129646085Y-84842523D01*
X129646085Y-84842523D02*
X129722276Y-84804428D01*
X129722276Y-84804428D02*
X129874657Y-84766333D01*
X129874657Y-84766333D02*
X130065133Y-84766333D01*
X130065133Y-84766333D02*
X130217514Y-84804428D01*
X130217514Y-84804428D02*
X130293704Y-84842523D01*
X130293704Y-84842523D02*
X130331800Y-84880618D01*
X130331800Y-84880618D02*
X130369895Y-84956809D01*
X130369895Y-84956809D02*
X130369895Y-85032999D01*
X130369895Y-85032999D02*
X130331800Y-85109190D01*
X130331800Y-85109190D02*
X130293704Y-85147285D01*
X130293704Y-85147285D02*
X130217514Y-85185380D01*
X130217514Y-85185380D02*
X130065133Y-85223476D01*
X130065133Y-85223476D02*
X129874657Y-85223476D01*
X129874657Y-85223476D02*
X129722276Y-85185380D01*
X129722276Y-85185380D02*
X129646085Y-85147285D01*
X129646085Y-85147285D02*
X129607990Y-85109190D01*
X129607990Y-85109190D02*
X129569895Y-85032999D01*
X129569895Y-84271094D02*
X129569895Y-84194904D01*
X129569895Y-84194904D02*
X129607990Y-84118713D01*
X129607990Y-84118713D02*
X129646085Y-84080618D01*
X129646085Y-84080618D02*
X129722276Y-84042523D01*
X129722276Y-84042523D02*
X129874657Y-84004428D01*
X129874657Y-84004428D02*
X130065133Y-84004428D01*
X130065133Y-84004428D02*
X130217514Y-84042523D01*
X130217514Y-84042523D02*
X130293704Y-84080618D01*
X130293704Y-84080618D02*
X130331800Y-84118713D01*
X130331800Y-84118713D02*
X130369895Y-84194904D01*
X130369895Y-84194904D02*
X130369895Y-84271094D01*
X130369895Y-84271094D02*
X130331800Y-84347285D01*
X130331800Y-84347285D02*
X130293704Y-84385380D01*
X130293704Y-84385380D02*
X130217514Y-84423475D01*
X130217514Y-84423475D02*
X130065133Y-84461571D01*
X130065133Y-84461571D02*
X129874657Y-84461571D01*
X129874657Y-84461571D02*
X129722276Y-84423475D01*
X129722276Y-84423475D02*
X129646085Y-84385380D01*
X129646085Y-84385380D02*
X129607990Y-84347285D01*
X129607990Y-84347285D02*
X129569895Y-84271094D01*
X129836561Y-83661570D02*
X130369895Y-83661570D01*
X129912752Y-83661570D02*
X129874657Y-83623475D01*
X129874657Y-83623475D02*
X129836561Y-83547285D01*
X129836561Y-83547285D02*
X129836561Y-83432999D01*
X129836561Y-83432999D02*
X129874657Y-83356808D01*
X129874657Y-83356808D02*
X129950847Y-83318713D01*
X129950847Y-83318713D02*
X130369895Y-83318713D01*
D11*
X132233333Y-88654819D02*
X131900000Y-88178628D01*
X131661905Y-88654819D02*
X131661905Y-87654819D01*
X131661905Y-87654819D02*
X132042857Y-87654819D01*
X132042857Y-87654819D02*
X132138095Y-87702438D01*
X132138095Y-87702438D02*
X132185714Y-87750057D01*
X132185714Y-87750057D02*
X132233333Y-87845295D01*
X132233333Y-87845295D02*
X132233333Y-87988152D01*
X132233333Y-87988152D02*
X132185714Y-88083390D01*
X132185714Y-88083390D02*
X132138095Y-88131009D01*
X132138095Y-88131009D02*
X132042857Y-88178628D01*
X132042857Y-88178628D02*
X131661905Y-88178628D01*
X133138095Y-87654819D02*
X132661905Y-87654819D01*
X132661905Y-87654819D02*
X132614286Y-88131009D01*
X132614286Y-88131009D02*
X132661905Y-88083390D01*
X132661905Y-88083390D02*
X132757143Y-88035771D01*
X132757143Y-88035771D02*
X132995238Y-88035771D01*
X132995238Y-88035771D02*
X133090476Y-88083390D01*
X133090476Y-88083390D02*
X133138095Y-88131009D01*
X133138095Y-88131009D02*
X133185714Y-88226247D01*
X133185714Y-88226247D02*
X133185714Y-88464342D01*
X133185714Y-88464342D02*
X133138095Y-88559580D01*
X133138095Y-88559580D02*
X133090476Y-88607200D01*
X133090476Y-88607200D02*
X132995238Y-88654819D01*
X132995238Y-88654819D02*
X132757143Y-88654819D01*
X132757143Y-88654819D02*
X132661905Y-88607200D01*
X132661905Y-88607200D02*
X132614286Y-88559580D01*
X131281714Y-90802819D02*
X130710286Y-90802819D01*
X130996000Y-90802819D02*
X130996000Y-89802819D01*
X130996000Y-89802819D02*
X130900762Y-89945676D01*
X130900762Y-89945676D02*
X130805524Y-90040914D01*
X130805524Y-90040914D02*
X130710286Y-90088533D01*
X131710286Y-90802819D02*
X131710286Y-89802819D01*
X132281714Y-90802819D02*
X131853143Y-90231390D01*
X132281714Y-89802819D02*
X131710286Y-90374247D01*
X143966666Y-52754819D02*
X143966666Y-53469104D01*
X143966666Y-53469104D02*
X143919047Y-53611961D01*
X143919047Y-53611961D02*
X143823809Y-53707200D01*
X143823809Y-53707200D02*
X143680952Y-53754819D01*
X143680952Y-53754819D02*
X143585714Y-53754819D01*
X144347619Y-52754819D02*
X145014285Y-52754819D01*
X145014285Y-52754819D02*
X144585714Y-53754819D01*
X163466666Y-87454819D02*
X163466666Y-88169104D01*
X163466666Y-88169104D02*
X163419047Y-88311961D01*
X163419047Y-88311961D02*
X163323809Y-88407200D01*
X163323809Y-88407200D02*
X163180952Y-88454819D01*
X163180952Y-88454819D02*
X163085714Y-88454819D01*
X164085714Y-87883390D02*
X163990476Y-87835771D01*
X163990476Y-87835771D02*
X163942857Y-87788152D01*
X163942857Y-87788152D02*
X163895238Y-87692914D01*
X163895238Y-87692914D02*
X163895238Y-87645295D01*
X163895238Y-87645295D02*
X163942857Y-87550057D01*
X163942857Y-87550057D02*
X163990476Y-87502438D01*
X163990476Y-87502438D02*
X164085714Y-87454819D01*
X164085714Y-87454819D02*
X164276190Y-87454819D01*
X164276190Y-87454819D02*
X164371428Y-87502438D01*
X164371428Y-87502438D02*
X164419047Y-87550057D01*
X164419047Y-87550057D02*
X164466666Y-87645295D01*
X164466666Y-87645295D02*
X164466666Y-87692914D01*
X164466666Y-87692914D02*
X164419047Y-87788152D01*
X164419047Y-87788152D02*
X164371428Y-87835771D01*
X164371428Y-87835771D02*
X164276190Y-87883390D01*
X164276190Y-87883390D02*
X164085714Y-87883390D01*
X164085714Y-87883390D02*
X163990476Y-87931009D01*
X163990476Y-87931009D02*
X163942857Y-87978628D01*
X163942857Y-87978628D02*
X163895238Y-88073866D01*
X163895238Y-88073866D02*
X163895238Y-88264342D01*
X163895238Y-88264342D02*
X163942857Y-88359580D01*
X163942857Y-88359580D02*
X163990476Y-88407200D01*
X163990476Y-88407200D02*
X164085714Y-88454819D01*
X164085714Y-88454819D02*
X164276190Y-88454819D01*
X164276190Y-88454819D02*
X164371428Y-88407200D01*
X164371428Y-88407200D02*
X164419047Y-88359580D01*
X164419047Y-88359580D02*
X164466666Y-88264342D01*
X164466666Y-88264342D02*
X164466666Y-88073866D01*
X164466666Y-88073866D02*
X164419047Y-87978628D01*
X164419047Y-87978628D02*
X164371428Y-87931009D01*
X164371428Y-87931009D02*
X164276190Y-87883390D01*
D13*
X93334500Y-92335000D02*
X93334500Y-95095000D01*
X93334500Y-95095000D02*
X98634500Y-95095000D01*
X94284500Y-92022358D02*
X94284500Y-92335000D01*
X94284500Y-101095000D02*
X94284500Y-95095000D01*
X95144500Y-92022358D02*
X95144500Y-92335000D01*
X95144500Y-95095000D02*
X95144500Y-101095000D01*
X95144500Y-101095000D02*
X94284500Y-101095000D01*
X95984500Y-92335000D02*
X95984500Y-95095000D01*
X96824500Y-92105000D02*
X96824500Y-92335000D01*
X97254500Y-89675000D02*
X98524500Y-89675000D01*
X97684500Y-92105000D02*
X97684500Y-92335000D01*
X98524500Y-89675000D02*
X98524500Y-90945000D01*
X98634500Y-92335000D02*
X93334500Y-92335000D01*
X98634500Y-95095000D02*
X98634500Y-92335000D01*
X97684500Y-95095000D02*
X96824500Y-95095000D01*
X96824500Y-101095000D01*
X97684500Y-101095000D01*
X97684500Y-95095000D01*
G36*
X97684500Y-95095000D02*
G01*
X96824500Y-95095000D01*
X96824500Y-101095000D01*
X97684500Y-101095000D01*
X97684500Y-95095000D01*
G37*
X129750000Y-51430000D02*
X136290000Y-51430000D01*
X129750000Y-51760000D02*
X129750000Y-51430000D01*
X129750000Y-53840000D02*
X129750000Y-54170000D01*
X129750000Y-54170000D02*
X136290000Y-54170000D01*
X136290000Y-51430000D02*
X136290000Y-51760000D01*
X136290000Y-54170000D02*
X136290000Y-53840000D01*
X144350000Y-83141000D02*
X144350000Y-89681000D01*
X144350000Y-89681000D02*
X144680000Y-89681000D01*
X144680000Y-83141000D02*
X144350000Y-83141000D01*
X146760000Y-83141000D02*
X147090000Y-83141000D01*
X147090000Y-83141000D02*
X147090000Y-89681000D01*
X147090000Y-89681000D02*
X146760000Y-89681000D01*
X114610000Y-55230000D02*
X114610000Y-53850000D01*
X115990000Y-55230000D02*
X114610000Y-55230000D01*
X117260000Y-52470000D02*
X119910000Y-52470000D01*
X117260000Y-55230000D02*
X117260000Y-52470000D01*
X117260000Y-55230000D02*
X119910000Y-55230000D01*
X119910000Y-55230000D02*
X119910000Y-52470000D01*
D14*
X74030000Y-50500000D02*
X74030000Y-66500000D01*
X74030000Y-77500000D02*
X74030000Y-93500000D01*
X87830000Y-49500000D02*
X89030000Y-49500000D01*
X87830000Y-50500000D02*
X74030000Y-50500000D01*
X87830000Y-50500000D02*
X87830000Y-49500000D01*
X87830000Y-66500000D02*
X74030000Y-66500000D01*
X87830000Y-66500000D02*
X87830000Y-50500000D01*
X87830000Y-77500000D02*
X74030000Y-77500000D01*
X87830000Y-77500000D02*
X87830000Y-66500000D01*
X87830000Y-93500000D02*
X74030000Y-93500000D01*
X87830000Y-93500000D02*
X87830000Y-77500000D01*
X87830000Y-94500000D02*
X87830000Y-93500000D01*
X89030000Y-49500000D02*
X89030000Y-94500000D01*
X89030000Y-94500000D02*
X87830000Y-94500000D01*
X95984500Y-59195000D02*
X111224500Y-59195000D01*
X95984500Y-79515000D02*
X95984500Y-59195000D01*
X111224500Y-59195000D02*
X111224500Y-79515000D01*
X111224500Y-79515000D02*
X95984500Y-79515000D01*
D15*
X95554500Y-60455000D02*
G75*
G02*
X95254500Y-60455000I-150000J0D01*
G01*
X95254500Y-60455000D02*
G75*
G02*
X95554500Y-60455000I150000J0D01*
G01*
D13*
X133715000Y-82163000D02*
X134045000Y-82163000D01*
X133715000Y-87103000D02*
X133715000Y-82163000D01*
X134045000Y-87103000D02*
X133715000Y-87103000D01*
X136125000Y-82163000D02*
X136455000Y-82163000D01*
X136455000Y-82163000D02*
X136455000Y-87103000D01*
X136455000Y-87103000D02*
X136125000Y-87103000D01*
X95874500Y-84705000D02*
X95874500Y-83325000D01*
X97254500Y-84705000D02*
X95874500Y-84705000D01*
X98524500Y-81945000D02*
X111334500Y-81945000D01*
X98524500Y-84705000D02*
X98524500Y-81945000D01*
X98524500Y-84705000D02*
X111334500Y-84705000D01*
X111334500Y-84705000D02*
X111334500Y-81945000D01*
X129750000Y-54630000D02*
X136290000Y-54630000D01*
X129750000Y-54960000D02*
X129750000Y-54630000D01*
X129750000Y-57040000D02*
X129750000Y-57370000D01*
X129750000Y-57370000D02*
X136290000Y-57370000D01*
X136290000Y-54630000D02*
X136290000Y-54960000D01*
X136290000Y-57370000D02*
X136290000Y-57040000D01*
X146405000Y-54370000D02*
X146405000Y-57130000D01*
X154135000Y-54370000D02*
X146405000Y-54370000D01*
X154135000Y-54370000D02*
X154135000Y-57130000D01*
X154135000Y-57130000D02*
X146405000Y-57130000D01*
X155405000Y-54370000D02*
X156785000Y-54370000D01*
X156785000Y-54370000D02*
X156785000Y-55750000D01*
X138000000Y-83141000D02*
X138000000Y-89681000D01*
X138000000Y-89681000D02*
X138330000Y-89681000D01*
X138330000Y-83141000D02*
X138000000Y-83141000D01*
X140410000Y-83141000D02*
X140740000Y-83141000D01*
X140740000Y-83141000D02*
X140740000Y-89681000D01*
X140740000Y-89681000D02*
X140410000Y-89681000D01*
X95874500Y-56765000D02*
X95874500Y-55385000D01*
X97254500Y-56765000D02*
X95874500Y-56765000D01*
X98524500Y-54005000D02*
X111334500Y-54005000D01*
X98524500Y-56765000D02*
X98524500Y-54005000D01*
X98524500Y-56765000D02*
X111334500Y-56765000D01*
X111334500Y-56765000D02*
X111334500Y-54005000D01*
X141175000Y-83141000D02*
X141175000Y-89681000D01*
X141175000Y-89681000D02*
X141505000Y-89681000D01*
X141505000Y-83141000D02*
X141175000Y-83141000D01*
X143585000Y-83141000D02*
X143915000Y-83141000D01*
X143915000Y-83141000D02*
X143915000Y-89681000D01*
X143915000Y-89681000D02*
X143585000Y-89681000D01*
X118390000Y-95100000D02*
X118390000Y-96600000D01*
X119640000Y-99100000D02*
X124140000Y-99100000D01*
X124140000Y-92600000D02*
X119640000Y-92600000D01*
X125390000Y-96600000D02*
X125390000Y-95100000D01*
X113285000Y-59355000D02*
X113285000Y-63192939D01*
X113285000Y-65755000D02*
X113285000Y-64117061D01*
X113285000Y-74592939D02*
X113285000Y-72955000D01*
X113285000Y-75517061D02*
X113285000Y-79355000D01*
X113705063Y-59085000D02*
X113348000Y-59085000D01*
X113705063Y-79625000D02*
X113348000Y-79625000D01*
X114198520Y-61845000D02*
X113285000Y-61845000D01*
X114198520Y-76865000D02*
X113285000Y-76865000D01*
X116245000Y-58745000D02*
X115825000Y-58745000D01*
X116245000Y-59085000D02*
X115825000Y-59085000D01*
X116245000Y-79625000D02*
X115825000Y-79625000D01*
X116245000Y-79965000D02*
X115825000Y-79965000D01*
X118785000Y-58745000D02*
X118365000Y-58745000D01*
X118785000Y-59085000D02*
X118365000Y-59085000D01*
X118785000Y-79625000D02*
X118365000Y-79625000D01*
X118785000Y-79965000D02*
X118365000Y-79965000D01*
X121325000Y-58745000D02*
X120905000Y-58745000D01*
X121325000Y-59085000D02*
X120905000Y-59085000D01*
X121325000Y-79625000D02*
X120905000Y-79625000D01*
X121325000Y-79965000D02*
X120905000Y-79965000D01*
X123865000Y-58745000D02*
X123445000Y-58745000D01*
X123865000Y-59085000D02*
X123445000Y-59085000D01*
X123865000Y-79625000D02*
X123445000Y-79625000D01*
X123865000Y-79965000D02*
X123445000Y-79965000D01*
X126405000Y-58745000D02*
X125985000Y-58745000D01*
X126405000Y-59085000D02*
X125985000Y-59085000D01*
X126405000Y-79625000D02*
X125985000Y-79625000D01*
X126405000Y-79965000D02*
X125985000Y-79965000D01*
X128945000Y-58745000D02*
X128525000Y-58745000D01*
X128945000Y-59085000D02*
X128525000Y-59085000D01*
X128945000Y-79625000D02*
X128525000Y-79625000D01*
X128945000Y-79965000D02*
X128525000Y-79965000D01*
X131485000Y-58745000D02*
X131065000Y-58745000D01*
X131485000Y-59085000D02*
X131065000Y-59085000D01*
X131485000Y-79625000D02*
X131065000Y-79625000D01*
X131485000Y-79965000D02*
X131065000Y-79965000D01*
X134025000Y-58745000D02*
X133605000Y-58745000D01*
X134025000Y-59085000D02*
X133605000Y-59085000D01*
X134025000Y-79625000D02*
X133605000Y-79625000D01*
X134025000Y-79965000D02*
X133605000Y-79965000D01*
X136565000Y-58745000D02*
X136145000Y-58745000D01*
X136565000Y-59085000D02*
X136145000Y-59085000D01*
X136565000Y-79625000D02*
X136145000Y-79625000D01*
X136565000Y-79965000D02*
X136145000Y-79965000D01*
X139105000Y-58745000D02*
X138685000Y-58745000D01*
X139105000Y-59085000D02*
X138685000Y-59085000D01*
X139105000Y-79625000D02*
X138685000Y-79625000D01*
X139105000Y-79965000D02*
X138685000Y-79965000D01*
X141645000Y-58745000D02*
X141225000Y-58745000D01*
X141645000Y-59085000D02*
X141225000Y-59085000D01*
X141645000Y-79625000D02*
X141225000Y-79625000D01*
X141645000Y-79965000D02*
X141225000Y-79965000D01*
X144185000Y-58745000D02*
X143765000Y-58745000D01*
X144185000Y-59085000D02*
X143765000Y-59085000D01*
X144185000Y-79625000D02*
X143765000Y-79625000D01*
X144185000Y-79965000D02*
X143765000Y-79965000D01*
X146725000Y-58745000D02*
X146305000Y-58745000D01*
X146725000Y-59085000D02*
X146305000Y-59085000D01*
X146725000Y-79625000D02*
X146305000Y-79625000D01*
X146725000Y-79965000D02*
X146305000Y-79965000D01*
X149265000Y-58745000D02*
X148845000Y-58745000D01*
X149265000Y-59085000D02*
X148845000Y-59085000D01*
X149265000Y-79625000D02*
X148845000Y-79625000D01*
X149265000Y-79965000D02*
X148845000Y-79965000D01*
X151805000Y-58745000D02*
X151385000Y-58745000D01*
X151805000Y-59085000D02*
X151385000Y-59085000D01*
X151805000Y-79625000D02*
X151385000Y-79625000D01*
X151805000Y-79965000D02*
X151385000Y-79965000D01*
X154345000Y-58745000D02*
X153925000Y-58745000D01*
X154345000Y-59085000D02*
X153925000Y-59085000D01*
X154345000Y-79625000D02*
X153925000Y-79625000D01*
X154345000Y-79965000D02*
X153925000Y-79965000D01*
X156885000Y-58745000D02*
X156465000Y-58745000D01*
X156885000Y-59085000D02*
X156465000Y-59085000D01*
X156885000Y-79625000D02*
X156465000Y-79625000D01*
X156885000Y-79965000D02*
X156465000Y-79965000D01*
X159425000Y-58745000D02*
X159005000Y-58745000D01*
X159425000Y-59085000D02*
X159005000Y-59085000D01*
X159425000Y-79625000D02*
X159005000Y-79625000D01*
X159425000Y-79965000D02*
X159005000Y-79965000D01*
X159985000Y-65455000D02*
X159985000Y-65751090D01*
X159985000Y-68108910D02*
X159985000Y-70601090D01*
X159985000Y-72958910D02*
X159985000Y-73255000D01*
X161198520Y-61845000D02*
X116591480Y-61845000D01*
X161198520Y-76865000D02*
X116591480Y-76865000D01*
X161201000Y-65455000D02*
X159985000Y-65455000D01*
X161201000Y-73255000D02*
X159985000Y-73255000D01*
X161965000Y-58745000D02*
X161545000Y-58745000D01*
X161965000Y-58745000D02*
X161965000Y-58265000D01*
X161965000Y-59085000D02*
X161545000Y-59085000D01*
X161965000Y-79625000D02*
X161545000Y-79625000D01*
X161965000Y-79965000D02*
X161545000Y-79965000D01*
X164084937Y-59085000D02*
X164442000Y-59085000D01*
X164084937Y-79625000D02*
X164442000Y-79625000D01*
X164085000Y-58775324D02*
X164085000Y-58265000D01*
X164505000Y-59355000D02*
X164505000Y-61845000D01*
X164505000Y-61845000D02*
X163591480Y-61845000D01*
X164505000Y-61845000D02*
X164505000Y-63192940D01*
X164505000Y-64117061D02*
X164505000Y-65120000D01*
X164505000Y-65120000D02*
X164505000Y-73590000D01*
X164505000Y-65455000D02*
X163589000Y-65455000D01*
X164505000Y-73255000D02*
X163589000Y-73255000D01*
X164505000Y-73590000D02*
X164505000Y-74592939D01*
X164505000Y-75517061D02*
X164505000Y-76865000D01*
X164505000Y-76865000D02*
X163591480Y-76865000D01*
X164505000Y-79355000D02*
X164505000Y-76865000D01*
X164085000Y-58775324D02*
G75*
G02*
X164505000Y-59355000I-190051J-579692D01*
G01*
X164505000Y-79355000D02*
G75*
G02*
X164084937Y-79934676I-610000J0D01*
G01*
X128550000Y-95100000D02*
X128550000Y-96600000D01*
X129800000Y-99100000D02*
X134300000Y-99100000D01*
X134300000Y-92600000D02*
X129800000Y-92600000D01*
X135550000Y-96600000D02*
X135550000Y-95100000D01*
X159105000Y-54370000D02*
X159105000Y-57130000D01*
X161755000Y-54370000D02*
X159105000Y-54370000D01*
X161755000Y-54370000D02*
X161755000Y-57130000D01*
X161755000Y-57130000D02*
X159105000Y-57130000D01*
X163025000Y-54370000D02*
X164405000Y-54370000D01*
X164405000Y-54370000D02*
X164405000Y-55750000D01*
X145041500Y-93840000D02*
X145041500Y-93375000D01*
X145041500Y-96465000D02*
X145041500Y-96000000D01*
X139693685Y-93839173D02*
G75*
G02*
X145041500Y-93375170I2787815J-1080827D01*
G01*
X140227021Y-93839571D02*
G75*
G02*
X144736184Y-93840000I2254479J-1080429D01*
G01*
X144736184Y-96000000D02*
G75*
G02*
X140227021Y-96000429I-2254684J1080000D01*
G01*
X145041500Y-96464830D02*
G75*
G02*
X139693685Y-96000827I-2560000J1544830D01*
G01*
X118066000Y-88978000D02*
X118066000Y-89308000D01*
X118066000Y-91718000D02*
X118066000Y-91388000D01*
X124606000Y-88978000D02*
X118066000Y-88978000D01*
X124606000Y-89308000D02*
X124606000Y-88978000D01*
X124606000Y-91388000D02*
X124606000Y-91718000D01*
X124606000Y-91718000D02*
X118066000Y-91718000D01*
D16*
G36*
X109023750Y-87989686D02*
G01*
X109104956Y-87994109D01*
X109176950Y-88002882D01*
X109181022Y-88003582D01*
X109346338Y-88042218D01*
X109514632Y-88100591D01*
X109685608Y-88178582D01*
X109858970Y-88276068D01*
X109882686Y-88290807D01*
X109980199Y-88352095D01*
X110227183Y-88321276D01*
X110412363Y-88299087D01*
X110581674Y-88280879D01*
X110738927Y-88266423D01*
X110887936Y-88255493D01*
X111032512Y-88247859D01*
X111176468Y-88243293D01*
X111323615Y-88241568D01*
X111477768Y-88242455D01*
X111530824Y-88243283D01*
X111673915Y-88246524D01*
X111806086Y-88251140D01*
X111931711Y-88257468D01*
X112055166Y-88265845D01*
X112180823Y-88276606D01*
X112313057Y-88290089D01*
X112456244Y-88306631D01*
X112614757Y-88326567D01*
X112617670Y-88326945D01*
X112818938Y-88353080D01*
X112897467Y-88300899D01*
X113037808Y-88216364D01*
X113189758Y-88140585D01*
X113346547Y-88076617D01*
X113501407Y-88027510D01*
X113507011Y-88026018D01*
X113550968Y-88014745D01*
X113587735Y-88006572D01*
X113622144Y-88000984D01*
X113659029Y-87997468D01*
X113703223Y-87995510D01*
X113759556Y-87994597D01*
X113805150Y-87994319D01*
X113892037Y-87995104D01*
X113963754Y-87998974D01*
X114025157Y-88006966D01*
X114081097Y-88020117D01*
X114136428Y-88039462D01*
X114196005Y-88066040D01*
X114237190Y-88086598D01*
X114282043Y-88111165D01*
X114320793Y-88136612D01*
X114358941Y-88167127D01*
X114401989Y-88206896D01*
X114425278Y-88229777D01*
X114467246Y-88272429D01*
X114498301Y-88306982D01*
X114522425Y-88338871D01*
X114543605Y-88373530D01*
X114565824Y-88416391D01*
X114573232Y-88431547D01*
X114613795Y-88524108D01*
X114644425Y-88615740D01*
X114665862Y-88710540D01*
X114678844Y-88812604D01*
X114684107Y-88926026D01*
X114682889Y-89040135D01*
X114671169Y-89216175D01*
X114646655Y-89384647D01*
X114608030Y-89554514D01*
X114606411Y-89560578D01*
X114578307Y-89665335D01*
X114627527Y-89750239D01*
X114750442Y-89978166D01*
X114858859Y-90212225D01*
X114951691Y-90449562D01*
X115027853Y-90687322D01*
X115086259Y-90922654D01*
X115100171Y-90992433D01*
X115107830Y-91035955D01*
X115113598Y-91076652D01*
X115117735Y-91118560D01*
X115120501Y-91165711D01*
X115122156Y-91222140D01*
X115122958Y-91291883D01*
X115123150Y-91349683D01*
X115122349Y-91445914D01*
X115119774Y-91530125D01*
X115115558Y-91600880D01*
X115109833Y-91656746D01*
X115102734Y-91696287D01*
X115094395Y-91718070D01*
X115088540Y-91722029D01*
X115076199Y-91715954D01*
X115051831Y-91699398D01*
X115018790Y-91674865D01*
X114980426Y-91644859D01*
X114940092Y-91611883D01*
X114932250Y-91605291D01*
X114881933Y-91562796D01*
X114885279Y-91675118D01*
X114885721Y-91727220D01*
X114884609Y-91792053D01*
X114882154Y-91862296D01*
X114878567Y-91930632D01*
X114877387Y-91948455D01*
X114852252Y-92192799D01*
X114811886Y-92425706D01*
X114756513Y-92646798D01*
X114686360Y-92855701D01*
X114601652Y-93052037D01*
X114502615Y-93235432D01*
X114389476Y-93405508D01*
X114262459Y-93561891D01*
X114121790Y-93704204D01*
X113967697Y-93832072D01*
X113800403Y-93945117D01*
X113620136Y-94042965D01*
X113618977Y-94043524D01*
X113531705Y-94083042D01*
X113437006Y-94121552D01*
X113342788Y-94156018D01*
X113256959Y-94183405D01*
X113248099Y-94185931D01*
X113210856Y-94196050D01*
X113189260Y-94200528D01*
X113179695Y-94199559D01*
X113178546Y-94193337D01*
X113179577Y-94189597D01*
X113185247Y-94172713D01*
X113195698Y-94142280D01*
X113209055Y-94103741D01*
X113214914Y-94086926D01*
X113227124Y-94048913D01*
X113234808Y-94018786D01*
X113236940Y-94000952D01*
X113235662Y-93998041D01*
X113222056Y-93999271D01*
X113195400Y-94005757D01*
X113163636Y-94015406D01*
X113107987Y-94032154D01*
X113038323Y-94050737D01*
X112960499Y-94069770D01*
X112880366Y-94087865D01*
X112803778Y-94103636D01*
X112749149Y-94113620D01*
X112643743Y-94131454D01*
X112637989Y-94187181D01*
X112618290Y-94285172D01*
X112580362Y-94374807D01*
X112524330Y-94455999D01*
X112450315Y-94528658D01*
X112358441Y-94592695D01*
X112248830Y-94648024D01*
X112121605Y-94694553D01*
X111976890Y-94732196D01*
X111850089Y-94755621D01*
X111808425Y-94761080D01*
X111753205Y-94766836D01*
X111688877Y-94772573D01*
X111619888Y-94777977D01*
X111550687Y-94782732D01*
X111485723Y-94786523D01*
X111429441Y-94789034D01*
X111386292Y-94789951D01*
X111369809Y-94789663D01*
X111348812Y-94788630D01*
X111312413Y-94786719D01*
X111265305Y-94784182D01*
X111212182Y-94781269D01*
X111198732Y-94780523D01*
X111018967Y-94765052D01*
X110854792Y-94739545D01*
X110706611Y-94704130D01*
X110574829Y-94658935D01*
X110459851Y-94604089D01*
X110362080Y-94539720D01*
X110315276Y-94499825D01*
X110251559Y-94429219D01*
X110203081Y-94352360D01*
X110171283Y-94272208D01*
X110157606Y-94191723D01*
X110157171Y-94175066D01*
X110154126Y-94148419D01*
X110146344Y-94133727D01*
X110144592Y-94132875D01*
X110130642Y-94129775D01*
X110100760Y-94123767D01*
X110058802Y-94115607D01*
X110008626Y-94106053D01*
X109986093Y-94101817D01*
X109917497Y-94087903D01*
X109840069Y-94070495D01*
X109763535Y-94051865D01*
X109700460Y-94035089D01*
X109650614Y-94021338D01*
X109608104Y-94010192D01*
X109576454Y-94002531D01*
X109559187Y-93999234D01*
X109557091Y-93999340D01*
X109557508Y-94010809D01*
X109563549Y-94036006D01*
X109573664Y-94069854D01*
X109586298Y-94107277D01*
X109599900Y-94143199D01*
X109604400Y-94154007D01*
X109615032Y-94181334D01*
X109620306Y-94200085D01*
X109620131Y-94204657D01*
X109608662Y-94203806D01*
X109581719Y-94196725D01*
X109542551Y-94184567D01*
X109494409Y-94168485D01*
X109440540Y-94149635D01*
X109384194Y-94129168D01*
X109328622Y-94108240D01*
X109277072Y-94088003D01*
X109232793Y-94069611D01*
X109206356Y-94057744D01*
X109020952Y-93959674D01*
X108849225Y-93846905D01*
X108691407Y-93719660D01*
X108547729Y-93578165D01*
X108418424Y-93422647D01*
X108303724Y-93253331D01*
X108215696Y-93094380D01*
X108129151Y-92904867D01*
X108058022Y-92711248D01*
X108001790Y-92511303D01*
X107959937Y-92302814D01*
X107931947Y-92083559D01*
X107917300Y-91851322D01*
X107916092Y-91810083D01*
X107914160Y-91743140D01*
X107911891Y-91683432D01*
X107909435Y-91633725D01*
X107906941Y-91596781D01*
X107904561Y-91575364D01*
X107903119Y-91571078D01*
X107891791Y-91577757D01*
X107877966Y-91591035D01*
X107862268Y-91605783D01*
X107835097Y-91628833D01*
X107801039Y-91656353D01*
X107781637Y-91671539D01*
X107703370Y-91732086D01*
X107692127Y-91679661D01*
X107686830Y-91648931D01*
X107680752Y-91604174D01*
X107674650Y-91551431D01*
X107669346Y-91497515D01*
X107663643Y-91350207D01*
X107671240Y-91190574D01*
X107691751Y-91021048D01*
X107696063Y-90997952D01*
X108259216Y-90997952D01*
X108261313Y-91177356D01*
X108263948Y-91221375D01*
X108278514Y-91384644D01*
X108298891Y-91534633D01*
X108326302Y-91677657D01*
X108361969Y-91820032D01*
X108407117Y-91968075D01*
X108410608Y-91978645D01*
X108472778Y-92150595D01*
X108541092Y-92308415D01*
X108618339Y-92457818D01*
X108707303Y-92604519D01*
X108739424Y-92652892D01*
X108867354Y-92825923D01*
X109006392Y-92984262D01*
X109155562Y-93127182D01*
X109313886Y-93253953D01*
X109480386Y-93363845D01*
X109654084Y-93456129D01*
X109834004Y-93530075D01*
X109972818Y-93573164D01*
X110032554Y-93588697D01*
X110074925Y-93598489D01*
X110101756Y-93602873D01*
X110114872Y-93602181D01*
X110116917Y-93599435D01*
X110111993Y-93589564D01*
X110098654Y-93566253D01*
X110079049Y-93533193D01*
X110059758Y-93501317D01*
X109965250Y-93329629D01*
X109881401Y-93142577D01*
X109808715Y-92942175D01*
X109747698Y-92730434D01*
X109698854Y-92509370D01*
X109685174Y-92422990D01*
X110501552Y-92422990D01*
X110503706Y-92437288D01*
X110506915Y-92455511D01*
X110512022Y-92489581D01*
X110518441Y-92535374D01*
X110525585Y-92588763D01*
X110529330Y-92617670D01*
X110548089Y-92779764D01*
X110564331Y-92954025D01*
X110578163Y-93142051D01*
X110589687Y-93345439D01*
X110599010Y-93565786D01*
X110605736Y-93785024D01*
X110608512Y-93876769D01*
X110611650Y-93949437D01*
X110615223Y-94004073D01*
X110619304Y-94041723D01*
X110623965Y-94063435D01*
X110625384Y-94066799D01*
X110659493Y-94111763D01*
X110712340Y-94152102D01*
X110782993Y-94187475D01*
X110870523Y-94217538D01*
X110974001Y-94241949D01*
X111092496Y-94260366D01*
X111173249Y-94268637D01*
X111233515Y-94272031D01*
X111307431Y-94273584D01*
X111390046Y-94273428D01*
X111476406Y-94271698D01*
X111561562Y-94268527D01*
X111640561Y-94264049D01*
X111708451Y-94258398D01*
X111752218Y-94253003D01*
X111857735Y-94234101D01*
X111945921Y-94211862D01*
X112019429Y-94185374D01*
X112080908Y-94153723D01*
X112120854Y-94125940D01*
X112144524Y-94105519D01*
X112162137Y-94084516D01*
X112174569Y-94059613D01*
X112182695Y-94027494D01*
X112187391Y-93984842D01*
X112189532Y-93928340D01*
X112189999Y-93864010D01*
X112191590Y-93711754D01*
X112194545Y-93606168D01*
X112669965Y-93606168D01*
X112714261Y-93598863D01*
X112741922Y-93592965D01*
X112782881Y-93582586D01*
X112831236Y-93569283D01*
X112873146Y-93557016D01*
X113058595Y-93491307D01*
X113234914Y-93408549D01*
X113403031Y-93308175D01*
X113563874Y-93189617D01*
X113718371Y-93052309D01*
X113750208Y-93020926D01*
X113888491Y-92871179D01*
X114011744Y-92713713D01*
X114122449Y-92545022D01*
X114223086Y-92361599D01*
X114238315Y-92330864D01*
X114331398Y-92119006D01*
X114407048Y-91900950D01*
X114465161Y-91678317D01*
X114505631Y-91452730D01*
X114528352Y-91225809D01*
X114533219Y-90999175D01*
X114520128Y-90774451D01*
X114488973Y-90553257D01*
X114439648Y-90337215D01*
X114379914Y-90149292D01*
X114360804Y-90097139D01*
X114346637Y-90061315D01*
X114336665Y-90042390D01*
X114330142Y-90040937D01*
X114326324Y-90057528D01*
X114324462Y-90092735D01*
X114323812Y-90147130D01*
X114323686Y-90192393D01*
X114318214Y-90389177D01*
X114302770Y-90575778D01*
X114277641Y-90750775D01*
X114243116Y-90912749D01*
X114199486Y-91060278D01*
X114147037Y-91191941D01*
X114103173Y-91277525D01*
X114066798Y-91341222D01*
X114058710Y-91292620D01*
X114024440Y-91116656D01*
X113982364Y-90956195D01*
X113931276Y-90807724D01*
X113869967Y-90667732D01*
X113798056Y-90534105D01*
X113771865Y-90491353D01*
X113741534Y-90444594D01*
X113709473Y-90397238D01*
X113678092Y-90352692D01*
X113649801Y-90314366D01*
X113627009Y-90285667D01*
X113612125Y-90270003D01*
X113610545Y-90268877D01*
X113603699Y-90274157D01*
X113597737Y-90296873D01*
X113594645Y-90320565D01*
X113580349Y-90440819D01*
X113562176Y-90545242D01*
X113539093Y-90637930D01*
X113510063Y-90722978D01*
X113474053Y-90804482D01*
X113470680Y-90811292D01*
X113448675Y-90854996D01*
X113432815Y-90882476D01*
X113419914Y-90895339D01*
X113406785Y-90895194D01*
X113390243Y-90883648D01*
X113367975Y-90863127D01*
X113271507Y-90783535D01*
X113162706Y-90712216D01*
X113048204Y-90653158D01*
X112962594Y-90619318D01*
X112927986Y-90607643D01*
X112901868Y-90599015D01*
X112889084Y-90595030D01*
X112888577Y-90594929D01*
X112891955Y-90603397D01*
X112902813Y-90626674D01*
X112919622Y-90661569D01*
X112940858Y-90704890D01*
X112949939Y-90723237D01*
X113017697Y-90875375D01*
X113072080Y-91032811D01*
X113114135Y-91199241D01*
X113144909Y-91378358D01*
X113152265Y-91436538D01*
X113158228Y-91506164D01*
X113162076Y-91591344D01*
X113163871Y-91687623D01*
X113163677Y-91790546D01*
X113161558Y-91895659D01*
X113157575Y-91998507D01*
X113151794Y-92094635D01*
X113144277Y-92179589D01*
X113141344Y-92205071D01*
X113106937Y-92439225D01*
X113063299Y-92657429D01*
X113009866Y-92861896D01*
X112946074Y-93054840D01*
X112887651Y-93201347D01*
X112861423Y-93259800D01*
X112831653Y-93322133D01*
X112800826Y-93383474D01*
X112771429Y-93438949D01*
X112745947Y-93483685D01*
X112733635Y-93503249D01*
X112717516Y-93528240D01*
X112698307Y-93559175D01*
X112693387Y-93567288D01*
X112669965Y-93606168D01*
X112194545Y-93606168D01*
X112196142Y-93549111D01*
X112203382Y-93380233D01*
X112213040Y-93209271D01*
X112224843Y-93040376D01*
X112238520Y-92877699D01*
X112253799Y-92725392D01*
X112270408Y-92587606D01*
X112276394Y-92544211D01*
X112282427Y-92499066D01*
X112286705Y-92461057D01*
X112288763Y-92434741D01*
X112288501Y-92425170D01*
X112282416Y-92427028D01*
X112269845Y-92444012D01*
X112252527Y-92472878D01*
X112232203Y-92510384D01*
X112210612Y-92553286D01*
X112189494Y-92598340D01*
X112170588Y-92642303D01*
X112166353Y-92652892D01*
X112118216Y-92790684D01*
X112075308Y-92944880D01*
X112038395Y-93112260D01*
X112008246Y-93289602D01*
X111999435Y-93353418D01*
X111987341Y-93453910D01*
X111976881Y-93555486D01*
X111968429Y-93653559D01*
X111962356Y-93743543D01*
X111959036Y-93820849D01*
X111958518Y-93857091D01*
X111958518Y-93935199D01*
X111919290Y-93945762D01*
X111861672Y-93959624D01*
X111801248Y-93970562D01*
X111734958Y-93978837D01*
X111659743Y-93984711D01*
X111572544Y-93988447D01*
X111470303Y-93990305D01*
X111394968Y-93990630D01*
X111287398Y-93990010D01*
X111196628Y-93987923D01*
X111119368Y-93984081D01*
X111052327Y-93978194D01*
X110992212Y-93969977D01*
X110935733Y-93959140D01*
X110880426Y-93945618D01*
X110843895Y-93935849D01*
X110837111Y-93807603D01*
X110823260Y-93612358D01*
X110943397Y-93612358D01*
X110947894Y-93664782D01*
X110953824Y-93688495D01*
X110964169Y-93710475D01*
X110980237Y-93727504D01*
X111005150Y-93740990D01*
X111042031Y-93752342D01*
X111094003Y-93762972D01*
X111133320Y-93769524D01*
X111185819Y-93775600D01*
X111252905Y-93780044D01*
X111329102Y-93782797D01*
X111408931Y-93783798D01*
X111486915Y-93782989D01*
X111557576Y-93780308D01*
X111615436Y-93775697D01*
X111622420Y-93774867D01*
X111681228Y-93766106D01*
X111734991Y-93755527D01*
X111780028Y-93744075D01*
X111812655Y-93732695D01*
X111829192Y-93722331D01*
X111829642Y-93721683D01*
X111836057Y-93705465D01*
X111844228Y-93677074D01*
X111849249Y-93656377D01*
X111854761Y-93597981D01*
X111848563Y-93531280D01*
X111831587Y-93463629D01*
X111821362Y-93436450D01*
X111805050Y-93397583D01*
X111781312Y-93470487D01*
X111765261Y-93513983D01*
X111746759Y-93555221D01*
X111728043Y-93590061D01*
X111711345Y-93614363D01*
X111698900Y-93623988D01*
X111698449Y-93624009D01*
X111688574Y-93616467D01*
X111671580Y-93596964D01*
X111656461Y-93577003D01*
X111622704Y-93529997D01*
X111584711Y-93574110D01*
X111546718Y-93618224D01*
X111511342Y-93578347D01*
X111475967Y-93538471D01*
X111435656Y-93580648D01*
X111395345Y-93622826D01*
X111359287Y-93578821D01*
X111323228Y-93534816D01*
X111286367Y-93575616D01*
X111249507Y-93616417D01*
X111212442Y-93574650D01*
X111175377Y-93532883D01*
X111138041Y-93578446D01*
X111116803Y-93602930D01*
X111100208Y-93619469D01*
X111093256Y-93624009D01*
X111083691Y-93615382D01*
X111069282Y-93592619D01*
X111052329Y-93560403D01*
X111035132Y-93523416D01*
X111019992Y-93486339D01*
X111009208Y-93453853D01*
X111008657Y-93451801D01*
X110994394Y-93397583D01*
X110971580Y-93447900D01*
X110955809Y-93496202D01*
X110946225Y-93553593D01*
X110943397Y-93612358D01*
X110823260Y-93612358D01*
X110820380Y-93571760D01*
X110796034Y-93351922D01*
X110764174Y-93148587D01*
X110724901Y-92962249D01*
X110678315Y-92793406D01*
X110624519Y-92642551D01*
X110579507Y-92541531D01*
X110554234Y-92492104D01*
X110532770Y-92454117D01*
X110516147Y-92428990D01*
X110505397Y-92418141D01*
X110501552Y-92422990D01*
X109685174Y-92422990D01*
X109662687Y-92280995D01*
X109639702Y-92047322D01*
X109630404Y-91810364D01*
X109630249Y-91787441D01*
X109630442Y-91693578D01*
X109632109Y-91615488D01*
X109635692Y-91548846D01*
X109641631Y-91489324D01*
X109650370Y-91432597D01*
X109662347Y-91374336D01*
X109678006Y-91310217D01*
X109679510Y-91304398D01*
X109724220Y-91166865D01*
X109783624Y-91040667D01*
X109856790Y-90926946D01*
X109942784Y-90826841D01*
X110040674Y-90741493D01*
X110149526Y-90672043D01*
X110226713Y-90635554D01*
X110281692Y-90614360D01*
X110324147Y-90602106D01*
X110359139Y-90597937D01*
X110391727Y-90601001D01*
X110408371Y-90604888D01*
X110451444Y-90616487D01*
X110427584Y-90632341D01*
X110389902Y-90661998D01*
X110347213Y-90702818D01*
X110305209Y-90748912D01*
X110269578Y-90794393D01*
X110266062Y-90799441D01*
X110202002Y-90910327D01*
X110154651Y-91031890D01*
X110123995Y-91164248D01*
X110110018Y-91307526D01*
X110112704Y-91461843D01*
X110132038Y-91627322D01*
X110148497Y-91716997D01*
X110159583Y-91764012D01*
X110175959Y-91824336D01*
X110196092Y-91893100D01*
X110218452Y-91965436D01*
X110241504Y-92036474D01*
X110263718Y-92101348D01*
X110283561Y-92155188D01*
X110295765Y-92184945D01*
X110315748Y-92230230D01*
X110322837Y-92189976D01*
X110343917Y-92092022D01*
X110370346Y-92010638D01*
X110403591Y-91942643D01*
X110441448Y-91889970D01*
X110788064Y-91889970D01*
X110794714Y-91954884D01*
X110811622Y-92052209D01*
X110841333Y-92150154D01*
X110881572Y-92243136D01*
X110930066Y-92325573D01*
X110963404Y-92369084D01*
X110985260Y-92393472D01*
X111001503Y-92409636D01*
X111008260Y-92413992D01*
X111008657Y-92403096D01*
X111006406Y-92377887D01*
X111002236Y-92345582D01*
X110997011Y-92296663D01*
X110993854Y-92240436D01*
X110992849Y-92183318D01*
X110994078Y-92131724D01*
X110997623Y-92092072D01*
X110998896Y-92084699D01*
X111005359Y-92052382D01*
X111087395Y-92133991D01*
X111169430Y-92215600D01*
X111188002Y-92162535D01*
X111199489Y-92131800D01*
X111209334Y-92109038D01*
X111213729Y-92101412D01*
X111222564Y-92105077D01*
X111239823Y-92121879D01*
X111262283Y-92148544D01*
X111270188Y-92158817D01*
X111293948Y-92189219D01*
X111313575Y-92212235D01*
X111325708Y-92223989D01*
X111327356Y-92224739D01*
X111336880Y-92217044D01*
X111341584Y-92207587D01*
X111349029Y-92189086D01*
X111361644Y-92159599D01*
X111372647Y-92134628D01*
X111397346Y-92079279D01*
X111431563Y-92153318D01*
X111448926Y-92189914D01*
X111462205Y-92210718D01*
X111474826Y-92215631D01*
X111490212Y-92204559D01*
X111511789Y-92177403D01*
X111531165Y-92150512D01*
X111552032Y-92122535D01*
X111568566Y-92102465D01*
X111577230Y-92094594D01*
X111577276Y-92094591D01*
X111583579Y-92103169D01*
X111594107Y-92125850D01*
X111606395Y-92157233D01*
X111629315Y-92220093D01*
X111707229Y-92136209D01*
X111738418Y-92103806D01*
X111764632Y-92078778D01*
X111782990Y-92063729D01*
X111790486Y-92060970D01*
X111796776Y-92081832D01*
X111801157Y-92117887D01*
X111803487Y-92164279D01*
X111803623Y-92216152D01*
X111801423Y-92268651D01*
X111797735Y-92309116D01*
X111793118Y-92351413D01*
X111790232Y-92385609D01*
X111789408Y-92407217D01*
X111790120Y-92412373D01*
X111798690Y-92408147D01*
X111815135Y-92390324D01*
X111836867Y-92362502D01*
X111861300Y-92328281D01*
X111885846Y-92291257D01*
X111907918Y-92255029D01*
X111922304Y-92228543D01*
X111950700Y-92161520D01*
X111975646Y-92082927D01*
X111994694Y-92001295D01*
X112003325Y-91945939D01*
X112005557Y-91916547D01*
X112004673Y-91897365D01*
X112002363Y-91893106D01*
X111990461Y-91895013D01*
X111962491Y-91900264D01*
X111922103Y-91908151D01*
X111872944Y-91917967D01*
X111848549Y-91922904D01*
X111753026Y-91941434D01*
X111671161Y-91955077D01*
X111597257Y-91964460D01*
X111525618Y-91970211D01*
X111450544Y-91972959D01*
X111390200Y-91973429D01*
X111268593Y-91969689D01*
X111148072Y-91958245D01*
X111021334Y-91938272D01*
X110945728Y-91923224D01*
X110900047Y-91913561D01*
X110858791Y-91904844D01*
X110827910Y-91898330D01*
X110817288Y-91896097D01*
X110788064Y-91889970D01*
X110441448Y-91889970D01*
X110445121Y-91884859D01*
X110480654Y-91848089D01*
X110536950Y-91803007D01*
X110594508Y-91772830D01*
X110658749Y-91755530D01*
X110735096Y-91749080D01*
X110745879Y-91748935D01*
X110819477Y-91752192D01*
X110892434Y-91761954D01*
X110916957Y-91767027D01*
X111009141Y-91782879D01*
X111088202Y-91784205D01*
X111155178Y-91770782D01*
X111211103Y-91742389D01*
X111257013Y-91698804D01*
X111261261Y-91693382D01*
X111292936Y-91641313D01*
X111311642Y-91583025D01*
X111318949Y-91513245D01*
X111319176Y-91498985D01*
X111318109Y-91459538D01*
X111312935Y-91431742D01*
X111301368Y-91407202D01*
X111289210Y-91388838D01*
X111244581Y-91342019D01*
X111188382Y-91311336D01*
X111121834Y-91297388D01*
X111100807Y-91296560D01*
X111035781Y-91301924D01*
X110986503Y-91319199D01*
X110951955Y-91349156D01*
X110931120Y-91392571D01*
X110924208Y-91430762D01*
X110921085Y-91456778D01*
X110915245Y-91472381D01*
X110902851Y-91478888D01*
X110880065Y-91477615D01*
X110843051Y-91469879D01*
X110823554Y-91465306D01*
X110739901Y-91438688D01*
X110673587Y-91402453D01*
X110624778Y-91356768D01*
X110593643Y-91301802D01*
X110580350Y-91237724D01*
X110579833Y-91221053D01*
X110587032Y-91147687D01*
X110609803Y-91084647D01*
X110649907Y-91027619D01*
X110665528Y-91011091D01*
X110725645Y-90960987D01*
X110797966Y-90919260D01*
X110883604Y-90885630D01*
X110983674Y-90859815D01*
X111099287Y-90841533D01*
X111231558Y-90830505D01*
X111381601Y-90826448D01*
X111396968Y-90826415D01*
X111560204Y-90830794D01*
X111705355Y-90843985D01*
X111832430Y-90865992D01*
X111941442Y-90896820D01*
X112032403Y-90936473D01*
X112105322Y-90984955D01*
X112160212Y-91042271D01*
X112197083Y-91108425D01*
X112205405Y-91132551D01*
X112218545Y-91197355D01*
X112215954Y-91254912D01*
X112197277Y-91310959D01*
X112194004Y-91317724D01*
X112157592Y-91368950D01*
X112104401Y-91412285D01*
X112036673Y-91446416D01*
X111956652Y-91470030D01*
X111923680Y-91475944D01*
X111878011Y-91482792D01*
X111878011Y-91452115D01*
X111869109Y-91398273D01*
X111844141Y-91353705D01*
X111805713Y-91320177D01*
X111756432Y-91299451D01*
X111698906Y-91293291D01*
X111652111Y-91299248D01*
X111590715Y-91318567D01*
X111544265Y-91347101D01*
X111508524Y-91387961D01*
X111491747Y-91417111D01*
X111477508Y-91464707D01*
X111475534Y-91521606D01*
X111484771Y-91582022D01*
X111504169Y-91640168D01*
X111532672Y-91690256D01*
X111543971Y-91704114D01*
X111592279Y-91745853D01*
X111649365Y-91772645D01*
X111716698Y-91784762D01*
X111795750Y-91782479D01*
X111883042Y-91767222D01*
X111964573Y-91753420D01*
X112045723Y-91748731D01*
X112120568Y-91753178D01*
X112180946Y-91766051D01*
X112256772Y-91800812D01*
X112322753Y-91852475D01*
X112378104Y-91919969D01*
X112422037Y-92002221D01*
X112453766Y-92098161D01*
X112465226Y-92153365D01*
X112470640Y-92184387D01*
X112475469Y-92204886D01*
X112480841Y-92213601D01*
X112487889Y-92209267D01*
X112497741Y-92190621D01*
X112511529Y-92156399D01*
X112530382Y-92105340D01*
X112545467Y-92063690D01*
X112606256Y-91877587D01*
X112650129Y-91701780D01*
X112677143Y-91535747D01*
X112687354Y-91378967D01*
X112680819Y-91230919D01*
X112657594Y-91091080D01*
X112652934Y-91071810D01*
X112626635Y-90989629D01*
X112589903Y-90906596D01*
X112545332Y-90826901D01*
X112495519Y-90754731D01*
X112443057Y-90694272D01*
X112391929Y-90650663D01*
X112373038Y-90637767D01*
X112361886Y-90628433D01*
X112360462Y-90620890D01*
X112370755Y-90613366D01*
X112394752Y-90604092D01*
X112434443Y-90591295D01*
X112471751Y-90579570D01*
X112582727Y-90536838D01*
X112679341Y-90483648D01*
X112760633Y-90420892D01*
X112825645Y-90349462D01*
X112873417Y-90270251D01*
X112902989Y-90184150D01*
X112904532Y-90177031D01*
X112910414Y-90142109D01*
X112913102Y-90112270D01*
X112912729Y-90100076D01*
X112909365Y-90090511D01*
X112902245Y-90093678D01*
X112889094Y-90111487D01*
X112877670Y-90129499D01*
X112832866Y-90184707D01*
X112772622Y-90233082D01*
X112701338Y-90271164D01*
X112693145Y-90274523D01*
X112661128Y-90285456D01*
X112627736Y-90292223D01*
X112586731Y-90295681D01*
X112532131Y-90296690D01*
X112471373Y-90294584D01*
X112415071Y-90287262D01*
X112359249Y-90273455D01*
X112299935Y-90251891D01*
X112233153Y-90221301D01*
X112154928Y-90180413D01*
X112136153Y-90170111D01*
X111993247Y-90095960D01*
X111864550Y-90039139D01*
X112270483Y-90039139D01*
X112278624Y-90069260D01*
X112299847Y-90102809D01*
X112329353Y-90133977D01*
X112362342Y-90156955D01*
X112371122Y-90160960D01*
X112396579Y-90169873D01*
X112406708Y-90169021D01*
X112404156Y-90157697D01*
X112401661Y-90152801D01*
X112392638Y-90116941D01*
X112399846Y-90080741D01*
X112420152Y-90049344D01*
X112450421Y-90027891D01*
X112481814Y-90021315D01*
X112513711Y-90029683D01*
X112543473Y-90050971D01*
X112565025Y-90079454D01*
X112572385Y-90106674D01*
X112575529Y-90124901D01*
X112584710Y-90124300D01*
X112599552Y-90105119D01*
X112613883Y-90079257D01*
X112627819Y-90043420D01*
X112631615Y-90005433D01*
X112630492Y-89983983D01*
X112626310Y-89951936D01*
X112620425Y-89928107D01*
X112616513Y-89920530D01*
X112602557Y-89919633D01*
X112572498Y-89927090D01*
X112528288Y-89942364D01*
X112506673Y-89950703D01*
X112456039Y-89969802D01*
X112403562Y-89988075D01*
X112357334Y-90002762D01*
X112338411Y-90008077D01*
X112301138Y-90019631D01*
X112277431Y-90030893D01*
X112270483Y-90039139D01*
X111864550Y-90039139D01*
X111860195Y-90037216D01*
X111734720Y-89993225D01*
X111614544Y-89963333D01*
X111497392Y-89946887D01*
X111380985Y-89943232D01*
X111349683Y-89944339D01*
X111273262Y-89949981D01*
X111200193Y-89959761D01*
X111127935Y-89974565D01*
X111053949Y-89995277D01*
X110975695Y-90022785D01*
X110890634Y-90057972D01*
X110796224Y-90101726D01*
X110689927Y-90154931D01*
X110579833Y-90212786D01*
X110474398Y-90260403D01*
X110371235Y-90289706D01*
X110271526Y-90300607D01*
X110176451Y-90293016D01*
X110087190Y-90266845D01*
X110055551Y-90252270D01*
X110012615Y-90225105D01*
X109969083Y-90188872D01*
X109931229Y-90149409D01*
X109905326Y-90112555D01*
X109905239Y-90112391D01*
X109886349Y-90076664D01*
X109885904Y-90118373D01*
X109892400Y-90175763D01*
X109911305Y-90239676D01*
X109940090Y-90303153D01*
X109970850Y-90352127D01*
X110015772Y-90413150D01*
X109973258Y-90423889D01*
X109814044Y-90474300D01*
X109663525Y-90542848D01*
X109521948Y-90629403D01*
X109393309Y-90730518D01*
X109360911Y-90758420D01*
X109333940Y-90780433D01*
X109316019Y-90793668D01*
X109311018Y-90796196D01*
X109303263Y-90787166D01*
X109291297Y-90762609D01*
X109276520Y-90726327D01*
X109260334Y-90682121D01*
X109244143Y-90633792D01*
X109229347Y-90585142D01*
X109218995Y-90546699D01*
X109207711Y-90493491D01*
X109200727Y-90438949D01*
X109197301Y-90375908D01*
X109196643Y-90330765D01*
X109195993Y-90282601D01*
X109194591Y-90242684D01*
X109192634Y-90214785D01*
X109190319Y-90202677D01*
X109189956Y-90202456D01*
X109180981Y-90209296D01*
X109161149Y-90227905D01*
X109133418Y-90255416D01*
X109101747Y-90287920D01*
X109009793Y-90394714D01*
X108936895Y-90504380D01*
X108881995Y-90619062D01*
X108844036Y-90740906D01*
X108824471Y-90850348D01*
X108813277Y-90939721D01*
X108776538Y-90884389D01*
X108716858Y-90782626D01*
X108662556Y-90666719D01*
X108615944Y-90542417D01*
X108579333Y-90415468D01*
X108568222Y-90366273D01*
X108557594Y-90305676D01*
X108548134Y-90234325D01*
X108540295Y-90157744D01*
X108534528Y-90081458D01*
X108531288Y-90010991D01*
X108531281Y-90009511D01*
X110162428Y-90009511D01*
X110166668Y-90039340D01*
X110178044Y-90066353D01*
X110196660Y-90096451D01*
X110218392Y-90124322D01*
X110239114Y-90144651D01*
X110254227Y-90152139D01*
X110259119Y-90143295D01*
X110260192Y-90121212D01*
X110259582Y-90112433D01*
X110259984Y-90081509D01*
X110270951Y-90058712D01*
X110281501Y-90047021D01*
X110314510Y-90025448D01*
X110350519Y-90019509D01*
X110385099Y-90027275D01*
X110413820Y-90046817D01*
X110432253Y-90076208D01*
X110435968Y-90113518D01*
X110435876Y-90114231D01*
X110433738Y-90138063D01*
X110437251Y-90146165D01*
X110447474Y-90142829D01*
X110477431Y-90119140D01*
X110504697Y-90085197D01*
X110519064Y-90057657D01*
X110525941Y-90036855D01*
X110527359Y-90026702D01*
X110527282Y-90026632D01*
X110517137Y-90023024D01*
X110491802Y-90014752D01*
X110455307Y-90003117D01*
X110419435Y-89991839D01*
X110369288Y-89975479D01*
X110319787Y-89958166D01*
X110278094Y-89942456D01*
X110259685Y-89934810D01*
X110228162Y-89921752D01*
X110203135Y-89912968D01*
X110192448Y-89910618D01*
X110179932Y-89919692D01*
X110169984Y-89943057D01*
X110163763Y-89974925D01*
X110162428Y-90009511D01*
X108531281Y-90009511D01*
X108531026Y-89951868D01*
X108532244Y-89927077D01*
X108537038Y-89865333D01*
X108492374Y-89956946D01*
X108427688Y-90107252D01*
X108372419Y-90271897D01*
X108327251Y-90447085D01*
X108292870Y-90629020D01*
X108269964Y-90813908D01*
X108259216Y-90997952D01*
X107696063Y-90997952D01*
X107724792Y-90844063D01*
X107769978Y-90662051D01*
X107826925Y-90477446D01*
X107833830Y-90457262D01*
X107882723Y-90323840D01*
X107938792Y-90184816D01*
X107999675Y-90045436D01*
X108063008Y-89910945D01*
X108126429Y-89786588D01*
X108176858Y-89695830D01*
X108199568Y-89652507D01*
X108211151Y-89620305D01*
X108212010Y-89605260D01*
X108207680Y-89587351D01*
X108199515Y-89554597D01*
X108188682Y-89511646D01*
X108176348Y-89463150D01*
X108176257Y-89462797D01*
X108161706Y-89401576D01*
X108147205Y-89333368D01*
X108134790Y-89268076D01*
X108128718Y-89231339D01*
X108120546Y-89161231D01*
X108115013Y-89080265D01*
X108112177Y-88994122D01*
X108112166Y-88982556D01*
X108520467Y-88982556D01*
X108531637Y-89098341D01*
X108558526Y-89213429D01*
X108599817Y-89324845D01*
X108654194Y-89429616D01*
X108720341Y-89524768D01*
X108796941Y-89607326D01*
X108882678Y-89674316D01*
X108882830Y-89674415D01*
X108911699Y-89693103D01*
X108891511Y-89653426D01*
X108859995Y-89576851D01*
X108837016Y-89490706D01*
X108823348Y-89400879D01*
X108819767Y-89313261D01*
X108827047Y-89233739D01*
X108832784Y-89207018D01*
X108864546Y-89121619D01*
X108913386Y-89041127D01*
X108976266Y-88969731D01*
X109043964Y-88915645D01*
X109083132Y-88889725D01*
X109049054Y-88875355D01*
X109022364Y-88865357D01*
X108984231Y-88852583D01*
X108942595Y-88839684D01*
X108939801Y-88838859D01*
X108864625Y-88816732D01*
X108899547Y-88805685D01*
X108964309Y-88790085D01*
X109040692Y-88779408D01*
X109122342Y-88773903D01*
X109202905Y-88773824D01*
X109276027Y-88779421D01*
X109327343Y-88788767D01*
X109427913Y-88824252D01*
X109518185Y-88876947D01*
X109586073Y-88934197D01*
X109615563Y-88964046D01*
X109638591Y-88989258D01*
X109651944Y-89006216D01*
X109654001Y-89010674D01*
X109646162Y-89022157D01*
X109627093Y-89036572D01*
X109625139Y-89037749D01*
X109569674Y-89077504D01*
X109520927Y-89125768D01*
X109481715Y-89178626D01*
X109454855Y-89232158D01*
X109443165Y-89282447D01*
X109442891Y-89291180D01*
X109453176Y-89348366D01*
X109483056Y-89404753D01*
X109532005Y-89459972D01*
X109599497Y-89513658D01*
X109685005Y-89565442D01*
X109788003Y-89614959D01*
X109907964Y-89661842D01*
X110033047Y-89702387D01*
X110083817Y-89717465D01*
X110054168Y-89641110D01*
X110037328Y-89593271D01*
X110021597Y-89540709D01*
X110008502Y-89489379D01*
X109999571Y-89445240D01*
X109996331Y-89415354D01*
X110000898Y-89411304D01*
X110015830Y-89416078D01*
X110042728Y-89430502D01*
X110083191Y-89455401D01*
X110119433Y-89478843D01*
X110188470Y-89521751D01*
X110267901Y-89567286D01*
X110353486Y-89613320D01*
X110440985Y-89657730D01*
X110526159Y-89698390D01*
X110604767Y-89733173D01*
X110672570Y-89759955D01*
X110696961Y-89768357D01*
X110818605Y-89802575D01*
X110927470Y-89822005D01*
X111024368Y-89826702D01*
X111110111Y-89816723D01*
X111164990Y-89800635D01*
X111235946Y-89763564D01*
X111294717Y-89710624D01*
X111341409Y-89641691D01*
X111376124Y-89556640D01*
X111380970Y-89540111D01*
X111398645Y-89476537D01*
X111412160Y-89530047D01*
X111440294Y-89609954D01*
X111480952Y-89680714D01*
X111531795Y-89739432D01*
X111590487Y-89783214D01*
X111632127Y-89802429D01*
X111716830Y-89822304D01*
X111813213Y-89826142D01*
X111920893Y-89814019D01*
X112039487Y-89786011D01*
X112168613Y-89742194D01*
X112307888Y-89682643D01*
X112356022Y-89659545D01*
X112412903Y-89630331D01*
X112478624Y-89594603D01*
X112548672Y-89554997D01*
X112618533Y-89514149D01*
X112683693Y-89474697D01*
X112739640Y-89439275D01*
X112779553Y-89412183D01*
X112790885Y-89404800D01*
X112796404Y-89405848D01*
X112797033Y-89418809D01*
X112793695Y-89447169D01*
X112792041Y-89459326D01*
X112783900Y-89500484D01*
X112769894Y-89553321D01*
X112752087Y-89611017D01*
X112732544Y-89666751D01*
X112718805Y-89701253D01*
X112717487Y-89708790D01*
X112724173Y-89711165D01*
X112742053Y-89708016D01*
X112774316Y-89698981D01*
X112795429Y-89692577D01*
X112901592Y-89656807D01*
X113002035Y-89616778D01*
X113093501Y-89574055D01*
X113172732Y-89530208D01*
X113236472Y-89486804D01*
X113255566Y-89471094D01*
X113295096Y-89429754D01*
X113327313Y-89383192D01*
X113349073Y-89336832D01*
X113357229Y-89296102D01*
X113357231Y-89295737D01*
X113348023Y-89242061D01*
X113321226Y-89185815D01*
X113278662Y-89129752D01*
X113222152Y-89076626D01*
X113202153Y-89061233D01*
X113136300Y-89012886D01*
X113172619Y-88968563D01*
X113232724Y-88908713D01*
X113306957Y-88856329D01*
X113389743Y-88814782D01*
X113470350Y-88788627D01*
X113545796Y-88776814D01*
X113633146Y-88772965D01*
X113725926Y-88776832D01*
X113817663Y-88788170D01*
X113894805Y-88804778D01*
X113935974Y-88815889D01*
X113851899Y-88840187D01*
X113810155Y-88852927D01*
X113773167Y-88865412D01*
X113747301Y-88875458D01*
X113742622Y-88877690D01*
X113717421Y-88890894D01*
X113768548Y-88928424D01*
X113845640Y-88996672D01*
X113905851Y-89075195D01*
X113948517Y-89162538D01*
X113972975Y-89257244D01*
X113978560Y-89357856D01*
X113976799Y-89385255D01*
X113967607Y-89447610D01*
X113951384Y-89518705D01*
X113930503Y-89589487D01*
X113907339Y-89650903D01*
X113906842Y-89652035D01*
X113896705Y-89675914D01*
X113895286Y-89685069D01*
X113903134Y-89683169D01*
X113910883Y-89679124D01*
X113934941Y-89662237D01*
X113967755Y-89633903D01*
X114005259Y-89598186D01*
X114043387Y-89559155D01*
X114078075Y-89520874D01*
X114105256Y-89487412D01*
X114111966Y-89478001D01*
X114177655Y-89367346D01*
X114224995Y-89254767D01*
X114255275Y-89136334D01*
X114269781Y-89008119D01*
X114270419Y-88994477D01*
X114269756Y-88889436D01*
X114257764Y-88796092D01*
X114233367Y-88708824D01*
X114201457Y-88633964D01*
X114152237Y-88555557D01*
X114087447Y-88486706D01*
X114010317Y-88429769D01*
X113924073Y-88387110D01*
X113831945Y-88361088D01*
X113827276Y-88360272D01*
X113743241Y-88354564D01*
X113648730Y-88363239D01*
X113546274Y-88385318D01*
X113438399Y-88419822D01*
X113327634Y-88465772D01*
X113216508Y-88522188D01*
X113107549Y-88588090D01*
X113003284Y-88662501D01*
X112962454Y-88695262D01*
X112914766Y-88734886D01*
X112796408Y-88704356D01*
X112663279Y-88674259D01*
X112514190Y-88648133D01*
X112351430Y-88625970D01*
X112177284Y-88607761D01*
X111994041Y-88593500D01*
X111803986Y-88583177D01*
X111609408Y-88576786D01*
X111412593Y-88574316D01*
X111215828Y-88575762D01*
X111021400Y-88581114D01*
X110831597Y-88590364D01*
X110648704Y-88603505D01*
X110475010Y-88620527D01*
X110312801Y-88641425D01*
X110164364Y-88666188D01*
X110031986Y-88694809D01*
X109959377Y-88714371D01*
X109887375Y-88735564D01*
X109805611Y-88673323D01*
X109674466Y-88581067D01*
X109542775Y-88503147D01*
X109412557Y-88440496D01*
X109285831Y-88394048D01*
X109164616Y-88364738D01*
X109125970Y-88358961D01*
X109021149Y-88355052D01*
X108922380Y-88370003D01*
X108830569Y-88403539D01*
X108746625Y-88455384D01*
X108711376Y-88484871D01*
X108643107Y-88560063D01*
X108589909Y-88647480D01*
X108551427Y-88747856D01*
X108527307Y-88861927D01*
X108526333Y-88869047D01*
X108520467Y-88982556D01*
X108112166Y-88982556D01*
X108112098Y-88908485D01*
X108114833Y-88829035D01*
X108120441Y-88761454D01*
X108123627Y-88738233D01*
X108154313Y-88600770D01*
X108200277Y-88475078D01*
X108260815Y-88361924D01*
X108335221Y-88262080D01*
X108422793Y-88176313D01*
X108522824Y-88105394D01*
X108634612Y-88050091D01*
X108757452Y-88011175D01*
X108796982Y-88002689D01*
X108862551Y-87993960D01*
X108940545Y-87989631D01*
X109023750Y-87989686D01*
G37*
D13*
X128635000Y-82163000D02*
X128965000Y-82163000D01*
X128635000Y-87103000D02*
X128635000Y-82163000D01*
X128965000Y-87103000D02*
X128635000Y-87103000D01*
X131045000Y-82163000D02*
X131375000Y-82163000D01*
X131375000Y-82163000D02*
X131375000Y-87103000D01*
X131375000Y-87103000D02*
X131045000Y-87103000D01*
X128226000Y-88978000D02*
X134766000Y-88978000D01*
X128226000Y-89308000D02*
X128226000Y-88978000D01*
X128226000Y-91388000D02*
X128226000Y-91718000D01*
X128226000Y-91718000D02*
X134766000Y-91718000D01*
X134766000Y-88978000D02*
X134766000Y-89308000D01*
X134766000Y-91718000D02*
X134766000Y-91388000D01*
X138780000Y-54370000D02*
X138780000Y-57130000D01*
X141430000Y-54370000D02*
X138780000Y-54370000D01*
X141430000Y-54370000D02*
X141430000Y-57130000D01*
X141430000Y-57130000D02*
X138780000Y-57130000D01*
X142700000Y-54370000D02*
X144080000Y-54370000D01*
X144080000Y-54370000D02*
X144080000Y-55750000D01*
X161620000Y-81576600D02*
X163000000Y-81576600D01*
X161620000Y-82956600D02*
X161620000Y-81576600D01*
X161620000Y-84226600D02*
X161620000Y-86876600D01*
X161620000Y-84226600D02*
X164380000Y-84226600D01*
X161620000Y-86876600D02*
X164380000Y-86876600D01*
X164380000Y-84226600D02*
X164380000Y-86876600D01*
%LPC*%
D17*
X97254500Y-90945000D03*
D18*
X94714500Y-90945000D03*
D19*
X129210000Y-52800000D03*
X136830000Y-52800000D03*
X145720000Y-82601000D03*
X145720000Y-90221000D03*
D20*
X161500000Y-47500000D03*
D17*
X115990000Y-53850000D03*
D18*
X118530000Y-53850000D03*
D21*
X93300000Y-68190000D03*
X93300000Y-70730000D03*
X93300000Y-73270000D03*
X93300000Y-75810000D03*
D22*
X97254500Y-60465000D03*
D23*
X97254500Y-63005000D03*
X97254500Y-65545000D03*
X97254500Y-68085000D03*
X97254500Y-70625000D03*
X97254500Y-73165000D03*
X97254500Y-75705000D03*
D22*
X97254500Y-78245000D03*
X109954500Y-78245000D03*
D23*
X109954500Y-75705000D03*
X109954500Y-73165000D03*
X109954500Y-70625000D03*
X109954500Y-68085000D03*
X109954500Y-65545000D03*
X109954500Y-63005000D03*
X109954500Y-60465000D03*
D20*
X103500000Y-96500000D03*
X103500000Y-47500000D03*
D19*
X135085000Y-82133000D03*
X135085000Y-87133000D03*
D17*
X97254500Y-83325000D03*
D18*
X99794500Y-83325000D03*
X102334500Y-83325000D03*
X104874500Y-83325000D03*
X107414500Y-83325000D03*
X109954500Y-83325000D03*
D19*
X129210000Y-56000000D03*
X136830000Y-56000000D03*
D17*
X155405000Y-55750000D03*
D18*
X152865000Y-55750000D03*
X150325000Y-55750000D03*
X147785000Y-55750000D03*
D19*
X139370000Y-82601000D03*
X139370000Y-90221000D03*
D17*
X97254500Y-55385000D03*
D18*
X99794500Y-55385000D03*
X102334500Y-55385000D03*
X104874500Y-55385000D03*
X107414500Y-55385000D03*
X109954500Y-55385000D03*
D19*
X142545000Y-82601000D03*
X142545000Y-90221000D03*
D24*
X118640000Y-93600000D03*
X125140000Y-93600000D03*
X118640000Y-98100000D03*
X125140000Y-98100000D03*
D25*
X162895000Y-66630000D03*
D26*
X159865000Y-66930000D03*
X159865000Y-71780000D03*
D25*
X162895000Y-72080000D03*
D27*
X163025000Y-59665000D03*
D28*
X163025000Y-60465000D03*
D29*
X160485000Y-59665000D03*
D19*
X160485000Y-60465000D03*
D30*
X157945000Y-59665000D03*
D31*
X157945000Y-60465000D03*
D29*
X155405000Y-59665000D03*
D19*
X155405000Y-60465000D03*
D29*
X152865000Y-59665000D03*
D19*
X152865000Y-60465000D03*
D29*
X150325000Y-59665000D03*
D19*
X150325000Y-60465000D03*
D29*
X147785000Y-59665000D03*
D19*
X147785000Y-60465000D03*
D30*
X145245000Y-59665000D03*
D31*
X145245000Y-60465000D03*
D29*
X142705000Y-59665000D03*
D19*
X142705000Y-60465000D03*
D29*
X140165000Y-59665000D03*
D19*
X140165000Y-60465000D03*
D29*
X137625000Y-59665000D03*
D19*
X137625000Y-60465000D03*
D29*
X135085000Y-59665000D03*
D19*
X135085000Y-60465000D03*
D30*
X132545000Y-59665000D03*
D31*
X132545000Y-60465000D03*
D29*
X130005000Y-59665000D03*
D19*
X130005000Y-60465000D03*
D29*
X127465000Y-59665000D03*
D19*
X127465000Y-60465000D03*
D29*
X124925000Y-59665000D03*
D19*
X124925000Y-60465000D03*
D29*
X122385000Y-59665000D03*
D19*
X122385000Y-60465000D03*
D30*
X119845000Y-59665000D03*
D31*
X119845000Y-60465000D03*
D29*
X117305000Y-59665000D03*
D19*
X117305000Y-60465000D03*
D29*
X114765000Y-59665000D03*
D19*
X114765000Y-60465000D03*
X114765000Y-78245000D03*
D29*
X114765000Y-79045000D03*
D19*
X117305000Y-78245000D03*
D29*
X117305000Y-79045000D03*
D32*
X119845000Y-78245000D03*
D27*
X119845000Y-79045000D03*
D19*
X122385000Y-78245000D03*
D29*
X122385000Y-79045000D03*
D19*
X124925000Y-78245000D03*
D29*
X124925000Y-79045000D03*
D19*
X127465000Y-78245000D03*
D29*
X127465000Y-79045000D03*
D19*
X130005000Y-78245000D03*
D29*
X130005000Y-79045000D03*
D32*
X132545000Y-78245000D03*
D27*
X132545000Y-79045000D03*
D19*
X135085000Y-78245000D03*
D29*
X135085000Y-79045000D03*
D19*
X137625000Y-78245000D03*
D29*
X137625000Y-79045000D03*
D19*
X140165000Y-78245000D03*
D29*
X140165000Y-79045000D03*
D19*
X142705000Y-78245000D03*
D29*
X142705000Y-79045000D03*
D32*
X145245000Y-78245000D03*
D27*
X145245000Y-79045000D03*
D19*
X147785000Y-78245000D03*
D29*
X147785000Y-79045000D03*
D19*
X150325000Y-78245000D03*
D29*
X150325000Y-79045000D03*
D19*
X152865000Y-78245000D03*
D29*
X152865000Y-79045000D03*
D19*
X155405000Y-78245000D03*
D29*
X155405000Y-79045000D03*
D32*
X157945000Y-78245000D03*
D27*
X157945000Y-79045000D03*
D19*
X160485000Y-78245000D03*
D29*
X160485000Y-79045000D03*
D19*
X163025000Y-78245000D03*
D29*
X163025000Y-79045000D03*
D20*
X161500000Y-96500000D03*
D24*
X135300000Y-98100000D03*
X128800000Y-98100000D03*
X135300000Y-93600000D03*
X128800000Y-93600000D03*
D17*
X163025000Y-55750000D03*
D18*
X160485000Y-55750000D03*
D33*
X145720000Y-94920000D03*
D34*
X143561000Y-94920000D03*
X141402000Y-94920000D03*
X139243000Y-94920000D03*
D19*
X125146000Y-90348000D03*
X117526000Y-90348000D03*
X130005000Y-87133000D03*
X130005000Y-82133000D03*
X127686000Y-90348000D03*
X135306000Y-90348000D03*
D17*
X142700000Y-55750000D03*
D18*
X140160000Y-55750000D03*
D17*
X163000000Y-82956600D03*
D18*
X163000000Y-85496600D03*
D17*
X108370000Y-48770000D03*
D35*
X108370000Y-46230000D03*
X110910000Y-48770000D03*
X110910000Y-46230000D03*
X113450000Y-48770000D03*
X113450000Y-46230000D03*
X115990000Y-48770000D03*
X115990000Y-46230000D03*
X118530000Y-48770000D03*
X118530000Y-46230000D03*
X121070000Y-48770000D03*
X121070000Y-46230000D03*
X123610000Y-48770000D03*
X123610000Y-46230000D03*
X126150000Y-48770000D03*
X126150000Y-46230000D03*
X128690000Y-48770000D03*
X128690000Y-46230000D03*
X131230000Y-48770000D03*
X131230000Y-46230000D03*
X133770000Y-48770000D03*
X133770000Y-46230000D03*
X136310000Y-48770000D03*
X136310000Y-46230000D03*
X138850000Y-48770000D03*
X138850000Y-46230000D03*
X141390000Y-48770000D03*
X141390000Y-46230000D03*
X143930000Y-48770000D03*
X143930000Y-46230000D03*
X146470000Y-48770000D03*
X146470000Y-46230000D03*
X149010000Y-48770000D03*
X149010000Y-46230000D03*
X151550000Y-48770000D03*
X151550000Y-46230000D03*
X154090000Y-48770000D03*
X154090000Y-46230000D03*
X156630000Y-48770000D03*
X156630000Y-46230000D03*
%LPD*%
M02*
