G04 #@! TF.GenerationSoftware,KiCad,Pcbnew,9.0.3-9.0.3-0~ubuntu24.04.1*
G04 #@! TF.CreationDate,2025-08-16T13:45:43-05:00*
G04 #@! TF.ProjectId,motor_control,6d6f746f-725f-4636-9f6e-74726f6c2e6b,rev?*
G04 #@! TF.SameCoordinates,Original*
G04 #@! TF.FileFunction,Legend,Bot*
G04 #@! TF.FilePolarity,Positive*
%FSLAX46Y46*%
G04 Gerber Fmt 4.6, Leading zero omitted, Abs format (unit mm)*
G04 Created by KiCad (PCBNEW 9.0.3-9.0.3-0~ubuntu24.04.1) date 2025-08-16 13:45:43*
%MOMM*%
%LPD*%
G01*
G04 APERTURE LIST*
G04 Aperture macros list*
%AMRoundRect*
0 Rectangle with rounded corners*
0 $1 Rounding radius*
0 $2 $3 $4 $5 $6 $7 $8 $9 X,Y pos of 4 corners*
0 Add a 4 corners polygon primitive as box body*
4,1,4,$2,$3,$4,$5,$6,$7,$8,$9,$2,$3,0*
0 Add four circle primitives for the rounded corners*
1,1,$1+$1,$2,$3*
1,1,$1+$1,$4,$5*
1,1,$1+$1,$6,$7*
1,1,$1+$1,$8,$9*
0 Add four rect primitives between the rounded corners*
20,1,$1+$1,$2,$3,$4,$5,0*
20,1,$1+$1,$4,$5,$6,$7,0*
20,1,$1+$1,$6,$7,$8,$9,0*
20,1,$1+$1,$8,$9,$2,$3,0*%
%AMFreePoly0*
4,1,37,0.603843,0.796157,0.639018,0.796157,0.711114,0.766294,0.766294,0.711114,0.796157,0.639018,0.796157,0.603843,0.800000,0.600000,0.800000,-0.600000,0.796157,-0.603843,0.796157,-0.639018,0.766294,-0.711114,0.711114,-0.766294,0.639018,-0.796157,0.603843,-0.796157,0.600000,-0.800000,0.000000,-0.800000,0.000000,-0.796148,-0.078414,-0.796148,-0.232228,-0.765552,-0.377117,-0.705537,
-0.507515,-0.618408,-0.618408,-0.507515,-0.705537,-0.377117,-0.765552,-0.232228,-0.796148,-0.078414,-0.796148,0.078414,-0.765552,0.232228,-0.705537,0.377117,-0.618408,0.507515,-0.507515,0.618408,-0.377117,0.705537,-0.232228,0.765552,-0.078414,0.796148,0.000000,0.796148,0.000000,0.800000,0.600000,0.800000,0.603843,0.796157,0.603843,0.796157,$1*%
%AMFreePoly1*
4,1,37,0.000000,0.796148,0.078414,0.796148,0.232228,0.765552,0.377117,0.705537,0.507515,0.618408,0.618408,0.507515,0.705537,0.377117,0.765552,0.232228,0.796148,0.078414,0.796148,-0.078414,0.765552,-0.232228,0.705537,-0.377117,0.618408,-0.507515,0.507515,-0.618408,0.377117,-0.705537,0.232228,-0.765552,0.078414,-0.796148,0.000000,-0.796148,0.000000,-0.800000,-0.600000,-0.800000,
-0.603843,-0.796157,-0.639018,-0.796157,-0.711114,-0.766294,-0.766294,-0.711114,-0.796157,-0.639018,-0.796157,-0.603843,-0.800000,-0.600000,-0.800000,0.600000,-0.796157,0.603843,-0.796157,0.639018,-0.766294,0.711114,-0.711114,0.766294,-0.639018,0.796157,-0.603843,0.796157,-0.600000,0.800000,0.000000,0.800000,0.000000,0.796148,0.000000,0.796148,$1*%
G04 Aperture macros list end*
%ADD10C,0.150000*%
%ADD11C,0.120000*%
%ADD12R,1.700000X1.700000*%
%ADD13C,1.700000*%
%ADD14C,1.600000*%
%ADD15C,2.700000*%
%ADD16C,1.734000*%
%ADD17RoundRect,0.102000X-0.780000X-0.780000X0.780000X-0.780000X0.780000X0.780000X-0.780000X0.780000X0*%
%ADD18C,1.764000*%
%ADD19C,2.000000*%
%ADD20C,2.200000*%
%ADD21C,1.850000*%
%ADD22RoundRect,0.200000X-0.600000X0.600000X-0.600000X-0.600000X0.600000X-0.600000X0.600000X0.600000X0*%
%ADD23FreePoly0,270.000000*%
%ADD24FreePoly1,270.000000*%
%ADD25R,1.800000X1.800000*%
%ADD26C,1.800000*%
%ADD27O,1.700000X1.700000*%
G04 APERTURE END LIST*
D10*
X92530180Y-55177506D02*
X91815895Y-55177506D01*
X91815895Y-55177506D02*
X91673038Y-55225125D01*
X91673038Y-55225125D02*
X91577800Y-55320363D01*
X91577800Y-55320363D02*
X91530180Y-55463220D01*
X91530180Y-55463220D02*
X91530180Y-55558458D01*
X91530180Y-54225125D02*
X91530180Y-54701315D01*
X91530180Y-54701315D02*
X92530180Y-54701315D01*
X91625419Y-53320363D02*
X91577800Y-53367982D01*
X91577800Y-53367982D02*
X91530180Y-53510839D01*
X91530180Y-53510839D02*
X91530180Y-53606077D01*
X91530180Y-53606077D02*
X91577800Y-53748934D01*
X91577800Y-53748934D02*
X91673038Y-53844172D01*
X91673038Y-53844172D02*
X91768276Y-53891791D01*
X91768276Y-53891791D02*
X91958752Y-53939410D01*
X91958752Y-53939410D02*
X92101609Y-53939410D01*
X92101609Y-53939410D02*
X92292085Y-53891791D01*
X92292085Y-53891791D02*
X92387323Y-53844172D01*
X92387323Y-53844172D02*
X92482561Y-53748934D01*
X92482561Y-53748934D02*
X92530180Y-53606077D01*
X92530180Y-53606077D02*
X92530180Y-53510839D01*
X92530180Y-53510839D02*
X92482561Y-53367982D01*
X92482561Y-53367982D02*
X92434942Y-53320363D01*
X92530180Y-52606077D02*
X91815895Y-52606077D01*
X91815895Y-52606077D02*
X91673038Y-52653696D01*
X91673038Y-52653696D02*
X91577800Y-52748934D01*
X91577800Y-52748934D02*
X91530180Y-52891791D01*
X91530180Y-52891791D02*
X91530180Y-52987029D01*
X91530180Y-51653696D02*
X91530180Y-52129886D01*
X91530180Y-52129886D02*
X92530180Y-52129886D01*
X91625419Y-50748934D02*
X91577800Y-50796553D01*
X91577800Y-50796553D02*
X91530180Y-50939410D01*
X91530180Y-50939410D02*
X91530180Y-51034648D01*
X91530180Y-51034648D02*
X91577800Y-51177505D01*
X91577800Y-51177505D02*
X91673038Y-51272743D01*
X91673038Y-51272743D02*
X91768276Y-51320362D01*
X91768276Y-51320362D02*
X91958752Y-51367981D01*
X91958752Y-51367981D02*
X92101609Y-51367981D01*
X92101609Y-51367981D02*
X92292085Y-51320362D01*
X92292085Y-51320362D02*
X92387323Y-51272743D01*
X92387323Y-51272743D02*
X92482561Y-51177505D01*
X92482561Y-51177505D02*
X92530180Y-51034648D01*
X92530180Y-51034648D02*
X92530180Y-50939410D01*
X92530180Y-50939410D02*
X92482561Y-50796553D01*
X92482561Y-50796553D02*
X92434942Y-50748934D01*
X92530180Y-50034648D02*
X91815895Y-50034648D01*
X91815895Y-50034648D02*
X91673038Y-50082267D01*
X91673038Y-50082267D02*
X91577800Y-50177505D01*
X91577800Y-50177505D02*
X91530180Y-50320362D01*
X91530180Y-50320362D02*
X91530180Y-50415600D01*
X91530180Y-49082267D02*
X91530180Y-49558457D01*
X91530180Y-49558457D02*
X92530180Y-49558457D01*
X91625419Y-48177505D02*
X91577800Y-48225124D01*
X91577800Y-48225124D02*
X91530180Y-48367981D01*
X91530180Y-48367981D02*
X91530180Y-48463219D01*
X91530180Y-48463219D02*
X91577800Y-48606076D01*
X91577800Y-48606076D02*
X91673038Y-48701314D01*
X91673038Y-48701314D02*
X91768276Y-48748933D01*
X91768276Y-48748933D02*
X91958752Y-48796552D01*
X91958752Y-48796552D02*
X92101609Y-48796552D01*
X92101609Y-48796552D02*
X92292085Y-48748933D01*
X92292085Y-48748933D02*
X92387323Y-48701314D01*
X92387323Y-48701314D02*
X92482561Y-48606076D01*
X92482561Y-48606076D02*
X92530180Y-48463219D01*
X92530180Y-48463219D02*
X92530180Y-48367981D01*
X92530180Y-48367981D02*
X92482561Y-48225124D01*
X92482561Y-48225124D02*
X92434942Y-48177505D01*
X92530180Y-47463219D02*
X91815895Y-47463219D01*
X91815895Y-47463219D02*
X91673038Y-47510838D01*
X91673038Y-47510838D02*
X91577800Y-47606076D01*
X91577800Y-47606076D02*
X91530180Y-47748933D01*
X91530180Y-47748933D02*
X91530180Y-47844171D01*
X91530180Y-46510838D02*
X91530180Y-46987028D01*
X91530180Y-46987028D02*
X92530180Y-46987028D01*
X91625419Y-45606076D02*
X91577800Y-45653695D01*
X91577800Y-45653695D02*
X91530180Y-45796552D01*
X91530180Y-45796552D02*
X91530180Y-45891790D01*
X91530180Y-45891790D02*
X91577800Y-46034647D01*
X91577800Y-46034647D02*
X91673038Y-46129885D01*
X91673038Y-46129885D02*
X91768276Y-46177504D01*
X91768276Y-46177504D02*
X91958752Y-46225123D01*
X91958752Y-46225123D02*
X92101609Y-46225123D01*
X92101609Y-46225123D02*
X92292085Y-46177504D01*
X92292085Y-46177504D02*
X92387323Y-46129885D01*
X92387323Y-46129885D02*
X92482561Y-46034647D01*
X92482561Y-46034647D02*
X92530180Y-45891790D01*
X92530180Y-45891790D02*
X92530180Y-45796552D01*
X92530180Y-45796552D02*
X92482561Y-45653695D01*
X92482561Y-45653695D02*
X92434942Y-45606076D01*
X108703333Y-50724819D02*
X108703333Y-51439104D01*
X108703333Y-51439104D02*
X108750952Y-51581961D01*
X108750952Y-51581961D02*
X108846190Y-51677200D01*
X108846190Y-51677200D02*
X108989047Y-51724819D01*
X108989047Y-51724819D02*
X109084285Y-51724819D01*
X107703333Y-51724819D02*
X108274761Y-51724819D01*
X107989047Y-51724819D02*
X107989047Y-50724819D01*
X107989047Y-50724819D02*
X108084285Y-50867676D01*
X108084285Y-50867676D02*
X108179523Y-50962914D01*
X108179523Y-50962914D02*
X108274761Y-51010533D01*
D11*
X107040000Y-44900000D02*
X107040000Y-47500000D01*
X107040000Y-44900000D02*
X157960000Y-44900000D01*
X107040000Y-47500000D02*
X109640000Y-47500000D01*
X107040000Y-48770000D02*
X107040000Y-50100000D01*
X107040000Y-50100000D02*
X108370000Y-50100000D01*
X109640000Y-47500000D02*
X109640000Y-50100000D01*
X109640000Y-50100000D02*
X157960000Y-50100000D01*
X157960000Y-44900000D02*
X157960000Y-50100000D01*
%LPC*%
D12*
X97254500Y-90945000D03*
D13*
X94714500Y-90945000D03*
D14*
X129210000Y-52800000D03*
X136830000Y-52800000D03*
X145720000Y-82601000D03*
X145720000Y-90221000D03*
D15*
X161500000Y-47500000D03*
D12*
X115990000Y-53850000D03*
D13*
X118530000Y-53850000D03*
D16*
X93300000Y-68190000D03*
X93300000Y-70730000D03*
X93300000Y-73270000D03*
X93300000Y-75810000D03*
D17*
X97254500Y-60465000D03*
D18*
X97254500Y-63005000D03*
X97254500Y-65545000D03*
X97254500Y-68085000D03*
X97254500Y-70625000D03*
X97254500Y-73165000D03*
X97254500Y-75705000D03*
D17*
X97254500Y-78245000D03*
X109954500Y-78245000D03*
D18*
X109954500Y-75705000D03*
X109954500Y-73165000D03*
X109954500Y-70625000D03*
X109954500Y-68085000D03*
X109954500Y-65545000D03*
X109954500Y-63005000D03*
X109954500Y-60465000D03*
D15*
X103500000Y-96500000D03*
X103500000Y-47500000D03*
D14*
X135085000Y-82133000D03*
X135085000Y-87133000D03*
D12*
X97254500Y-83325000D03*
D13*
X99794500Y-83325000D03*
X102334500Y-83325000D03*
X104874500Y-83325000D03*
X107414500Y-83325000D03*
X109954500Y-83325000D03*
D14*
X129210000Y-56000000D03*
X136830000Y-56000000D03*
D12*
X155405000Y-55750000D03*
D13*
X152865000Y-55750000D03*
X150325000Y-55750000D03*
X147785000Y-55750000D03*
D14*
X139370000Y-82601000D03*
X139370000Y-90221000D03*
D12*
X97254500Y-55385000D03*
D13*
X99794500Y-55385000D03*
X102334500Y-55385000D03*
X104874500Y-55385000D03*
X107414500Y-55385000D03*
X109954500Y-55385000D03*
D14*
X142545000Y-82601000D03*
X142545000Y-90221000D03*
D19*
X118640000Y-93600000D03*
X125140000Y-93600000D03*
X118640000Y-98100000D03*
X125140000Y-98100000D03*
D20*
X162895000Y-66630000D03*
D21*
X159865000Y-66930000D03*
X159865000Y-71780000D03*
D20*
X162895000Y-72080000D03*
D22*
X163025000Y-60465000D03*
D14*
X160485000Y-60465000D03*
D23*
X157945000Y-60465000D03*
D14*
X155405000Y-60465000D03*
X152865000Y-60465000D03*
X150325000Y-60465000D03*
X147785000Y-60465000D03*
D23*
X145245000Y-60465000D03*
D14*
X142705000Y-60465000D03*
X140165000Y-60465000D03*
X137625000Y-60465000D03*
X135085000Y-60465000D03*
D23*
X132545000Y-60465000D03*
D14*
X130005000Y-60465000D03*
X127465000Y-60465000D03*
X124925000Y-60465000D03*
X122385000Y-60465000D03*
D23*
X119845000Y-60465000D03*
D14*
X117305000Y-60465000D03*
X114765000Y-60465000D03*
X114765000Y-78245000D03*
X117305000Y-78245000D03*
D24*
X119845000Y-78245000D03*
D14*
X122385000Y-78245000D03*
X124925000Y-78245000D03*
X127465000Y-78245000D03*
X130005000Y-78245000D03*
D24*
X132545000Y-78245000D03*
D14*
X135085000Y-78245000D03*
X137625000Y-78245000D03*
X140165000Y-78245000D03*
X142705000Y-78245000D03*
D24*
X145245000Y-78245000D03*
D14*
X147785000Y-78245000D03*
X150325000Y-78245000D03*
X152865000Y-78245000D03*
X155405000Y-78245000D03*
D24*
X157945000Y-78245000D03*
D14*
X160485000Y-78245000D03*
X163025000Y-78245000D03*
D15*
X161500000Y-96500000D03*
D19*
X135300000Y-98100000D03*
X128800000Y-98100000D03*
X135300000Y-93600000D03*
X128800000Y-93600000D03*
D12*
X163025000Y-55750000D03*
D13*
X160485000Y-55750000D03*
D25*
X145720000Y-94920000D03*
D26*
X143561000Y-94920000D03*
X141402000Y-94920000D03*
X139243000Y-94920000D03*
D14*
X125146000Y-90348000D03*
X117526000Y-90348000D03*
X130005000Y-87133000D03*
X130005000Y-82133000D03*
X127686000Y-90348000D03*
X135306000Y-90348000D03*
D12*
X142700000Y-55750000D03*
D13*
X140160000Y-55750000D03*
D12*
X163000000Y-82956600D03*
D13*
X163000000Y-85496600D03*
D12*
X108370000Y-48770000D03*
D27*
X108370000Y-46230000D03*
X110910000Y-48770000D03*
X110910000Y-46230000D03*
X113450000Y-48770000D03*
X113450000Y-46230000D03*
X115990000Y-48770000D03*
X115990000Y-46230000D03*
X118530000Y-48770000D03*
X118530000Y-46230000D03*
X121070000Y-48770000D03*
X121070000Y-46230000D03*
X123610000Y-48770000D03*
X123610000Y-46230000D03*
X126150000Y-48770000D03*
X126150000Y-46230000D03*
X128690000Y-48770000D03*
X128690000Y-46230000D03*
X131230000Y-48770000D03*
X131230000Y-46230000D03*
X133770000Y-48770000D03*
X133770000Y-46230000D03*
X136310000Y-48770000D03*
X136310000Y-46230000D03*
X138850000Y-48770000D03*
X138850000Y-46230000D03*
X141390000Y-48770000D03*
X141390000Y-46230000D03*
X143930000Y-48770000D03*
X143930000Y-46230000D03*
X146470000Y-48770000D03*
X146470000Y-46230000D03*
X149010000Y-48770000D03*
X149010000Y-46230000D03*
X151550000Y-48770000D03*
X151550000Y-46230000D03*
X154090000Y-48770000D03*
X154090000Y-46230000D03*
X156630000Y-48770000D03*
X156630000Y-46230000D03*
%LPD*%
M02*
