G04 #@! TF.GenerationSoftware,KiCad,Pcbnew,9.0.5-9.0.5~ubuntu24.04.1*
G04 #@! TF.CreationDate,2025-10-24T19:01:10-05:00*
G04 #@! TF.ProjectId,motor_control,6d6f746f-725f-4636-9f6e-74726f6c2e6b,rev?*
G04 #@! TF.SameCoordinates,Original*
G04 #@! TF.FileFunction,Soldermask,Top*
G04 #@! TF.FilePolarity,Negative*
%FSLAX46Y46*%
G04 Gerber Fmt 4.6, Leading zero omitted, Abs format (unit mm)*
G04 Created by KiCad (PCBNEW 9.0.5-9.0.5~ubuntu24.04.1) date 2025-10-24 19:01:10*
%MOMM*%
%LPD*%
G01*
G04 APERTURE LIST*
G04 Aperture macros list*
%AMRoundRect*
0 Rectangle with rounded corners*
0 $1 Rounding radius*
0 $2 $3 $4 $5 $6 $7 $8 $9 X,Y pos of 4 corners*
0 Add a 4 corners polygon primitive as box body*
4,1,4,$2,$3,$4,$5,$6,$7,$8,$9,$2,$3,0*
0 Add four circle primitives for the rounded corners*
1,1,$1+$1,$2,$3*
1,1,$1+$1,$4,$5*
1,1,$1+$1,$6,$7*
1,1,$1+$1,$8,$9*
0 Add four rect primitives between the rounded corners*
20,1,$1+$1,$2,$3,$4,$5,0*
20,1,$1+$1,$4,$5,$6,$7,0*
20,1,$1+$1,$6,$7,$8,$9,0*
20,1,$1+$1,$8,$9,$2,$3,0*%
%AMFreePoly0*
4,1,37,0.800000,0.796148,0.878414,0.796148,1.032228,0.765552,1.177117,0.705537,1.307515,0.618408,1.418408,0.507515,1.505537,0.377117,1.565552,0.232228,1.596148,0.078414,1.596148,-0.078414,1.565552,-0.232228,1.505537,-0.377117,1.418408,-0.507515,1.307515,-0.618408,1.177117,-0.705537,1.032228,-0.765552,0.878414,-0.796148,0.800000,-0.796148,0.800000,-0.800000,-1.400000,-0.800000,
-1.403843,-0.796157,-1.439018,-0.796157,-1.511114,-0.766294,-1.566294,-0.711114,-1.596157,-0.639018,-1.596157,-0.603843,-1.600000,-0.600000,-1.600000,0.600000,-1.596157,0.603843,-1.596157,0.639018,-1.566294,0.711114,-1.511114,0.766294,-1.439018,0.796157,-1.403843,0.796157,-1.400000,0.800000,0.800000,0.800000,0.800000,0.796148,0.800000,0.796148,$1*%
%AMFreePoly1*
4,1,37,1.403843,0.796157,1.439018,0.796157,1.511114,0.766294,1.566294,0.711114,1.596157,0.639018,1.596157,0.603843,1.600000,0.600000,1.600000,-0.600000,1.596157,-0.603843,1.596157,-0.639018,1.566294,-0.711114,1.511114,-0.766294,1.439018,-0.796157,1.403843,-0.796157,1.400000,-0.800000,-0.800000,-0.800000,-0.800000,-0.796148,-0.878414,-0.796148,-1.032228,-0.765552,-1.177117,-0.705537,
-1.307515,-0.618408,-1.418408,-0.507515,-1.505537,-0.377117,-1.565552,-0.232228,-1.596148,-0.078414,-1.596148,0.078414,-1.565552,0.232228,-1.505537,0.377117,-1.418408,0.507515,-1.307515,0.618408,-1.177117,0.705537,-1.032228,0.765552,-0.878414,0.796148,-0.800000,0.796148,-0.800000,0.800000,1.400000,0.800000,1.403843,0.796157,1.403843,0.796157,$1*%
%AMFreePoly2*
4,1,37,0.603843,0.796157,0.639018,0.796157,0.711114,0.766294,0.766294,0.711114,0.796157,0.639018,0.796157,0.603843,0.800000,0.600000,0.800000,-0.600000,0.796157,-0.603843,0.796157,-0.639018,0.766294,-0.711114,0.711114,-0.766294,0.639018,-0.796157,0.603843,-0.796157,0.600000,-0.800000,0.000000,-0.800000,0.000000,-0.796148,-0.078414,-0.796148,-0.232228,-0.765552,-0.377117,-0.705537,
-0.507515,-0.618408,-0.618408,-0.507515,-0.705537,-0.377117,-0.765552,-0.232228,-0.796148,-0.078414,-0.796148,0.078414,-0.765552,0.232228,-0.705537,0.377117,-0.618408,0.507515,-0.507515,0.618408,-0.377117,0.705537,-0.232228,0.765552,-0.078414,0.796148,0.000000,0.796148,0.000000,0.800000,0.600000,0.800000,0.603843,0.796157,0.603843,0.796157,$1*%
%AMFreePoly3*
4,1,37,0.000000,0.796148,0.078414,0.796148,0.232228,0.765552,0.377117,0.705537,0.507515,0.618408,0.618408,0.507515,0.705537,0.377117,0.765552,0.232228,0.796148,0.078414,0.796148,-0.078414,0.765552,-0.232228,0.705537,-0.377117,0.618408,-0.507515,0.507515,-0.618408,0.377117,-0.705537,0.232228,-0.765552,0.078414,-0.796148,0.000000,-0.796148,0.000000,-0.800000,-0.600000,-0.800000,
-0.603843,-0.796157,-0.639018,-0.796157,-0.711114,-0.766294,-0.766294,-0.711114,-0.796157,-0.639018,-0.796157,-0.603843,-0.800000,-0.600000,-0.800000,0.600000,-0.796157,0.603843,-0.796157,0.639018,-0.766294,0.711114,-0.711114,0.766294,-0.639018,0.796157,-0.603843,0.796157,-0.600000,0.800000,0.000000,0.800000,0.000000,0.796148,0.000000,0.796148,$1*%
G04 Aperture macros list end*
%ADD10C,2.000000*%
%ADD11C,1.600000*%
%ADD12R,1.500000X1.500000*%
%ADD13R,1.700000X1.700000*%
%ADD14C,1.700000*%
%ADD15O,1.700000X2.000000*%
%ADD16RoundRect,0.250000X-0.600000X-0.750000X0.600000X-0.750000X0.600000X0.750000X-0.600000X0.750000X0*%
%ADD17C,1.764000*%
%ADD18RoundRect,0.102000X-0.780000X-0.780000X0.780000X-0.780000X0.780000X0.780000X-0.780000X0.780000X0*%
%ADD19C,1.734000*%
%ADD20C,2.700000*%
%ADD21C,2.200000*%
%ADD22C,1.850000*%
%ADD23FreePoly0,270.000000*%
%ADD24RoundRect,0.200000X-0.600000X0.600000X-0.600000X-0.600000X0.600000X-0.600000X0.600000X0.600000X0*%
%ADD25RoundRect,0.800000X-0.000010X0.800000X-0.000010X-0.800000X0.000010X-0.800000X0.000010X0.800000X0*%
%ADD26FreePoly1,270.000000*%
%ADD27FreePoly2,270.000000*%
%ADD28FreePoly3,270.000000*%
%ADD29R,1.800000X1.800000*%
%ADD30C,1.800000*%
%ADD31O,1.700000X1.700000*%
G04 APERTURE END LIST*
D10*
X117700000Y-87100000D03*
X124200000Y-87100000D03*
X117700000Y-91600000D03*
X124200000Y-91600000D03*
X129100000Y-93600000D03*
X135600000Y-93600000D03*
X129100000Y-98100000D03*
X135600000Y-98100000D03*
D11*
X159500000Y-83900000D03*
X159500000Y-88980000D03*
D12*
X159500000Y-86440000D03*
D13*
X163100000Y-86840000D03*
D14*
X163100000Y-84300000D03*
D15*
X95550000Y-93355000D03*
D16*
X93050000Y-93355000D03*
D11*
X129000000Y-52200000D03*
X136620000Y-52200000D03*
D17*
X109954500Y-60540000D03*
X109954500Y-63080000D03*
X109954500Y-65620000D03*
X109954500Y-68160000D03*
X109954500Y-70700000D03*
X109954500Y-73240000D03*
X109954500Y-75780000D03*
D18*
X109954500Y-78320000D03*
X97254500Y-78320000D03*
D17*
X97254500Y-75780000D03*
X97254500Y-73240000D03*
X97254500Y-70700000D03*
X97254500Y-68160000D03*
X97254500Y-65620000D03*
X97254500Y-63080000D03*
D18*
X97254500Y-60540000D03*
D19*
X92174500Y-68085000D03*
X92174500Y-70625000D03*
X92174500Y-73165000D03*
X92174500Y-75705000D03*
D14*
X97254500Y-83325000D03*
X99794500Y-83325000D03*
X102334500Y-83325000D03*
X104874500Y-83325000D03*
X107414500Y-83325000D03*
D13*
X109954500Y-83325000D03*
X97254500Y-55385000D03*
D14*
X99794500Y-55385000D03*
X102334500Y-55385000D03*
X104874500Y-55385000D03*
X107414500Y-55385000D03*
X109954500Y-55385000D03*
D11*
X129000000Y-55460000D03*
X136620000Y-55460000D03*
X145720000Y-82601000D03*
X145720000Y-90221000D03*
D20*
X161500000Y-47500000D03*
X103500000Y-96500000D03*
X103500000Y-47500000D03*
D11*
X131600000Y-82700000D03*
X136600000Y-82700000D03*
X139370000Y-82601000D03*
X139370000Y-90221000D03*
X142545000Y-82601000D03*
X142545000Y-90221000D03*
D21*
X162970000Y-66705000D03*
D22*
X159940000Y-67005000D03*
X159940000Y-71855000D03*
D21*
X162970000Y-72155000D03*
D23*
X163100000Y-59740000D03*
D24*
X163100000Y-60540000D03*
D25*
X160560000Y-59740000D03*
D11*
X160560000Y-60540000D03*
D26*
X158020000Y-59740000D03*
D27*
X158020000Y-60540000D03*
D25*
X155480000Y-59740000D03*
D11*
X155480000Y-60540000D03*
D25*
X152940000Y-59740000D03*
D11*
X152940000Y-60540000D03*
D25*
X150400000Y-59740000D03*
D11*
X150400000Y-60540000D03*
D25*
X147860000Y-59740000D03*
D11*
X147860000Y-60540000D03*
D26*
X145320000Y-59740000D03*
D27*
X145320000Y-60540000D03*
D25*
X142780000Y-59740000D03*
D11*
X142780000Y-60540000D03*
D25*
X140240000Y-59740000D03*
D11*
X140240000Y-60540000D03*
D25*
X137700000Y-59740000D03*
D11*
X137700000Y-60540000D03*
D25*
X135160000Y-59740000D03*
D11*
X135160000Y-60540000D03*
D26*
X132620000Y-59740000D03*
D27*
X132620000Y-60540000D03*
D25*
X130080000Y-59740000D03*
D11*
X130080000Y-60540000D03*
D25*
X127540000Y-59740000D03*
D11*
X127540000Y-60540000D03*
D25*
X125000000Y-59740000D03*
D11*
X125000000Y-60540000D03*
D25*
X122460000Y-59740000D03*
D11*
X122460000Y-60540000D03*
D26*
X119920000Y-59740000D03*
D27*
X119920000Y-60540000D03*
D25*
X117380000Y-59740000D03*
D11*
X117380000Y-60540000D03*
D25*
X114840000Y-59740000D03*
D11*
X114840000Y-60540000D03*
X114840000Y-78320000D03*
D25*
X114840000Y-79120000D03*
D11*
X117380000Y-78320000D03*
D25*
X117380000Y-79120000D03*
D28*
X119920000Y-78320000D03*
D23*
X119920000Y-79120000D03*
D11*
X122460000Y-78320000D03*
D25*
X122460000Y-79120000D03*
D11*
X125000000Y-78320000D03*
D25*
X125000000Y-79120000D03*
D11*
X127540000Y-78320000D03*
D25*
X127540000Y-79120000D03*
D11*
X130080000Y-78320000D03*
D25*
X130080000Y-79120000D03*
D28*
X132620000Y-78320000D03*
D23*
X132620000Y-79120000D03*
D11*
X135160000Y-78320000D03*
D25*
X135160000Y-79120000D03*
D11*
X137700000Y-78320000D03*
D25*
X137700000Y-79120000D03*
D11*
X140240000Y-78320000D03*
D25*
X140240000Y-79120000D03*
D11*
X142780000Y-78320000D03*
D25*
X142780000Y-79120000D03*
D28*
X145320000Y-78320000D03*
D23*
X145320000Y-79120000D03*
D11*
X147860000Y-78320000D03*
D25*
X147860000Y-79120000D03*
D11*
X150400000Y-78320000D03*
D25*
X150400000Y-79120000D03*
D11*
X152940000Y-78320000D03*
D25*
X152940000Y-79120000D03*
D11*
X155480000Y-78320000D03*
D25*
X155480000Y-79120000D03*
D28*
X158020000Y-78320000D03*
D23*
X158020000Y-79120000D03*
D11*
X160560000Y-78320000D03*
D25*
X160560000Y-79120000D03*
D11*
X163100000Y-78320000D03*
D25*
X163100000Y-79120000D03*
D13*
X123740000Y-98100000D03*
D14*
X121200000Y-98100000D03*
X123740000Y-95560000D03*
X121200000Y-95560000D03*
D20*
X161500000Y-96500000D03*
D29*
X145720000Y-94920000D03*
D30*
X143561000Y-94920000D03*
X141402000Y-94920000D03*
X139243000Y-94920000D03*
D11*
X127980000Y-86800000D03*
X135600000Y-86800000D03*
D13*
X163100000Y-55460000D03*
D14*
X160560000Y-55460000D03*
X158020000Y-55460000D03*
X155480000Y-55460000D03*
X152940000Y-55460000D03*
X150400000Y-55460000D03*
X147860000Y-55460000D03*
X145320000Y-55460000D03*
X142780000Y-55460000D03*
X140240000Y-55460000D03*
D11*
X129300000Y-82700000D03*
X124300000Y-82700000D03*
X127980000Y-90300000D03*
X135600000Y-90300000D03*
D13*
X108370000Y-48770000D03*
D31*
X108370000Y-46230000D03*
X110910000Y-48770000D03*
X110910000Y-46230000D03*
X113450000Y-48770000D03*
X113450000Y-46230000D03*
X115990000Y-48770000D03*
X115990000Y-46230000D03*
X118530000Y-48770000D03*
X118530000Y-46230000D03*
X121070000Y-48770000D03*
X121070000Y-46230000D03*
X123610000Y-48770000D03*
X123610000Y-46230000D03*
X126150000Y-48770000D03*
X126150000Y-46230000D03*
X128690000Y-48770000D03*
X128690000Y-46230000D03*
X131230000Y-48770000D03*
X131230000Y-46230000D03*
X133770000Y-48770000D03*
X133770000Y-46230000D03*
X136310000Y-48770000D03*
X136310000Y-46230000D03*
X138850000Y-48770000D03*
X138850000Y-46230000D03*
X141390000Y-48770000D03*
X141390000Y-46230000D03*
X143930000Y-48770000D03*
X143930000Y-46230000D03*
X146470000Y-48770000D03*
X146470000Y-46230000D03*
X149010000Y-48770000D03*
X149010000Y-46230000D03*
X151550000Y-48770000D03*
X151550000Y-46230000D03*
X154090000Y-48770000D03*
X154090000Y-46230000D03*
X156630000Y-48770000D03*
X156630000Y-46230000D03*
M02*
