M48
; DRILL file {KiCad 9.0.5-9.0.5~ubuntu24.04.1} date 2025-10-24T19:02:37-0500
; FORMAT={-:-/ absolute / metric / decimal}
; #@! TF.CreationDate,2025-10-24T19:02:37-05:00
; #@! TF.GenerationSoftware,Kicad,Pcbnew,9.0.5-9.0.5~ubuntu24.04.1
; #@! TF.FileFunction,Plated,1,4,PTH
FMAT,2
METRIC
; #@! TA.AperFunction,Plated,PTH,ViaDrill
T1C0.600
; #@! TA.AperFunction,Plated,PTH,ComponentDrill
T2C0.800
; #@! TA.AperFunction,Plated,PTH,ComponentDrill
T3C0.900
; #@! TA.AperFunction,Plated,PTH,ComponentDrill
T4C1.000
; #@! TA.AperFunction,Plated,PTH,ComponentDrill
T5C1.020
; #@! TA.AperFunction,Plated,PTH,ComponentDrill
T6C1.040
; #@! TA.AperFunction,Plated,PTH,ComponentDrill
T7C1.100
%
G90
G05
T1
X94.4Y-84.9
X108.4Y-88.8
T2
X124.3Y-82.7
X127.98Y-86.8
X127.98Y-90.3
X129.0Y-52.2
X129.0Y-55.46
X129.3Y-82.7
X131.6Y-82.7
X135.6Y-86.8
X135.6Y-90.3
X136.6Y-82.7
X136.62Y-52.2
X136.62Y-55.46
X139.37Y-82.601
X139.37Y-90.221
X142.545Y-82.601
X142.545Y-90.221
X145.72Y-82.601
X145.72Y-90.221
X159.5Y-83.9
X159.5Y-86.44
X159.5Y-88.98
T3
X139.243Y-94.92
X141.402Y-94.92
X143.561Y-94.92
X145.72Y-94.92
T4
X93.05Y-93.355
X95.55Y-93.355
X97.254Y-55.385
X97.254Y-83.325
X99.794Y-55.385
X99.794Y-83.325
X102.334Y-55.385
X102.334Y-83.325
X104.874Y-55.385
X104.874Y-83.325
X107.414Y-55.385
X107.414Y-83.325
X108.37Y-46.23
X108.37Y-48.77
X109.954Y-55.385
X109.954Y-83.325
X110.91Y-46.23
X110.91Y-48.77
X113.45Y-46.23
X113.45Y-48.77
X114.84Y-60.54
X114.84Y-78.32
X115.99Y-46.23
X115.99Y-48.77
X117.38Y-60.54
X117.38Y-78.32
X118.53Y-46.23
X118.53Y-48.77
X119.92Y-60.54
X119.92Y-78.32
X121.07Y-46.23
X121.07Y-48.77
X121.2Y-95.56
X121.2Y-98.1
X122.46Y-60.54
X122.46Y-78.32
X123.61Y-46.23
X123.61Y-48.77
X123.74Y-95.56
X123.74Y-98.1
X125.0Y-60.54
X125.0Y-78.32
X126.15Y-46.23
X126.15Y-48.77
X127.54Y-60.54
X127.54Y-78.32
X128.69Y-46.23
X128.69Y-48.77
X130.08Y-60.54
X130.08Y-78.32
X131.23Y-46.23
X131.23Y-48.77
X132.62Y-60.54
X132.62Y-78.32
X133.77Y-46.23
X133.77Y-48.77
X135.16Y-60.54
X135.16Y-78.32
X136.31Y-46.23
X136.31Y-48.77
X137.7Y-60.54
X137.7Y-78.32
X138.85Y-46.23
X138.85Y-48.77
X140.24Y-55.46
X140.24Y-60.54
X140.24Y-78.32
X141.39Y-46.23
X141.39Y-48.77
X142.78Y-55.46
X142.78Y-60.54
X142.78Y-78.32
X143.93Y-46.23
X143.93Y-48.77
X145.32Y-55.46
X145.32Y-60.54
X145.32Y-78.32
X146.47Y-46.23
X146.47Y-48.77
X147.86Y-55.46
X147.86Y-60.54
X147.86Y-78.32
X149.01Y-46.23
X149.01Y-48.77
X150.4Y-55.46
X150.4Y-60.54
X150.4Y-78.32
X151.55Y-46.23
X151.55Y-48.77
X152.94Y-55.46
X152.94Y-60.54
X152.94Y-78.32
X154.09Y-46.23
X154.09Y-48.77
X155.48Y-55.46
X155.48Y-60.54
X155.48Y-78.32
X156.63Y-46.23
X156.63Y-48.77
X158.02Y-55.46
X158.02Y-60.54
X158.02Y-78.32
X160.56Y-55.46
X160.56Y-60.54
X160.56Y-78.32
X163.1Y-55.46
X163.1Y-60.54
X163.1Y-78.32
X163.1Y-84.3
X163.1Y-86.84
T5
X92.174Y-68.085
X92.174Y-70.625
X92.174Y-73.165
X92.174Y-75.705
T6
X97.254Y-60.54
X97.254Y-63.08
X97.254Y-65.62
X97.254Y-68.16
X97.254Y-70.7
X97.254Y-73.24
X97.254Y-75.78
X97.254Y-78.32
X109.954Y-60.54
X109.954Y-63.08
X109.954Y-65.62
X109.954Y-68.16
X109.954Y-70.7
X109.954Y-73.24
X109.954Y-75.78
X109.954Y-78.32
T7
X117.7Y-87.1
X117.7Y-91.6
X124.2Y-87.1
X124.2Y-91.6
X129.1Y-93.6
X129.1Y-98.1
X135.6Y-93.6
X135.6Y-98.1
M30
