M48
; DRILL file {KiCad 9.0.3-9.0.3-0~ubuntu24.04.1} date 2025-08-16T13:45:59-0500
; FORMAT={-:-/ absolute / metric / decimal}
; #@! TF.CreationDate,2025-08-16T13:45:59-05:00
; #@! TF.GenerationSoftware,Kicad,Pcbnew,9.0.3-9.0.3-0~ubuntu24.04.1
; #@! TF.FileFunction,Plated,1,4,PTH
FMAT,2
METRIC
; #@! TA.AperFunction,Plated,PTH,ViaDrill
T1C0.600
; #@! TA.AperFunction,Plated,PTH,ComponentDrill
T2C0.800
; #@! TA.AperFunction,Plated,PTH,ComponentDrill
T3C0.900
; #@! TA.AperFunction,Plated,PTH,ComponentDrill
T4C1.000
; #@! TA.AperFunction,Plated,PTH,ComponentDrill
T5C1.020
; #@! TA.AperFunction,Plated,PTH,ComponentDrill
T6C1.040
; #@! TA.AperFunction,Plated,PTH,ComponentDrill
T7C1.100
%
G90
G05
T1
X94.55Y-79.3
X99.4Y-53.0
X137.2Y-86.9
T2
X117.526Y-90.348
X125.146Y-90.348
X127.686Y-90.348
X129.21Y-52.8
X129.21Y-56.0
X130.005Y-82.133
X130.005Y-87.133
X135.085Y-82.133
X135.085Y-87.133
X135.306Y-90.348
X136.83Y-52.8
X136.83Y-56.0
X139.37Y-82.601
X139.37Y-90.221
X142.545Y-82.601
X142.545Y-90.221
X145.72Y-82.601
X145.72Y-90.221
T3
X139.243Y-94.92
X141.402Y-94.92
X143.561Y-94.92
X145.72Y-94.92
T4
X94.715Y-90.945
X97.254Y-55.385
X97.254Y-83.325
X97.254Y-90.945
X99.794Y-55.385
X99.794Y-83.325
X102.334Y-55.385
X102.334Y-83.325
X104.874Y-55.385
X104.874Y-83.325
X107.414Y-55.385
X107.414Y-83.325
X108.37Y-46.23
X108.37Y-48.77
X109.954Y-55.385
X109.954Y-83.325
X110.91Y-46.23
X110.91Y-48.77
X113.45Y-46.23
X113.45Y-48.77
X114.765Y-60.465
X114.765Y-78.245
X115.99Y-46.23
X115.99Y-48.77
X115.99Y-53.85
X117.305Y-60.465
X117.305Y-78.245
X118.53Y-46.23
X118.53Y-48.77
X118.53Y-53.85
X119.845Y-60.465
X119.845Y-78.245
X121.07Y-46.23
X121.07Y-48.77
X122.385Y-60.465
X122.385Y-78.245
X123.61Y-46.23
X123.61Y-48.77
X124.925Y-60.465
X124.925Y-78.245
X126.15Y-46.23
X126.15Y-48.77
X127.465Y-60.465
X127.465Y-78.245
X128.69Y-46.23
X128.69Y-48.77
X130.005Y-60.465
X130.005Y-78.245
X131.23Y-46.23
X131.23Y-48.77
X132.545Y-60.465
X132.545Y-78.245
X133.77Y-46.23
X133.77Y-48.77
X135.085Y-60.465
X135.085Y-78.245
X136.31Y-46.23
X136.31Y-48.77
X137.625Y-60.465
X137.625Y-78.245
X138.85Y-46.23
X138.85Y-48.77
X140.16Y-55.75
X140.165Y-60.465
X140.165Y-78.245
X141.39Y-46.23
X141.39Y-48.77
X142.7Y-55.75
X142.705Y-60.465
X142.705Y-78.245
X143.93Y-46.23
X143.93Y-48.77
X145.245Y-60.465
X145.245Y-78.245
X146.47Y-46.23
X146.47Y-48.77
X147.785Y-55.75
X147.785Y-60.465
X147.785Y-78.245
X149.01Y-46.23
X149.01Y-48.77
X150.325Y-55.75
X150.325Y-60.465
X150.325Y-78.245
X151.55Y-46.23
X151.55Y-48.77
X152.865Y-55.75
X152.865Y-60.465
X152.865Y-78.245
X154.09Y-46.23
X154.09Y-48.77
X155.405Y-55.75
X155.405Y-60.465
X155.405Y-78.245
X156.63Y-46.23
X156.63Y-48.77
X157.945Y-60.465
X157.945Y-78.245
X160.485Y-55.75
X160.485Y-60.465
X160.485Y-78.245
X163.0Y-82.957
X163.0Y-85.497
X163.025Y-55.75
X163.025Y-60.465
X163.025Y-78.245
T5
X93.3Y-68.19
X93.3Y-70.73
X93.3Y-73.27
X93.3Y-75.81
T6
X97.254Y-60.465
X97.254Y-63.005
X97.254Y-65.545
X97.254Y-68.085
X97.254Y-70.625
X97.254Y-73.165
X97.254Y-75.705
X97.254Y-78.245
X109.954Y-60.465
X109.954Y-63.005
X109.954Y-65.545
X109.954Y-68.085
X109.954Y-70.625
X109.954Y-73.165
X109.954Y-75.705
X109.954Y-78.245
T7
X118.64Y-93.6
X118.64Y-98.1
X125.14Y-93.6
X125.14Y-98.1
X128.8Y-93.6
X128.8Y-98.1
X135.3Y-93.6
X135.3Y-98.1
M30
