G04 #@! TF.GenerationSoftware,KiCad,Pcbnew,9.0.3-9.0.3-0~ubuntu24.04.1*
G04 #@! TF.CreationDate,2025-08-16T13:45:43-05:00*
G04 #@! TF.ProjectId,motor_control,6d6f746f-725f-4636-9f6e-74726f6c2e6b,rev?*
G04 #@! TF.SameCoordinates,Original*
G04 #@! TF.FileFunction,Soldermask,Top*
G04 #@! TF.FilePolarity,Negative*
%FSLAX46Y46*%
G04 Gerber Fmt 4.6, Leading zero omitted, Abs format (unit mm)*
G04 Created by KiCad (PCBNEW 9.0.3-9.0.3-0~ubuntu24.04.1) date 2025-08-16 13:45:43*
%MOMM*%
%LPD*%
G01*
G04 APERTURE LIST*
G04 Aperture macros list*
%AMRoundRect*
0 Rectangle with rounded corners*
0 $1 Rounding radius*
0 $2 $3 $4 $5 $6 $7 $8 $9 X,Y pos of 4 corners*
0 Add a 4 corners polygon primitive as box body*
4,1,4,$2,$3,$4,$5,$6,$7,$8,$9,$2,$3,0*
0 Add four circle primitives for the rounded corners*
1,1,$1+$1,$2,$3*
1,1,$1+$1,$4,$5*
1,1,$1+$1,$6,$7*
1,1,$1+$1,$8,$9*
0 Add four rect primitives between the rounded corners*
20,1,$1+$1,$2,$3,$4,$5,0*
20,1,$1+$1,$4,$5,$6,$7,0*
20,1,$1+$1,$6,$7,$8,$9,0*
20,1,$1+$1,$8,$9,$2,$3,0*%
%AMFreePoly0*
4,1,37,0.800000,0.796148,0.878414,0.796148,1.032228,0.765552,1.177117,0.705537,1.307515,0.618408,1.418408,0.507515,1.505537,0.377117,1.565552,0.232228,1.596148,0.078414,1.596148,-0.078414,1.565552,-0.232228,1.505537,-0.377117,1.418408,-0.507515,1.307515,-0.618408,1.177117,-0.705537,1.032228,-0.765552,0.878414,-0.796148,0.800000,-0.796148,0.800000,-0.800000,-1.400000,-0.800000,
-1.403843,-0.796157,-1.439018,-0.796157,-1.511114,-0.766294,-1.566294,-0.711114,-1.596157,-0.639018,-1.596157,-0.603843,-1.600000,-0.600000,-1.600000,0.600000,-1.596157,0.603843,-1.596157,0.639018,-1.566294,0.711114,-1.511114,0.766294,-1.439018,0.796157,-1.403843,0.796157,-1.400000,0.800000,0.800000,0.800000,0.800000,0.796148,0.800000,0.796148,$1*%
%AMFreePoly1*
4,1,37,1.403843,0.796157,1.439018,0.796157,1.511114,0.766294,1.566294,0.711114,1.596157,0.639018,1.596157,0.603843,1.600000,0.600000,1.600000,-0.600000,1.596157,-0.603843,1.596157,-0.639018,1.566294,-0.711114,1.511114,-0.766294,1.439018,-0.796157,1.403843,-0.796157,1.400000,-0.800000,-0.800000,-0.800000,-0.800000,-0.796148,-0.878414,-0.796148,-1.032228,-0.765552,-1.177117,-0.705537,
-1.307515,-0.618408,-1.418408,-0.507515,-1.505537,-0.377117,-1.565552,-0.232228,-1.596148,-0.078414,-1.596148,0.078414,-1.565552,0.232228,-1.505537,0.377117,-1.418408,0.507515,-1.307515,0.618408,-1.177117,0.705537,-1.032228,0.765552,-0.878414,0.796148,-0.800000,0.796148,-0.800000,0.800000,1.400000,0.800000,1.403843,0.796157,1.403843,0.796157,$1*%
%AMFreePoly2*
4,1,37,0.603843,0.796157,0.639018,0.796157,0.711114,0.766294,0.766294,0.711114,0.796157,0.639018,0.796157,0.603843,0.800000,0.600000,0.800000,-0.600000,0.796157,-0.603843,0.796157,-0.639018,0.766294,-0.711114,0.711114,-0.766294,0.639018,-0.796157,0.603843,-0.796157,0.600000,-0.800000,0.000000,-0.800000,0.000000,-0.796148,-0.078414,-0.796148,-0.232228,-0.765552,-0.377117,-0.705537,
-0.507515,-0.618408,-0.618408,-0.507515,-0.705537,-0.377117,-0.765552,-0.232228,-0.796148,-0.078414,-0.796148,0.078414,-0.765552,0.232228,-0.705537,0.377117,-0.618408,0.507515,-0.507515,0.618408,-0.377117,0.705537,-0.232228,0.765552,-0.078414,0.796148,0.000000,0.796148,0.000000,0.800000,0.600000,0.800000,0.603843,0.796157,0.603843,0.796157,$1*%
%AMFreePoly3*
4,1,37,0.000000,0.796148,0.078414,0.796148,0.232228,0.765552,0.377117,0.705537,0.507515,0.618408,0.618408,0.507515,0.705537,0.377117,0.765552,0.232228,0.796148,0.078414,0.796148,-0.078414,0.765552,-0.232228,0.705537,-0.377117,0.618408,-0.507515,0.507515,-0.618408,0.377117,-0.705537,0.232228,-0.765552,0.078414,-0.796148,0.000000,-0.796148,0.000000,-0.800000,-0.600000,-0.800000,
-0.603843,-0.796157,-0.639018,-0.796157,-0.711114,-0.766294,-0.766294,-0.711114,-0.796157,-0.639018,-0.796157,-0.603843,-0.800000,-0.600000,-0.800000,0.600000,-0.796157,0.603843,-0.796157,0.639018,-0.766294,0.711114,-0.711114,0.766294,-0.639018,0.796157,-0.603843,0.796157,-0.600000,0.800000,0.000000,0.800000,0.000000,0.796148,0.000000,0.796148,$1*%
G04 Aperture macros list end*
%ADD10R,1.700000X1.700000*%
%ADD11C,1.700000*%
%ADD12C,1.600000*%
%ADD13C,2.700000*%
%ADD14C,1.734000*%
%ADD15RoundRect,0.102000X-0.780000X-0.780000X0.780000X-0.780000X0.780000X0.780000X-0.780000X0.780000X0*%
%ADD16C,1.764000*%
%ADD17C,2.000000*%
%ADD18C,2.200000*%
%ADD19C,1.850000*%
%ADD20FreePoly0,270.000000*%
%ADD21RoundRect,0.200000X-0.600000X0.600000X-0.600000X-0.600000X0.600000X-0.600000X0.600000X0.600000X0*%
%ADD22RoundRect,0.800000X-0.000010X0.800000X-0.000010X-0.800000X0.000010X-0.800000X0.000010X0.800000X0*%
%ADD23FreePoly1,270.000000*%
%ADD24FreePoly2,270.000000*%
%ADD25FreePoly3,270.000000*%
%ADD26R,1.800000X1.800000*%
%ADD27C,1.800000*%
%ADD28O,1.700000X1.700000*%
G04 APERTURE END LIST*
D10*
X97254500Y-90945000D03*
D11*
X94714500Y-90945000D03*
D12*
X129210000Y-52800000D03*
X136830000Y-52800000D03*
X145720000Y-82601000D03*
X145720000Y-90221000D03*
D13*
X161500000Y-47500000D03*
D10*
X115990000Y-53850000D03*
D11*
X118530000Y-53850000D03*
D14*
X93300000Y-68190000D03*
X93300000Y-70730000D03*
X93300000Y-73270000D03*
X93300000Y-75810000D03*
D15*
X97254500Y-60465000D03*
D16*
X97254500Y-63005000D03*
X97254500Y-65545000D03*
X97254500Y-68085000D03*
X97254500Y-70625000D03*
X97254500Y-73165000D03*
X97254500Y-75705000D03*
D15*
X97254500Y-78245000D03*
X109954500Y-78245000D03*
D16*
X109954500Y-75705000D03*
X109954500Y-73165000D03*
X109954500Y-70625000D03*
X109954500Y-68085000D03*
X109954500Y-65545000D03*
X109954500Y-63005000D03*
X109954500Y-60465000D03*
D13*
X103500000Y-96500000D03*
X103500000Y-47500000D03*
D12*
X135085000Y-82133000D03*
X135085000Y-87133000D03*
D10*
X97254500Y-83325000D03*
D11*
X99794500Y-83325000D03*
X102334500Y-83325000D03*
X104874500Y-83325000D03*
X107414500Y-83325000D03*
X109954500Y-83325000D03*
D12*
X129210000Y-56000000D03*
X136830000Y-56000000D03*
D10*
X155405000Y-55750000D03*
D11*
X152865000Y-55750000D03*
X150325000Y-55750000D03*
X147785000Y-55750000D03*
D12*
X139370000Y-82601000D03*
X139370000Y-90221000D03*
D10*
X97254500Y-55385000D03*
D11*
X99794500Y-55385000D03*
X102334500Y-55385000D03*
X104874500Y-55385000D03*
X107414500Y-55385000D03*
X109954500Y-55385000D03*
D12*
X142545000Y-82601000D03*
X142545000Y-90221000D03*
D17*
X118640000Y-93600000D03*
X125140000Y-93600000D03*
X118640000Y-98100000D03*
X125140000Y-98100000D03*
D18*
X162895000Y-66630000D03*
D19*
X159865000Y-66930000D03*
X159865000Y-71780000D03*
D18*
X162895000Y-72080000D03*
D20*
X163025000Y-59665000D03*
D21*
X163025000Y-60465000D03*
D22*
X160485000Y-59665000D03*
D12*
X160485000Y-60465000D03*
D23*
X157945000Y-59665000D03*
D24*
X157945000Y-60465000D03*
D22*
X155405000Y-59665000D03*
D12*
X155405000Y-60465000D03*
D22*
X152865000Y-59665000D03*
D12*
X152865000Y-60465000D03*
D22*
X150325000Y-59665000D03*
D12*
X150325000Y-60465000D03*
D22*
X147785000Y-59665000D03*
D12*
X147785000Y-60465000D03*
D23*
X145245000Y-59665000D03*
D24*
X145245000Y-60465000D03*
D22*
X142705000Y-59665000D03*
D12*
X142705000Y-60465000D03*
D22*
X140165000Y-59665000D03*
D12*
X140165000Y-60465000D03*
D22*
X137625000Y-59665000D03*
D12*
X137625000Y-60465000D03*
D22*
X135085000Y-59665000D03*
D12*
X135085000Y-60465000D03*
D23*
X132545000Y-59665000D03*
D24*
X132545000Y-60465000D03*
D22*
X130005000Y-59665000D03*
D12*
X130005000Y-60465000D03*
D22*
X127465000Y-59665000D03*
D12*
X127465000Y-60465000D03*
D22*
X124925000Y-59665000D03*
D12*
X124925000Y-60465000D03*
D22*
X122385000Y-59665000D03*
D12*
X122385000Y-60465000D03*
D23*
X119845000Y-59665000D03*
D24*
X119845000Y-60465000D03*
D22*
X117305000Y-59665000D03*
D12*
X117305000Y-60465000D03*
D22*
X114765000Y-59665000D03*
D12*
X114765000Y-60465000D03*
X114765000Y-78245000D03*
D22*
X114765000Y-79045000D03*
D12*
X117305000Y-78245000D03*
D22*
X117305000Y-79045000D03*
D25*
X119845000Y-78245000D03*
D20*
X119845000Y-79045000D03*
D12*
X122385000Y-78245000D03*
D22*
X122385000Y-79045000D03*
D12*
X124925000Y-78245000D03*
D22*
X124925000Y-79045000D03*
D12*
X127465000Y-78245000D03*
D22*
X127465000Y-79045000D03*
D12*
X130005000Y-78245000D03*
D22*
X130005000Y-79045000D03*
D25*
X132545000Y-78245000D03*
D20*
X132545000Y-79045000D03*
D12*
X135085000Y-78245000D03*
D22*
X135085000Y-79045000D03*
D12*
X137625000Y-78245000D03*
D22*
X137625000Y-79045000D03*
D12*
X140165000Y-78245000D03*
D22*
X140165000Y-79045000D03*
D12*
X142705000Y-78245000D03*
D22*
X142705000Y-79045000D03*
D25*
X145245000Y-78245000D03*
D20*
X145245000Y-79045000D03*
D12*
X147785000Y-78245000D03*
D22*
X147785000Y-79045000D03*
D12*
X150325000Y-78245000D03*
D22*
X150325000Y-79045000D03*
D12*
X152865000Y-78245000D03*
D22*
X152865000Y-79045000D03*
D12*
X155405000Y-78245000D03*
D22*
X155405000Y-79045000D03*
D25*
X157945000Y-78245000D03*
D20*
X157945000Y-79045000D03*
D12*
X160485000Y-78245000D03*
D22*
X160485000Y-79045000D03*
D12*
X163025000Y-78245000D03*
D22*
X163025000Y-79045000D03*
D13*
X161500000Y-96500000D03*
D17*
X135300000Y-98100000D03*
X128800000Y-98100000D03*
X135300000Y-93600000D03*
X128800000Y-93600000D03*
D10*
X163025000Y-55750000D03*
D11*
X160485000Y-55750000D03*
D26*
X145720000Y-94920000D03*
D27*
X143561000Y-94920000D03*
X141402000Y-94920000D03*
X139243000Y-94920000D03*
D12*
X125146000Y-90348000D03*
X117526000Y-90348000D03*
X130005000Y-87133000D03*
X130005000Y-82133000D03*
X127686000Y-90348000D03*
X135306000Y-90348000D03*
D10*
X142700000Y-55750000D03*
D11*
X140160000Y-55750000D03*
D10*
X163000000Y-82956600D03*
D11*
X163000000Y-85496600D03*
D10*
X108370000Y-48770000D03*
D28*
X108370000Y-46230000D03*
X110910000Y-48770000D03*
X110910000Y-46230000D03*
X113450000Y-48770000D03*
X113450000Y-46230000D03*
X115990000Y-48770000D03*
X115990000Y-46230000D03*
X118530000Y-48770000D03*
X118530000Y-46230000D03*
X121070000Y-48770000D03*
X121070000Y-46230000D03*
X123610000Y-48770000D03*
X123610000Y-46230000D03*
X126150000Y-48770000D03*
X126150000Y-46230000D03*
X128690000Y-48770000D03*
X128690000Y-46230000D03*
X131230000Y-48770000D03*
X131230000Y-46230000D03*
X133770000Y-48770000D03*
X133770000Y-46230000D03*
X136310000Y-48770000D03*
X136310000Y-46230000D03*
X138850000Y-48770000D03*
X138850000Y-46230000D03*
X141390000Y-48770000D03*
X141390000Y-46230000D03*
X143930000Y-48770000D03*
X143930000Y-46230000D03*
X146470000Y-48770000D03*
X146470000Y-46230000D03*
X149010000Y-48770000D03*
X149010000Y-46230000D03*
X151550000Y-48770000D03*
X151550000Y-46230000D03*
X154090000Y-48770000D03*
X154090000Y-46230000D03*
X156630000Y-48770000D03*
X156630000Y-46230000D03*
M02*
