%TF.GenerationSoftware,KiCad,Pcbnew,9.0.6-9.0.6~ubuntu24.04.1*%
%TF.CreationDate,2025-12-22T17:35:10-06:00*%
%TF.ProjectId,tbot_relay,74626f74-5f72-4656-9c61-792e6b696361,rev?*%
%TF.SameCoordinates,Original*%
%TF.FileFunction,Legend,Bot*%
%TF.FilePolarity,Positive*%
%FSLAX46Y46*%
G04 Gerber Fmt 4.6, Leading zero omitted, Abs format (unit mm)*
G04 Created by KiCad (PCBNEW 9.0.6-9.0.6~ubuntu24.04.1) date 2025-12-22 17:35:10*
%MOMM*%
%LPD*%
G01*
G04 APERTURE LIST*
%ADD10C,0.150000*%
G04 APERTURE END LIST*
D10*
X122877506Y-57369819D02*
X122877506Y-58084104D01*
X122877506Y-58084104D02*
X122925125Y-58226961D01*
X122925125Y-58226961D02*
X123020363Y-58322200D01*
X123020363Y-58322200D02*
X123163220Y-58369819D01*
X123163220Y-58369819D02*
X123258458Y-58369819D01*
X121925125Y-58369819D02*
X122401315Y-58369819D01*
X122401315Y-58369819D02*
X122401315Y-57369819D01*
X121020363Y-58274580D02*
X121067982Y-58322200D01*
X121067982Y-58322200D02*
X121210839Y-58369819D01*
X121210839Y-58369819D02*
X121306077Y-58369819D01*
X121306077Y-58369819D02*
X121448934Y-58322200D01*
X121448934Y-58322200D02*
X121544172Y-58226961D01*
X121544172Y-58226961D02*
X121591791Y-58131723D01*
X121591791Y-58131723D02*
X121639410Y-57941247D01*
X121639410Y-57941247D02*
X121639410Y-57798390D01*
X121639410Y-57798390D02*
X121591791Y-57607914D01*
X121591791Y-57607914D02*
X121544172Y-57512676D01*
X121544172Y-57512676D02*
X121448934Y-57417438D01*
X121448934Y-57417438D02*
X121306077Y-57369819D01*
X121306077Y-57369819D02*
X121210839Y-57369819D01*
X121210839Y-57369819D02*
X121067982Y-57417438D01*
X121067982Y-57417438D02*
X121020363Y-57465057D01*
X120306077Y-57369819D02*
X120306077Y-58084104D01*
X120306077Y-58084104D02*
X120353696Y-58226961D01*
X120353696Y-58226961D02*
X120448934Y-58322200D01*
X120448934Y-58322200D02*
X120591791Y-58369819D01*
X120591791Y-58369819D02*
X120687029Y-58369819D01*
X119353696Y-58369819D02*
X119829886Y-58369819D01*
X119829886Y-58369819D02*
X119829886Y-57369819D01*
X118448934Y-58274580D02*
X118496553Y-58322200D01*
X118496553Y-58322200D02*
X118639410Y-58369819D01*
X118639410Y-58369819D02*
X118734648Y-58369819D01*
X118734648Y-58369819D02*
X118877505Y-58322200D01*
X118877505Y-58322200D02*
X118972743Y-58226961D01*
X118972743Y-58226961D02*
X119020362Y-58131723D01*
X119020362Y-58131723D02*
X119067981Y-57941247D01*
X119067981Y-57941247D02*
X119067981Y-57798390D01*
X119067981Y-57798390D02*
X119020362Y-57607914D01*
X119020362Y-57607914D02*
X118972743Y-57512676D01*
X118972743Y-57512676D02*
X118877505Y-57417438D01*
X118877505Y-57417438D02*
X118734648Y-57369819D01*
X118734648Y-57369819D02*
X118639410Y-57369819D01*
X118639410Y-57369819D02*
X118496553Y-57417438D01*
X118496553Y-57417438D02*
X118448934Y-57465057D01*
X117734648Y-57369819D02*
X117734648Y-58084104D01*
X117734648Y-58084104D02*
X117782267Y-58226961D01*
X117782267Y-58226961D02*
X117877505Y-58322200D01*
X117877505Y-58322200D02*
X118020362Y-58369819D01*
X118020362Y-58369819D02*
X118115600Y-58369819D01*
X116782267Y-58369819D02*
X117258457Y-58369819D01*
X117258457Y-58369819D02*
X117258457Y-57369819D01*
X115877505Y-58274580D02*
X115925124Y-58322200D01*
X115925124Y-58322200D02*
X116067981Y-58369819D01*
X116067981Y-58369819D02*
X116163219Y-58369819D01*
X116163219Y-58369819D02*
X116306076Y-58322200D01*
X116306076Y-58322200D02*
X116401314Y-58226961D01*
X116401314Y-58226961D02*
X116448933Y-58131723D01*
X116448933Y-58131723D02*
X116496552Y-57941247D01*
X116496552Y-57941247D02*
X116496552Y-57798390D01*
X116496552Y-57798390D02*
X116448933Y-57607914D01*
X116448933Y-57607914D02*
X116401314Y-57512676D01*
X116401314Y-57512676D02*
X116306076Y-57417438D01*
X116306076Y-57417438D02*
X116163219Y-57369819D01*
X116163219Y-57369819D02*
X116067981Y-57369819D01*
X116067981Y-57369819D02*
X115925124Y-57417438D01*
X115925124Y-57417438D02*
X115877505Y-57465057D01*
X115163219Y-57369819D02*
X115163219Y-58084104D01*
X115163219Y-58084104D02*
X115210838Y-58226961D01*
X115210838Y-58226961D02*
X115306076Y-58322200D01*
X115306076Y-58322200D02*
X115448933Y-58369819D01*
X115448933Y-58369819D02*
X115544171Y-58369819D01*
X114210838Y-58369819D02*
X114687028Y-58369819D01*
X114687028Y-58369819D02*
X114687028Y-57369819D01*
X113306076Y-58274580D02*
X113353695Y-58322200D01*
X113353695Y-58322200D02*
X113496552Y-58369819D01*
X113496552Y-58369819D02*
X113591790Y-58369819D01*
X113591790Y-58369819D02*
X113734647Y-58322200D01*
X113734647Y-58322200D02*
X113829885Y-58226961D01*
X113829885Y-58226961D02*
X113877504Y-58131723D01*
X113877504Y-58131723D02*
X113925123Y-57941247D01*
X113925123Y-57941247D02*
X113925123Y-57798390D01*
X113925123Y-57798390D02*
X113877504Y-57607914D01*
X113877504Y-57607914D02*
X113829885Y-57512676D01*
X113829885Y-57512676D02*
X113734647Y-57417438D01*
X113734647Y-57417438D02*
X113591790Y-57369819D01*
X113591790Y-57369819D02*
X113496552Y-57369819D01*
X113496552Y-57369819D02*
X113353695Y-57417438D01*
X113353695Y-57417438D02*
X113306076Y-57465057D01*
M02*
