%TF.GenerationSoftware,KiCad,Pcbnew,9.0.6-9.0.6~ubuntu24.04.1*%
%TF.CreationDate,2025-12-22T17:35:10-06:00*%
%TF.ProjectId,tbot_relay,74626f74-5f72-4656-9c61-792e6b696361,rev?*%
%TF.SameCoordinates,Original*%
%TF.FileFunction,Soldermask,Bot*%
%TF.FilePolarity,Negative*%
%FSLAX46Y46*%
G04 Gerber Fmt 4.6, Leading zero omitted, Abs format (unit mm)*
G04 Created by KiCad (PCBNEW 9.0.6-9.0.6~ubuntu24.04.1) date 2025-12-22 17:35:10*
%MOMM*%
%LPD*%
G01*
G04 APERTURE LIST*
G04 APERTURE END LIST*
G36*
X109850000Y-98310000D02*
G01*
X108150000Y-98310000D01*
X108150000Y-96610000D01*
X109850000Y-96610000D01*
X109850000Y-98310000D01*
G37*
G36*
X130170000Y-98310000D02*
G01*
X128470000Y-98310000D01*
X128470000Y-96610000D01*
X130170000Y-96610000D01*
X130170000Y-98310000D01*
G37*
G36*
X111786742Y-96646601D02*
G01*
X111940687Y-96710367D01*
X112079234Y-96802941D01*
X112197059Y-96920766D01*
X112289633Y-97059313D01*
X112353399Y-97213258D01*
X112385907Y-97376685D01*
X112385907Y-97543315D01*
X112353399Y-97706742D01*
X112289633Y-97860687D01*
X112197059Y-97999234D01*
X112079234Y-98117059D01*
X111940687Y-98209633D01*
X111786742Y-98273399D01*
X111623315Y-98305907D01*
X111456685Y-98305907D01*
X111293258Y-98273399D01*
X111139313Y-98209633D01*
X111000766Y-98117059D01*
X110882941Y-97999234D01*
X110790367Y-97860687D01*
X110726601Y-97706742D01*
X110694093Y-97543315D01*
X110694093Y-97376685D01*
X110726601Y-97213258D01*
X110790367Y-97059313D01*
X110882941Y-96920766D01*
X111000766Y-96802941D01*
X111139313Y-96710367D01*
X111293258Y-96646601D01*
X111456685Y-96614093D01*
X111623315Y-96614093D01*
X111786742Y-96646601D01*
G37*
G36*
X114326742Y-96646601D02*
G01*
X114480687Y-96710367D01*
X114619234Y-96802941D01*
X114737059Y-96920766D01*
X114829633Y-97059313D01*
X114893399Y-97213258D01*
X114925907Y-97376685D01*
X114925907Y-97543315D01*
X114893399Y-97706742D01*
X114829633Y-97860687D01*
X114737059Y-97999234D01*
X114619234Y-98117059D01*
X114480687Y-98209633D01*
X114326742Y-98273399D01*
X114163315Y-98305907D01*
X113996685Y-98305907D01*
X113833258Y-98273399D01*
X113679313Y-98209633D01*
X113540766Y-98117059D01*
X113422941Y-97999234D01*
X113330367Y-97860687D01*
X113266601Y-97706742D01*
X113234093Y-97543315D01*
X113234093Y-97376685D01*
X113266601Y-97213258D01*
X113330367Y-97059313D01*
X113422941Y-96920766D01*
X113540766Y-96802941D01*
X113679313Y-96710367D01*
X113833258Y-96646601D01*
X113996685Y-96614093D01*
X114163315Y-96614093D01*
X114326742Y-96646601D01*
G37*
G36*
X116866742Y-96646601D02*
G01*
X117020687Y-96710367D01*
X117159234Y-96802941D01*
X117277059Y-96920766D01*
X117369633Y-97059313D01*
X117433399Y-97213258D01*
X117465907Y-97376685D01*
X117465907Y-97543315D01*
X117433399Y-97706742D01*
X117369633Y-97860687D01*
X117277059Y-97999234D01*
X117159234Y-98117059D01*
X117020687Y-98209633D01*
X116866742Y-98273399D01*
X116703315Y-98305907D01*
X116536685Y-98305907D01*
X116373258Y-98273399D01*
X116219313Y-98209633D01*
X116080766Y-98117059D01*
X115962941Y-97999234D01*
X115870367Y-97860687D01*
X115806601Y-97706742D01*
X115774093Y-97543315D01*
X115774093Y-97376685D01*
X115806601Y-97213258D01*
X115870367Y-97059313D01*
X115962941Y-96920766D01*
X116080766Y-96802941D01*
X116219313Y-96710367D01*
X116373258Y-96646601D01*
X116536685Y-96614093D01*
X116703315Y-96614093D01*
X116866742Y-96646601D01*
G37*
G36*
X119406742Y-96646601D02*
G01*
X119560687Y-96710367D01*
X119699234Y-96802941D01*
X119817059Y-96920766D01*
X119909633Y-97059313D01*
X119973399Y-97213258D01*
X120005907Y-97376685D01*
X120005907Y-97543315D01*
X119973399Y-97706742D01*
X119909633Y-97860687D01*
X119817059Y-97999234D01*
X119699234Y-98117059D01*
X119560687Y-98209633D01*
X119406742Y-98273399D01*
X119243315Y-98305907D01*
X119076685Y-98305907D01*
X118913258Y-98273399D01*
X118759313Y-98209633D01*
X118620766Y-98117059D01*
X118502941Y-97999234D01*
X118410367Y-97860687D01*
X118346601Y-97706742D01*
X118314093Y-97543315D01*
X118314093Y-97376685D01*
X118346601Y-97213258D01*
X118410367Y-97059313D01*
X118502941Y-96920766D01*
X118620766Y-96802941D01*
X118759313Y-96710367D01*
X118913258Y-96646601D01*
X119076685Y-96614093D01*
X119243315Y-96614093D01*
X119406742Y-96646601D01*
G37*
G36*
X121946742Y-96646601D02*
G01*
X122100687Y-96710367D01*
X122239234Y-96802941D01*
X122357059Y-96920766D01*
X122449633Y-97059313D01*
X122513399Y-97213258D01*
X122545907Y-97376685D01*
X122545907Y-97543315D01*
X122513399Y-97706742D01*
X122449633Y-97860687D01*
X122357059Y-97999234D01*
X122239234Y-98117059D01*
X122100687Y-98209633D01*
X121946742Y-98273399D01*
X121783315Y-98305907D01*
X121616685Y-98305907D01*
X121453258Y-98273399D01*
X121299313Y-98209633D01*
X121160766Y-98117059D01*
X121042941Y-97999234D01*
X120950367Y-97860687D01*
X120886601Y-97706742D01*
X120854093Y-97543315D01*
X120854093Y-97376685D01*
X120886601Y-97213258D01*
X120950367Y-97059313D01*
X121042941Y-96920766D01*
X121160766Y-96802941D01*
X121299313Y-96710367D01*
X121453258Y-96646601D01*
X121616685Y-96614093D01*
X121783315Y-96614093D01*
X121946742Y-96646601D01*
G37*
G36*
X127026742Y-96646601D02*
G01*
X127180687Y-96710367D01*
X127319234Y-96802941D01*
X127437059Y-96920766D01*
X127529633Y-97059313D01*
X127593399Y-97213258D01*
X127625907Y-97376685D01*
X127625907Y-97543315D01*
X127593399Y-97706742D01*
X127529633Y-97860687D01*
X127437059Y-97999234D01*
X127319234Y-98117059D01*
X127180687Y-98209633D01*
X127026742Y-98273399D01*
X126863315Y-98305907D01*
X126696685Y-98305907D01*
X126533258Y-98273399D01*
X126379313Y-98209633D01*
X126240766Y-98117059D01*
X126122941Y-97999234D01*
X126030367Y-97860687D01*
X125966601Y-97706742D01*
X125934093Y-97543315D01*
X125934093Y-97376685D01*
X125966601Y-97213258D01*
X126030367Y-97059313D01*
X126122941Y-96920766D01*
X126240766Y-96802941D01*
X126379313Y-96710367D01*
X126533258Y-96646601D01*
X126696685Y-96614093D01*
X126863315Y-96614093D01*
X127026742Y-96646601D01*
G37*
G36*
X133132228Y-96694448D02*
G01*
X133277117Y-96754463D01*
X133407515Y-96841592D01*
X133518408Y-96952485D01*
X133605537Y-97082883D01*
X133665552Y-97227772D01*
X133696148Y-97381586D01*
X133696148Y-97538414D01*
X133665552Y-97692228D01*
X133605537Y-97837117D01*
X133518408Y-97967515D01*
X133407515Y-98078408D01*
X133277117Y-98165537D01*
X133132228Y-98225552D01*
X132978414Y-98256148D01*
X132821586Y-98256148D01*
X132667772Y-98225552D01*
X132522883Y-98165537D01*
X132392485Y-98078408D01*
X132281592Y-97967515D01*
X132194463Y-97837117D01*
X132134448Y-97692228D01*
X132103852Y-97538414D01*
X132103852Y-97381586D01*
X132134448Y-97227772D01*
X132194463Y-97082883D01*
X132281592Y-96952485D01*
X132392485Y-96841592D01*
X132522883Y-96754463D01*
X132667772Y-96694448D01*
X132821586Y-96663852D01*
X132978414Y-96663852D01*
X133132228Y-96694448D01*
G37*
G36*
X103815151Y-95187301D02*
G01*
X104016623Y-95252763D01*
X104205373Y-95348936D01*
X104376755Y-95473452D01*
X104526548Y-95623245D01*
X104651064Y-95794627D01*
X104747237Y-95983377D01*
X104812699Y-96184849D01*
X104845838Y-96394080D01*
X104845838Y-96605920D01*
X104812699Y-96815151D01*
X104747237Y-97016623D01*
X104651064Y-97205373D01*
X104526548Y-97376755D01*
X104376755Y-97526548D01*
X104205373Y-97651064D01*
X104016623Y-97747237D01*
X103815151Y-97812699D01*
X103605920Y-97845838D01*
X103394080Y-97845838D01*
X103184849Y-97812699D01*
X102983377Y-97747237D01*
X102794627Y-97651064D01*
X102623245Y-97526548D01*
X102473452Y-97376755D01*
X102348936Y-97205373D01*
X102252763Y-97016623D01*
X102187301Y-96815151D01*
X102154162Y-96605920D01*
X102154162Y-96394080D01*
X102187301Y-96184849D01*
X102252763Y-95983377D01*
X102348936Y-95794627D01*
X102473452Y-95623245D01*
X102623245Y-95473452D01*
X102794627Y-95348936D01*
X102983377Y-95252763D01*
X103184849Y-95187301D01*
X103394080Y-95154162D01*
X103605920Y-95154162D01*
X103815151Y-95187301D01*
G37*
G36*
X161815151Y-95187301D02*
G01*
X162016623Y-95252763D01*
X162205373Y-95348936D01*
X162376755Y-95473452D01*
X162526548Y-95623245D01*
X162651064Y-95794627D01*
X162747237Y-95983377D01*
X162812699Y-96184849D01*
X162845838Y-96394080D01*
X162845838Y-96605920D01*
X162812699Y-96815151D01*
X162747237Y-97016623D01*
X162651064Y-97205373D01*
X162526548Y-97376755D01*
X162376755Y-97526548D01*
X162205373Y-97651064D01*
X162016623Y-97747237D01*
X161815151Y-97812699D01*
X161605920Y-97845838D01*
X161394080Y-97845838D01*
X161184849Y-97812699D01*
X160983377Y-97747237D01*
X160794627Y-97651064D01*
X160623245Y-97526548D01*
X160473452Y-97376755D01*
X160348936Y-97205373D01*
X160252763Y-97016623D01*
X160187301Y-96815151D01*
X160154162Y-96605920D01*
X160154162Y-96394080D01*
X160187301Y-96184849D01*
X160252763Y-95983377D01*
X160348936Y-95794627D01*
X160473452Y-95623245D01*
X160623245Y-95473452D01*
X160794627Y-95348936D01*
X160983377Y-95252763D01*
X161184849Y-95187301D01*
X161394080Y-95154162D01*
X161605920Y-95154162D01*
X161815151Y-95187301D01*
G37*
G36*
X145710000Y-97500000D02*
G01*
X143910000Y-97500000D01*
X143910000Y-95700000D01*
X145710000Y-95700000D01*
X145710000Y-97500000D01*
G37*
G36*
X138594256Y-95738754D02*
G01*
X138757257Y-95806271D01*
X138903954Y-95904291D01*
X139028709Y-96029046D01*
X139126729Y-96175743D01*
X139194246Y-96338744D01*
X139228666Y-96511785D01*
X139228666Y-96688215D01*
X139194246Y-96861256D01*
X139126729Y-97024257D01*
X139028709Y-97170954D01*
X138903954Y-97295709D01*
X138757257Y-97393729D01*
X138594256Y-97461246D01*
X138421215Y-97495666D01*
X138244785Y-97495666D01*
X138071744Y-97461246D01*
X137908743Y-97393729D01*
X137762046Y-97295709D01*
X137637291Y-97170954D01*
X137539271Y-97024257D01*
X137471754Y-96861256D01*
X137437334Y-96688215D01*
X137437334Y-96511785D01*
X137471754Y-96338744D01*
X137539271Y-96175743D01*
X137637291Y-96029046D01*
X137762046Y-95904291D01*
X137908743Y-95806271D01*
X138071744Y-95738754D01*
X138244785Y-95704334D01*
X138421215Y-95704334D01*
X138594256Y-95738754D01*
G37*
G36*
X140753256Y-95738754D02*
G01*
X140916257Y-95806271D01*
X141062954Y-95904291D01*
X141187709Y-96029046D01*
X141285729Y-96175743D01*
X141353246Y-96338744D01*
X141387666Y-96511785D01*
X141387666Y-96688215D01*
X141353246Y-96861256D01*
X141285729Y-97024257D01*
X141187709Y-97170954D01*
X141062954Y-97295709D01*
X140916257Y-97393729D01*
X140753256Y-97461246D01*
X140580215Y-97495666D01*
X140403785Y-97495666D01*
X140230744Y-97461246D01*
X140067743Y-97393729D01*
X139921046Y-97295709D01*
X139796291Y-97170954D01*
X139698271Y-97024257D01*
X139630754Y-96861256D01*
X139596334Y-96688215D01*
X139596334Y-96511785D01*
X139630754Y-96338744D01*
X139698271Y-96175743D01*
X139796291Y-96029046D01*
X139921046Y-95904291D01*
X140067743Y-95806271D01*
X140230744Y-95738754D01*
X140403785Y-95704334D01*
X140580215Y-95704334D01*
X140753256Y-95738754D01*
G37*
G36*
X142912256Y-95738754D02*
G01*
X143075257Y-95806271D01*
X143221954Y-95904291D01*
X143346709Y-96029046D01*
X143444729Y-96175743D01*
X143512246Y-96338744D01*
X143546666Y-96511785D01*
X143546666Y-96688215D01*
X143512246Y-96861256D01*
X143444729Y-97024257D01*
X143346709Y-97170954D01*
X143221954Y-97295709D01*
X143075257Y-97393729D01*
X142912256Y-97461246D01*
X142739215Y-97495666D01*
X142562785Y-97495666D01*
X142389744Y-97461246D01*
X142226743Y-97393729D01*
X142080046Y-97295709D01*
X141955291Y-97170954D01*
X141857271Y-97024257D01*
X141789754Y-96861256D01*
X141755334Y-96688215D01*
X141755334Y-96511785D01*
X141789754Y-96338744D01*
X141857271Y-96175743D01*
X141955291Y-96029046D01*
X142080046Y-95904291D01*
X142226743Y-95806271D01*
X142389744Y-95738754D01*
X142562785Y-95704334D01*
X142739215Y-95704334D01*
X142912256Y-95738754D01*
G37*
G36*
X95104850Y-94400964D02*
G01*
X95155040Y-94406787D01*
X95172189Y-94414359D01*
X95195671Y-94419030D01*
X95220810Y-94435827D01*
X95240696Y-94444608D01*
X95254277Y-94458189D01*
X95276777Y-94473223D01*
X95291810Y-94495722D01*
X95305391Y-94509303D01*
X95314170Y-94529186D01*
X95330970Y-94554329D01*
X95335641Y-94577812D01*
X95343212Y-94594959D01*
X95349033Y-94645139D01*
X95350000Y-94650000D01*
X95350000Y-96150000D01*
X95349032Y-96154863D01*
X95343212Y-96205040D01*
X95335641Y-96222185D01*
X95330970Y-96245671D01*
X95314169Y-96270815D01*
X95305391Y-96290696D01*
X95291812Y-96304274D01*
X95276777Y-96326777D01*
X95254274Y-96341812D01*
X95240696Y-96355391D01*
X95220815Y-96364169D01*
X95195671Y-96380970D01*
X95172185Y-96385641D01*
X95155040Y-96393212D01*
X95104861Y-96399032D01*
X95100000Y-96400000D01*
X93900000Y-96400000D01*
X93895138Y-96399032D01*
X93844959Y-96393212D01*
X93827812Y-96385641D01*
X93804329Y-96380970D01*
X93779186Y-96364170D01*
X93759303Y-96355391D01*
X93745722Y-96341810D01*
X93723223Y-96326777D01*
X93708189Y-96304277D01*
X93694608Y-96290696D01*
X93685827Y-96270810D01*
X93669030Y-96245671D01*
X93664359Y-96222189D01*
X93656787Y-96205040D01*
X93650964Y-96154849D01*
X93650000Y-96150000D01*
X93650000Y-94650000D01*
X93650964Y-94645150D01*
X93656787Y-94594959D01*
X93664359Y-94577808D01*
X93669030Y-94554329D01*
X93685826Y-94529191D01*
X93694608Y-94509303D01*
X93708191Y-94495719D01*
X93723223Y-94473223D01*
X93745719Y-94458191D01*
X93759303Y-94444608D01*
X93779191Y-94435826D01*
X93804329Y-94419030D01*
X93827808Y-94414359D01*
X93844959Y-94406787D01*
X93895151Y-94400964D01*
X93900000Y-94400000D01*
X95100000Y-94400000D01*
X95104850Y-94400964D01*
G37*
G36*
X97246742Y-94436601D02*
G01*
X97400687Y-94500367D01*
X97539234Y-94592941D01*
X97657059Y-94710766D01*
X97749633Y-94849313D01*
X97813399Y-95003258D01*
X97845907Y-95166685D01*
X97850000Y-95250000D01*
X97850000Y-95550000D01*
X97845907Y-95633315D01*
X97813399Y-95796742D01*
X97749633Y-95950687D01*
X97657059Y-96089234D01*
X97539234Y-96207059D01*
X97400687Y-96299633D01*
X97246742Y-96363399D01*
X97083315Y-96395907D01*
X96916685Y-96395907D01*
X96753258Y-96363399D01*
X96599313Y-96299633D01*
X96460766Y-96207059D01*
X96342941Y-96089234D01*
X96250367Y-95950687D01*
X96186601Y-95796742D01*
X96154093Y-95633315D01*
X96150000Y-95550000D01*
X96150000Y-95250000D01*
X96154093Y-95166685D01*
X96186601Y-95003258D01*
X96250367Y-94849313D01*
X96342941Y-94710766D01*
X96460766Y-94592941D01*
X96599313Y-94500367D01*
X96753258Y-94436601D01*
X96916685Y-94404093D01*
X97083315Y-94404093D01*
X97246742Y-94436601D01*
G37*
G36*
X127026742Y-94106601D02*
G01*
X127180687Y-94170367D01*
X127319234Y-94262941D01*
X127437059Y-94380766D01*
X127529633Y-94519313D01*
X127593399Y-94673258D01*
X127625907Y-94836685D01*
X127625907Y-95003315D01*
X127593399Y-95166742D01*
X127529633Y-95320687D01*
X127437059Y-95459234D01*
X127319234Y-95577059D01*
X127180687Y-95669633D01*
X127026742Y-95733399D01*
X126863315Y-95765907D01*
X126696685Y-95765907D01*
X126533258Y-95733399D01*
X126379313Y-95669633D01*
X126240766Y-95577059D01*
X126122941Y-95459234D01*
X126030367Y-95320687D01*
X125966601Y-95166742D01*
X125934093Y-95003315D01*
X125934093Y-94836685D01*
X125966601Y-94673258D01*
X126030367Y-94519313D01*
X126122941Y-94380766D01*
X126240766Y-94262941D01*
X126379313Y-94170367D01*
X126533258Y-94106601D01*
X126696685Y-94074093D01*
X126863315Y-94074093D01*
X127026742Y-94106601D01*
G37*
G36*
X129566742Y-94106601D02*
G01*
X129720687Y-94170367D01*
X129859234Y-94262941D01*
X129977059Y-94380766D01*
X130069633Y-94519313D01*
X130133399Y-94673258D01*
X130165907Y-94836685D01*
X130165907Y-95003315D01*
X130133399Y-95166742D01*
X130069633Y-95320687D01*
X129977059Y-95459234D01*
X129859234Y-95577059D01*
X129720687Y-95669633D01*
X129566742Y-95733399D01*
X129403315Y-95765907D01*
X129236685Y-95765907D01*
X129073258Y-95733399D01*
X128919313Y-95669633D01*
X128780766Y-95577059D01*
X128662941Y-95459234D01*
X128570367Y-95320687D01*
X128506601Y-95166742D01*
X128474093Y-95003315D01*
X128474093Y-94836685D01*
X128506601Y-94673258D01*
X128570367Y-94519313D01*
X128662941Y-94380766D01*
X128780766Y-94262941D01*
X128919313Y-94170367D01*
X129073258Y-94106601D01*
X129236685Y-94074093D01*
X129403315Y-94074093D01*
X129566742Y-94106601D01*
G37*
G36*
X133650000Y-95670000D02*
G01*
X132150000Y-95670000D01*
X132150000Y-94170000D01*
X133650000Y-94170000D01*
X133650000Y-95670000D01*
G37*
G36*
X133132228Y-91614448D02*
G01*
X133277117Y-91674463D01*
X133407515Y-91761592D01*
X133518408Y-91872485D01*
X133605537Y-92002883D01*
X133665552Y-92147772D01*
X133696148Y-92301586D01*
X133696148Y-92458414D01*
X133665552Y-92612228D01*
X133605537Y-92757117D01*
X133518408Y-92887515D01*
X133407515Y-92998408D01*
X133277117Y-93085537D01*
X133132228Y-93145552D01*
X132978414Y-93176148D01*
X132821586Y-93176148D01*
X132667772Y-93145552D01*
X132522883Y-93085537D01*
X132392485Y-92998408D01*
X132281592Y-92887515D01*
X132194463Y-92757117D01*
X132134448Y-92612228D01*
X132103852Y-92458414D01*
X132103852Y-92301586D01*
X132134448Y-92147772D01*
X132194463Y-92002883D01*
X132281592Y-91872485D01*
X132392485Y-91761592D01*
X132522883Y-91674463D01*
X132667772Y-91614448D01*
X132821586Y-91583852D01*
X132978414Y-91583852D01*
X133132228Y-91614448D01*
G37*
G36*
X137422228Y-90734448D02*
G01*
X137567117Y-90794463D01*
X137697515Y-90881592D01*
X137808408Y-90992485D01*
X137895537Y-91122883D01*
X137955552Y-91267772D01*
X137986148Y-91421586D01*
X137986148Y-91578414D01*
X137955552Y-91732228D01*
X137895537Y-91877117D01*
X137808408Y-92007515D01*
X137697515Y-92118408D01*
X137567117Y-92205537D01*
X137422228Y-92265552D01*
X137268414Y-92296148D01*
X137111586Y-92296148D01*
X136957772Y-92265552D01*
X136812883Y-92205537D01*
X136682485Y-92118408D01*
X136571592Y-92007515D01*
X136484463Y-91877117D01*
X136424448Y-91732228D01*
X136393852Y-91578414D01*
X136393852Y-91421586D01*
X136424448Y-91267772D01*
X136484463Y-91122883D01*
X136571592Y-90992485D01*
X136682485Y-90881592D01*
X136812883Y-90794463D01*
X136957772Y-90734448D01*
X137111586Y-90703852D01*
X137268414Y-90703852D01*
X137422228Y-90734448D01*
G37*
G36*
X145042228Y-90734448D02*
G01*
X145187117Y-90794463D01*
X145317515Y-90881592D01*
X145428408Y-90992485D01*
X145515537Y-91122883D01*
X145575552Y-91267772D01*
X145606148Y-91421586D01*
X145606148Y-91578414D01*
X145575552Y-91732228D01*
X145515537Y-91877117D01*
X145428408Y-92007515D01*
X145317515Y-92118408D01*
X145187117Y-92205537D01*
X145042228Y-92265552D01*
X144888414Y-92296148D01*
X144731586Y-92296148D01*
X144577772Y-92265552D01*
X144432883Y-92205537D01*
X144302485Y-92118408D01*
X144191592Y-92007515D01*
X144104463Y-91877117D01*
X144044448Y-91732228D01*
X144013852Y-91578414D01*
X144013852Y-91421586D01*
X144044448Y-91267772D01*
X144104463Y-91122883D01*
X144191592Y-90992485D01*
X144302485Y-90881592D01*
X144432883Y-90794463D01*
X144577772Y-90734448D01*
X144731586Y-90703852D01*
X144888414Y-90703852D01*
X145042228Y-90734448D01*
G37*
G36*
X92132228Y-88034448D02*
G01*
X92277117Y-88094463D01*
X92407515Y-88181592D01*
X92518408Y-88292485D01*
X92605537Y-88422883D01*
X92665552Y-88567772D01*
X92696148Y-88721586D01*
X92696148Y-88878414D01*
X92665552Y-89032228D01*
X92605537Y-89177117D01*
X92518408Y-89307515D01*
X92407515Y-89418408D01*
X92277117Y-89505537D01*
X92132228Y-89565552D01*
X91978414Y-89596148D01*
X91821586Y-89596148D01*
X91667772Y-89565552D01*
X91522883Y-89505537D01*
X91392485Y-89418408D01*
X91281592Y-89307515D01*
X91194463Y-89177117D01*
X91134448Y-89032228D01*
X91103852Y-88878414D01*
X91103852Y-88721586D01*
X91134448Y-88567772D01*
X91194463Y-88422883D01*
X91281592Y-88292485D01*
X91392485Y-88181592D01*
X91522883Y-88094463D01*
X91667772Y-88034448D01*
X91821586Y-88003852D01*
X91978414Y-88003852D01*
X92132228Y-88034448D01*
G37*
G36*
X99752228Y-88034448D02*
G01*
X99897117Y-88094463D01*
X100027515Y-88181592D01*
X100138408Y-88292485D01*
X100225537Y-88422883D01*
X100285552Y-88567772D01*
X100316148Y-88721586D01*
X100316148Y-88878414D01*
X100285552Y-89032228D01*
X100225537Y-89177117D01*
X100138408Y-89307515D01*
X100027515Y-89418408D01*
X99897117Y-89505537D01*
X99752228Y-89565552D01*
X99598414Y-89596148D01*
X99441586Y-89596148D01*
X99287772Y-89565552D01*
X99142883Y-89505537D01*
X99012485Y-89418408D01*
X98901592Y-89307515D01*
X98814463Y-89177117D01*
X98754448Y-89032228D01*
X98723852Y-88878414D01*
X98723852Y-88721586D01*
X98754448Y-88567772D01*
X98814463Y-88422883D01*
X98901592Y-88292485D01*
X99012485Y-88181592D01*
X99142883Y-88094463D01*
X99287772Y-88034448D01*
X99441586Y-88003852D01*
X99598414Y-88003852D01*
X99752228Y-88034448D01*
G37*
G36*
X137422228Y-87634448D02*
G01*
X137567117Y-87694463D01*
X137697515Y-87781592D01*
X137808408Y-87892485D01*
X137895537Y-88022883D01*
X137955552Y-88167772D01*
X137986148Y-88321586D01*
X137986148Y-88478414D01*
X137955552Y-88632228D01*
X137895537Y-88777117D01*
X137808408Y-88907515D01*
X137697515Y-89018408D01*
X137567117Y-89105537D01*
X137422228Y-89165552D01*
X137268414Y-89196148D01*
X137111586Y-89196148D01*
X136957772Y-89165552D01*
X136812883Y-89105537D01*
X136682485Y-89018408D01*
X136571592Y-88907515D01*
X136484463Y-88777117D01*
X136424448Y-88632228D01*
X136393852Y-88478414D01*
X136393852Y-88321586D01*
X136424448Y-88167772D01*
X136484463Y-88022883D01*
X136571592Y-87892485D01*
X136682485Y-87781592D01*
X136812883Y-87694463D01*
X136957772Y-87634448D01*
X137111586Y-87603852D01*
X137268414Y-87603852D01*
X137422228Y-87634448D01*
G37*
G36*
X145042228Y-87634448D02*
G01*
X145187117Y-87694463D01*
X145317515Y-87781592D01*
X145428408Y-87892485D01*
X145515537Y-88022883D01*
X145575552Y-88167772D01*
X145606148Y-88321586D01*
X145606148Y-88478414D01*
X145575552Y-88632228D01*
X145515537Y-88777117D01*
X145428408Y-88907515D01*
X145317515Y-89018408D01*
X145187117Y-89105537D01*
X145042228Y-89165552D01*
X144888414Y-89196148D01*
X144731586Y-89196148D01*
X144577772Y-89165552D01*
X144432883Y-89105537D01*
X144302485Y-89018408D01*
X144191592Y-88907515D01*
X144104463Y-88777117D01*
X144044448Y-88632228D01*
X144013852Y-88478414D01*
X144013852Y-88321586D01*
X144044448Y-88167772D01*
X144104463Y-88022883D01*
X144191592Y-87892485D01*
X144302485Y-87781592D01*
X144432883Y-87694463D01*
X144577772Y-87634448D01*
X144731586Y-87603852D01*
X144888414Y-87603852D01*
X145042228Y-87634448D01*
G37*
G36*
X161440000Y-86820000D02*
G01*
X159740000Y-86820000D01*
X159740000Y-85120000D01*
X161440000Y-85120000D01*
X161440000Y-86820000D01*
G37*
G36*
X163376742Y-85156601D02*
G01*
X163530687Y-85220367D01*
X163669234Y-85312941D01*
X163787059Y-85430766D01*
X163879633Y-85569313D01*
X163943399Y-85723258D01*
X163975907Y-85886685D01*
X163975907Y-86053315D01*
X163943399Y-86216742D01*
X163879633Y-86370687D01*
X163787059Y-86509234D01*
X163669234Y-86627059D01*
X163530687Y-86719633D01*
X163376742Y-86783399D01*
X163213315Y-86815907D01*
X163046685Y-86815907D01*
X162883258Y-86783399D01*
X162729313Y-86719633D01*
X162590766Y-86627059D01*
X162472941Y-86509234D01*
X162380367Y-86370687D01*
X162316601Y-86216742D01*
X162284093Y-86053315D01*
X162284093Y-85886685D01*
X162316601Y-85723258D01*
X162380367Y-85569313D01*
X162472941Y-85430766D01*
X162590766Y-85312941D01*
X162729313Y-85220367D01*
X162883258Y-85156601D01*
X163046685Y-85124093D01*
X163213315Y-85124093D01*
X163376742Y-85156601D01*
G37*
G36*
X92132228Y-84934448D02*
G01*
X92277117Y-84994463D01*
X92407515Y-85081592D01*
X92518408Y-85192485D01*
X92605537Y-85322883D01*
X92665552Y-85467772D01*
X92696148Y-85621586D01*
X92696148Y-85778414D01*
X92665552Y-85932228D01*
X92605537Y-86077117D01*
X92518408Y-86207515D01*
X92407515Y-86318408D01*
X92277117Y-86405537D01*
X92132228Y-86465552D01*
X91978414Y-86496148D01*
X91821586Y-86496148D01*
X91667772Y-86465552D01*
X91522883Y-86405537D01*
X91392485Y-86318408D01*
X91281592Y-86207515D01*
X91194463Y-86077117D01*
X91134448Y-85932228D01*
X91103852Y-85778414D01*
X91103852Y-85621586D01*
X91134448Y-85467772D01*
X91194463Y-85322883D01*
X91281592Y-85192485D01*
X91392485Y-85081592D01*
X91522883Y-84994463D01*
X91667772Y-84934448D01*
X91821586Y-84903852D01*
X91978414Y-84903852D01*
X92132228Y-84934448D01*
G37*
G36*
X99752228Y-84934448D02*
G01*
X99897117Y-84994463D01*
X100027515Y-85081592D01*
X100138408Y-85192485D01*
X100225537Y-85322883D01*
X100285552Y-85467772D01*
X100316148Y-85621586D01*
X100316148Y-85778414D01*
X100285552Y-85932228D01*
X100225537Y-86077117D01*
X100138408Y-86207515D01*
X100027515Y-86318408D01*
X99897117Y-86405537D01*
X99752228Y-86465552D01*
X99598414Y-86496148D01*
X99441586Y-86496148D01*
X99287772Y-86465552D01*
X99142883Y-86405537D01*
X99012485Y-86318408D01*
X98901592Y-86207515D01*
X98814463Y-86077117D01*
X98754448Y-85932228D01*
X98723852Y-85778414D01*
X98723852Y-85621586D01*
X98754448Y-85467772D01*
X98814463Y-85322883D01*
X98901592Y-85192485D01*
X99012485Y-85081592D01*
X99142883Y-84994463D01*
X99287772Y-84934448D01*
X99441586Y-84903852D01*
X99598414Y-84903852D01*
X99752228Y-84934448D01*
G37*
G36*
X137422228Y-84534448D02*
G01*
X137567117Y-84594463D01*
X137697515Y-84681592D01*
X137808408Y-84792485D01*
X137895537Y-84922883D01*
X137955552Y-85067772D01*
X137986148Y-85221586D01*
X137986148Y-85378414D01*
X137955552Y-85532228D01*
X137895537Y-85677117D01*
X137808408Y-85807515D01*
X137697515Y-85918408D01*
X137567117Y-86005537D01*
X137422228Y-86065552D01*
X137268414Y-86096148D01*
X137111586Y-86096148D01*
X136957772Y-86065552D01*
X136812883Y-86005537D01*
X136682485Y-85918408D01*
X136571592Y-85807515D01*
X136484463Y-85677117D01*
X136424448Y-85532228D01*
X136393852Y-85378414D01*
X136393852Y-85221586D01*
X136424448Y-85067772D01*
X136484463Y-84922883D01*
X136571592Y-84792485D01*
X136682485Y-84681592D01*
X136812883Y-84594463D01*
X136957772Y-84534448D01*
X137111586Y-84503852D01*
X137268414Y-84503852D01*
X137422228Y-84534448D01*
G37*
G36*
X145042228Y-84534448D02*
G01*
X145187117Y-84594463D01*
X145317515Y-84681592D01*
X145428408Y-84792485D01*
X145515537Y-84922883D01*
X145575552Y-85067772D01*
X145606148Y-85221586D01*
X145606148Y-85378414D01*
X145575552Y-85532228D01*
X145515537Y-85677117D01*
X145428408Y-85807515D01*
X145317515Y-85918408D01*
X145187117Y-86005537D01*
X145042228Y-86065552D01*
X144888414Y-86096148D01*
X144731586Y-86096148D01*
X144577772Y-86065552D01*
X144432883Y-86005537D01*
X144302485Y-85918408D01*
X144191592Y-85807515D01*
X144104463Y-85677117D01*
X144044448Y-85532228D01*
X144013852Y-85378414D01*
X144013852Y-85221586D01*
X144044448Y-85067772D01*
X144104463Y-84922883D01*
X144191592Y-84792485D01*
X144302485Y-84681592D01*
X144432883Y-84594463D01*
X144577772Y-84534448D01*
X144731586Y-84503852D01*
X144888414Y-84503852D01*
X145042228Y-84534448D01*
G37*
G36*
X96699034Y-79945764D02*
G01*
X96732125Y-79967875D01*
X96754236Y-80000966D01*
X96762000Y-80040000D01*
X96762000Y-81740000D01*
X96754236Y-81779034D01*
X96732125Y-81812125D01*
X96699034Y-81834236D01*
X96660000Y-81842000D01*
X94960000Y-81842000D01*
X94920966Y-81834236D01*
X94887875Y-81812125D01*
X94865764Y-81779034D01*
X94858000Y-81740000D01*
X94858000Y-80040000D01*
X94865764Y-80000966D01*
X94887875Y-79967875D01*
X94920966Y-79945764D01*
X94960000Y-79938000D01*
X96660000Y-79938000D01*
X96699034Y-79945764D01*
G37*
G36*
X109399034Y-79945764D02*
G01*
X109432125Y-79967875D01*
X109454236Y-80000966D01*
X109462000Y-80040000D01*
X109462000Y-81740000D01*
X109454236Y-81779034D01*
X109432125Y-81812125D01*
X109399034Y-81834236D01*
X109360000Y-81842000D01*
X107660000Y-81842000D01*
X107620966Y-81834236D01*
X107587875Y-81812125D01*
X107565764Y-81779034D01*
X107558000Y-81740000D01*
X107558000Y-80040000D01*
X107565764Y-80000966D01*
X107587875Y-79967875D01*
X107620966Y-79945764D01*
X107660000Y-79938000D01*
X109360000Y-79938000D01*
X109399034Y-79945764D01*
G37*
G36*
X120553536Y-80086464D02*
G01*
X120555915Y-80088843D01*
X120583108Y-80088843D01*
X120589018Y-80088843D01*
X120590931Y-80089224D01*
X120596385Y-80091483D01*
X120596389Y-80091484D01*
X120657569Y-80116826D01*
X120663027Y-80119087D01*
X120664650Y-80120170D01*
X120719830Y-80175350D01*
X120720913Y-80176973D01*
X120750776Y-80249069D01*
X120751157Y-80250982D01*
X120751157Y-80284085D01*
X120753536Y-80286464D01*
X120755000Y-80290000D01*
X120755000Y-80890000D01*
X120753536Y-80893536D01*
X120751148Y-80894524D01*
X120751148Y-80968414D01*
X120751052Y-80969389D01*
X120720456Y-81123203D01*
X120720171Y-81124141D01*
X120660156Y-81269030D01*
X120659694Y-81269895D01*
X120572565Y-81400293D01*
X120571944Y-81401051D01*
X120461051Y-81511944D01*
X120460293Y-81512565D01*
X120329895Y-81599694D01*
X120329030Y-81600156D01*
X120184141Y-81660171D01*
X120183203Y-81660456D01*
X120029389Y-81691052D01*
X120028414Y-81691148D01*
X120025467Y-81691148D01*
X119874533Y-81691148D01*
X119871586Y-81691148D01*
X119870611Y-81691052D01*
X119716797Y-81660456D01*
X119715859Y-81660171D01*
X119570970Y-81600156D01*
X119570105Y-81599694D01*
X119527389Y-81571152D01*
X119442159Y-81514204D01*
X119442154Y-81514200D01*
X119439707Y-81512565D01*
X119438949Y-81511944D01*
X119328056Y-81401051D01*
X119327435Y-81400293D01*
X119325800Y-81397846D01*
X119325795Y-81397840D01*
X119241943Y-81272345D01*
X119241942Y-81272344D01*
X119240306Y-81269895D01*
X119239844Y-81269030D01*
X119238720Y-81266317D01*
X119238717Y-81266311D01*
X119180955Y-81126860D01*
X119180954Y-81126857D01*
X119179829Y-81124141D01*
X119179544Y-81123203D01*
X119178970Y-81120318D01*
X119178968Y-81120311D01*
X119149523Y-80972281D01*
X119149522Y-80972278D01*
X119148948Y-80969389D01*
X119148852Y-80968414D01*
X119148852Y-80894524D01*
X119146464Y-80893536D01*
X119145000Y-80890000D01*
X119145000Y-80290000D01*
X119146464Y-80286464D01*
X119148843Y-80284085D01*
X119148843Y-80250982D01*
X119149224Y-80249069D01*
X119151482Y-80243615D01*
X119151484Y-80243610D01*
X119176826Y-80182430D01*
X119176827Y-80182427D01*
X119179087Y-80176973D01*
X119180170Y-80175350D01*
X119235350Y-80120170D01*
X119236973Y-80119087D01*
X119242427Y-80116827D01*
X119242430Y-80116826D01*
X119303610Y-80091484D01*
X119303615Y-80091482D01*
X119309069Y-80089224D01*
X119310982Y-80088843D01*
X119344085Y-80088843D01*
X119346464Y-80086464D01*
X119350000Y-80085000D01*
X120550000Y-80085000D01*
X120553536Y-80086464D01*
G37*
G36*
X133253536Y-80086464D02*
G01*
X133255915Y-80088843D01*
X133283108Y-80088843D01*
X133289018Y-80088843D01*
X133290931Y-80089224D01*
X133296385Y-80091483D01*
X133296389Y-80091484D01*
X133357569Y-80116826D01*
X133363027Y-80119087D01*
X133364650Y-80120170D01*
X133419830Y-80175350D01*
X133420913Y-80176973D01*
X133450776Y-80249069D01*
X133451157Y-80250982D01*
X133451157Y-80284085D01*
X133453536Y-80286464D01*
X133455000Y-80290000D01*
X133455000Y-80890000D01*
X133453536Y-80893536D01*
X133451148Y-80894524D01*
X133451148Y-80968414D01*
X133451052Y-80969389D01*
X133420456Y-81123203D01*
X133420171Y-81124141D01*
X133360156Y-81269030D01*
X133359694Y-81269895D01*
X133272565Y-81400293D01*
X133271944Y-81401051D01*
X133161051Y-81511944D01*
X133160293Y-81512565D01*
X133029895Y-81599694D01*
X133029030Y-81600156D01*
X132884141Y-81660171D01*
X132883203Y-81660456D01*
X132729389Y-81691052D01*
X132728414Y-81691148D01*
X132725467Y-81691148D01*
X132574533Y-81691148D01*
X132571586Y-81691148D01*
X132570611Y-81691052D01*
X132416797Y-81660456D01*
X132415859Y-81660171D01*
X132270970Y-81600156D01*
X132270105Y-81599694D01*
X132227389Y-81571152D01*
X132142159Y-81514204D01*
X132142154Y-81514200D01*
X132139707Y-81512565D01*
X132138949Y-81511944D01*
X132028056Y-81401051D01*
X132027435Y-81400293D01*
X132025800Y-81397846D01*
X132025795Y-81397840D01*
X131941943Y-81272345D01*
X131941942Y-81272344D01*
X131940306Y-81269895D01*
X131939844Y-81269030D01*
X131938720Y-81266317D01*
X131938717Y-81266311D01*
X131880955Y-81126860D01*
X131880954Y-81126857D01*
X131879829Y-81124141D01*
X131879544Y-81123203D01*
X131878970Y-81120318D01*
X131878968Y-81120311D01*
X131849523Y-80972281D01*
X131849522Y-80972278D01*
X131848948Y-80969389D01*
X131848852Y-80968414D01*
X131848852Y-80894524D01*
X131846464Y-80893536D01*
X131845000Y-80890000D01*
X131845000Y-80290000D01*
X131846464Y-80286464D01*
X131848843Y-80284085D01*
X131848843Y-80250982D01*
X131849224Y-80249069D01*
X131851482Y-80243615D01*
X131851484Y-80243610D01*
X131876826Y-80182430D01*
X131876827Y-80182427D01*
X131879087Y-80176973D01*
X131880170Y-80175350D01*
X131935350Y-80120170D01*
X131936973Y-80119087D01*
X131942427Y-80116827D01*
X131942430Y-80116826D01*
X132003610Y-80091484D01*
X132003615Y-80091482D01*
X132009069Y-80089224D01*
X132010982Y-80088843D01*
X132044085Y-80088843D01*
X132046464Y-80086464D01*
X132050000Y-80085000D01*
X133250000Y-80085000D01*
X133253536Y-80086464D01*
G37*
G36*
X145953536Y-80086464D02*
G01*
X145955915Y-80088843D01*
X145983108Y-80088843D01*
X145989018Y-80088843D01*
X145990931Y-80089224D01*
X145996385Y-80091483D01*
X145996389Y-80091484D01*
X146057569Y-80116826D01*
X146063027Y-80119087D01*
X146064650Y-80120170D01*
X146119830Y-80175350D01*
X146120913Y-80176973D01*
X146150776Y-80249069D01*
X146151157Y-80250982D01*
X146151157Y-80284085D01*
X146153536Y-80286464D01*
X146155000Y-80290000D01*
X146155000Y-80890000D01*
X146153536Y-80893536D01*
X146151148Y-80894524D01*
X146151148Y-80968414D01*
X146151052Y-80969389D01*
X146120456Y-81123203D01*
X146120171Y-81124141D01*
X146060156Y-81269030D01*
X146059694Y-81269895D01*
X145972565Y-81400293D01*
X145971944Y-81401051D01*
X145861051Y-81511944D01*
X145860293Y-81512565D01*
X145729895Y-81599694D01*
X145729030Y-81600156D01*
X145584141Y-81660171D01*
X145583203Y-81660456D01*
X145429389Y-81691052D01*
X145428414Y-81691148D01*
X145425467Y-81691148D01*
X145274533Y-81691148D01*
X145271586Y-81691148D01*
X145270611Y-81691052D01*
X145116797Y-81660456D01*
X145115859Y-81660171D01*
X144970970Y-81600156D01*
X144970105Y-81599694D01*
X144927389Y-81571152D01*
X144842159Y-81514204D01*
X144842154Y-81514200D01*
X144839707Y-81512565D01*
X144838949Y-81511944D01*
X144728056Y-81401051D01*
X144727435Y-81400293D01*
X144725800Y-81397846D01*
X144725795Y-81397840D01*
X144641943Y-81272345D01*
X144641942Y-81272344D01*
X144640306Y-81269895D01*
X144639844Y-81269030D01*
X144638720Y-81266317D01*
X144638717Y-81266311D01*
X144580955Y-81126860D01*
X144580954Y-81126857D01*
X144579829Y-81124141D01*
X144579544Y-81123203D01*
X144578970Y-81120318D01*
X144578968Y-81120311D01*
X144549523Y-80972281D01*
X144549522Y-80972278D01*
X144548948Y-80969389D01*
X144548852Y-80968414D01*
X144548852Y-80894524D01*
X144546464Y-80893536D01*
X144545000Y-80890000D01*
X144545000Y-80290000D01*
X144546464Y-80286464D01*
X144548843Y-80284085D01*
X144548843Y-80250982D01*
X144549224Y-80249069D01*
X144551482Y-80243615D01*
X144551484Y-80243610D01*
X144576826Y-80182430D01*
X144576827Y-80182427D01*
X144579087Y-80176973D01*
X144580170Y-80175350D01*
X144635350Y-80120170D01*
X144636973Y-80119087D01*
X144642427Y-80116827D01*
X144642430Y-80116826D01*
X144703610Y-80091484D01*
X144703615Y-80091482D01*
X144709069Y-80089224D01*
X144710982Y-80088843D01*
X144744085Y-80088843D01*
X144746464Y-80086464D01*
X144750000Y-80085000D01*
X145950000Y-80085000D01*
X145953536Y-80086464D01*
G37*
G36*
X158653536Y-80086464D02*
G01*
X158655915Y-80088843D01*
X158683108Y-80088843D01*
X158689018Y-80088843D01*
X158690931Y-80089224D01*
X158696385Y-80091483D01*
X158696389Y-80091484D01*
X158757569Y-80116826D01*
X158763027Y-80119087D01*
X158764650Y-80120170D01*
X158819830Y-80175350D01*
X158820913Y-80176973D01*
X158850776Y-80249069D01*
X158851157Y-80250982D01*
X158851157Y-80284085D01*
X158853536Y-80286464D01*
X158855000Y-80290000D01*
X158855000Y-80890000D01*
X158853536Y-80893536D01*
X158851148Y-80894524D01*
X158851148Y-80968414D01*
X158851052Y-80969389D01*
X158820456Y-81123203D01*
X158820171Y-81124141D01*
X158760156Y-81269030D01*
X158759694Y-81269895D01*
X158672565Y-81400293D01*
X158671944Y-81401051D01*
X158561051Y-81511944D01*
X158560293Y-81512565D01*
X158429895Y-81599694D01*
X158429030Y-81600156D01*
X158284141Y-81660171D01*
X158283203Y-81660456D01*
X158129389Y-81691052D01*
X158128414Y-81691148D01*
X158125467Y-81691148D01*
X157974533Y-81691148D01*
X157971586Y-81691148D01*
X157970611Y-81691052D01*
X157816797Y-81660456D01*
X157815859Y-81660171D01*
X157670970Y-81600156D01*
X157670105Y-81599694D01*
X157627389Y-81571152D01*
X157542159Y-81514204D01*
X157542154Y-81514200D01*
X157539707Y-81512565D01*
X157538949Y-81511944D01*
X157428056Y-81401051D01*
X157427435Y-81400293D01*
X157425800Y-81397846D01*
X157425795Y-81397840D01*
X157341943Y-81272345D01*
X157341942Y-81272344D01*
X157340306Y-81269895D01*
X157339844Y-81269030D01*
X157338720Y-81266317D01*
X157338717Y-81266311D01*
X157280955Y-81126860D01*
X157280954Y-81126857D01*
X157279829Y-81124141D01*
X157279544Y-81123203D01*
X157278970Y-81120318D01*
X157278968Y-81120311D01*
X157249523Y-80972281D01*
X157249522Y-80972278D01*
X157248948Y-80969389D01*
X157248852Y-80968414D01*
X157248852Y-80894524D01*
X157246464Y-80893536D01*
X157245000Y-80890000D01*
X157245000Y-80290000D01*
X157246464Y-80286464D01*
X157248843Y-80284085D01*
X157248843Y-80250982D01*
X157249224Y-80249069D01*
X157251482Y-80243615D01*
X157251484Y-80243610D01*
X157276826Y-80182430D01*
X157276827Y-80182427D01*
X157279087Y-80176973D01*
X157280170Y-80175350D01*
X157335350Y-80120170D01*
X157336973Y-80119087D01*
X157342427Y-80116827D01*
X157342430Y-80116826D01*
X157403610Y-80091484D01*
X157403615Y-80091482D01*
X157409069Y-80089224D01*
X157410982Y-80088843D01*
X157444085Y-80088843D01*
X157446464Y-80086464D01*
X157450000Y-80085000D01*
X158650000Y-80085000D01*
X158653536Y-80086464D01*
G37*
G36*
X115102228Y-80124448D02*
G01*
X115247117Y-80184463D01*
X115377515Y-80271592D01*
X115488408Y-80382485D01*
X115575537Y-80512883D01*
X115635552Y-80657772D01*
X115666148Y-80811586D01*
X115666148Y-80968414D01*
X115635552Y-81122228D01*
X115575537Y-81267117D01*
X115488408Y-81397515D01*
X115377515Y-81508408D01*
X115247117Y-81595537D01*
X115102228Y-81655552D01*
X114948414Y-81686148D01*
X114791586Y-81686148D01*
X114637772Y-81655552D01*
X114492883Y-81595537D01*
X114362485Y-81508408D01*
X114251592Y-81397515D01*
X114164463Y-81267117D01*
X114104448Y-81122228D01*
X114073852Y-80968414D01*
X114073852Y-80811586D01*
X114104448Y-80657772D01*
X114164463Y-80512883D01*
X114251592Y-80382485D01*
X114362485Y-80271592D01*
X114492883Y-80184463D01*
X114637772Y-80124448D01*
X114791586Y-80093852D01*
X114948414Y-80093852D01*
X115102228Y-80124448D01*
G37*
G36*
X117642228Y-80124448D02*
G01*
X117787117Y-80184463D01*
X117917515Y-80271592D01*
X118028408Y-80382485D01*
X118115537Y-80512883D01*
X118175552Y-80657772D01*
X118206148Y-80811586D01*
X118206148Y-80968414D01*
X118175552Y-81122228D01*
X118115537Y-81267117D01*
X118028408Y-81397515D01*
X117917515Y-81508408D01*
X117787117Y-81595537D01*
X117642228Y-81655552D01*
X117488414Y-81686148D01*
X117331586Y-81686148D01*
X117177772Y-81655552D01*
X117032883Y-81595537D01*
X116902485Y-81508408D01*
X116791592Y-81397515D01*
X116704463Y-81267117D01*
X116644448Y-81122228D01*
X116613852Y-80968414D01*
X116613852Y-80811586D01*
X116644448Y-80657772D01*
X116704463Y-80512883D01*
X116791592Y-80382485D01*
X116902485Y-80271592D01*
X117032883Y-80184463D01*
X117177772Y-80124448D01*
X117331586Y-80093852D01*
X117488414Y-80093852D01*
X117642228Y-80124448D01*
G37*
G36*
X122722228Y-80124448D02*
G01*
X122867117Y-80184463D01*
X122997515Y-80271592D01*
X123108408Y-80382485D01*
X123195537Y-80512883D01*
X123255552Y-80657772D01*
X123286148Y-80811586D01*
X123286148Y-80968414D01*
X123255552Y-81122228D01*
X123195537Y-81267117D01*
X123108408Y-81397515D01*
X122997515Y-81508408D01*
X122867117Y-81595537D01*
X122722228Y-81655552D01*
X122568414Y-81686148D01*
X122411586Y-81686148D01*
X122257772Y-81655552D01*
X122112883Y-81595537D01*
X121982485Y-81508408D01*
X121871592Y-81397515D01*
X121784463Y-81267117D01*
X121724448Y-81122228D01*
X121693852Y-80968414D01*
X121693852Y-80811586D01*
X121724448Y-80657772D01*
X121784463Y-80512883D01*
X121871592Y-80382485D01*
X121982485Y-80271592D01*
X122112883Y-80184463D01*
X122257772Y-80124448D01*
X122411586Y-80093852D01*
X122568414Y-80093852D01*
X122722228Y-80124448D01*
G37*
G36*
X125262228Y-80124448D02*
G01*
X125407117Y-80184463D01*
X125537515Y-80271592D01*
X125648408Y-80382485D01*
X125735537Y-80512883D01*
X125795552Y-80657772D01*
X125826148Y-80811586D01*
X125826148Y-80968414D01*
X125795552Y-81122228D01*
X125735537Y-81267117D01*
X125648408Y-81397515D01*
X125537515Y-81508408D01*
X125407117Y-81595537D01*
X125262228Y-81655552D01*
X125108414Y-81686148D01*
X124951586Y-81686148D01*
X124797772Y-81655552D01*
X124652883Y-81595537D01*
X124522485Y-81508408D01*
X124411592Y-81397515D01*
X124324463Y-81267117D01*
X124264448Y-81122228D01*
X124233852Y-80968414D01*
X124233852Y-80811586D01*
X124264448Y-80657772D01*
X124324463Y-80512883D01*
X124411592Y-80382485D01*
X124522485Y-80271592D01*
X124652883Y-80184463D01*
X124797772Y-80124448D01*
X124951586Y-80093852D01*
X125108414Y-80093852D01*
X125262228Y-80124448D01*
G37*
G36*
X127802228Y-80124448D02*
G01*
X127947117Y-80184463D01*
X128077515Y-80271592D01*
X128188408Y-80382485D01*
X128275537Y-80512883D01*
X128335552Y-80657772D01*
X128366148Y-80811586D01*
X128366148Y-80968414D01*
X128335552Y-81122228D01*
X128275537Y-81267117D01*
X128188408Y-81397515D01*
X128077515Y-81508408D01*
X127947117Y-81595537D01*
X127802228Y-81655552D01*
X127648414Y-81686148D01*
X127491586Y-81686148D01*
X127337772Y-81655552D01*
X127192883Y-81595537D01*
X127062485Y-81508408D01*
X126951592Y-81397515D01*
X126864463Y-81267117D01*
X126804448Y-81122228D01*
X126773852Y-80968414D01*
X126773852Y-80811586D01*
X126804448Y-80657772D01*
X126864463Y-80512883D01*
X126951592Y-80382485D01*
X127062485Y-80271592D01*
X127192883Y-80184463D01*
X127337772Y-80124448D01*
X127491586Y-80093852D01*
X127648414Y-80093852D01*
X127802228Y-80124448D01*
G37*
G36*
X130342228Y-80124448D02*
G01*
X130487117Y-80184463D01*
X130617515Y-80271592D01*
X130728408Y-80382485D01*
X130815537Y-80512883D01*
X130875552Y-80657772D01*
X130906148Y-80811586D01*
X130906148Y-80968414D01*
X130875552Y-81122228D01*
X130815537Y-81267117D01*
X130728408Y-81397515D01*
X130617515Y-81508408D01*
X130487117Y-81595537D01*
X130342228Y-81655552D01*
X130188414Y-81686148D01*
X130031586Y-81686148D01*
X129877772Y-81655552D01*
X129732883Y-81595537D01*
X129602485Y-81508408D01*
X129491592Y-81397515D01*
X129404463Y-81267117D01*
X129344448Y-81122228D01*
X129313852Y-80968414D01*
X129313852Y-80811586D01*
X129344448Y-80657772D01*
X129404463Y-80512883D01*
X129491592Y-80382485D01*
X129602485Y-80271592D01*
X129732883Y-80184463D01*
X129877772Y-80124448D01*
X130031586Y-80093852D01*
X130188414Y-80093852D01*
X130342228Y-80124448D01*
G37*
G36*
X135422228Y-80124448D02*
G01*
X135567117Y-80184463D01*
X135697515Y-80271592D01*
X135808408Y-80382485D01*
X135895537Y-80512883D01*
X135955552Y-80657772D01*
X135986148Y-80811586D01*
X135986148Y-80968414D01*
X135955552Y-81122228D01*
X135895537Y-81267117D01*
X135808408Y-81397515D01*
X135697515Y-81508408D01*
X135567117Y-81595537D01*
X135422228Y-81655552D01*
X135268414Y-81686148D01*
X135111586Y-81686148D01*
X134957772Y-81655552D01*
X134812883Y-81595537D01*
X134682485Y-81508408D01*
X134571592Y-81397515D01*
X134484463Y-81267117D01*
X134424448Y-81122228D01*
X134393852Y-80968414D01*
X134393852Y-80811586D01*
X134424448Y-80657772D01*
X134484463Y-80512883D01*
X134571592Y-80382485D01*
X134682485Y-80271592D01*
X134812883Y-80184463D01*
X134957772Y-80124448D01*
X135111586Y-80093852D01*
X135268414Y-80093852D01*
X135422228Y-80124448D01*
G37*
G36*
X137962228Y-80124448D02*
G01*
X138107117Y-80184463D01*
X138237515Y-80271592D01*
X138348408Y-80382485D01*
X138435537Y-80512883D01*
X138495552Y-80657772D01*
X138526148Y-80811586D01*
X138526148Y-80968414D01*
X138495552Y-81122228D01*
X138435537Y-81267117D01*
X138348408Y-81397515D01*
X138237515Y-81508408D01*
X138107117Y-81595537D01*
X137962228Y-81655552D01*
X137808414Y-81686148D01*
X137651586Y-81686148D01*
X137497772Y-81655552D01*
X137352883Y-81595537D01*
X137222485Y-81508408D01*
X137111592Y-81397515D01*
X137024463Y-81267117D01*
X136964448Y-81122228D01*
X136933852Y-80968414D01*
X136933852Y-80811586D01*
X136964448Y-80657772D01*
X137024463Y-80512883D01*
X137111592Y-80382485D01*
X137222485Y-80271592D01*
X137352883Y-80184463D01*
X137497772Y-80124448D01*
X137651586Y-80093852D01*
X137808414Y-80093852D01*
X137962228Y-80124448D01*
G37*
G36*
X140502228Y-80124448D02*
G01*
X140647117Y-80184463D01*
X140777515Y-80271592D01*
X140888408Y-80382485D01*
X140975537Y-80512883D01*
X141035552Y-80657772D01*
X141066148Y-80811586D01*
X141066148Y-80968414D01*
X141035552Y-81122228D01*
X140975537Y-81267117D01*
X140888408Y-81397515D01*
X140777515Y-81508408D01*
X140647117Y-81595537D01*
X140502228Y-81655552D01*
X140348414Y-81686148D01*
X140191586Y-81686148D01*
X140037772Y-81655552D01*
X139892883Y-81595537D01*
X139762485Y-81508408D01*
X139651592Y-81397515D01*
X139564463Y-81267117D01*
X139504448Y-81122228D01*
X139473852Y-80968414D01*
X139473852Y-80811586D01*
X139504448Y-80657772D01*
X139564463Y-80512883D01*
X139651592Y-80382485D01*
X139762485Y-80271592D01*
X139892883Y-80184463D01*
X140037772Y-80124448D01*
X140191586Y-80093852D01*
X140348414Y-80093852D01*
X140502228Y-80124448D01*
G37*
G36*
X143042228Y-80124448D02*
G01*
X143187117Y-80184463D01*
X143317515Y-80271592D01*
X143428408Y-80382485D01*
X143515537Y-80512883D01*
X143575552Y-80657772D01*
X143606148Y-80811586D01*
X143606148Y-80968414D01*
X143575552Y-81122228D01*
X143515537Y-81267117D01*
X143428408Y-81397515D01*
X143317515Y-81508408D01*
X143187117Y-81595537D01*
X143042228Y-81655552D01*
X142888414Y-81686148D01*
X142731586Y-81686148D01*
X142577772Y-81655552D01*
X142432883Y-81595537D01*
X142302485Y-81508408D01*
X142191592Y-81397515D01*
X142104463Y-81267117D01*
X142044448Y-81122228D01*
X142013852Y-80968414D01*
X142013852Y-80811586D01*
X142044448Y-80657772D01*
X142104463Y-80512883D01*
X142191592Y-80382485D01*
X142302485Y-80271592D01*
X142432883Y-80184463D01*
X142577772Y-80124448D01*
X142731586Y-80093852D01*
X142888414Y-80093852D01*
X143042228Y-80124448D01*
G37*
G36*
X148122228Y-80124448D02*
G01*
X148267117Y-80184463D01*
X148397515Y-80271592D01*
X148508408Y-80382485D01*
X148595537Y-80512883D01*
X148655552Y-80657772D01*
X148686148Y-80811586D01*
X148686148Y-80968414D01*
X148655552Y-81122228D01*
X148595537Y-81267117D01*
X148508408Y-81397515D01*
X148397515Y-81508408D01*
X148267117Y-81595537D01*
X148122228Y-81655552D01*
X147968414Y-81686148D01*
X147811586Y-81686148D01*
X147657772Y-81655552D01*
X147512883Y-81595537D01*
X147382485Y-81508408D01*
X147271592Y-81397515D01*
X147184463Y-81267117D01*
X147124448Y-81122228D01*
X147093852Y-80968414D01*
X147093852Y-80811586D01*
X147124448Y-80657772D01*
X147184463Y-80512883D01*
X147271592Y-80382485D01*
X147382485Y-80271592D01*
X147512883Y-80184463D01*
X147657772Y-80124448D01*
X147811586Y-80093852D01*
X147968414Y-80093852D01*
X148122228Y-80124448D01*
G37*
G36*
X150662228Y-80124448D02*
G01*
X150807117Y-80184463D01*
X150937515Y-80271592D01*
X151048408Y-80382485D01*
X151135537Y-80512883D01*
X151195552Y-80657772D01*
X151226148Y-80811586D01*
X151226148Y-80968414D01*
X151195552Y-81122228D01*
X151135537Y-81267117D01*
X151048408Y-81397515D01*
X150937515Y-81508408D01*
X150807117Y-81595537D01*
X150662228Y-81655552D01*
X150508414Y-81686148D01*
X150351586Y-81686148D01*
X150197772Y-81655552D01*
X150052883Y-81595537D01*
X149922485Y-81508408D01*
X149811592Y-81397515D01*
X149724463Y-81267117D01*
X149664448Y-81122228D01*
X149633852Y-80968414D01*
X149633852Y-80811586D01*
X149664448Y-80657772D01*
X149724463Y-80512883D01*
X149811592Y-80382485D01*
X149922485Y-80271592D01*
X150052883Y-80184463D01*
X150197772Y-80124448D01*
X150351586Y-80093852D01*
X150508414Y-80093852D01*
X150662228Y-80124448D01*
G37*
G36*
X153202228Y-80124448D02*
G01*
X153347117Y-80184463D01*
X153477515Y-80271592D01*
X153588408Y-80382485D01*
X153675537Y-80512883D01*
X153735552Y-80657772D01*
X153766148Y-80811586D01*
X153766148Y-80968414D01*
X153735552Y-81122228D01*
X153675537Y-81267117D01*
X153588408Y-81397515D01*
X153477515Y-81508408D01*
X153347117Y-81595537D01*
X153202228Y-81655552D01*
X153048414Y-81686148D01*
X152891586Y-81686148D01*
X152737772Y-81655552D01*
X152592883Y-81595537D01*
X152462485Y-81508408D01*
X152351592Y-81397515D01*
X152264463Y-81267117D01*
X152204448Y-81122228D01*
X152173852Y-80968414D01*
X152173852Y-80811586D01*
X152204448Y-80657772D01*
X152264463Y-80512883D01*
X152351592Y-80382485D01*
X152462485Y-80271592D01*
X152592883Y-80184463D01*
X152737772Y-80124448D01*
X152891586Y-80093852D01*
X153048414Y-80093852D01*
X153202228Y-80124448D01*
G37*
G36*
X155742228Y-80124448D02*
G01*
X155887117Y-80184463D01*
X156017515Y-80271592D01*
X156128408Y-80382485D01*
X156215537Y-80512883D01*
X156275552Y-80657772D01*
X156306148Y-80811586D01*
X156306148Y-80968414D01*
X156275552Y-81122228D01*
X156215537Y-81267117D01*
X156128408Y-81397515D01*
X156017515Y-81508408D01*
X155887117Y-81595537D01*
X155742228Y-81655552D01*
X155588414Y-81686148D01*
X155431586Y-81686148D01*
X155277772Y-81655552D01*
X155132883Y-81595537D01*
X155002485Y-81508408D01*
X154891592Y-81397515D01*
X154804463Y-81267117D01*
X154744448Y-81122228D01*
X154713852Y-80968414D01*
X154713852Y-80811586D01*
X154744448Y-80657772D01*
X154804463Y-80512883D01*
X154891592Y-80382485D01*
X155002485Y-80271592D01*
X155132883Y-80184463D01*
X155277772Y-80124448D01*
X155431586Y-80093852D01*
X155588414Y-80093852D01*
X155742228Y-80124448D01*
G37*
G36*
X160822228Y-80124448D02*
G01*
X160967117Y-80184463D01*
X161097515Y-80271592D01*
X161208408Y-80382485D01*
X161295537Y-80512883D01*
X161355552Y-80657772D01*
X161386148Y-80811586D01*
X161386148Y-80968414D01*
X161355552Y-81122228D01*
X161295537Y-81267117D01*
X161208408Y-81397515D01*
X161097515Y-81508408D01*
X160967117Y-81595537D01*
X160822228Y-81655552D01*
X160668414Y-81686148D01*
X160511586Y-81686148D01*
X160357772Y-81655552D01*
X160212883Y-81595537D01*
X160082485Y-81508408D01*
X159971592Y-81397515D01*
X159884463Y-81267117D01*
X159824448Y-81122228D01*
X159793852Y-80968414D01*
X159793852Y-80811586D01*
X159824448Y-80657772D01*
X159884463Y-80512883D01*
X159971592Y-80382485D01*
X160082485Y-80271592D01*
X160212883Y-80184463D01*
X160357772Y-80124448D01*
X160511586Y-80093852D01*
X160668414Y-80093852D01*
X160822228Y-80124448D01*
G37*
G36*
X163362228Y-80124448D02*
G01*
X163507117Y-80184463D01*
X163637515Y-80271592D01*
X163748408Y-80382485D01*
X163835537Y-80512883D01*
X163895552Y-80657772D01*
X163926148Y-80811586D01*
X163926148Y-80968414D01*
X163895552Y-81122228D01*
X163835537Y-81267117D01*
X163748408Y-81397515D01*
X163637515Y-81508408D01*
X163507117Y-81595537D01*
X163362228Y-81655552D01*
X163208414Y-81686148D01*
X163051586Y-81686148D01*
X162897772Y-81655552D01*
X162752883Y-81595537D01*
X162622485Y-81508408D01*
X162511592Y-81397515D01*
X162424463Y-81267117D01*
X162364448Y-81122228D01*
X162333852Y-80968414D01*
X162333852Y-80811586D01*
X162364448Y-80657772D01*
X162424463Y-80512883D01*
X162511592Y-80382485D01*
X162622485Y-80271592D01*
X162752883Y-80184463D01*
X162897772Y-80124448D01*
X163051586Y-80093852D01*
X163208414Y-80093852D01*
X163362228Y-80124448D01*
G37*
G36*
X96086351Y-77438993D02*
G01*
X96258770Y-77510411D01*
X96413942Y-77614094D01*
X96545906Y-77746058D01*
X96649589Y-77901230D01*
X96721007Y-78073649D01*
X96757416Y-78256688D01*
X96757416Y-78443312D01*
X96721007Y-78626351D01*
X96649589Y-78798770D01*
X96545906Y-78953942D01*
X96413942Y-79085906D01*
X96258770Y-79189589D01*
X96086351Y-79261007D01*
X95903312Y-79297416D01*
X95716688Y-79297416D01*
X95533649Y-79261007D01*
X95361230Y-79189589D01*
X95206058Y-79085906D01*
X95074094Y-78953942D01*
X94970411Y-78798770D01*
X94898993Y-78626351D01*
X94862584Y-78443312D01*
X94862584Y-78256688D01*
X94898993Y-78073649D01*
X94970411Y-77901230D01*
X95074094Y-77746058D01*
X95206058Y-77614094D01*
X95361230Y-77510411D01*
X95533649Y-77438993D01*
X95716688Y-77402584D01*
X95903312Y-77402584D01*
X96086351Y-77438993D01*
G37*
G36*
X108786351Y-77438993D02*
G01*
X108958770Y-77510411D01*
X109113942Y-77614094D01*
X109245906Y-77746058D01*
X109349589Y-77901230D01*
X109421007Y-78073649D01*
X109457416Y-78256688D01*
X109457416Y-78443312D01*
X109421007Y-78626351D01*
X109349589Y-78798770D01*
X109245906Y-78953942D01*
X109113942Y-79085906D01*
X108958770Y-79189589D01*
X108786351Y-79261007D01*
X108603312Y-79297416D01*
X108416688Y-79297416D01*
X108233649Y-79261007D01*
X108061230Y-79189589D01*
X107906058Y-79085906D01*
X107774094Y-78953942D01*
X107670411Y-78798770D01*
X107598993Y-78626351D01*
X107562584Y-78443312D01*
X107562584Y-78256688D01*
X107598993Y-78073649D01*
X107670411Y-77901230D01*
X107774094Y-77746058D01*
X107906058Y-77614094D01*
X108061230Y-77510411D01*
X108233649Y-77438993D01*
X108416688Y-77402584D01*
X108603312Y-77402584D01*
X108786351Y-77438993D01*
G37*
G36*
X96086351Y-74898993D02*
G01*
X96258770Y-74970411D01*
X96413942Y-75074094D01*
X96545906Y-75206058D01*
X96649589Y-75361230D01*
X96721007Y-75533649D01*
X96757416Y-75716688D01*
X96757416Y-75903312D01*
X96721007Y-76086351D01*
X96649589Y-76258770D01*
X96545906Y-76413942D01*
X96413942Y-76545906D01*
X96258770Y-76649589D01*
X96086351Y-76721007D01*
X95903312Y-76757416D01*
X95716688Y-76757416D01*
X95533649Y-76721007D01*
X95361230Y-76649589D01*
X95206058Y-76545906D01*
X95074094Y-76413942D01*
X94970411Y-76258770D01*
X94898993Y-76086351D01*
X94862584Y-75903312D01*
X94862584Y-75716688D01*
X94898993Y-75533649D01*
X94970411Y-75361230D01*
X95074094Y-75206058D01*
X95206058Y-75074094D01*
X95361230Y-74970411D01*
X95533649Y-74898993D01*
X95716688Y-74862584D01*
X95903312Y-74862584D01*
X96086351Y-74898993D01*
G37*
G36*
X108786351Y-74898993D02*
G01*
X108958770Y-74970411D01*
X109113942Y-75074094D01*
X109245906Y-75206058D01*
X109349589Y-75361230D01*
X109421007Y-75533649D01*
X109457416Y-75716688D01*
X109457416Y-75903312D01*
X109421007Y-76086351D01*
X109349589Y-76258770D01*
X109245906Y-76413942D01*
X109113942Y-76545906D01*
X108958770Y-76649589D01*
X108786351Y-76721007D01*
X108603312Y-76757416D01*
X108416688Y-76757416D01*
X108233649Y-76721007D01*
X108061230Y-76649589D01*
X107906058Y-76545906D01*
X107774094Y-76413942D01*
X107670411Y-76258770D01*
X107598993Y-76086351D01*
X107562584Y-75903312D01*
X107562584Y-75716688D01*
X107598993Y-75533649D01*
X107670411Y-75361230D01*
X107774094Y-75206058D01*
X107906058Y-75074094D01*
X108061230Y-74970411D01*
X108233649Y-74898993D01*
X108416688Y-74862584D01*
X108603312Y-74862584D01*
X108786351Y-74898993D01*
G37*
G36*
X92151677Y-74980333D02*
G01*
X92308701Y-75045374D01*
X92450019Y-75139800D01*
X92570200Y-75259981D01*
X92664626Y-75401299D01*
X92729667Y-75558323D01*
X92762825Y-75725019D01*
X92762825Y-75894981D01*
X92729667Y-76061677D01*
X92664626Y-76218701D01*
X92570200Y-76360019D01*
X92450019Y-76480200D01*
X92308701Y-76574626D01*
X92151677Y-76639667D01*
X91984981Y-76672825D01*
X91815019Y-76672825D01*
X91648323Y-76639667D01*
X91491299Y-76574626D01*
X91349981Y-76480200D01*
X91229800Y-76360019D01*
X91135374Y-76218701D01*
X91070333Y-76061677D01*
X91037175Y-75894981D01*
X91037175Y-75725019D01*
X91070333Y-75558323D01*
X91135374Y-75401299D01*
X91229800Y-75259981D01*
X91349981Y-75139800D01*
X91491299Y-75045374D01*
X91648323Y-74980333D01*
X91815019Y-74947175D01*
X91984981Y-74947175D01*
X92151677Y-74980333D01*
G37*
G36*
X163256790Y-73655393D02*
G01*
X163420952Y-73708733D01*
X163574748Y-73787096D01*
X163714393Y-73888553D01*
X163836447Y-74010607D01*
X163937904Y-74150252D01*
X164016267Y-74304048D01*
X164069607Y-74468210D01*
X164096609Y-74638695D01*
X164096609Y-74811305D01*
X164069607Y-74981790D01*
X164016267Y-75145952D01*
X163937904Y-75299748D01*
X163836447Y-75439393D01*
X163714393Y-75561447D01*
X163574748Y-75662904D01*
X163420952Y-75741267D01*
X163256790Y-75794607D01*
X163086305Y-75821609D01*
X162913695Y-75821609D01*
X162743210Y-75794607D01*
X162579048Y-75741267D01*
X162425252Y-75662904D01*
X162285607Y-75561447D01*
X162163553Y-75439393D01*
X162062096Y-75299748D01*
X161983733Y-75145952D01*
X161930393Y-74981790D01*
X161903391Y-74811305D01*
X161903391Y-74638695D01*
X161930393Y-74468210D01*
X161983733Y-74304048D01*
X162062096Y-74150252D01*
X162163553Y-74010607D01*
X162285607Y-73888553D01*
X162425252Y-73787096D01*
X162579048Y-73708733D01*
X162743210Y-73655393D01*
X162913695Y-73628391D01*
X163086305Y-73628391D01*
X163256790Y-73655393D01*
G37*
G36*
X160238513Y-73539830D02*
G01*
X160406042Y-73609223D01*
X160556814Y-73709965D01*
X160685035Y-73838186D01*
X160785777Y-73988958D01*
X160855170Y-74156487D01*
X160890546Y-74334334D01*
X160890546Y-74515666D01*
X160855170Y-74693513D01*
X160785777Y-74861042D01*
X160685035Y-75011814D01*
X160556814Y-75140035D01*
X160406042Y-75240777D01*
X160238513Y-75310170D01*
X160060666Y-75345546D01*
X159879334Y-75345546D01*
X159701487Y-75310170D01*
X159533958Y-75240777D01*
X159383186Y-75140035D01*
X159254965Y-75011814D01*
X159154223Y-74861042D01*
X159084830Y-74693513D01*
X159049454Y-74515666D01*
X159049454Y-74334334D01*
X159084830Y-74156487D01*
X159154223Y-73988958D01*
X159254965Y-73838186D01*
X159383186Y-73709965D01*
X159533958Y-73609223D01*
X159701487Y-73539830D01*
X159879334Y-73504454D01*
X160060666Y-73504454D01*
X160238513Y-73539830D01*
G37*
G36*
X96086351Y-72358993D02*
G01*
X96258770Y-72430411D01*
X96413942Y-72534094D01*
X96545906Y-72666058D01*
X96649589Y-72821230D01*
X96721007Y-72993649D01*
X96757416Y-73176688D01*
X96757416Y-73363312D01*
X96721007Y-73546351D01*
X96649589Y-73718770D01*
X96545906Y-73873942D01*
X96413942Y-74005906D01*
X96258770Y-74109589D01*
X96086351Y-74181007D01*
X95903312Y-74217416D01*
X95716688Y-74217416D01*
X95533649Y-74181007D01*
X95361230Y-74109589D01*
X95206058Y-74005906D01*
X95074094Y-73873942D01*
X94970411Y-73718770D01*
X94898993Y-73546351D01*
X94862584Y-73363312D01*
X94862584Y-73176688D01*
X94898993Y-72993649D01*
X94970411Y-72821230D01*
X95074094Y-72666058D01*
X95206058Y-72534094D01*
X95361230Y-72430411D01*
X95533649Y-72358993D01*
X95716688Y-72322584D01*
X95903312Y-72322584D01*
X96086351Y-72358993D01*
G37*
G36*
X108786351Y-72358993D02*
G01*
X108958770Y-72430411D01*
X109113942Y-72534094D01*
X109245906Y-72666058D01*
X109349589Y-72821230D01*
X109421007Y-72993649D01*
X109457416Y-73176688D01*
X109457416Y-73363312D01*
X109421007Y-73546351D01*
X109349589Y-73718770D01*
X109245906Y-73873942D01*
X109113942Y-74005906D01*
X108958770Y-74109589D01*
X108786351Y-74181007D01*
X108603312Y-74217416D01*
X108416688Y-74217416D01*
X108233649Y-74181007D01*
X108061230Y-74109589D01*
X107906058Y-74005906D01*
X107774094Y-73873942D01*
X107670411Y-73718770D01*
X107598993Y-73546351D01*
X107562584Y-73363312D01*
X107562584Y-73176688D01*
X107598993Y-72993649D01*
X107670411Y-72821230D01*
X107774094Y-72666058D01*
X107906058Y-72534094D01*
X108061230Y-72430411D01*
X108233649Y-72358993D01*
X108416688Y-72322584D01*
X108603312Y-72322584D01*
X108786351Y-72358993D01*
G37*
G36*
X92151677Y-72440333D02*
G01*
X92308701Y-72505374D01*
X92450019Y-72599800D01*
X92570200Y-72719981D01*
X92664626Y-72861299D01*
X92729667Y-73018323D01*
X92762825Y-73185019D01*
X92762825Y-73354981D01*
X92729667Y-73521677D01*
X92664626Y-73678701D01*
X92570200Y-73820019D01*
X92450019Y-73940200D01*
X92308701Y-74034626D01*
X92151677Y-74099667D01*
X91984981Y-74132825D01*
X91815019Y-74132825D01*
X91648323Y-74099667D01*
X91491299Y-74034626D01*
X91349981Y-73940200D01*
X91229800Y-73820019D01*
X91135374Y-73678701D01*
X91070333Y-73521677D01*
X91037175Y-73354981D01*
X91037175Y-73185019D01*
X91070333Y-73018323D01*
X91135374Y-72861299D01*
X91229800Y-72719981D01*
X91349981Y-72599800D01*
X91491299Y-72505374D01*
X91648323Y-72440333D01*
X91815019Y-72407175D01*
X91984981Y-72407175D01*
X92151677Y-72440333D01*
G37*
G36*
X96086351Y-69818993D02*
G01*
X96258770Y-69890411D01*
X96413942Y-69994094D01*
X96545906Y-70126058D01*
X96649589Y-70281230D01*
X96721007Y-70453649D01*
X96757416Y-70636688D01*
X96757416Y-70823312D01*
X96721007Y-71006351D01*
X96649589Y-71178770D01*
X96545906Y-71333942D01*
X96413942Y-71465906D01*
X96258770Y-71569589D01*
X96086351Y-71641007D01*
X95903312Y-71677416D01*
X95716688Y-71677416D01*
X95533649Y-71641007D01*
X95361230Y-71569589D01*
X95206058Y-71465906D01*
X95074094Y-71333942D01*
X94970411Y-71178770D01*
X94898993Y-71006351D01*
X94862584Y-70823312D01*
X94862584Y-70636688D01*
X94898993Y-70453649D01*
X94970411Y-70281230D01*
X95074094Y-70126058D01*
X95206058Y-69994094D01*
X95361230Y-69890411D01*
X95533649Y-69818993D01*
X95716688Y-69782584D01*
X95903312Y-69782584D01*
X96086351Y-69818993D01*
G37*
G36*
X108786351Y-69818993D02*
G01*
X108958770Y-69890411D01*
X109113942Y-69994094D01*
X109245906Y-70126058D01*
X109349589Y-70281230D01*
X109421007Y-70453649D01*
X109457416Y-70636688D01*
X109457416Y-70823312D01*
X109421007Y-71006351D01*
X109349589Y-71178770D01*
X109245906Y-71333942D01*
X109113942Y-71465906D01*
X108958770Y-71569589D01*
X108786351Y-71641007D01*
X108603312Y-71677416D01*
X108416688Y-71677416D01*
X108233649Y-71641007D01*
X108061230Y-71569589D01*
X107906058Y-71465906D01*
X107774094Y-71333942D01*
X107670411Y-71178770D01*
X107598993Y-71006351D01*
X107562584Y-70823312D01*
X107562584Y-70636688D01*
X107598993Y-70453649D01*
X107670411Y-70281230D01*
X107774094Y-70126058D01*
X107906058Y-69994094D01*
X108061230Y-69890411D01*
X108233649Y-69818993D01*
X108416688Y-69782584D01*
X108603312Y-69782584D01*
X108786351Y-69818993D01*
G37*
G36*
X92151677Y-69900333D02*
G01*
X92308701Y-69965374D01*
X92450019Y-70059800D01*
X92570200Y-70179981D01*
X92664626Y-70321299D01*
X92729667Y-70478323D01*
X92762825Y-70645019D01*
X92762825Y-70814981D01*
X92729667Y-70981677D01*
X92664626Y-71138701D01*
X92570200Y-71280019D01*
X92450019Y-71400200D01*
X92308701Y-71494626D01*
X92151677Y-71559667D01*
X91984981Y-71592825D01*
X91815019Y-71592825D01*
X91648323Y-71559667D01*
X91491299Y-71494626D01*
X91349981Y-71400200D01*
X91229800Y-71280019D01*
X91135374Y-71138701D01*
X91070333Y-70981677D01*
X91037175Y-70814981D01*
X91037175Y-70645019D01*
X91070333Y-70478323D01*
X91135374Y-70321299D01*
X91229800Y-70179981D01*
X91349981Y-70059800D01*
X91491299Y-69965374D01*
X91648323Y-69900333D01*
X91815019Y-69867175D01*
X91984981Y-69867175D01*
X92151677Y-69900333D01*
G37*
G36*
X160238513Y-68689830D02*
G01*
X160406042Y-68759223D01*
X160556814Y-68859965D01*
X160685035Y-68988186D01*
X160785777Y-69138958D01*
X160855170Y-69306487D01*
X160890546Y-69484334D01*
X160890546Y-69665666D01*
X160855170Y-69843513D01*
X160785777Y-70011042D01*
X160685035Y-70161814D01*
X160556814Y-70290035D01*
X160406042Y-70390777D01*
X160238513Y-70460170D01*
X160060666Y-70495546D01*
X159879334Y-70495546D01*
X159701487Y-70460170D01*
X159533958Y-70390777D01*
X159383186Y-70290035D01*
X159254965Y-70161814D01*
X159154223Y-70011042D01*
X159084830Y-69843513D01*
X159049454Y-69665666D01*
X159049454Y-69484334D01*
X159084830Y-69306487D01*
X159154223Y-69138958D01*
X159254965Y-68988186D01*
X159383186Y-68859965D01*
X159533958Y-68759223D01*
X159701487Y-68689830D01*
X159879334Y-68654454D01*
X160060666Y-68654454D01*
X160238513Y-68689830D01*
G37*
G36*
X163256790Y-68205393D02*
G01*
X163420952Y-68258733D01*
X163574748Y-68337096D01*
X163714393Y-68438553D01*
X163836447Y-68560607D01*
X163937904Y-68700252D01*
X164016267Y-68854048D01*
X164069607Y-69018210D01*
X164096609Y-69188695D01*
X164096609Y-69361305D01*
X164069607Y-69531790D01*
X164016267Y-69695952D01*
X163937904Y-69849748D01*
X163836447Y-69989393D01*
X163714393Y-70111447D01*
X163574748Y-70212904D01*
X163420952Y-70291267D01*
X163256790Y-70344607D01*
X163086305Y-70371609D01*
X162913695Y-70371609D01*
X162743210Y-70344607D01*
X162579048Y-70291267D01*
X162425252Y-70212904D01*
X162285607Y-70111447D01*
X162163553Y-69989393D01*
X162062096Y-69849748D01*
X161983733Y-69695952D01*
X161930393Y-69531790D01*
X161903391Y-69361305D01*
X161903391Y-69188695D01*
X161930393Y-69018210D01*
X161983733Y-68854048D01*
X162062096Y-68700252D01*
X162163553Y-68560607D01*
X162285607Y-68438553D01*
X162425252Y-68337096D01*
X162579048Y-68258733D01*
X162743210Y-68205393D01*
X162913695Y-68178391D01*
X163086305Y-68178391D01*
X163256790Y-68205393D01*
G37*
G36*
X96086351Y-67278993D02*
G01*
X96258770Y-67350411D01*
X96413942Y-67454094D01*
X96545906Y-67586058D01*
X96649589Y-67741230D01*
X96721007Y-67913649D01*
X96757416Y-68096688D01*
X96757416Y-68283312D01*
X96721007Y-68466351D01*
X96649589Y-68638770D01*
X96545906Y-68793942D01*
X96413942Y-68925906D01*
X96258770Y-69029589D01*
X96086351Y-69101007D01*
X95903312Y-69137416D01*
X95716688Y-69137416D01*
X95533649Y-69101007D01*
X95361230Y-69029589D01*
X95206058Y-68925906D01*
X95074094Y-68793942D01*
X94970411Y-68638770D01*
X94898993Y-68466351D01*
X94862584Y-68283312D01*
X94862584Y-68096688D01*
X94898993Y-67913649D01*
X94970411Y-67741230D01*
X95074094Y-67586058D01*
X95206058Y-67454094D01*
X95361230Y-67350411D01*
X95533649Y-67278993D01*
X95716688Y-67242584D01*
X95903312Y-67242584D01*
X96086351Y-67278993D01*
G37*
G36*
X108786351Y-67278993D02*
G01*
X108958770Y-67350411D01*
X109113942Y-67454094D01*
X109245906Y-67586058D01*
X109349589Y-67741230D01*
X109421007Y-67913649D01*
X109457416Y-68096688D01*
X109457416Y-68283312D01*
X109421007Y-68466351D01*
X109349589Y-68638770D01*
X109245906Y-68793942D01*
X109113942Y-68925906D01*
X108958770Y-69029589D01*
X108786351Y-69101007D01*
X108603312Y-69137416D01*
X108416688Y-69137416D01*
X108233649Y-69101007D01*
X108061230Y-69029589D01*
X107906058Y-68925906D01*
X107774094Y-68793942D01*
X107670411Y-68638770D01*
X107598993Y-68466351D01*
X107562584Y-68283312D01*
X107562584Y-68096688D01*
X107598993Y-67913649D01*
X107670411Y-67741230D01*
X107774094Y-67586058D01*
X107906058Y-67454094D01*
X108061230Y-67350411D01*
X108233649Y-67278993D01*
X108416688Y-67242584D01*
X108603312Y-67242584D01*
X108786351Y-67278993D01*
G37*
G36*
X92151677Y-67360333D02*
G01*
X92308701Y-67425374D01*
X92450019Y-67519800D01*
X92570200Y-67639981D01*
X92664626Y-67781299D01*
X92729667Y-67938323D01*
X92762825Y-68105019D01*
X92762825Y-68274981D01*
X92729667Y-68441677D01*
X92664626Y-68598701D01*
X92570200Y-68740019D01*
X92450019Y-68860200D01*
X92308701Y-68954626D01*
X92151677Y-69019667D01*
X91984981Y-69052825D01*
X91815019Y-69052825D01*
X91648323Y-69019667D01*
X91491299Y-68954626D01*
X91349981Y-68860200D01*
X91229800Y-68740019D01*
X91135374Y-68598701D01*
X91070333Y-68441677D01*
X91037175Y-68274981D01*
X91037175Y-68105019D01*
X91070333Y-67938323D01*
X91135374Y-67781299D01*
X91229800Y-67639981D01*
X91349981Y-67519800D01*
X91491299Y-67425374D01*
X91648323Y-67360333D01*
X91815019Y-67327175D01*
X91984981Y-67327175D01*
X92151677Y-67360333D01*
G37*
G36*
X96086351Y-64738993D02*
G01*
X96258770Y-64810411D01*
X96413942Y-64914094D01*
X96545906Y-65046058D01*
X96649589Y-65201230D01*
X96721007Y-65373649D01*
X96757416Y-65556688D01*
X96757416Y-65743312D01*
X96721007Y-65926351D01*
X96649589Y-66098770D01*
X96545906Y-66253942D01*
X96413942Y-66385906D01*
X96258770Y-66489589D01*
X96086351Y-66561007D01*
X95903312Y-66597416D01*
X95716688Y-66597416D01*
X95533649Y-66561007D01*
X95361230Y-66489589D01*
X95206058Y-66385906D01*
X95074094Y-66253942D01*
X94970411Y-66098770D01*
X94898993Y-65926351D01*
X94862584Y-65743312D01*
X94862584Y-65556688D01*
X94898993Y-65373649D01*
X94970411Y-65201230D01*
X95074094Y-65046058D01*
X95206058Y-64914094D01*
X95361230Y-64810411D01*
X95533649Y-64738993D01*
X95716688Y-64702584D01*
X95903312Y-64702584D01*
X96086351Y-64738993D01*
G37*
G36*
X108786351Y-64738993D02*
G01*
X108958770Y-64810411D01*
X109113942Y-64914094D01*
X109245906Y-65046058D01*
X109349589Y-65201230D01*
X109421007Y-65373649D01*
X109457416Y-65556688D01*
X109457416Y-65743312D01*
X109421007Y-65926351D01*
X109349589Y-66098770D01*
X109245906Y-66253942D01*
X109113942Y-66385906D01*
X108958770Y-66489589D01*
X108786351Y-66561007D01*
X108603312Y-66597416D01*
X108416688Y-66597416D01*
X108233649Y-66561007D01*
X108061230Y-66489589D01*
X107906058Y-66385906D01*
X107774094Y-66253942D01*
X107670411Y-66098770D01*
X107598993Y-65926351D01*
X107562584Y-65743312D01*
X107562584Y-65556688D01*
X107598993Y-65373649D01*
X107670411Y-65201230D01*
X107774094Y-65046058D01*
X107906058Y-64914094D01*
X108061230Y-64810411D01*
X108233649Y-64738993D01*
X108416688Y-64702584D01*
X108603312Y-64702584D01*
X108786351Y-64738993D01*
G37*
G36*
X96699034Y-62165764D02*
G01*
X96732125Y-62187875D01*
X96754236Y-62220966D01*
X96762000Y-62260000D01*
X96762000Y-63960000D01*
X96754236Y-63999034D01*
X96732125Y-64032125D01*
X96699034Y-64054236D01*
X96660000Y-64062000D01*
X94960000Y-64062000D01*
X94920966Y-64054236D01*
X94887875Y-64032125D01*
X94865764Y-63999034D01*
X94858000Y-63960000D01*
X94858000Y-62260000D01*
X94865764Y-62220966D01*
X94887875Y-62187875D01*
X94920966Y-62165764D01*
X94960000Y-62158000D01*
X96660000Y-62158000D01*
X96699034Y-62165764D01*
G37*
G36*
X108786351Y-62198993D02*
G01*
X108958770Y-62270411D01*
X109113942Y-62374094D01*
X109245906Y-62506058D01*
X109349589Y-62661230D01*
X109421007Y-62833649D01*
X109457416Y-63016688D01*
X109457416Y-63203312D01*
X109421007Y-63386351D01*
X109349589Y-63558770D01*
X109245906Y-63713942D01*
X109113942Y-63845906D01*
X108958770Y-63949589D01*
X108786351Y-64021007D01*
X108603312Y-64057416D01*
X108416688Y-64057416D01*
X108233649Y-64021007D01*
X108061230Y-63949589D01*
X107906058Y-63845906D01*
X107774094Y-63713942D01*
X107670411Y-63558770D01*
X107598993Y-63386351D01*
X107562584Y-63203312D01*
X107562584Y-63016688D01*
X107598993Y-62833649D01*
X107670411Y-62661230D01*
X107774094Y-62506058D01*
X107906058Y-62374094D01*
X108061230Y-62270411D01*
X108233649Y-62198993D01*
X108416688Y-62162584D01*
X108603312Y-62162584D01*
X108786351Y-62198993D01*
G37*
G36*
X120029389Y-62308948D02*
G01*
X120032278Y-62309522D01*
X120032281Y-62309523D01*
X120180311Y-62338968D01*
X120180318Y-62338970D01*
X120183203Y-62339544D01*
X120184141Y-62339829D01*
X120186857Y-62340954D01*
X120186860Y-62340955D01*
X120326311Y-62398717D01*
X120326317Y-62398720D01*
X120329030Y-62399844D01*
X120329895Y-62400306D01*
X120332344Y-62401942D01*
X120332345Y-62401943D01*
X120457840Y-62485795D01*
X120457846Y-62485800D01*
X120460293Y-62487435D01*
X120461051Y-62488056D01*
X120571944Y-62598949D01*
X120572565Y-62599707D01*
X120574200Y-62602154D01*
X120574204Y-62602159D01*
X120631152Y-62687389D01*
X120659694Y-62730105D01*
X120660156Y-62730970D01*
X120720171Y-62875859D01*
X120720456Y-62876797D01*
X120751052Y-63030611D01*
X120751148Y-63031586D01*
X120751148Y-63105475D01*
X120753536Y-63106464D01*
X120755000Y-63110000D01*
X120755000Y-63710000D01*
X120753536Y-63713536D01*
X120751157Y-63715915D01*
X120751157Y-63749018D01*
X120750776Y-63750931D01*
X120720913Y-63823027D01*
X120719830Y-63824650D01*
X120664650Y-63879830D01*
X120663027Y-63880913D01*
X120590931Y-63910776D01*
X120589018Y-63911157D01*
X120555915Y-63911157D01*
X120553536Y-63913536D01*
X120550000Y-63915000D01*
X120538066Y-63915000D01*
X119361934Y-63915000D01*
X119350000Y-63915000D01*
X119346464Y-63913536D01*
X119344085Y-63911157D01*
X119316892Y-63911157D01*
X119310982Y-63911157D01*
X119309069Y-63910776D01*
X119236973Y-63880913D01*
X119235350Y-63879830D01*
X119180170Y-63824650D01*
X119179087Y-63823027D01*
X119176826Y-63817569D01*
X119151484Y-63756389D01*
X119151483Y-63756385D01*
X119149224Y-63750931D01*
X119148843Y-63749018D01*
X119148843Y-63715915D01*
X119146464Y-63713536D01*
X119145000Y-63710000D01*
X119145000Y-63110000D01*
X119146464Y-63106464D01*
X119148852Y-63105475D01*
X119148852Y-63031586D01*
X119148948Y-63030611D01*
X119151712Y-63016715D01*
X119178968Y-62879688D01*
X119178970Y-62879679D01*
X119179544Y-62876797D01*
X119179829Y-62875859D01*
X119180953Y-62873144D01*
X119180955Y-62873139D01*
X119238717Y-62733688D01*
X119238722Y-62733678D01*
X119239844Y-62730970D01*
X119240306Y-62730105D01*
X119241940Y-62727659D01*
X119241943Y-62727654D01*
X119325795Y-62602159D01*
X119325803Y-62602148D01*
X119327435Y-62599707D01*
X119328056Y-62598949D01*
X119438949Y-62488056D01*
X119439707Y-62487435D01*
X119442148Y-62485803D01*
X119442159Y-62485795D01*
X119567654Y-62401943D01*
X119567659Y-62401940D01*
X119570105Y-62400306D01*
X119570970Y-62399844D01*
X119573678Y-62398722D01*
X119573688Y-62398717D01*
X119713139Y-62340955D01*
X119713144Y-62340953D01*
X119715859Y-62339829D01*
X119716797Y-62339544D01*
X119719679Y-62338970D01*
X119719688Y-62338968D01*
X119867718Y-62309523D01*
X119867722Y-62309522D01*
X119870611Y-62308948D01*
X119871586Y-62308852D01*
X120028414Y-62308852D01*
X120029389Y-62308948D01*
G37*
G36*
X132729389Y-62308948D02*
G01*
X132732278Y-62309522D01*
X132732281Y-62309523D01*
X132880311Y-62338968D01*
X132880318Y-62338970D01*
X132883203Y-62339544D01*
X132884141Y-62339829D01*
X132886857Y-62340954D01*
X132886860Y-62340955D01*
X133026311Y-62398717D01*
X133026317Y-62398720D01*
X133029030Y-62399844D01*
X133029895Y-62400306D01*
X133032344Y-62401942D01*
X133032345Y-62401943D01*
X133157840Y-62485795D01*
X133157846Y-62485800D01*
X133160293Y-62487435D01*
X133161051Y-62488056D01*
X133271944Y-62598949D01*
X133272565Y-62599707D01*
X133274200Y-62602154D01*
X133274204Y-62602159D01*
X133331152Y-62687389D01*
X133359694Y-62730105D01*
X133360156Y-62730970D01*
X133420171Y-62875859D01*
X133420456Y-62876797D01*
X133451052Y-63030611D01*
X133451148Y-63031586D01*
X133451148Y-63105475D01*
X133453536Y-63106464D01*
X133455000Y-63110000D01*
X133455000Y-63710000D01*
X133453536Y-63713536D01*
X133451157Y-63715915D01*
X133451157Y-63749018D01*
X133450776Y-63750931D01*
X133420913Y-63823027D01*
X133419830Y-63824650D01*
X133364650Y-63879830D01*
X133363027Y-63880913D01*
X133290931Y-63910776D01*
X133289018Y-63911157D01*
X133255915Y-63911157D01*
X133253536Y-63913536D01*
X133250000Y-63915000D01*
X133238066Y-63915000D01*
X132061934Y-63915000D01*
X132050000Y-63915000D01*
X132046464Y-63913536D01*
X132044085Y-63911157D01*
X132016892Y-63911157D01*
X132010982Y-63911157D01*
X132009069Y-63910776D01*
X131936973Y-63880913D01*
X131935350Y-63879830D01*
X131880170Y-63824650D01*
X131879087Y-63823027D01*
X131876826Y-63817569D01*
X131851484Y-63756389D01*
X131851483Y-63756385D01*
X131849224Y-63750931D01*
X131848843Y-63749018D01*
X131848843Y-63715915D01*
X131846464Y-63713536D01*
X131845000Y-63710000D01*
X131845000Y-63110000D01*
X131846464Y-63106464D01*
X131848852Y-63105475D01*
X131848852Y-63031586D01*
X131848948Y-63030611D01*
X131851712Y-63016715D01*
X131878968Y-62879688D01*
X131878970Y-62879679D01*
X131879544Y-62876797D01*
X131879829Y-62875859D01*
X131880953Y-62873144D01*
X131880955Y-62873139D01*
X131938717Y-62733688D01*
X131938722Y-62733678D01*
X131939844Y-62730970D01*
X131940306Y-62730105D01*
X131941940Y-62727659D01*
X131941943Y-62727654D01*
X132025795Y-62602159D01*
X132025803Y-62602148D01*
X132027435Y-62599707D01*
X132028056Y-62598949D01*
X132138949Y-62488056D01*
X132139707Y-62487435D01*
X132142148Y-62485803D01*
X132142159Y-62485795D01*
X132267654Y-62401943D01*
X132267659Y-62401940D01*
X132270105Y-62400306D01*
X132270970Y-62399844D01*
X132273678Y-62398722D01*
X132273688Y-62398717D01*
X132413139Y-62340955D01*
X132413144Y-62340953D01*
X132415859Y-62339829D01*
X132416797Y-62339544D01*
X132419679Y-62338970D01*
X132419688Y-62338968D01*
X132567718Y-62309523D01*
X132567722Y-62309522D01*
X132570611Y-62308948D01*
X132571586Y-62308852D01*
X132728414Y-62308852D01*
X132729389Y-62308948D01*
G37*
G36*
X145429389Y-62308948D02*
G01*
X145432278Y-62309522D01*
X145432281Y-62309523D01*
X145580311Y-62338968D01*
X145580318Y-62338970D01*
X145583203Y-62339544D01*
X145584141Y-62339829D01*
X145586857Y-62340954D01*
X145586860Y-62340955D01*
X145726311Y-62398717D01*
X145726317Y-62398720D01*
X145729030Y-62399844D01*
X145729895Y-62400306D01*
X145732344Y-62401942D01*
X145732345Y-62401943D01*
X145857840Y-62485795D01*
X145857846Y-62485800D01*
X145860293Y-62487435D01*
X145861051Y-62488056D01*
X145971944Y-62598949D01*
X145972565Y-62599707D01*
X145974200Y-62602154D01*
X145974204Y-62602159D01*
X146031152Y-62687389D01*
X146059694Y-62730105D01*
X146060156Y-62730970D01*
X146120171Y-62875859D01*
X146120456Y-62876797D01*
X146151052Y-63030611D01*
X146151148Y-63031586D01*
X146151148Y-63105475D01*
X146153536Y-63106464D01*
X146155000Y-63110000D01*
X146155000Y-63710000D01*
X146153536Y-63713536D01*
X146151157Y-63715915D01*
X146151157Y-63749018D01*
X146150776Y-63750931D01*
X146120913Y-63823027D01*
X146119830Y-63824650D01*
X146064650Y-63879830D01*
X146063027Y-63880913D01*
X145990931Y-63910776D01*
X145989018Y-63911157D01*
X145955915Y-63911157D01*
X145953536Y-63913536D01*
X145950000Y-63915000D01*
X145938066Y-63915000D01*
X144761934Y-63915000D01*
X144750000Y-63915000D01*
X144746464Y-63913536D01*
X144744085Y-63911157D01*
X144716892Y-63911157D01*
X144710982Y-63911157D01*
X144709069Y-63910776D01*
X144636973Y-63880913D01*
X144635350Y-63879830D01*
X144580170Y-63824650D01*
X144579087Y-63823027D01*
X144576826Y-63817569D01*
X144551484Y-63756389D01*
X144551483Y-63756385D01*
X144549224Y-63750931D01*
X144548843Y-63749018D01*
X144548843Y-63715915D01*
X144546464Y-63713536D01*
X144545000Y-63710000D01*
X144545000Y-63110000D01*
X144546464Y-63106464D01*
X144548852Y-63105475D01*
X144548852Y-63031586D01*
X144548948Y-63030611D01*
X144551712Y-63016715D01*
X144578968Y-62879688D01*
X144578970Y-62879679D01*
X144579544Y-62876797D01*
X144579829Y-62875859D01*
X144580953Y-62873144D01*
X144580955Y-62873139D01*
X144638717Y-62733688D01*
X144638722Y-62733678D01*
X144639844Y-62730970D01*
X144640306Y-62730105D01*
X144641940Y-62727659D01*
X144641943Y-62727654D01*
X144725795Y-62602159D01*
X144725803Y-62602148D01*
X144727435Y-62599707D01*
X144728056Y-62598949D01*
X144838949Y-62488056D01*
X144839707Y-62487435D01*
X144842148Y-62485803D01*
X144842159Y-62485795D01*
X144967654Y-62401943D01*
X144967659Y-62401940D01*
X144970105Y-62400306D01*
X144970970Y-62399844D01*
X144973678Y-62398722D01*
X144973688Y-62398717D01*
X145113139Y-62340955D01*
X145113144Y-62340953D01*
X145115859Y-62339829D01*
X145116797Y-62339544D01*
X145119679Y-62338970D01*
X145119688Y-62338968D01*
X145267718Y-62309523D01*
X145267722Y-62309522D01*
X145270611Y-62308948D01*
X145271586Y-62308852D01*
X145428414Y-62308852D01*
X145429389Y-62308948D01*
G37*
G36*
X158129389Y-62308948D02*
G01*
X158132278Y-62309522D01*
X158132281Y-62309523D01*
X158280311Y-62338968D01*
X158280318Y-62338970D01*
X158283203Y-62339544D01*
X158284141Y-62339829D01*
X158286857Y-62340954D01*
X158286860Y-62340955D01*
X158426311Y-62398717D01*
X158426317Y-62398720D01*
X158429030Y-62399844D01*
X158429895Y-62400306D01*
X158432344Y-62401942D01*
X158432345Y-62401943D01*
X158557840Y-62485795D01*
X158557846Y-62485800D01*
X158560293Y-62487435D01*
X158561051Y-62488056D01*
X158671944Y-62598949D01*
X158672565Y-62599707D01*
X158674200Y-62602154D01*
X158674204Y-62602159D01*
X158731152Y-62687389D01*
X158759694Y-62730105D01*
X158760156Y-62730970D01*
X158820171Y-62875859D01*
X158820456Y-62876797D01*
X158851052Y-63030611D01*
X158851148Y-63031586D01*
X158851148Y-63105475D01*
X158853536Y-63106464D01*
X158855000Y-63110000D01*
X158855000Y-63710000D01*
X158853536Y-63713536D01*
X158851157Y-63715915D01*
X158851157Y-63749018D01*
X158850776Y-63750931D01*
X158820913Y-63823027D01*
X158819830Y-63824650D01*
X158764650Y-63879830D01*
X158763027Y-63880913D01*
X158690931Y-63910776D01*
X158689018Y-63911157D01*
X158655915Y-63911157D01*
X158653536Y-63913536D01*
X158650000Y-63915000D01*
X158638066Y-63915000D01*
X157461934Y-63915000D01*
X157450000Y-63915000D01*
X157446464Y-63913536D01*
X157444085Y-63911157D01*
X157416892Y-63911157D01*
X157410982Y-63911157D01*
X157409069Y-63910776D01*
X157336973Y-63880913D01*
X157335350Y-63879830D01*
X157280170Y-63824650D01*
X157279087Y-63823027D01*
X157276826Y-63817569D01*
X157251484Y-63756389D01*
X157251483Y-63756385D01*
X157249224Y-63750931D01*
X157248843Y-63749018D01*
X157248843Y-63715915D01*
X157246464Y-63713536D01*
X157245000Y-63710000D01*
X157245000Y-63110000D01*
X157246464Y-63106464D01*
X157248852Y-63105475D01*
X157248852Y-63031586D01*
X157248948Y-63030611D01*
X157251712Y-63016715D01*
X157278968Y-62879688D01*
X157278970Y-62879679D01*
X157279544Y-62876797D01*
X157279829Y-62875859D01*
X157280953Y-62873144D01*
X157280955Y-62873139D01*
X157338717Y-62733688D01*
X157338722Y-62733678D01*
X157339844Y-62730970D01*
X157340306Y-62730105D01*
X157341940Y-62727659D01*
X157341943Y-62727654D01*
X157425795Y-62602159D01*
X157425803Y-62602148D01*
X157427435Y-62599707D01*
X157428056Y-62598949D01*
X157538949Y-62488056D01*
X157539707Y-62487435D01*
X157542148Y-62485803D01*
X157542159Y-62485795D01*
X157667654Y-62401943D01*
X157667659Y-62401940D01*
X157670105Y-62400306D01*
X157670970Y-62399844D01*
X157673678Y-62398722D01*
X157673688Y-62398717D01*
X157813139Y-62340955D01*
X157813144Y-62340953D01*
X157815859Y-62339829D01*
X157816797Y-62339544D01*
X157819679Y-62338970D01*
X157819688Y-62338968D01*
X157967718Y-62309523D01*
X157967722Y-62309522D01*
X157970611Y-62308948D01*
X157971586Y-62308852D01*
X158128414Y-62308852D01*
X158129389Y-62308948D01*
G37*
G36*
X163806537Y-62325224D02*
G01*
X163871421Y-62368579D01*
X163914776Y-62433463D01*
X163930000Y-62510000D01*
X163930000Y-63710000D01*
X163914776Y-63786537D01*
X163871421Y-63851421D01*
X163806537Y-63894776D01*
X163730000Y-63910000D01*
X162530000Y-63910000D01*
X162453463Y-63894776D01*
X162388579Y-63851421D01*
X162345224Y-63786537D01*
X162330000Y-63710000D01*
X162330000Y-62510000D01*
X162345224Y-62433463D01*
X162388579Y-62368579D01*
X162453463Y-62325224D01*
X162530000Y-62310000D01*
X163730000Y-62310000D01*
X163806537Y-62325224D01*
G37*
G36*
X115102228Y-62344448D02*
G01*
X115247117Y-62404463D01*
X115377515Y-62491592D01*
X115488408Y-62602485D01*
X115575537Y-62732883D01*
X115635552Y-62877772D01*
X115666148Y-63031586D01*
X115666148Y-63188414D01*
X115635552Y-63342228D01*
X115575537Y-63487117D01*
X115488408Y-63617515D01*
X115377515Y-63728408D01*
X115247117Y-63815537D01*
X115102228Y-63875552D01*
X114948414Y-63906148D01*
X114791586Y-63906148D01*
X114637772Y-63875552D01*
X114492883Y-63815537D01*
X114362485Y-63728408D01*
X114251592Y-63617515D01*
X114164463Y-63487117D01*
X114104448Y-63342228D01*
X114073852Y-63188414D01*
X114073852Y-63031586D01*
X114104448Y-62877772D01*
X114164463Y-62732883D01*
X114251592Y-62602485D01*
X114362485Y-62491592D01*
X114492883Y-62404463D01*
X114637772Y-62344448D01*
X114791586Y-62313852D01*
X114948414Y-62313852D01*
X115102228Y-62344448D01*
G37*
G36*
X117642228Y-62344448D02*
G01*
X117787117Y-62404463D01*
X117917515Y-62491592D01*
X118028408Y-62602485D01*
X118115537Y-62732883D01*
X118175552Y-62877772D01*
X118206148Y-63031586D01*
X118206148Y-63188414D01*
X118175552Y-63342228D01*
X118115537Y-63487117D01*
X118028408Y-63617515D01*
X117917515Y-63728408D01*
X117787117Y-63815537D01*
X117642228Y-63875552D01*
X117488414Y-63906148D01*
X117331586Y-63906148D01*
X117177772Y-63875552D01*
X117032883Y-63815537D01*
X116902485Y-63728408D01*
X116791592Y-63617515D01*
X116704463Y-63487117D01*
X116644448Y-63342228D01*
X116613852Y-63188414D01*
X116613852Y-63031586D01*
X116644448Y-62877772D01*
X116704463Y-62732883D01*
X116791592Y-62602485D01*
X116902485Y-62491592D01*
X117032883Y-62404463D01*
X117177772Y-62344448D01*
X117331586Y-62313852D01*
X117488414Y-62313852D01*
X117642228Y-62344448D01*
G37*
G36*
X122722228Y-62344448D02*
G01*
X122867117Y-62404463D01*
X122997515Y-62491592D01*
X123108408Y-62602485D01*
X123195537Y-62732883D01*
X123255552Y-62877772D01*
X123286148Y-63031586D01*
X123286148Y-63188414D01*
X123255552Y-63342228D01*
X123195537Y-63487117D01*
X123108408Y-63617515D01*
X122997515Y-63728408D01*
X122867117Y-63815537D01*
X122722228Y-63875552D01*
X122568414Y-63906148D01*
X122411586Y-63906148D01*
X122257772Y-63875552D01*
X122112883Y-63815537D01*
X121982485Y-63728408D01*
X121871592Y-63617515D01*
X121784463Y-63487117D01*
X121724448Y-63342228D01*
X121693852Y-63188414D01*
X121693852Y-63031586D01*
X121724448Y-62877772D01*
X121784463Y-62732883D01*
X121871592Y-62602485D01*
X121982485Y-62491592D01*
X122112883Y-62404463D01*
X122257772Y-62344448D01*
X122411586Y-62313852D01*
X122568414Y-62313852D01*
X122722228Y-62344448D01*
G37*
G36*
X125262228Y-62344448D02*
G01*
X125407117Y-62404463D01*
X125537515Y-62491592D01*
X125648408Y-62602485D01*
X125735537Y-62732883D01*
X125795552Y-62877772D01*
X125826148Y-63031586D01*
X125826148Y-63188414D01*
X125795552Y-63342228D01*
X125735537Y-63487117D01*
X125648408Y-63617515D01*
X125537515Y-63728408D01*
X125407117Y-63815537D01*
X125262228Y-63875552D01*
X125108414Y-63906148D01*
X124951586Y-63906148D01*
X124797772Y-63875552D01*
X124652883Y-63815537D01*
X124522485Y-63728408D01*
X124411592Y-63617515D01*
X124324463Y-63487117D01*
X124264448Y-63342228D01*
X124233852Y-63188414D01*
X124233852Y-63031586D01*
X124264448Y-62877772D01*
X124324463Y-62732883D01*
X124411592Y-62602485D01*
X124522485Y-62491592D01*
X124652883Y-62404463D01*
X124797772Y-62344448D01*
X124951586Y-62313852D01*
X125108414Y-62313852D01*
X125262228Y-62344448D01*
G37*
G36*
X127802228Y-62344448D02*
G01*
X127947117Y-62404463D01*
X128077515Y-62491592D01*
X128188408Y-62602485D01*
X128275537Y-62732883D01*
X128335552Y-62877772D01*
X128366148Y-63031586D01*
X128366148Y-63188414D01*
X128335552Y-63342228D01*
X128275537Y-63487117D01*
X128188408Y-63617515D01*
X128077515Y-63728408D01*
X127947117Y-63815537D01*
X127802228Y-63875552D01*
X127648414Y-63906148D01*
X127491586Y-63906148D01*
X127337772Y-63875552D01*
X127192883Y-63815537D01*
X127062485Y-63728408D01*
X126951592Y-63617515D01*
X126864463Y-63487117D01*
X126804448Y-63342228D01*
X126773852Y-63188414D01*
X126773852Y-63031586D01*
X126804448Y-62877772D01*
X126864463Y-62732883D01*
X126951592Y-62602485D01*
X127062485Y-62491592D01*
X127192883Y-62404463D01*
X127337772Y-62344448D01*
X127491586Y-62313852D01*
X127648414Y-62313852D01*
X127802228Y-62344448D01*
G37*
G36*
X130342228Y-62344448D02*
G01*
X130487117Y-62404463D01*
X130617515Y-62491592D01*
X130728408Y-62602485D01*
X130815537Y-62732883D01*
X130875552Y-62877772D01*
X130906148Y-63031586D01*
X130906148Y-63188414D01*
X130875552Y-63342228D01*
X130815537Y-63487117D01*
X130728408Y-63617515D01*
X130617515Y-63728408D01*
X130487117Y-63815537D01*
X130342228Y-63875552D01*
X130188414Y-63906148D01*
X130031586Y-63906148D01*
X129877772Y-63875552D01*
X129732883Y-63815537D01*
X129602485Y-63728408D01*
X129491592Y-63617515D01*
X129404463Y-63487117D01*
X129344448Y-63342228D01*
X129313852Y-63188414D01*
X129313852Y-63031586D01*
X129344448Y-62877772D01*
X129404463Y-62732883D01*
X129491592Y-62602485D01*
X129602485Y-62491592D01*
X129732883Y-62404463D01*
X129877772Y-62344448D01*
X130031586Y-62313852D01*
X130188414Y-62313852D01*
X130342228Y-62344448D01*
G37*
G36*
X135422228Y-62344448D02*
G01*
X135567117Y-62404463D01*
X135697515Y-62491592D01*
X135808408Y-62602485D01*
X135895537Y-62732883D01*
X135955552Y-62877772D01*
X135986148Y-63031586D01*
X135986148Y-63188414D01*
X135955552Y-63342228D01*
X135895537Y-63487117D01*
X135808408Y-63617515D01*
X135697515Y-63728408D01*
X135567117Y-63815537D01*
X135422228Y-63875552D01*
X135268414Y-63906148D01*
X135111586Y-63906148D01*
X134957772Y-63875552D01*
X134812883Y-63815537D01*
X134682485Y-63728408D01*
X134571592Y-63617515D01*
X134484463Y-63487117D01*
X134424448Y-63342228D01*
X134393852Y-63188414D01*
X134393852Y-63031586D01*
X134424448Y-62877772D01*
X134484463Y-62732883D01*
X134571592Y-62602485D01*
X134682485Y-62491592D01*
X134812883Y-62404463D01*
X134957772Y-62344448D01*
X135111586Y-62313852D01*
X135268414Y-62313852D01*
X135422228Y-62344448D01*
G37*
G36*
X137962228Y-62344448D02*
G01*
X138107117Y-62404463D01*
X138237515Y-62491592D01*
X138348408Y-62602485D01*
X138435537Y-62732883D01*
X138495552Y-62877772D01*
X138526148Y-63031586D01*
X138526148Y-63188414D01*
X138495552Y-63342228D01*
X138435537Y-63487117D01*
X138348408Y-63617515D01*
X138237515Y-63728408D01*
X138107117Y-63815537D01*
X137962228Y-63875552D01*
X137808414Y-63906148D01*
X137651586Y-63906148D01*
X137497772Y-63875552D01*
X137352883Y-63815537D01*
X137222485Y-63728408D01*
X137111592Y-63617515D01*
X137024463Y-63487117D01*
X136964448Y-63342228D01*
X136933852Y-63188414D01*
X136933852Y-63031586D01*
X136964448Y-62877772D01*
X137024463Y-62732883D01*
X137111592Y-62602485D01*
X137222485Y-62491592D01*
X137352883Y-62404463D01*
X137497772Y-62344448D01*
X137651586Y-62313852D01*
X137808414Y-62313852D01*
X137962228Y-62344448D01*
G37*
G36*
X140502228Y-62344448D02*
G01*
X140647117Y-62404463D01*
X140777515Y-62491592D01*
X140888408Y-62602485D01*
X140975537Y-62732883D01*
X141035552Y-62877772D01*
X141066148Y-63031586D01*
X141066148Y-63188414D01*
X141035552Y-63342228D01*
X140975537Y-63487117D01*
X140888408Y-63617515D01*
X140777515Y-63728408D01*
X140647117Y-63815537D01*
X140502228Y-63875552D01*
X140348414Y-63906148D01*
X140191586Y-63906148D01*
X140037772Y-63875552D01*
X139892883Y-63815537D01*
X139762485Y-63728408D01*
X139651592Y-63617515D01*
X139564463Y-63487117D01*
X139504448Y-63342228D01*
X139473852Y-63188414D01*
X139473852Y-63031586D01*
X139504448Y-62877772D01*
X139564463Y-62732883D01*
X139651592Y-62602485D01*
X139762485Y-62491592D01*
X139892883Y-62404463D01*
X140037772Y-62344448D01*
X140191586Y-62313852D01*
X140348414Y-62313852D01*
X140502228Y-62344448D01*
G37*
G36*
X143042228Y-62344448D02*
G01*
X143187117Y-62404463D01*
X143317515Y-62491592D01*
X143428408Y-62602485D01*
X143515537Y-62732883D01*
X143575552Y-62877772D01*
X143606148Y-63031586D01*
X143606148Y-63188414D01*
X143575552Y-63342228D01*
X143515537Y-63487117D01*
X143428408Y-63617515D01*
X143317515Y-63728408D01*
X143187117Y-63815537D01*
X143042228Y-63875552D01*
X142888414Y-63906148D01*
X142731586Y-63906148D01*
X142577772Y-63875552D01*
X142432883Y-63815537D01*
X142302485Y-63728408D01*
X142191592Y-63617515D01*
X142104463Y-63487117D01*
X142044448Y-63342228D01*
X142013852Y-63188414D01*
X142013852Y-63031586D01*
X142044448Y-62877772D01*
X142104463Y-62732883D01*
X142191592Y-62602485D01*
X142302485Y-62491592D01*
X142432883Y-62404463D01*
X142577772Y-62344448D01*
X142731586Y-62313852D01*
X142888414Y-62313852D01*
X143042228Y-62344448D01*
G37*
G36*
X148122228Y-62344448D02*
G01*
X148267117Y-62404463D01*
X148397515Y-62491592D01*
X148508408Y-62602485D01*
X148595537Y-62732883D01*
X148655552Y-62877772D01*
X148686148Y-63031586D01*
X148686148Y-63188414D01*
X148655552Y-63342228D01*
X148595537Y-63487117D01*
X148508408Y-63617515D01*
X148397515Y-63728408D01*
X148267117Y-63815537D01*
X148122228Y-63875552D01*
X147968414Y-63906148D01*
X147811586Y-63906148D01*
X147657772Y-63875552D01*
X147512883Y-63815537D01*
X147382485Y-63728408D01*
X147271592Y-63617515D01*
X147184463Y-63487117D01*
X147124448Y-63342228D01*
X147093852Y-63188414D01*
X147093852Y-63031586D01*
X147124448Y-62877772D01*
X147184463Y-62732883D01*
X147271592Y-62602485D01*
X147382485Y-62491592D01*
X147512883Y-62404463D01*
X147657772Y-62344448D01*
X147811586Y-62313852D01*
X147968414Y-62313852D01*
X148122228Y-62344448D01*
G37*
G36*
X150662228Y-62344448D02*
G01*
X150807117Y-62404463D01*
X150937515Y-62491592D01*
X151048408Y-62602485D01*
X151135537Y-62732883D01*
X151195552Y-62877772D01*
X151226148Y-63031586D01*
X151226148Y-63188414D01*
X151195552Y-63342228D01*
X151135537Y-63487117D01*
X151048408Y-63617515D01*
X150937515Y-63728408D01*
X150807117Y-63815537D01*
X150662228Y-63875552D01*
X150508414Y-63906148D01*
X150351586Y-63906148D01*
X150197772Y-63875552D01*
X150052883Y-63815537D01*
X149922485Y-63728408D01*
X149811592Y-63617515D01*
X149724463Y-63487117D01*
X149664448Y-63342228D01*
X149633852Y-63188414D01*
X149633852Y-63031586D01*
X149664448Y-62877772D01*
X149724463Y-62732883D01*
X149811592Y-62602485D01*
X149922485Y-62491592D01*
X150052883Y-62404463D01*
X150197772Y-62344448D01*
X150351586Y-62313852D01*
X150508414Y-62313852D01*
X150662228Y-62344448D01*
G37*
G36*
X153202228Y-62344448D02*
G01*
X153347117Y-62404463D01*
X153477515Y-62491592D01*
X153588408Y-62602485D01*
X153675537Y-62732883D01*
X153735552Y-62877772D01*
X153766148Y-63031586D01*
X153766148Y-63188414D01*
X153735552Y-63342228D01*
X153675537Y-63487117D01*
X153588408Y-63617515D01*
X153477515Y-63728408D01*
X153347117Y-63815537D01*
X153202228Y-63875552D01*
X153048414Y-63906148D01*
X152891586Y-63906148D01*
X152737772Y-63875552D01*
X152592883Y-63815537D01*
X152462485Y-63728408D01*
X152351592Y-63617515D01*
X152264463Y-63487117D01*
X152204448Y-63342228D01*
X152173852Y-63188414D01*
X152173852Y-63031586D01*
X152204448Y-62877772D01*
X152264463Y-62732883D01*
X152351592Y-62602485D01*
X152462485Y-62491592D01*
X152592883Y-62404463D01*
X152737772Y-62344448D01*
X152891586Y-62313852D01*
X153048414Y-62313852D01*
X153202228Y-62344448D01*
G37*
G36*
X155742228Y-62344448D02*
G01*
X155887117Y-62404463D01*
X156017515Y-62491592D01*
X156128408Y-62602485D01*
X156215537Y-62732883D01*
X156275552Y-62877772D01*
X156306148Y-63031586D01*
X156306148Y-63188414D01*
X156275552Y-63342228D01*
X156215537Y-63487117D01*
X156128408Y-63617515D01*
X156017515Y-63728408D01*
X155887117Y-63815537D01*
X155742228Y-63875552D01*
X155588414Y-63906148D01*
X155431586Y-63906148D01*
X155277772Y-63875552D01*
X155132883Y-63815537D01*
X155002485Y-63728408D01*
X154891592Y-63617515D01*
X154804463Y-63487117D01*
X154744448Y-63342228D01*
X154713852Y-63188414D01*
X154713852Y-63031586D01*
X154744448Y-62877772D01*
X154804463Y-62732883D01*
X154891592Y-62602485D01*
X155002485Y-62491592D01*
X155132883Y-62404463D01*
X155277772Y-62344448D01*
X155431586Y-62313852D01*
X155588414Y-62313852D01*
X155742228Y-62344448D01*
G37*
G36*
X160822228Y-62344448D02*
G01*
X160967117Y-62404463D01*
X161097515Y-62491592D01*
X161208408Y-62602485D01*
X161295537Y-62732883D01*
X161355552Y-62877772D01*
X161386148Y-63031586D01*
X161386148Y-63188414D01*
X161355552Y-63342228D01*
X161295537Y-63487117D01*
X161208408Y-63617515D01*
X161097515Y-63728408D01*
X160967117Y-63815537D01*
X160822228Y-63875552D01*
X160668414Y-63906148D01*
X160511586Y-63906148D01*
X160357772Y-63875552D01*
X160212883Y-63815537D01*
X160082485Y-63728408D01*
X159971592Y-63617515D01*
X159884463Y-63487117D01*
X159824448Y-63342228D01*
X159793852Y-63188414D01*
X159793852Y-63031586D01*
X159824448Y-62877772D01*
X159884463Y-62732883D01*
X159971592Y-62602485D01*
X160082485Y-62491592D01*
X160212883Y-62404463D01*
X160357772Y-62344448D01*
X160511586Y-62313852D01*
X160668414Y-62313852D01*
X160822228Y-62344448D01*
G37*
G36*
X133632228Y-58234448D02*
G01*
X133777117Y-58294463D01*
X133907515Y-58381592D01*
X134018408Y-58492485D01*
X134105537Y-58622883D01*
X134165552Y-58767772D01*
X134196148Y-58921586D01*
X134196148Y-59078414D01*
X134165552Y-59232228D01*
X134105537Y-59377117D01*
X134018408Y-59507515D01*
X133907515Y-59618408D01*
X133777117Y-59705537D01*
X133632228Y-59765552D01*
X133478414Y-59796148D01*
X133321586Y-59796148D01*
X133167772Y-59765552D01*
X133022883Y-59705537D01*
X132892485Y-59618408D01*
X132781592Y-59507515D01*
X132694463Y-59377117D01*
X132634448Y-59232228D01*
X132603852Y-59078414D01*
X132603852Y-58921586D01*
X132634448Y-58767772D01*
X132694463Y-58622883D01*
X132781592Y-58492485D01*
X132892485Y-58381592D01*
X133022883Y-58294463D01*
X133167772Y-58234448D01*
X133321586Y-58203852D01*
X133478414Y-58203852D01*
X133632228Y-58234448D01*
G37*
G36*
X136732228Y-58234448D02*
G01*
X136877117Y-58294463D01*
X137007515Y-58381592D01*
X137118408Y-58492485D01*
X137205537Y-58622883D01*
X137265552Y-58767772D01*
X137296148Y-58921586D01*
X137296148Y-59078414D01*
X137265552Y-59232228D01*
X137205537Y-59377117D01*
X137118408Y-59507515D01*
X137007515Y-59618408D01*
X136877117Y-59705537D01*
X136732228Y-59765552D01*
X136578414Y-59796148D01*
X136421586Y-59796148D01*
X136267772Y-59765552D01*
X136122883Y-59705537D01*
X135992485Y-59618408D01*
X135881592Y-59507515D01*
X135794463Y-59377117D01*
X135734448Y-59232228D01*
X135703852Y-59078414D01*
X135703852Y-58921586D01*
X135734448Y-58767772D01*
X135794463Y-58622883D01*
X135881592Y-58492485D01*
X135992485Y-58381592D01*
X136122883Y-58294463D01*
X136267772Y-58234448D01*
X136421586Y-58203852D01*
X136578414Y-58203852D01*
X136732228Y-58234448D01*
G37*
G36*
X163980000Y-56340000D02*
G01*
X162280000Y-56340000D01*
X162280000Y-54640000D01*
X163980000Y-54640000D01*
X163980000Y-56340000D01*
G37*
G36*
X140516742Y-54676601D02*
G01*
X140670687Y-54740367D01*
X140809234Y-54832941D01*
X140927059Y-54950766D01*
X141019633Y-55089313D01*
X141083399Y-55243258D01*
X141115907Y-55406685D01*
X141115907Y-55573315D01*
X141083399Y-55736742D01*
X141019633Y-55890687D01*
X140927059Y-56029234D01*
X140809234Y-56147059D01*
X140670687Y-56239633D01*
X140516742Y-56303399D01*
X140353315Y-56335907D01*
X140186685Y-56335907D01*
X140023258Y-56303399D01*
X139869313Y-56239633D01*
X139730766Y-56147059D01*
X139612941Y-56029234D01*
X139520367Y-55890687D01*
X139456601Y-55736742D01*
X139424093Y-55573315D01*
X139424093Y-55406685D01*
X139456601Y-55243258D01*
X139520367Y-55089313D01*
X139612941Y-54950766D01*
X139730766Y-54832941D01*
X139869313Y-54740367D01*
X140023258Y-54676601D01*
X140186685Y-54644093D01*
X140353315Y-54644093D01*
X140516742Y-54676601D01*
G37*
G36*
X143056742Y-54676601D02*
G01*
X143210687Y-54740367D01*
X143349234Y-54832941D01*
X143467059Y-54950766D01*
X143559633Y-55089313D01*
X143623399Y-55243258D01*
X143655907Y-55406685D01*
X143655907Y-55573315D01*
X143623399Y-55736742D01*
X143559633Y-55890687D01*
X143467059Y-56029234D01*
X143349234Y-56147059D01*
X143210687Y-56239633D01*
X143056742Y-56303399D01*
X142893315Y-56335907D01*
X142726685Y-56335907D01*
X142563258Y-56303399D01*
X142409313Y-56239633D01*
X142270766Y-56147059D01*
X142152941Y-56029234D01*
X142060367Y-55890687D01*
X141996601Y-55736742D01*
X141964093Y-55573315D01*
X141964093Y-55406685D01*
X141996601Y-55243258D01*
X142060367Y-55089313D01*
X142152941Y-54950766D01*
X142270766Y-54832941D01*
X142409313Y-54740367D01*
X142563258Y-54676601D01*
X142726685Y-54644093D01*
X142893315Y-54644093D01*
X143056742Y-54676601D01*
G37*
G36*
X145596742Y-54676601D02*
G01*
X145750687Y-54740367D01*
X145889234Y-54832941D01*
X146007059Y-54950766D01*
X146099633Y-55089313D01*
X146163399Y-55243258D01*
X146195907Y-55406685D01*
X146195907Y-55573315D01*
X146163399Y-55736742D01*
X146099633Y-55890687D01*
X146007059Y-56029234D01*
X145889234Y-56147059D01*
X145750687Y-56239633D01*
X145596742Y-56303399D01*
X145433315Y-56335907D01*
X145266685Y-56335907D01*
X145103258Y-56303399D01*
X144949313Y-56239633D01*
X144810766Y-56147059D01*
X144692941Y-56029234D01*
X144600367Y-55890687D01*
X144536601Y-55736742D01*
X144504093Y-55573315D01*
X144504093Y-55406685D01*
X144536601Y-55243258D01*
X144600367Y-55089313D01*
X144692941Y-54950766D01*
X144810766Y-54832941D01*
X144949313Y-54740367D01*
X145103258Y-54676601D01*
X145266685Y-54644093D01*
X145433315Y-54644093D01*
X145596742Y-54676601D01*
G37*
G36*
X148136742Y-54676601D02*
G01*
X148290687Y-54740367D01*
X148429234Y-54832941D01*
X148547059Y-54950766D01*
X148639633Y-55089313D01*
X148703399Y-55243258D01*
X148735907Y-55406685D01*
X148735907Y-55573315D01*
X148703399Y-55736742D01*
X148639633Y-55890687D01*
X148547059Y-56029234D01*
X148429234Y-56147059D01*
X148290687Y-56239633D01*
X148136742Y-56303399D01*
X147973315Y-56335907D01*
X147806685Y-56335907D01*
X147643258Y-56303399D01*
X147489313Y-56239633D01*
X147350766Y-56147059D01*
X147232941Y-56029234D01*
X147140367Y-55890687D01*
X147076601Y-55736742D01*
X147044093Y-55573315D01*
X147044093Y-55406685D01*
X147076601Y-55243258D01*
X147140367Y-55089313D01*
X147232941Y-54950766D01*
X147350766Y-54832941D01*
X147489313Y-54740367D01*
X147643258Y-54676601D01*
X147806685Y-54644093D01*
X147973315Y-54644093D01*
X148136742Y-54676601D01*
G37*
G36*
X150676742Y-54676601D02*
G01*
X150830687Y-54740367D01*
X150969234Y-54832941D01*
X151087059Y-54950766D01*
X151179633Y-55089313D01*
X151243399Y-55243258D01*
X151275907Y-55406685D01*
X151275907Y-55573315D01*
X151243399Y-55736742D01*
X151179633Y-55890687D01*
X151087059Y-56029234D01*
X150969234Y-56147059D01*
X150830687Y-56239633D01*
X150676742Y-56303399D01*
X150513315Y-56335907D01*
X150346685Y-56335907D01*
X150183258Y-56303399D01*
X150029313Y-56239633D01*
X149890766Y-56147059D01*
X149772941Y-56029234D01*
X149680367Y-55890687D01*
X149616601Y-55736742D01*
X149584093Y-55573315D01*
X149584093Y-55406685D01*
X149616601Y-55243258D01*
X149680367Y-55089313D01*
X149772941Y-54950766D01*
X149890766Y-54832941D01*
X150029313Y-54740367D01*
X150183258Y-54676601D01*
X150346685Y-54644093D01*
X150513315Y-54644093D01*
X150676742Y-54676601D01*
G37*
G36*
X153216742Y-54676601D02*
G01*
X153370687Y-54740367D01*
X153509234Y-54832941D01*
X153627059Y-54950766D01*
X153719633Y-55089313D01*
X153783399Y-55243258D01*
X153815907Y-55406685D01*
X153815907Y-55573315D01*
X153783399Y-55736742D01*
X153719633Y-55890687D01*
X153627059Y-56029234D01*
X153509234Y-56147059D01*
X153370687Y-56239633D01*
X153216742Y-56303399D01*
X153053315Y-56335907D01*
X152886685Y-56335907D01*
X152723258Y-56303399D01*
X152569313Y-56239633D01*
X152430766Y-56147059D01*
X152312941Y-56029234D01*
X152220367Y-55890687D01*
X152156601Y-55736742D01*
X152124093Y-55573315D01*
X152124093Y-55406685D01*
X152156601Y-55243258D01*
X152220367Y-55089313D01*
X152312941Y-54950766D01*
X152430766Y-54832941D01*
X152569313Y-54740367D01*
X152723258Y-54676601D01*
X152886685Y-54644093D01*
X153053315Y-54644093D01*
X153216742Y-54676601D01*
G37*
G36*
X155756742Y-54676601D02*
G01*
X155910687Y-54740367D01*
X156049234Y-54832941D01*
X156167059Y-54950766D01*
X156259633Y-55089313D01*
X156323399Y-55243258D01*
X156355907Y-55406685D01*
X156355907Y-55573315D01*
X156323399Y-55736742D01*
X156259633Y-55890687D01*
X156167059Y-56029234D01*
X156049234Y-56147059D01*
X155910687Y-56239633D01*
X155756742Y-56303399D01*
X155593315Y-56335907D01*
X155426685Y-56335907D01*
X155263258Y-56303399D01*
X155109313Y-56239633D01*
X154970766Y-56147059D01*
X154852941Y-56029234D01*
X154760367Y-55890687D01*
X154696601Y-55736742D01*
X154664093Y-55573315D01*
X154664093Y-55406685D01*
X154696601Y-55243258D01*
X154760367Y-55089313D01*
X154852941Y-54950766D01*
X154970766Y-54832941D01*
X155109313Y-54740367D01*
X155263258Y-54676601D01*
X155426685Y-54644093D01*
X155593315Y-54644093D01*
X155756742Y-54676601D01*
G37*
G36*
X158296742Y-54676601D02*
G01*
X158450687Y-54740367D01*
X158589234Y-54832941D01*
X158707059Y-54950766D01*
X158799633Y-55089313D01*
X158863399Y-55243258D01*
X158895907Y-55406685D01*
X158895907Y-55573315D01*
X158863399Y-55736742D01*
X158799633Y-55890687D01*
X158707059Y-56029234D01*
X158589234Y-56147059D01*
X158450687Y-56239633D01*
X158296742Y-56303399D01*
X158133315Y-56335907D01*
X157966685Y-56335907D01*
X157803258Y-56303399D01*
X157649313Y-56239633D01*
X157510766Y-56147059D01*
X157392941Y-56029234D01*
X157300367Y-55890687D01*
X157236601Y-55736742D01*
X157204093Y-55573315D01*
X157204093Y-55406685D01*
X157236601Y-55243258D01*
X157300367Y-55089313D01*
X157392941Y-54950766D01*
X157510766Y-54832941D01*
X157649313Y-54740367D01*
X157803258Y-54676601D01*
X157966685Y-54644093D01*
X158133315Y-54644093D01*
X158296742Y-54676601D01*
G37*
G36*
X160836742Y-54676601D02*
G01*
X160990687Y-54740367D01*
X161129234Y-54832941D01*
X161247059Y-54950766D01*
X161339633Y-55089313D01*
X161403399Y-55243258D01*
X161435907Y-55406685D01*
X161435907Y-55573315D01*
X161403399Y-55736742D01*
X161339633Y-55890687D01*
X161247059Y-56029234D01*
X161129234Y-56147059D01*
X160990687Y-56239633D01*
X160836742Y-56303399D01*
X160673315Y-56335907D01*
X160506685Y-56335907D01*
X160343258Y-56303399D01*
X160189313Y-56239633D01*
X160050766Y-56147059D01*
X159932941Y-56029234D01*
X159840367Y-55890687D01*
X159776601Y-55736742D01*
X159744093Y-55573315D01*
X159744093Y-55406685D01*
X159776601Y-55243258D01*
X159840367Y-55089313D01*
X159932941Y-54950766D01*
X160050766Y-54832941D01*
X160189313Y-54740367D01*
X160343258Y-54676601D01*
X160506685Y-54644093D01*
X160673315Y-54644093D01*
X160836742Y-54676601D01*
G37*
G36*
X133632228Y-53234448D02*
G01*
X133777117Y-53294463D01*
X133907515Y-53381592D01*
X134018408Y-53492485D01*
X134105537Y-53622883D01*
X134165552Y-53767772D01*
X134196148Y-53921586D01*
X134196148Y-54078414D01*
X134165552Y-54232228D01*
X134105537Y-54377117D01*
X134018408Y-54507515D01*
X133907515Y-54618408D01*
X133777117Y-54705537D01*
X133632228Y-54765552D01*
X133478414Y-54796148D01*
X133321586Y-54796148D01*
X133167772Y-54765552D01*
X133022883Y-54705537D01*
X132892485Y-54618408D01*
X132781592Y-54507515D01*
X132694463Y-54377117D01*
X132634448Y-54232228D01*
X132603852Y-54078414D01*
X132603852Y-53921586D01*
X132634448Y-53767772D01*
X132694463Y-53622883D01*
X132781592Y-53492485D01*
X132892485Y-53381592D01*
X133022883Y-53294463D01*
X133167772Y-53234448D01*
X133321586Y-53203852D01*
X133478414Y-53203852D01*
X133632228Y-53234448D01*
G37*
G36*
X136732228Y-53234448D02*
G01*
X136877117Y-53294463D01*
X137007515Y-53381592D01*
X137118408Y-53492485D01*
X137205537Y-53622883D01*
X137265552Y-53767772D01*
X137296148Y-53921586D01*
X137296148Y-54078414D01*
X137265552Y-54232228D01*
X137205537Y-54377117D01*
X137118408Y-54507515D01*
X137007515Y-54618408D01*
X136877117Y-54705537D01*
X136732228Y-54765552D01*
X136578414Y-54796148D01*
X136421586Y-54796148D01*
X136267772Y-54765552D01*
X136122883Y-54705537D01*
X135992485Y-54618408D01*
X135881592Y-54507515D01*
X135794463Y-54377117D01*
X135734448Y-54232228D01*
X135703852Y-54078414D01*
X135703852Y-53921586D01*
X135734448Y-53767772D01*
X135794463Y-53622883D01*
X135881592Y-53492485D01*
X135992485Y-53381592D01*
X136122883Y-53294463D01*
X136267772Y-53234448D01*
X136421586Y-53203852D01*
X136578414Y-53203852D01*
X136732228Y-53234448D01*
G37*
G36*
X125890285Y-49743060D02*
G01*
X126071397Y-49818079D01*
X126234393Y-49926990D01*
X126373010Y-50065607D01*
X126481921Y-50228603D01*
X126556940Y-50409715D01*
X126595185Y-50601983D01*
X126595185Y-50798017D01*
X126556940Y-50990285D01*
X126481921Y-51171397D01*
X126373010Y-51334393D01*
X126234393Y-51473010D01*
X126071397Y-51581921D01*
X125890285Y-51656940D01*
X125698017Y-51695185D01*
X125501983Y-51695185D01*
X125309715Y-51656940D01*
X125128603Y-51581921D01*
X124965607Y-51473010D01*
X124826990Y-51334393D01*
X124718079Y-51171397D01*
X124643060Y-50990285D01*
X124604815Y-50798017D01*
X124604815Y-50601983D01*
X124643060Y-50409715D01*
X124718079Y-50228603D01*
X124826990Y-50065607D01*
X124965607Y-49926990D01*
X125128603Y-49818079D01*
X125309715Y-49743060D01*
X125501983Y-49704815D01*
X125698017Y-49704815D01*
X125890285Y-49743060D01*
G37*
G36*
X132390285Y-49743060D02*
G01*
X132571397Y-49818079D01*
X132734393Y-49926990D01*
X132873010Y-50065607D01*
X132981921Y-50228603D01*
X133056940Y-50409715D01*
X133095185Y-50601983D01*
X133095185Y-50798017D01*
X133056940Y-50990285D01*
X132981921Y-51171397D01*
X132873010Y-51334393D01*
X132734393Y-51473010D01*
X132571397Y-51581921D01*
X132390285Y-51656940D01*
X132198017Y-51695185D01*
X132001983Y-51695185D01*
X131809715Y-51656940D01*
X131628603Y-51581921D01*
X131465607Y-51473010D01*
X131326990Y-51334393D01*
X131218079Y-51171397D01*
X131143060Y-50990285D01*
X131104815Y-50798017D01*
X131104815Y-50601983D01*
X131143060Y-50409715D01*
X131218079Y-50228603D01*
X131326990Y-50065607D01*
X131465607Y-49926990D01*
X131628603Y-49818079D01*
X131809715Y-49743060D01*
X132001983Y-49704815D01*
X132198017Y-49704815D01*
X132390285Y-49743060D01*
G37*
G36*
X135440285Y-49743060D02*
G01*
X135621397Y-49818079D01*
X135784393Y-49926990D01*
X135923010Y-50065607D01*
X136031921Y-50228603D01*
X136106940Y-50409715D01*
X136145185Y-50601983D01*
X136145185Y-50798017D01*
X136106940Y-50990285D01*
X136031921Y-51171397D01*
X135923010Y-51334393D01*
X135784393Y-51473010D01*
X135621397Y-51581921D01*
X135440285Y-51656940D01*
X135248017Y-51695185D01*
X135051983Y-51695185D01*
X134859715Y-51656940D01*
X134678603Y-51581921D01*
X134515607Y-51473010D01*
X134376990Y-51334393D01*
X134268079Y-51171397D01*
X134193060Y-50990285D01*
X134154815Y-50798017D01*
X134154815Y-50601983D01*
X134193060Y-50409715D01*
X134268079Y-50228603D01*
X134376990Y-50065607D01*
X134515607Y-49926990D01*
X134678603Y-49818079D01*
X134859715Y-49743060D01*
X135051983Y-49704815D01*
X135248017Y-49704815D01*
X135440285Y-49743060D01*
G37*
G36*
X141940285Y-49743060D02*
G01*
X142121397Y-49818079D01*
X142284393Y-49926990D01*
X142423010Y-50065607D01*
X142531921Y-50228603D01*
X142606940Y-50409715D01*
X142645185Y-50601983D01*
X142645185Y-50798017D01*
X142606940Y-50990285D01*
X142531921Y-51171397D01*
X142423010Y-51334393D01*
X142284393Y-51473010D01*
X142121397Y-51581921D01*
X141940285Y-51656940D01*
X141748017Y-51695185D01*
X141551983Y-51695185D01*
X141359715Y-51656940D01*
X141178603Y-51581921D01*
X141015607Y-51473010D01*
X140876990Y-51334393D01*
X140768079Y-51171397D01*
X140693060Y-50990285D01*
X140654815Y-50798017D01*
X140654815Y-50601983D01*
X140693060Y-50409715D01*
X140768079Y-50228603D01*
X140876990Y-50065607D01*
X141015607Y-49926990D01*
X141178603Y-49818079D01*
X141359715Y-49743060D01*
X141551983Y-49704815D01*
X141748017Y-49704815D01*
X141940285Y-49743060D01*
G37*
G36*
X144732228Y-48634448D02*
G01*
X144877117Y-48694463D01*
X145007515Y-48781592D01*
X145118408Y-48892485D01*
X145205537Y-49022883D01*
X145265552Y-49167772D01*
X145296148Y-49321586D01*
X145296148Y-49478414D01*
X145265552Y-49632228D01*
X145205537Y-49777117D01*
X145118408Y-49907515D01*
X145007515Y-50018408D01*
X144877117Y-50105537D01*
X144732228Y-50165552D01*
X144578414Y-50196148D01*
X144421586Y-50196148D01*
X144267772Y-50165552D01*
X144122883Y-50105537D01*
X143992485Y-50018408D01*
X143881592Y-49907515D01*
X143794463Y-49777117D01*
X143734448Y-49632228D01*
X143703852Y-49478414D01*
X143703852Y-49321586D01*
X143734448Y-49167772D01*
X143794463Y-49022883D01*
X143881592Y-48892485D01*
X143992485Y-48781592D01*
X144122883Y-48694463D01*
X144267772Y-48634448D01*
X144421586Y-48603852D01*
X144578414Y-48603852D01*
X144732228Y-48634448D01*
G37*
G36*
X152352228Y-48634448D02*
G01*
X152497117Y-48694463D01*
X152627515Y-48781592D01*
X152738408Y-48892485D01*
X152825537Y-49022883D01*
X152885552Y-49167772D01*
X152916148Y-49321586D01*
X152916148Y-49478414D01*
X152885552Y-49632228D01*
X152825537Y-49777117D01*
X152738408Y-49907515D01*
X152627515Y-50018408D01*
X152497117Y-50105537D01*
X152352228Y-50165552D01*
X152198414Y-50196148D01*
X152041586Y-50196148D01*
X151887772Y-50165552D01*
X151742883Y-50105537D01*
X151612485Y-50018408D01*
X151501592Y-49907515D01*
X151414463Y-49777117D01*
X151354448Y-49632228D01*
X151323852Y-49478414D01*
X151323852Y-49321586D01*
X151354448Y-49167772D01*
X151414463Y-49022883D01*
X151501592Y-48892485D01*
X151612485Y-48781592D01*
X151742883Y-48694463D01*
X151887772Y-48634448D01*
X152041586Y-48603852D01*
X152198414Y-48603852D01*
X152352228Y-48634448D01*
G37*
G36*
X103815151Y-46187301D02*
G01*
X104016623Y-46252763D01*
X104205373Y-46348936D01*
X104376755Y-46473452D01*
X104526548Y-46623245D01*
X104651064Y-46794627D01*
X104747237Y-46983377D01*
X104812699Y-47184849D01*
X104845838Y-47394080D01*
X104845838Y-47605920D01*
X104812699Y-47815151D01*
X104747237Y-48016623D01*
X104651064Y-48205373D01*
X104526548Y-48376755D01*
X104376755Y-48526548D01*
X104205373Y-48651064D01*
X104016623Y-48747237D01*
X103815151Y-48812699D01*
X103605920Y-48845838D01*
X103394080Y-48845838D01*
X103184849Y-48812699D01*
X102983377Y-48747237D01*
X102794627Y-48651064D01*
X102623245Y-48526548D01*
X102473452Y-48376755D01*
X102348936Y-48205373D01*
X102252763Y-48016623D01*
X102187301Y-47815151D01*
X102154162Y-47605920D01*
X102154162Y-47394080D01*
X102187301Y-47184849D01*
X102252763Y-46983377D01*
X102348936Y-46794627D01*
X102473452Y-46623245D01*
X102623245Y-46473452D01*
X102794627Y-46348936D01*
X102983377Y-46252763D01*
X103184849Y-46187301D01*
X103394080Y-46154162D01*
X103605920Y-46154162D01*
X103815151Y-46187301D01*
G37*
G36*
X161815151Y-46187301D02*
G01*
X162016623Y-46252763D01*
X162205373Y-46348936D01*
X162376755Y-46473452D01*
X162526548Y-46623245D01*
X162651064Y-46794627D01*
X162747237Y-46983377D01*
X162812699Y-47184849D01*
X162845838Y-47394080D01*
X162845838Y-47605920D01*
X162812699Y-47815151D01*
X162747237Y-48016623D01*
X162651064Y-48205373D01*
X162526548Y-48376755D01*
X162376755Y-48526548D01*
X162205373Y-48651064D01*
X162016623Y-48747237D01*
X161815151Y-48812699D01*
X161605920Y-48845838D01*
X161394080Y-48845838D01*
X161184849Y-48812699D01*
X160983377Y-48747237D01*
X160794627Y-48651064D01*
X160623245Y-48526548D01*
X160473452Y-48376755D01*
X160348936Y-48205373D01*
X160252763Y-48016623D01*
X160187301Y-47815151D01*
X160154162Y-47605920D01*
X160154162Y-47394080D01*
X160187301Y-47184849D01*
X160252763Y-46983377D01*
X160348936Y-46794627D01*
X160473452Y-46623245D01*
X160623245Y-46473452D01*
X160794627Y-46348936D01*
X160983377Y-46252763D01*
X161184849Y-46187301D01*
X161394080Y-46154162D01*
X161605920Y-46154162D01*
X161815151Y-46187301D01*
G37*
G36*
X109850000Y-47390000D02*
G01*
X108150000Y-47390000D01*
X108150000Y-45690000D01*
X109850000Y-45690000D01*
X109850000Y-47390000D01*
G37*
G36*
X111786742Y-45726601D02*
G01*
X111940687Y-45790367D01*
X112079234Y-45882941D01*
X112197059Y-46000766D01*
X112289633Y-46139313D01*
X112353399Y-46293258D01*
X112385907Y-46456685D01*
X112385907Y-46623315D01*
X112353399Y-46786742D01*
X112289633Y-46940687D01*
X112197059Y-47079234D01*
X112079234Y-47197059D01*
X111940687Y-47289633D01*
X111786742Y-47353399D01*
X111623315Y-47385907D01*
X111456685Y-47385907D01*
X111293258Y-47353399D01*
X111139313Y-47289633D01*
X111000766Y-47197059D01*
X110882941Y-47079234D01*
X110790367Y-46940687D01*
X110726601Y-46786742D01*
X110694093Y-46623315D01*
X110694093Y-46456685D01*
X110726601Y-46293258D01*
X110790367Y-46139313D01*
X110882941Y-46000766D01*
X111000766Y-45882941D01*
X111139313Y-45790367D01*
X111293258Y-45726601D01*
X111456685Y-45694093D01*
X111623315Y-45694093D01*
X111786742Y-45726601D01*
G37*
G36*
X114326742Y-45726601D02*
G01*
X114480687Y-45790367D01*
X114619234Y-45882941D01*
X114737059Y-46000766D01*
X114829633Y-46139313D01*
X114893399Y-46293258D01*
X114925907Y-46456685D01*
X114925907Y-46623315D01*
X114893399Y-46786742D01*
X114829633Y-46940687D01*
X114737059Y-47079234D01*
X114619234Y-47197059D01*
X114480687Y-47289633D01*
X114326742Y-47353399D01*
X114163315Y-47385907D01*
X113996685Y-47385907D01*
X113833258Y-47353399D01*
X113679313Y-47289633D01*
X113540766Y-47197059D01*
X113422941Y-47079234D01*
X113330367Y-46940687D01*
X113266601Y-46786742D01*
X113234093Y-46623315D01*
X113234093Y-46456685D01*
X113266601Y-46293258D01*
X113330367Y-46139313D01*
X113422941Y-46000766D01*
X113540766Y-45882941D01*
X113679313Y-45790367D01*
X113833258Y-45726601D01*
X113996685Y-45694093D01*
X114163315Y-45694093D01*
X114326742Y-45726601D01*
G37*
G36*
X116866742Y-45726601D02*
G01*
X117020687Y-45790367D01*
X117159234Y-45882941D01*
X117277059Y-46000766D01*
X117369633Y-46139313D01*
X117433399Y-46293258D01*
X117465907Y-46456685D01*
X117465907Y-46623315D01*
X117433399Y-46786742D01*
X117369633Y-46940687D01*
X117277059Y-47079234D01*
X117159234Y-47197059D01*
X117020687Y-47289633D01*
X116866742Y-47353399D01*
X116703315Y-47385907D01*
X116536685Y-47385907D01*
X116373258Y-47353399D01*
X116219313Y-47289633D01*
X116080766Y-47197059D01*
X115962941Y-47079234D01*
X115870367Y-46940687D01*
X115806601Y-46786742D01*
X115774093Y-46623315D01*
X115774093Y-46456685D01*
X115806601Y-46293258D01*
X115870367Y-46139313D01*
X115962941Y-46000766D01*
X116080766Y-45882941D01*
X116219313Y-45790367D01*
X116373258Y-45726601D01*
X116536685Y-45694093D01*
X116703315Y-45694093D01*
X116866742Y-45726601D01*
G37*
G36*
X119406742Y-45726601D02*
G01*
X119560687Y-45790367D01*
X119699234Y-45882941D01*
X119817059Y-46000766D01*
X119909633Y-46139313D01*
X119973399Y-46293258D01*
X120005907Y-46456685D01*
X120005907Y-46623315D01*
X119973399Y-46786742D01*
X119909633Y-46940687D01*
X119817059Y-47079234D01*
X119699234Y-47197059D01*
X119560687Y-47289633D01*
X119406742Y-47353399D01*
X119243315Y-47385907D01*
X119076685Y-47385907D01*
X118913258Y-47353399D01*
X118759313Y-47289633D01*
X118620766Y-47197059D01*
X118502941Y-47079234D01*
X118410367Y-46940687D01*
X118346601Y-46786742D01*
X118314093Y-46623315D01*
X118314093Y-46456685D01*
X118346601Y-46293258D01*
X118410367Y-46139313D01*
X118502941Y-46000766D01*
X118620766Y-45882941D01*
X118759313Y-45790367D01*
X118913258Y-45726601D01*
X119076685Y-45694093D01*
X119243315Y-45694093D01*
X119406742Y-45726601D01*
G37*
G36*
X121946742Y-45726601D02*
G01*
X122100687Y-45790367D01*
X122239234Y-45882941D01*
X122357059Y-46000766D01*
X122449633Y-46139313D01*
X122513399Y-46293258D01*
X122545907Y-46456685D01*
X122545907Y-46623315D01*
X122513399Y-46786742D01*
X122449633Y-46940687D01*
X122357059Y-47079234D01*
X122239234Y-47197059D01*
X122100687Y-47289633D01*
X121946742Y-47353399D01*
X121783315Y-47385907D01*
X121616685Y-47385907D01*
X121453258Y-47353399D01*
X121299313Y-47289633D01*
X121160766Y-47197059D01*
X121042941Y-47079234D01*
X120950367Y-46940687D01*
X120886601Y-46786742D01*
X120854093Y-46623315D01*
X120854093Y-46456685D01*
X120886601Y-46293258D01*
X120950367Y-46139313D01*
X121042941Y-46000766D01*
X121160766Y-45882941D01*
X121299313Y-45790367D01*
X121453258Y-45726601D01*
X121616685Y-45694093D01*
X121783315Y-45694093D01*
X121946742Y-45726601D01*
G37*
G36*
X125890285Y-45243060D02*
G01*
X126071397Y-45318079D01*
X126234393Y-45426990D01*
X126373010Y-45565607D01*
X126481921Y-45728603D01*
X126556940Y-45909715D01*
X126595185Y-46101983D01*
X126595185Y-46298017D01*
X126556940Y-46490285D01*
X126481921Y-46671397D01*
X126373010Y-46834393D01*
X126234393Y-46973010D01*
X126071397Y-47081921D01*
X125890285Y-47156940D01*
X125698017Y-47195185D01*
X125501983Y-47195185D01*
X125309715Y-47156940D01*
X125128603Y-47081921D01*
X124965607Y-46973010D01*
X124826990Y-46834393D01*
X124718079Y-46671397D01*
X124643060Y-46490285D01*
X124604815Y-46298017D01*
X124604815Y-46101983D01*
X124643060Y-45909715D01*
X124718079Y-45728603D01*
X124826990Y-45565607D01*
X124965607Y-45426990D01*
X125128603Y-45318079D01*
X125309715Y-45243060D01*
X125501983Y-45204815D01*
X125698017Y-45204815D01*
X125890285Y-45243060D01*
G37*
G36*
X132390285Y-45243060D02*
G01*
X132571397Y-45318079D01*
X132734393Y-45426990D01*
X132873010Y-45565607D01*
X132981921Y-45728603D01*
X133056940Y-45909715D01*
X133095185Y-46101983D01*
X133095185Y-46298017D01*
X133056940Y-46490285D01*
X132981921Y-46671397D01*
X132873010Y-46834393D01*
X132734393Y-46973010D01*
X132571397Y-47081921D01*
X132390285Y-47156940D01*
X132198017Y-47195185D01*
X132001983Y-47195185D01*
X131809715Y-47156940D01*
X131628603Y-47081921D01*
X131465607Y-46973010D01*
X131326990Y-46834393D01*
X131218079Y-46671397D01*
X131143060Y-46490285D01*
X131104815Y-46298017D01*
X131104815Y-46101983D01*
X131143060Y-45909715D01*
X131218079Y-45728603D01*
X131326990Y-45565607D01*
X131465607Y-45426990D01*
X131628603Y-45318079D01*
X131809715Y-45243060D01*
X132001983Y-45204815D01*
X132198017Y-45204815D01*
X132390285Y-45243060D01*
G37*
G36*
X135440285Y-45243060D02*
G01*
X135621397Y-45318079D01*
X135784393Y-45426990D01*
X135923010Y-45565607D01*
X136031921Y-45728603D01*
X136106940Y-45909715D01*
X136145185Y-46101983D01*
X136145185Y-46298017D01*
X136106940Y-46490285D01*
X136031921Y-46671397D01*
X135923010Y-46834393D01*
X135784393Y-46973010D01*
X135621397Y-47081921D01*
X135440285Y-47156940D01*
X135248017Y-47195185D01*
X135051983Y-47195185D01*
X134859715Y-47156940D01*
X134678603Y-47081921D01*
X134515607Y-46973010D01*
X134376990Y-46834393D01*
X134268079Y-46671397D01*
X134193060Y-46490285D01*
X134154815Y-46298017D01*
X134154815Y-46101983D01*
X134193060Y-45909715D01*
X134268079Y-45728603D01*
X134376990Y-45565607D01*
X134515607Y-45426990D01*
X134678603Y-45318079D01*
X134859715Y-45243060D01*
X135051983Y-45204815D01*
X135248017Y-45204815D01*
X135440285Y-45243060D01*
G37*
G36*
X141940285Y-45243060D02*
G01*
X142121397Y-45318079D01*
X142284393Y-45426990D01*
X142423010Y-45565607D01*
X142531921Y-45728603D01*
X142606940Y-45909715D01*
X142645185Y-46101983D01*
X142645185Y-46298017D01*
X142606940Y-46490285D01*
X142531921Y-46671397D01*
X142423010Y-46834393D01*
X142284393Y-46973010D01*
X142121397Y-47081921D01*
X141940285Y-47156940D01*
X141748017Y-47195185D01*
X141551983Y-47195185D01*
X141359715Y-47156940D01*
X141178603Y-47081921D01*
X141015607Y-46973010D01*
X140876990Y-46834393D01*
X140768079Y-46671397D01*
X140693060Y-46490285D01*
X140654815Y-46298017D01*
X140654815Y-46101983D01*
X140693060Y-45909715D01*
X140768079Y-45728603D01*
X140876990Y-45565607D01*
X141015607Y-45426990D01*
X141178603Y-45318079D01*
X141359715Y-45243060D01*
X141551983Y-45204815D01*
X141748017Y-45204815D01*
X141940285Y-45243060D01*
G37*
G36*
X144712228Y-45434448D02*
G01*
X144857117Y-45494463D01*
X144987515Y-45581592D01*
X145098408Y-45692485D01*
X145185537Y-45822883D01*
X145245552Y-45967772D01*
X145276148Y-46121586D01*
X145276148Y-46278414D01*
X145245552Y-46432228D01*
X145185537Y-46577117D01*
X145098408Y-46707515D01*
X144987515Y-46818408D01*
X144857117Y-46905537D01*
X144712228Y-46965552D01*
X144558414Y-46996148D01*
X144401586Y-46996148D01*
X144247772Y-46965552D01*
X144102883Y-46905537D01*
X143972485Y-46818408D01*
X143861592Y-46707515D01*
X143774463Y-46577117D01*
X143714448Y-46432228D01*
X143683852Y-46278414D01*
X143683852Y-46121586D01*
X143714448Y-45967772D01*
X143774463Y-45822883D01*
X143861592Y-45692485D01*
X143972485Y-45581592D01*
X144102883Y-45494463D01*
X144247772Y-45434448D01*
X144401586Y-45403852D01*
X144558414Y-45403852D01*
X144712228Y-45434448D01*
G37*
G36*
X152332228Y-45434448D02*
G01*
X152477117Y-45494463D01*
X152607515Y-45581592D01*
X152718408Y-45692485D01*
X152805537Y-45822883D01*
X152865552Y-45967772D01*
X152896148Y-46121586D01*
X152896148Y-46278414D01*
X152865552Y-46432228D01*
X152805537Y-46577117D01*
X152718408Y-46707515D01*
X152607515Y-46818408D01*
X152477117Y-46905537D01*
X152332228Y-46965552D01*
X152178414Y-46996148D01*
X152021586Y-46996148D01*
X151867772Y-46965552D01*
X151722883Y-46905537D01*
X151592485Y-46818408D01*
X151481592Y-46707515D01*
X151394463Y-46577117D01*
X151334448Y-46432228D01*
X151303852Y-46278414D01*
X151303852Y-46121586D01*
X151334448Y-45967772D01*
X151394463Y-45822883D01*
X151481592Y-45692485D01*
X151592485Y-45581592D01*
X151722883Y-45494463D01*
X151867772Y-45434448D01*
X152021586Y-45403852D01*
X152178414Y-45403852D01*
X152332228Y-45434448D01*
G37*
M02*
