M48
; DRILL file {KiCad 9.0.6-9.0.6~ubuntu24.04.1} date 2025-12-22T17:35:13-0600
; FORMAT={-:-/ absolute / metric / decimal}
; #@! TF.CreationDate,2025-12-22T17:35:13-06:00
; #@! TF.GenerationSoftware,Kicad,Pcbnew,9.0.6-9.0.6~ubuntu24.04.1
; #@! TF.FileFunction,Plated,1,4,PTH
FMAT,2
METRIC
; #@! TA.AperFunction,Plated,PTH,ComponentDrill
T1C0.800
; #@! TA.AperFunction,Plated,PTH,ComponentDrill
T2C0.900
; #@! TA.AperFunction,Plated,PTH,ComponentDrill
T3C1.000
; #@! TA.AperFunction,Plated,PTH,ComponentDrill
T4C1.020
; #@! TA.AperFunction,Plated,PTH,ComponentDrill
T5C1.100
%
G90
G05
T1
X91.9Y-85.7
X91.9Y-88.8
X99.52Y-85.7
X99.52Y-88.8
X132.9Y-92.38
X132.9Y-94.92
X132.9Y-97.46
X133.4Y-54.0
X133.4Y-59.0
X136.5Y-54.0
X136.5Y-59.0
X137.19Y-85.3
X137.19Y-88.4
X137.19Y-91.5
X144.48Y-46.2
X144.5Y-49.4
X144.81Y-85.3
X144.81Y-88.4
X144.81Y-91.5
X152.1Y-46.2
X152.12Y-49.4
T2
X138.333Y-96.6
X140.492Y-96.6
X142.651Y-96.6
X144.81Y-96.6
T3
X94.5Y-95.4
X95.81Y-63.11
X95.81Y-65.65
X95.81Y-68.19
X95.81Y-70.73
X95.81Y-73.27
X95.81Y-75.81
X95.81Y-78.35
X95.81Y-80.89
X97.0Y-95.4
X108.51Y-63.11
X108.51Y-65.65
X108.51Y-68.19
X108.51Y-70.73
X108.51Y-73.27
X108.51Y-75.81
X108.51Y-78.35
X108.51Y-80.89
X109.0Y-46.54
X109.0Y-97.46
X111.54Y-46.54
X111.54Y-97.46
X114.08Y-46.54
X114.08Y-97.46
X114.87Y-63.11
X114.87Y-80.89
X116.62Y-46.54
X116.62Y-97.46
X117.41Y-63.11
X117.41Y-80.89
X119.16Y-46.54
X119.16Y-97.46
X119.95Y-63.11
X119.95Y-80.89
X121.7Y-46.54
X121.7Y-97.46
X122.49Y-63.11
X122.49Y-80.89
X125.03Y-63.11
X125.03Y-80.89
X126.78Y-94.92
X126.78Y-97.46
X127.57Y-63.11
X127.57Y-80.89
X129.32Y-94.92
X129.32Y-97.46
X130.11Y-63.11
X130.11Y-80.89
X132.65Y-63.11
X132.65Y-80.89
X135.19Y-63.11
X135.19Y-80.89
X137.73Y-63.11
X137.73Y-80.89
X140.27Y-55.49
X140.27Y-63.11
X140.27Y-80.89
X142.81Y-55.49
X142.81Y-63.11
X142.81Y-80.89
X145.35Y-55.49
X145.35Y-63.11
X145.35Y-80.89
X147.89Y-55.49
X147.89Y-63.11
X147.89Y-80.89
X150.43Y-55.49
X150.43Y-63.11
X150.43Y-80.89
X152.97Y-55.49
X152.97Y-63.11
X152.97Y-80.89
X155.51Y-55.49
X155.51Y-63.11
X155.51Y-80.89
X158.05Y-55.49
X158.05Y-63.11
X158.05Y-80.89
X160.59Y-55.49
X160.59Y-63.11
X160.59Y-80.89
X160.59Y-85.97
X163.13Y-55.49
X163.13Y-63.11
X163.13Y-80.89
X163.13Y-85.97
T4
X91.9Y-68.19
X91.9Y-70.73
X91.9Y-73.27
X91.9Y-75.81
T5
X125.6Y-46.2
X125.6Y-50.7
X132.1Y-46.2
X132.1Y-50.7
X135.15Y-46.2
X135.15Y-50.7
X141.65Y-46.2
X141.65Y-50.7
M30
